<?xml version="1.0" encoding="utf-8"?>
<!-- Generator: Adobe Illustrator 24.0.1, SVG Export Plug-In . SVG Version: 6.00 Build 0)  -->
<svg version="1.1" id="Layer_1" xmlns="http://www.w3.org/2000/svg" xmlns:xlink="http://www.w3.org/1999/xlink" x="0px" y="0px"
	 viewBox="0 0 1920 1080" style="enable-background:new 0 0 1920 1080;" xml:space="preserve">
<style type="text/css">
	.st0{fill:#99BEFF;}
	.st1{fill:#54688B;}
	.st2{fill:#4E556B;}
	.st3{fill:#E3E4FF;}
	.st4{fill:#381A3F;}
	.st5{fill:#84608D;}
	.st6{fill:#6E1D6B;}
	.st7{fill:#D5B3DB;}
	.st8{fill:#F3D7F9;}
	.st9{fill:#E0750A;}
	.st10{fill:#653870;}
	.st11{fill:#93278F;}
	.st12{fill:#464A7F;}
	.st13{fill:#172866;}
	.st14{fill:#6E5175;}
	.st15{fill:#FFF7CF;}
	.st16{fill:#FC7575;}
	.st17{fill:#F7931E;}
	.st18{fill:#E27F1B;}
	.st19{fill:#0C0C0D;}
	.st20{fill:#33405A;}
	.st21{fill:#D24307;}
	.st22{fill:#2F499F;}
	.st23{fill:#FD5E5A;}
	.st24{fill:#5C2C55;}
	.st25{fill:#0F1D5B;}
	.st26{fill:#FF8D8D;}
	.st27{fill:#FBB03B;}
	.st28{fill:#FFE09A;}
	.st29{fill:#6F81A6;}
	.st30{fill:#142040;}
	.st31{fill:#1E3340;}
	.st32{fill:#495B8E;}
	.st33{fill:#495A63;}
	.st34{fill:#2A5780;}
	.st35{fill:#393644;}
	.st36{fill:#6D3A28;}
	.st37{fill:#1D1B22;}
	.st38{fill:#BF2604;}
	.st39{opacity:0.4;fill:#8F1D03;}
	.st40{fill:#4A98DE;}
	.st41{fill:#99CFFF;}
	.st42{opacity:0.42;fill:#9C7692;}
	.st43{fill:#CA4B2F;}
	.st44{fill:#FEC4B7;}
	.st45{fill:#111F59;}
	.st46{fill:#2B3278;}
	.st47{fill:#18287D;}
	.st48{fill:#313451;}
	.st49{fill:#283E6D;}
	.st50{fill:#7397E1;}
	.st51{fill:#53617D;}
	.st52{fill:#8D9BB9;}
	.st53{fill:#A1F3EF;}
	.st54{fill:#C0E6FF;}
	.st55{fill:#FFFFFF;}
	.st56{fill:#FF9797;}
</style>
<g>
	<g>
		<path class="st0" d="M631.33,714.66c8,3.34,26.64,12.14,42.59,19.79c-5.86,0.67-19.95,4.37-24.43-0.11c0,0-9.65,22.67-5.75,32.45
			c3.91,9.77,47.24,14.01,38.77,16.29c-8.47,2.28-41.7-4.76-41.7-4.76s-2.93,23.33,6.19,27.89c9.12,4.56,57.02-2.28,52.46,2.28
			c-4.56,4.56-48.39,9.29-53.44,4.23c0,0-0.98,28.02,14.99,30.95c15.97,2.93,59.66-20.85,55.9-14.34
			c-3.76,6.52-44.17,25.42-56.55,18.25c0,0,11.08,26.72,21.18,26.72c10.1,0,35.01-34.38,40.07-29.32
			c5.05,5.06-21.82,29.65-36.81,32.58c0,0,5.87,15.31,25.09,10.75c19.22-4.56,15.96-34.54,21.83-31.93
			c5.86,2.61,0.33,35.52-19.22,35.52c0,0,31.93,7.49,39.42-9.78c2.11-4.86,3.13-8.83,3.56-12.08c2.92,13.64,4.58,30.1,5.4,46.59
			h3.57c-1.18-20.14-3.76-40.59-8.61-56.91c2.41,1.28,6.59,3.03,11.71,3.46c0.22,19.41,0.44,37.67,0.63,53.45h3.84
			c-0.3-13.99-0.67-31.46-1.11-53.35c1.01-0.04,2.05-0.16,3.1-0.32c1.16,18.75,1.9,36.88,2.4,53.67h5.25
			c-0.76-17.34-1.79-35.93-3.13-54.78c1-0.34,2.01-0.74,3.02-1.22c2.44-1.17,4.48-2.97,6.23-5.14c-0.14,21.78-0.14,42.7-0.07,61.15
			h5.79c-0.14-21.59-0.2-46.53-0.05-72.23c2.95-9.21,3.36-19.52,2.79-24.64c8.99-2.41,20.09-8.93,24.37-11.58
			c-6.85,25.31-15.45,62.91-21.17,108.45h3.94c5.53-43.78,13.72-80.16,20.4-105.18c1.06,2.92,2.78,6.66,5.36,9.23
			c4.79,4.79,14.01-11.54,14.01-19.69c0-8.15-9.92-0.33-9.92-4.89c0-4.56,1.45-2.28,14.15-2.28c12.71,0,17.27-26.07,17.27-26.07
			s-19.22,2.28-19.22-1.3c0-3.58,15.31-1.63,25.09-4.23c9.78-2.61,15.31-23.79,15.31-23.79s-28.02,8.15-28.02,4.56
			c0-3.58,21.67-7.01,25.74-11.08c4.07-4.07,5.54-22.48,5.54-22.48s-18.57,17.27-21.51,17.27s19.71-19.06,17.59-21.18
			c-2.12-2.12-2.93-11.12-2.93-11.12c-4.05,4.05-10.75-1.26-14.99,2.97c-4.23,4.24-11.89,36.66-14.99,39.75
			c-3.09,3.1,8.64-25.9,3.26-31.28c-5.38-5.38-19.94,8.24-22.81,11.12c-2.87,2.87,6.84,34.34,2.93,38.25
			c-3.91,3.91-3.11-27.68-6.22-30.79c-3.11-3.11-11.37,4.89-13.81,14.17s18.82,25.17,12.71,31.28c-6.11,6.11-11.73-17.11-17.1-22.48
			c-3.97-3.97-12.21,3.8-16.24,10.7c0.94-28.12,2.39-53.17,4.57-71.04c4.35,11.74,26.84,25.8,42.64,9.7
			c3.37,2.66,7.53,3.84,12.71,1.98c18.78-6.77,20.51-11.43,16.56-13.29c-3.95-1.85-40.66-22.51-36.17-24.73s37.4,23.58,43.68,20.47
			c6.28-3.11,15.94-15.88,14.81-16.41c-1.13-0.53-46.7-16.98-41.61-19.5c5.08-2.52,40.31,21.77,46.95,11.04
			c6.64-10.73,6.92-17.22,6.3-19.82c-0.62-2.6-40.05-5.5-38.72-8.34c1.33-2.84,38.45,3.03,41.33-3.12c2.88-6.15,3.6-15.03,0.4-16.53
			c-3.2-1.5-22.41,4.21-20.97,1.13c1.44-3.07,20.27-4.05,19.57-6.97c-0.7-2.92-2.74-19.15-1.41-21.99c0,0-13.31-8.83-16.54-13.22
			c-3.22-4.39-6.7-2.85-7.81-0.49c-1.11,2.36-9.87,38.47-10.84,34.41c-0.97-4.06,10.08-36.21,7.82-37.27
			c-2.26-1.06-13.92-9.98-17.52-4.75c-3.6,5.23-4.88,53.06-8.97,53.45c-4.09,0.39,5.8-55.51,5.8-55.51s-13.69,0.79-18.6,6.85
			c-4.91,6.06,0.25,62.2-3.97,61.9c-4.22-0.3-2.2-59.02-2.2-59.02s-17.01,7.88-18.07,16.04c-1.06,8.15,10.74,44.96,7,46.81
			c-3.74,1.85-7.63-36.15-7.63-36.15s-14.81,6.61-15.66,17.74c-0.85,11.13,13.52,25.07,11.85,28.61
			c-1.66,3.54-14.48-11.43-16.64-20.48c-2.16-9.05-18.43,37.49-4.68,43.93c4.15,1.95,7.27,2.64,9.63,2.68
			c-1.71,4.4-2.35,8.39-3.1,12.44c-3.21,20.56-5.15,55.02-6.3,93.55c-2.6-2.47-4.37-4.27-4.37-4.27c-3.62,1.39-5.77,5.96-6.77,11.85
			c-1.79-2.21-3.04-3.55-3.04-3.55s-1.46,4.9-3.67,11.51c-0.66-5.08-1.35-10.05-2.07-14.9c-0.01-0.63-0.02-1.25-0.03-1.88
			c0.36-2.23,0.37-4.09-0.09-5.41c-0.5-30.51-1.04-65.49-1.6-105.64c0-0.29-0.12-0.55-0.3-0.74c0.26-7.78,2.83-76.29,12.36-94.72
			c10.1-19.55,16.62-42.36,16.62-42.36s-8.63,13.52-16.29,21.18c-7.66,7.65-14.34,9.12-14.34,15.96c0,6.84,10.1,29,3.58,25.74
			c-6.52-3.26-4.89-16.62-7.17-16.62s-11.73,30.63-11.73,32.25c0,1.63,16.29,14.34,12.05,18.57c-4.24,4.24-11.08-16.29-13.68-13.69
			c-2.61,2.61-3.26,25.09-3.26,30.95c0,5.87,12.54,2.77,6.84,8.47c-5.67,5.67-6.83,28.43-6.84,38.93
			c-13.55-31.02-25.72-39-45.61-50.73c4.33,0,9.84-1.13,14.41-5.71c9.01-9.01,13.15-42.29-7.63-51.46
			c0.92-4.91,0.27-9.94-3.37-14.52c-13.19-16.62-17.84-16.13-17.84-11c0,5.13-2.93,54.49-6.6,50.83c-3.66-3.66,5.13-51.56,0-56.69
			c-5.13-5.13-19.8-9.04-19.8-7.58c0,1.47,4.16,58.16,0,54c-4.15-4.15,2.44-53.76-9.29-55.47s-17.35,1.22-19.3,3.18
			c-1.95,1.96,11.24,45.36,8.31,45.36c-2.93,0-12.71-42.43-19.06-42.43c-6.35,0-14.17,3.67-14.17,7.82
			c0,4.15,12.46,21.75,9.29,21.75c-3.18,0-11.48-19.55-13.68-17.35c-2.2,2.2-15.15,12.46-18.08,12.46c0,0-2.2,18.57-4.64,24.19
			c-2.44,5.62,0.24,8.55,2.69,8.55c2.44,0,36.53-8.68,33.48-5.62c-3.05,3.05-34.7,7.33-34.7,10.26s-2.93,19.79,2.93,21.02
			c5.87,1.22,46.92-21.26,48.87-17.1c1.96,4.15-49.36,21.5-49.36,21.5s6.11,14.17,13.2,16.37c7.08,2.2,52.62-31.28,54.05-26.64
			c1.42,4.64-49.16,31.77-49.16,31.77s13.44,14.17,20.77,11.24c7.33-2.93,33.85-33.85,36.9-30.79c3.05,3.05-27.61,26.15-27.61,26.15
			s11.48,12.46,21.26,7.82c9.77-4.64,15.88-26.88,19.55-26.88c3.67,0-3.94,21.1-10.75,27.92c-6.81,6.81,39.1,0.92,39.1-16.92
			c0-7.55-1.27-11.75-2.74-14.11c0.1,0.06,0.18,0.11,0.28,0.16c7.1,4.25,16.53,9.12,24.32,17.22
			c19.82,19.89,32.54,59.13,40.75,104.53c-2.83-1.95-5.02-1.75-5.02,0.69c0,4.24-10.26,48.39-15.31,43.33
			c-5.05-5.05,14.34-45.29,7.5-52.13c-4.06-4.06-13.5-9.36-20.93-12c-0.01-0.01-0.01-0.02-0.01-0.02
			c-3.21-3.21-12.95-6.55-9.95-15.84c3-9.29-12.77-17.59-12.77-17.59s-9.78,14.17-18.57,14.17c-8.8,0,11.24-9.28,11.24-14.66
			s-30.3-15.15-30.3-15.15s8.5,17.83,8.45,25.13c-3.61-2.53-7.47-4.94-10.78-6.73c-2.86-8.01-3.83-17.91-8.91-17.91
			c-5.39,0-7.77,4.19-11.06,7.59c-4.01-2.35-9.16-4.75-14.05-6.53c-2.36-5.97-4.19-12.3-5.67-12.3c-2.93,0-10.26,6.36-24.44,3.91
			c-14.17-2.44-12.58-0.36-24.18,11.24c-11.6,11.6-18.83,22.97-18.83,22.97s2.23-1.12,5.97-2.56
			C581.66,707.46,617.93,709.07,631.33,714.66z M828.14,673.51c1.49-0.74,3.97,10.34,9.53,18.3c-0.74-0.36-1.55-0.68-2.53-0.89
			C829.31,689.63,825.6,674.77,828.14,673.51z M794.66,768.36c5.57,6.34,20.65,14.53,17.05,18.14c-2.46,2.46-10.6-3.66-17.28-9.52
			C794.5,774.09,794.58,771.21,794.66,768.36z M784.49,818.04c0.88,1.08,1.81,1.84,2.79,2.18c0.27,0.09,0.59,0.12,0.89,0.18
			c-0.02,1.24-0.03,2.48-0.05,3.73c-3.78,5.01-8.21,10.78-11.67,11.22c-0.2-2.31-0.41-4.61-0.62-6.9
			C778.07,825.7,781.42,822.23,784.49,818.04z M692.46,602.49c-1.22-1.22,7.19-9.38,11.73-19.27c-0.01,0.97,0.04,1.99,0.25,3.14
			C705.66,593.21,694.54,604.57,692.46,602.49z M761.7,732.77c-2.11-9.55-7.59-26.08-8.6-29.25c-1.26-3.55-2.5-6.87-3.72-10.01
			c2.71,1.67,6.4,1,9.72-2.32c5.73-5.73,3.37-26.53,7.13-30.61c-0.38,8.6-0.19,47.49,0.22,94.98
			C764.98,747.38,763.4,739.7,761.7,732.77z M766.15,781.93c0.2,1.4,0.39,2.79,0.59,4.2c0.05,4.73,0.09,9.49,0.14,14.28
			c-4.52,11.96-9.89,23.57-13.32,22.1C748.87,820.5,760.19,798.54,766.15,781.93z M712.4,744.33c1.93-0.56,3.92-1.16,5.83-1.77
			c0.91,12.85,5.35,40.2-3.12,40.2C707.44,782.75,712.45,758.15,712.4,744.33z M684.15,739.36c3.51,7.64,10.06,23.12,4.89,21.89
			c-5.76-1.37-8.29-19.44-11.67-25.15C679.74,737.23,682,738.32,684.15,739.36z"/>
		<path class="st0" d="M735.52,974.13h87.9c21.44-6.31,35.57-17.09,35.57-29.34c0-11.52-12.5-21.74-31.81-28.16h-95.43
			c-19.31,6.42-31.81,16.64-31.81,28.16C699.95,957.04,714.08,967.82,735.52,974.13z"/>
	</g>
	<g>
		<path class="st0" d="M1340.97,656.73c4.5,1.74,7.18,3.09,7.18,3.09s-8.69-13.68-22.65-27.63c-13.95-13.95-12.03-16.45-29.08-13.52
			c-17.04,2.94-25.86-4.7-29.38-4.7c-1.78,0-3.98,7.62-6.83,14.8c-5.88,2.14-12.07,5.03-16.9,7.85c-3.96-4.09-6.81-9.13-13.3-9.13
			c-6.11,0-7.28,11.91-10.72,21.54c-3.98,2.15-8.62,5.05-12.96,8.09c-0.06-8.78,10.16-30.22,10.16-30.22s-36.44,11.75-36.44,18.22
			c0,6.47,24.1,17.63,13.52,17.63c-10.58,0-22.33-17.04-22.33-17.04s-18.96,9.99-15.36,21.16c3.6,11.17-8.11,15.19-11.96,19.05
			c-0.01,0.01-0.01,0.02-0.02,0.02c-8.93,3.17-20.28,9.55-25.17,14.43c-8.23,8.23,15.08,56.62,9.01,62.69s-18.42-47.02-18.42-52.11
			c0-2.94-2.63-3.18-6.03-0.84c9.87-54.6,25.17-101.78,49-125.71c9.37-9.74,20.7-15.6,29.24-20.71c0.12-0.07,0.22-0.13,0.33-0.2
			c-1.76,2.84-3.29,7.89-3.29,16.97c0,21.45,55.21,28.54,47.02,20.35c-8.19-8.19-17.34-33.57-12.93-33.57
			c4.41,0,11.75,26.74,23.51,32.33c11.75,5.58,25.57-9.4,25.57-9.4s-36.88-27.77-33.21-31.45c3.68-3.67,35.56,33.5,44.37,37.03
			c8.82,3.52,24.98-13.52,24.98-13.52s-60.83-32.62-59.12-38.2c1.71-5.58,56.48,34.68,65,32.03c8.52-2.64,15.87-19.69,15.87-19.69
			s-61.71-20.86-59.36-25.86c2.35-5,51.72,22.04,58.77,20.57c7.05-1.47,3.53-21.75,3.53-25.27c0-3.52-38.06-8.67-41.73-12.34
			c-3.67-3.67,37.32,6.76,40.26,6.76c2.94,0,6.17-3.53,3.23-10.29c-2.94-6.76-5.58-29.09-5.58-29.09c-3.53,0-19.1-12.34-21.74-14.99
			c-2.65-2.64-12.64,20.86-16.46,20.86c-3.82,0,11.16-21.16,11.16-26.15s-9.4-9.41-17.04-9.41c-7.64,0-19.4,51.03-22.92,51.03
			c-3.53,0,12.34-52.2,9.99-54.55c-2.35-2.35-9.11-5.88-23.22-3.82c-14.11,2.06-6.17,61.71-11.17,66.71c-5,5,0-63.18,0-64.94
			c0-1.76-17.63,2.94-23.8,9.11s4.41,63.77,0,68.18c-4.41,4.41-7.93-54.95-7.93-61.12c0-6.17-5.59-6.76-21.45,13.22
			c-4.38,5.51-5.16,11.55-4.05,17.46c-24.99,11.03-20.01,51.04-9.17,61.88c5.51,5.5,12.13,6.86,17.34,6.86
			c-23.92,14.11-38.56,23.71-54.85,61.01c-0.01-12.63-1.4-39.99-8.23-46.81c-6.86-6.86,8.23-3.13,8.23-10.19
			c0-7.05-0.79-34.09-3.92-37.22c-3.13-3.13-11.36,21.55-16.46,16.46c-5.09-5.1,14.5-20.38,14.5-22.34
			c0-1.96-11.36-38.79-14.11-38.79c-2.74,0-0.78,16.07-8.62,19.99c-7.84,3.92,4.31-22.73,4.31-30.96c0-8.23-8.03-9.99-17.24-19.2
			c-9.21-9.21-19.59-25.47-19.59-25.47s7.83,27.43,19.98,50.94c11.45,22.17,14.54,104.55,14.86,113.9
			c-0.22,0.24-0.36,0.55-0.36,0.89c-0.67,48.29-1.32,90.36-1.92,127.04c-0.55,1.6-0.54,3.83-0.11,6.51
			c-0.01,0.76-0.02,1.51-0.04,2.26c-0.87,5.83-1.69,11.81-2.49,17.92c-2.66-7.95-4.41-13.85-4.41-13.85s-1.51,1.61-3.66,4.27
			c-1.21-7.09-3.79-12.58-8.14-14.26c0,0-2.13,2.16-5.25,5.13c-1.39-46.34-3.72-87.79-7.58-112.51c-0.9-4.87-1.67-9.67-3.73-14.95
			c2.84-0.05,6.6-0.89,11.59-3.23c16.53-7.74-3.03-63.71-5.63-52.83s-18.01,28.89-20.01,24.63c-2-4.26,15.28-21.02,14.25-34.41
			c-1.02-13.38-18.83-21.33-18.83-21.33s-4.68,45.7-9.18,43.47c-4.5-2.23,9.7-46.49,8.42-56.29c-1.28-9.8-21.74-19.28-21.74-19.28
			s2.44,70.62-2.64,70.98c-5.08,0.36,1.12-67.14-4.78-74.43c-5.9-7.29-22.36-8.24-22.36-8.24s11.89,67.23,6.97,66.75
			c-4.92-0.47-6.46-57.99-10.78-64.28c-4.33-6.29-18.35,4.44-21.07,5.71c-2.72,1.27,10.57,39.94,9.4,44.82
			c-1.16,4.88-11.71-38.54-13.04-41.38c-1.33-2.84-5.51-4.7-9.39,0.59c-3.88,5.28-19.89,15.9-19.89,15.9
			c1.6,3.41-0.85,22.93-1.69,26.45c-0.84,3.51,21.81,4.69,23.54,8.39c1.73,3.7-21.36-3.17-25.21-1.36
			c-3.85,1.81-2.99,12.49,0.48,19.88c3.46,7.39,48.1,0.34,49.7,3.75c1.6,3.41-45.81,6.9-46.56,10.03
			c-0.75,3.12-0.4,10.94,7.58,23.84c7.98,12.9,50.35-16.31,56.46-13.28c6.11,3.03-48.68,22.81-50.04,23.45
			c-1.36,0.63,10.25,15.99,17.81,19.74c7.55,3.74,47.14-27.28,52.53-24.61c5.39,2.67-38.75,27.51-43.5,29.74
			c-4.75,2.23-2.68,7.84,19.91,15.98c6.23,2.24,11.23,0.82,15.29-2.38c19,19.37,46.04,2.45,51.28-11.66
			c2.62,21.49,4.36,51.61,5.49,85.42c-4.85-8.29-14.75-17.64-19.53-12.86c-6.47,6.47-13.22,34.38-20.57,27.04
			c-7.35-7.35,18.22-26.45,15.28-37.62c-2.94-11.17-12.87-20.78-16.61-17.04c-3.74,3.74-2.78,41.73-7.48,37.03
			c-4.7-4.7,6.98-42.54,3.53-45.99c-3.45-3.45-20.96-19.84-27.43-13.37c-6.47,6.47,7.64,41.34,3.92,37.61
			c-3.72-3.72-12.93-42.71-18.02-47.8c-5.1-5.09-13.15,1.3-18.03-3.58c0,0-0.98,10.82-3.52,13.37
			c-2.55,2.55,24.68,25.47,21.16,25.47c-3.52,0-25.86-20.77-25.86-20.77s1.76,22.14,6.66,27.04c4.9,4.9,30.95,9.01,30.95,13.32
			c0,4.31-33.69-5.49-33.69-5.49s6.66,25.47,18.42,28.6c11.75,3.13,30.17,0.78,30.17,5.09c0,4.31-23.12,1.57-23.12,1.57
			s5.49,31.35,20.76,31.35c15.28,0,17.02-2.74,17.02,2.74c0,5.49-11.93-3.92-11.93,5.88s11.08,29.44,16.85,23.68
			c3.1-3.09,5.17-7.59,6.44-11.1c8.03,30.08,17.88,73.84,24.53,126.49h4.74c-6.89-54.76-17.23-99.99-25.46-130.42
			c5.15,3.19,18.5,11.03,29.31,13.92c-0.68,6.17-0.19,18.56,3.36,29.64c0.18,30.91,0.1,60.91-0.06,86.87h6.96
			c0.08-22.2,0.09-47.35-0.08-73.54c2.1,2.6,4.55,4.77,7.49,6.18c1.22,0.59,2.44,1.06,3.64,1.47c-1.62,22.67-2.85,45.03-3.77,65.88
			h6.32c0.6-20.19,1.5-41.99,2.89-64.55c1.27,0.2,2.52,0.34,3.73,0.39c-0.52,26.33-0.97,47.33-1.34,64.16h4.62
			c0.23-18.98,0.49-40.93,0.76-64.27c6.16-0.53,11.18-2.63,14.08-4.17c-5.83,19.64-8.93,44.22-10.35,68.44h4.29
			c0.99-19.84,2.99-39.62,6.5-56.03c0.51,3.91,1.74,8.69,4.28,14.53c9.01,20.77,47.41,11.75,47.41,11.75
			c-23.51,0-30.17-39.57-23.12-42.71c7.05-3.13,3.14,32.91,26.25,38.4c23.12,5.49,30.17-12.93,30.17-12.93
			c-18.02-3.53-50.34-33.1-44.27-39.18c6.08-6.08,36.04,35.26,48.19,35.26c12.14,0,25.47-32.13,25.47-32.13
			c-14.89,8.62-63.48-14.11-68-21.94c-4.53-7.83,48.02,20.77,67.22,17.24c19.2-3.53,18.02-37.22,18.02-37.22
			c-6.07,6.07-58.77,0.39-64.26-5.09c-5.49-5.49,52.11,2.74,63.08-2.74c10.97-5.49,7.44-33.54,7.44-33.54s-39.97,8.47-50.15,5.72
			c-10.19-2.74,41.93-7.83,46.63-19.59c4.7-11.75-6.91-39.02-6.91-39.02c-5.38,5.39-22.33,0.93-29.38,0.13
			c19.18-9.19,41.6-19.78,51.22-23.8C1276.75,652.5,1320.37,650.57,1340.97,656.73z M1015.53,630.68c-1.18,0.26-2.15,0.65-3.05,1.08
			c6.69-9.58,9.68-22.89,11.47-22.01C1027.01,611.26,1022.54,629.13,1015.53,630.68z M1064.49,734.18
			c-8.03,7.05-17.82,14.41-20.78,11.45c-4.33-4.33,13.8-14.19,20.5-21.81C1064.31,727.24,1064.4,730.7,1064.49,734.18z
			 M1086.87,796.08c-0.26,2.76-0.5,5.53-0.75,8.3c-4.16-0.54-9.49-7.46-14.03-13.49c-0.02-1.5-0.04-2.99-0.06-4.49
			c0.35-0.08,0.74-0.11,1.07-0.22c1.18-0.41,2.3-1.33,3.35-2.63C1080.14,788.59,1084.16,792.77,1086.87,796.08z M1172.72,504.94
			c0.25-1.38,0.31-2.62,0.3-3.78c5.46,11.89,15.56,21.71,14.1,23.18C1184.62,526.84,1171.25,513.17,1172.72,504.94z M1098.14,708.43
			c0.49-57.11,0.72-103.87,0.27-114.22c4.53,4.9,1.69,29.91,8.58,36.8c3.99,3.99,8.42,4.8,11.69,2.79
			c-1.47,3.78-2.96,7.76-4.47,12.03c-1.22,3.81-7.81,23.69-10.35,35.18C1101.81,689.34,1099.91,698.57,1098.14,708.43z
			 M1113.65,788.92c-4.12,1.77-10.59-12.2-16.02-26.58c0.06-5.75,0.12-11.48,0.17-17.17c0.23-1.69,0.47-3.37,0.7-5.04
			C1105.67,760.09,1119.28,786.51,1113.65,788.92z M1159.89,741.12c-10.19,0-4.85-32.89-3.76-48.35c2.28,0.74,4.68,1.46,7.01,2.13
			C1163.08,711.53,1169.11,741.12,1159.89,741.12z M1205.26,685.01c-4.06,6.86-7.1,28.6-14.03,30.25
			c-6.22,1.48,1.65-17.14,5.88-26.33C1199.69,687.69,1202.42,686.38,1205.26,685.01z"/>
		<path class="st0" d="M1135.34,971.26h-105.71c-25.78-7.58-42.78-20.55-42.78-35.28c0-13.85,15.03-26.14,38.26-33.86h114.77
			c23.23,7.72,38.25,20.02,38.25,33.86C1178.12,950.71,1161.12,963.68,1135.34,971.26z"/>
	</g>
	<path class="st1" d="M1538.64,978.72c0,13.86-231.61,25.1-517.32,25.1c-285.71,0-517.33-11.24-517.33-25.1
		c0-13.86,231.62-25.1,517.33-25.1C1307.03,953.62,1538.64,964.86,1538.64,978.72z"/>
	<g>
		<g>
			<path class="st2" d="M1023.38,580.87l-73.06-10.77l30.61,374.19H818.25c-12.99,0-23.53,10.53-23.53,23.53l0,0h245.55
				L1023.38,580.87z"/>
			<path class="st3" d="M950.32,570.09c4.08,85.31,16.27,232.91,27.38,371.26c-3.37,0.06-96.9,0.81-159.45,2.93
				c64.38,2.17,162.03,2.93,165.87,2.99C984.11,947.1,967.22,715.87,950.32,570.09z"/>
			
				<rect x="714.13" y="207.76" transform="matrix(0.9959 -0.0902 0.0902 0.9959 -18.4798 65.708)" class="st4" width="7.82" height="59.27"/>
			<polygon class="st5" points="934.62,181.73 949.98,320.79 983.02,327.32 975.17,192.09 			"/>
			<polygon class="st6" points="929,188.28 934.62,181.73 949.98,320.79 945.39,320.79 			"/>
			<polygon class="st7" points="714.12,243.57 1193.64,320.79 1238.44,681.64 751,658.44 			"/>
			<polygon class="st3" points="705.42,250.75 714.12,243.57 751,658.44 736.66,660.49 			"/>
			<polygon class="st8" points="1246.03,657.42 738.71,628.48 738.71,663.82 1251.07,689.81 			"/>
			<polygon class="st3" points="730.36,635.81 738.71,628.48 738.71,663.82 731.03,677.38 			"/>
			<polygon class="st9" points="1251.07,689.81 1237.87,699.46 731.03,677.38 738.71,663.82 			"/>
			<g>
				<path class="st10" d="M1100.37,250.87c-0.01-0.16-1.8-18.81-35.05-33.47c-33.91-14.95-101.57,22.66-102.25,23.04l-3.01-5.36
					c2.88-1.62,71.04-39.49,107.74-23.31c37.02,16.32,38.65,37.84,38.71,38.75L1100.37,250.87z"/>
			</g>
			<path class="st11" d="M1103.59,278.02L1103.59,278.02c5-4.6,5.32-12.37,0.73-17.37l-5.59-6.08c-4.6-5-12.37-5.32-17.37-0.72l0,0
				c-1.4,1.29-3.59,1.2-4.88-0.2l-0.13-0.14c-3.31-3.59-8.89-3.82-12.48-0.52l-9.05,8.32l39.01,42.41l9.05-8.32
				c3.59-3.31,3.82-8.89,0.52-12.48l0,0C1102.09,281.5,1102.18,279.31,1103.59,278.02z"/>
			<path class="st3" d="M1104.31,260.65c-6.13-5.07-7.17-7.34-11.45-8.37c-3.7-0.89-7.28,0.16-9.4,1.8
				c-0.68,0.42-2.95,3.31-6.41,1.8c-1.71-0.76-2.05-2.17-4.45-3.23c-5.85-2.65-8.04,1.89-17.79,8.65c2.83-3.43,7-7.73,7.51-8.27
				c3.41-3.75,7.48-4.53,11.37-3.08c2.5,0.94,3.76,2.63,4.11,2.87c0.65,0.54,1.73,0.53,2.41,0c6.96-5.73,15.26-4.1,19.63,1.86
				C1101.36,256.64,1102.89,258.6,1104.31,260.65z"/>
			<path class="st11" d="M1105.61,262.06l-7.8-8.48l9.94-9.15c0.76-0.7,1.93-0.65,2.63,0.11l5.28,5.75c0.7,0.76,0.65,1.93-0.11,2.63
				L1105.61,262.06z"/>
			<polygon class="st12" points="1045.47,645.98 789.53,631.38 791.2,604.72 1043.95,620.53 			"/>
			<polygon class="st12" points="791.47,626.49 766.24,628.93 730.36,289.01 759.58,296.14 			"/>
			<g>
				
					<rect x="839.08" y="61.42" transform="matrix(0.3092 -0.951 0.951 0.3092 400.4225 930.9805)" class="st13" width="3.9" height="256.9"/>
			</g>
			<g>
				
					<rect x="836.1" y="115.19" transform="matrix(0.2245 -0.9745 0.9745 0.2245 410.0881 1007.4946)" class="st13" width="3.9" height="261.8"/>
			</g>
			<g>
				
					<rect x="707.89" y="180.15" transform="matrix(0.9927 -0.1203 0.1203 0.9927 -42.6123 88.6115)" class="st13" width="9.42" height="434.15"/>
			</g>
			<g>
				
					<rect x="761.99" y="173.45" transform="matrix(0.9916 -0.1292 0.1292 0.9916 -43.9673 102.3046)" class="st13" width="9.42" height="433.31"/>
			</g>
			<path class="st4" d="M826.38,619.02c1.71,25.39-18.08,47.4-44.21,49.16c-26.13,1.76-48.7-17.39-50.41-42.78
				c-1.71-25.39,18.08-47.4,44.22-49.16C802.1,574.48,824.67,593.63,826.38,619.02z"/>
			<path class="st14" d="M806.8,620.34c1,14.88-10.6,27.78-25.92,28.81c-15.32,1.03-28.55-10.19-29.55-25.07
				c-1-14.88,10.6-27.79,25.92-28.82C792.57,594.23,805.8,605.46,806.8,620.34z"/>
			<path class="st4" d="M972.79,250.93c0,15.04-5.02,27.24-11.22,27.24c-6.2,0-11.22-12.2-11.22-27.24
				c0-15.05,5.02-27.24,11.22-27.24C967.76,223.69,972.79,235.88,972.79,250.93z"/>
			<path class="st4" d="M746.39,184.42c0,20.37-15.36,36.88-34.31,36.88c-18.95,0-34.31-16.51-34.31-36.88
				c0-20.37,15.36-36.88,34.31-36.88C731.03,147.54,746.39,164.05,746.39,184.42z"/>
			<path class="st14" d="M734.14,184.42c0,13.09-9.88,23.71-22.06,23.71c-12.18,0-22.06-10.61-22.06-23.71
				c0-13.09,9.88-23.71,22.06-23.71C724.26,160.71,734.14,171.33,734.14,184.42z"/>
		</g>
		<polygon class="st15" points="791.47,309.29 819.73,576.89 1182.51,605.55 1155.99,354.82 		"/>
		<g>
			<path class="st16" d="M1298.27,352.08c0,0-46.17,32.09-41.32,36.54c3.16,2.9,18.93,29.64,26.21,35.93
				c0.75,0.65,17.36,14.1,18.55,14.04c1.19-0.05,13.51,18.11,11.13,18.21c-2.38,0.1-10.89-12.65-10.89-12.65s8.9,17.12,6.12,17.24
				c-2.78,0.12-8.14-15.66-9.37-14.31c-1.24,1.35,9.97,19.06,6.2,19.22c-3.77,0.16-7.26-11.42-8.68-9.87
				c-1.42,1.55-2.05,3.05-3.39,1.81c-0.62-0.57-0.86-0.08-2.74-3.44c-2.22-3.96-7.92-10.23-11.51-13.52
				c-4.83-4.43-41.81-41.54-47.38-55.22c-5.57-13.68,67.49-110.44,86.91-121.23C1337.53,254.04,1300.5,349.9,1298.27,352.08z"/>
			<path class="st17" d="M1309.24,344.89l-41.53,43.52l-24.26-37.93c0,0,50.19-85.32,77.48-86.5
				C1325.31,263.78,1309.24,344.89,1309.24,344.89z"/>
			<path class="st18" d="M1284.14,371.19c4.4-45.12,12.52-83.12,23.29-101.63c4.85-3.36,11.47-7.45,15.55-7.63
				c4.37-0.19-13.73,82.96-13.73,82.96L1284.14,371.19z"/>
			<path class="st19" d="M1362.22,608.53c0,0-28.51,308.21-35.75,341.11l0.06,20.78l-56.19,0.06c0,0,3.38-6.93,9.73-6.94
				c6.35-0.01,22.38-7.53,26.76-12.73c4.38-5.2-3.88-431.09-3.88-431.09l69.78-0.08L1362.22,608.53z"/>
			<path class="st20" d="M1314.69,546.2l9.89,49.44c0,0,78.83,267.78,75.65,361.38c0,0-6.55,11.1-29.74,17.69
				c-1.25,0.35-3.57,7.32-3.57,7.32l61.7-2.68l-3.47-18.83c0,0-2.77-318.49-2.87-355.57c-0.1-37.09-9.99-85.35-9.99-85.35
				l-101.57,0.11L1314.69,546.2z"/>
			<path class="st21" d="M1292.94,452.03c-0.24-91.2,13.08-181.79,33.79-193.36c12.29-0.53,15.36-0.77,27.76-1.19
				c18.5-0.61,46.99,8.33,62.49,58.62c14.1,45.76,10.25,184.93,8.28,253.11c-52.26,0.06-90.49-1.58-141.2-1.52
				C1283.22,551.77,1293.01,480.7,1292.94,452.03z"/>
			<path class="st22" d="M1301.8,173.33c0,0,3.76-2.58,6.39-2.66l-1.47-2.3C1306.72,168.37,1301.73,170.64,1301.8,173.33z"/>
			<path class="st16" d="M1320.82,228.45l5.61,44.18c1.15,9.08,7.89,15.57,15.44,14.95c1.91-0.16,3.91-0.4,5.92-0.76
				c10.07-1.82,19.28-10.65,16.89-22.69c-3.07-15.44-9.8-41.06-10.07-54.68C1354.15,187.16,1320.5,217.08,1320.82,228.45z"/>
			<path class="st23" d="M1354.6,209.45c-0.45-22.29-34.1,7.63-33.78,19l3.28,25.83c3.46-0.68,10.85-2.35,17.54-5.35
				c9.11-4.09,9.37-15.67,14.73-19.09c0.27-0.17,0.55-0.39,0.83-0.66C1355.77,221.67,1354.71,214.68,1354.6,209.45z"/>
			<path class="st24" d="M1274.45,156.33c10.17,5.99,29.98,14.52,36.99,5.14c-6.19,10.69-28.01,4.38-39.44-0.53L1274.45,156.33z"/>
			<path class="st23" d="M1305.19,185.58c0,0-10.76-7.79-8.73-0.82c2.03,6.97,7.83,21.92,13.1,15.88
				C1314.83,194.6,1305.19,185.58,1305.19,185.58z"/>
			<path class="st16" d="M1328.05,144.32c-1.61,1.69-19.88,0.91-25.32,19.79c-5.44,18.89,2.62,61.54,14.55,72.71
				c11.92,11.17,24.98,3.57,34.71-16.1c9.73-19.66,29.01-45.13,13.81-63.16C1357.72,147.98,1328.05,144.32,1328.05,144.32z"/>
			<path class="st24" d="M1308.8,222.31c0,0,5.75,12.35,0.59,17.81c-5.16,5.46,15.56,6.81,22.44,4.76
				c6.88-2.05,15.8-4.04,18.42-6.31c5.57-4.85,3.37-46.61-0.27-36.38c-3.64,10.23-12.41,28.18-16.31,28.29
				c-3.9,0.11-8.85,1.25-12.83,1.36C1316.86,231.95,1308.8,222.31,1308.8,222.31z"/>
			<path class="st24" d="M1325.44,152.72c-1.38,9.9-10.86,23.7-34.81,9.59c-23.95-14.11-19.84-32.96-19.84-32.96
				s12.37,15.1,19.56,11.61c7.2-3.49,1.38-21.73,1.38-21.73s26.46-2.72,31.43-2.86c4.97-0.14,10.46,15.15,10.46,15.15
				s-3.59-6.8,22.53-9.84c26.12-3.04,11.87,36.3,15.23,49.68c3.36,13.38-13.76,37.7-13.54,45.58c0.22,7.88,4.67,12.69,4.67,12.69
				s-5.6,1.47-10.96-12.18c-5.36-13.65,3.15-34.25,2.86-44.76c-0.36-12.77-6.52-17.18-11.99-20.97
				C1338.36,148.89,1326.83,142.82,1325.44,152.72z"/>
			<path class="st16" d="M1352.4,186.35c0,0-6.16,17.18-1.5,15.73c4.66-1.46,13.67-10.47,11.29-22.53
				C1359.81,167.48,1352.4,186.35,1352.4,186.35z"/>
			<path class="st23" d="M1352.4,186.35c0,0,3.95-5.53,5.37-3.67c3.31,4.33-6.79,17.27-6.89,13.9
				C1350.78,193.2,1352.4,186.35,1352.4,186.35z"/>
			<path class="st22" d="M1330.07,182.43c0.08,2.68-1.46,4.89-3.44,4.95c-1.97,0.06-3.64-2.07-3.71-4.74
				c-0.08-2.68,1.46-4.89,3.44-4.95C1328.34,177.63,1330,179.76,1330.07,182.43z"/>
			<path class="st22" d="M1309.24,183.02c0.08,2.68-1.46,4.89-3.44,4.95c-1.97,0.05-3.64-2.07-3.71-4.75
				c-0.08-2.68,1.46-4.89,3.44-4.95C1307.5,178.22,1309.16,180.34,1309.24,183.02z"/>
			<path class="st22" d="M1326.03,165.83l-1,3.12c0,0,5.24-1.9,8.97,2.33C1334,171.28,1330.35,164.99,1326.03,165.83z"/>
			<path class="st25" d="M1303.8,174.39l-11.18,0.32c-3.6,0.1-6.43,3.31-6.32,7.16l0.24,8.32c0.11,3.86,3.11,6.9,6.71,6.8
				l11.18-0.32c3.6-0.1,6.43-3.31,6.32-7.16l-0.24-8.32C1310.41,177.33,1307.4,174.28,1303.8,174.39z M1307.74,189.59
				c0.06,2.07-1.47,3.8-3.4,3.86l-11.18,0.32c-1.93,0.05-3.56-1.59-3.62-3.66l-0.24-8.32c-0.06-2.07,1.47-3.8,3.41-3.86l11.18-0.31
				c1.94-0.05,3.56,1.59,3.62,3.66L1307.74,189.59z"/>
			<path class="st25" d="M1337.88,173.16l-13.03,0.37c-4.19,0.12-7.5,3.41-7.39,7.36l0.24,8.52c0.11,3.95,3.6,7.05,7.79,6.93
				l13.03-0.37c4.19-0.12,7.5-3.41,7.39-7.36l-0.24-8.52C1345.56,176.14,1342.07,173.04,1337.88,173.16z M1342.41,188.71
				c0.06,2.12-1.73,3.9-3.98,3.97l-13.03,0.37c-2.25,0.06-4.13-1.61-4.19-3.74l-0.24-8.52c-0.06-2.12,1.73-3.9,3.98-3.96l13.03-0.37
				c2.25-0.06,4.14,1.61,4.2,3.73L1342.41,188.71z"/>
			<g>
				<path class="st22" d="M1312.21,210.84c0-0.17-5.18-13.59,0.25-34.99c0.27-1.06,1.97-0.69,1.7,0.38
					c-0.05,0.19-4.71,18.96-0.75,32.64c5.12-0.91,6.99-2.25,7.35-0.85C1321.14,209.43,1318.83,209.01,1312.21,210.84z"/>
			</g>
			
				<rect x="1309.28" y="181.41" transform="matrix(0.9996 -0.0282 0.0282 0.9996 -4.6409 37.1662)" class="st25" width="9.04" height="3.02"/>
			<path class="st24" d="M1312.57,102c7.86,0.07,15.95,3.06,19.81,9.56c3.45,5.78,2.95,11.07,2.87,15.13l-0.75,4.94l-1.74-0.22
				c0-1.32,0.43-5.5-0.3-9.48c-1.87-10.53-9.55-14.99-19.73-14.02L1312.57,102z"/>
			<path class="st22" d="M1318.98,218.85c0.12,2.82,1.57,5.05,3.22,4.98c1.66-0.07,2.9-2.42,2.78-5.24
				c-0.12-2.82-1.57-5.05-3.22-4.98C1320.1,213.68,1318.86,216.03,1318.98,218.85z"/>
			<path class="st26" d="M1382.07,264.54c0,0,83.73-4.8,83.42-11.88c-0.31-7.09-79.42-33.15-84.93-35.11
				c-6.64-2.36-6.64-2.36-17.31-7.84c0,0-8.14-1.7-11.93-3.22c-3.79-1.52-0.38-4.09,3.75-4.27c4.13-0.18,8.3,0.57,10.16,0.49
				c1.86-0.08-1.82-8.51-1.97-11.87c-0.14-3.36-7.19-13.14-13.18-12.88c-5.99,0.26-11.46-1.75-10.07-3.11
				c1.39-1.37,24.02,0.45,24.66,0.99s14.66,23.08,20.45,27.88c5.79,4.79,121.46,12.98,128.25,42.32
				c6.79,29.34-80.18,78.54-97.36,76.79C1398.83,321.07,1365.04,266.27,1382.07,264.54z"/>
			<path class="st23" d="M1472.13,297.13l-21.79-39.24c2.9-0.49,5.5-1.01,7.7-1.55l23.69,33.96
				C1478.62,292.65,1475.4,294.93,1472.13,297.13z"/>
			<path class="st27" d="M1455.73,253.04l31.24,52.17c0,0-59.47,18.48-70.99,18.98c-11.52,0.5-38.16-33.22-40.02-46.99
				c-1.86-13.77,0.26-15.62,0.26-15.62L1455.73,253.04z"/>
			<path class="st28" d="M1373.31,268.58c0.09,2.48,0.36,4.89,0.69,7.28c1.04,11.19,14.91,28.23,23.5,36
				c-6.78-8.47-19.22-25.59-19.95-36.43c-0.32-3.09-0.78-9.02,0-12.01c32.03-3.17,61.1-7.29,78.17-10.39
				c-36.57,1.23-80.77,7.79-81.2,7.83C1374.1,261.39,1373.23,266.47,1373.31,268.58z"/>
			<path class="st16" d="M1299.65,435.79c1.19-0.05,15.58,20.91,13.2,21.01c-2.38,0.1-12.13-13.24-12.13-13.24
				s10.13,17.7,7.36,17.82c-2.78,0.12-9.76-15.59-11-14.24c-1.23,1.35,11.6,18.99,7.83,19.15c-3.77,0.16-7.78-10.86-9.2-9.3
				c-1.42,1.55-1.53,2.48-2.87,1.25c-0.69-0.63-2.95-6.1-5.21-10.02l1.61-18.9C1294.36,433.41,1298.91,435.83,1299.65,435.79z"/>
			<path class="st16" d="M1293.6,453.11c0,0,6.82,11.95,5.45,13.44c-1.37,1.49-11.04-13.78-10.3-14.59
				C1289.49,451.16,1293.6,453.11,1293.6,453.11z"/>
		</g>
		<g>
			<path class="st12" d="M1472.49,361.91c-0.34,0-0.67-0.2-0.82-0.53c-0.2-0.45,0-0.98,0.45-1.19
				c45.22-20.22,54.67-90.34,54.76-91.05c0.06-0.49,0.51-0.84,1.01-0.78c0.49,0.06,0.84,0.51,0.78,1.01
				c-0.09,0.71-9.68,71.83-55.81,92.46C1472.74,361.89,1472.62,361.91,1472.49,361.91z"/>
		</g>
		<g>
			<path class="st12" d="M1535.86,316.03c-0.11,0-0.22-0.02-0.33-0.06c-0.46-0.18-0.69-0.71-0.5-1.17
				c20.21-51.04,4.83-67.93,4.68-68.09c-0.34-0.36-0.33-0.92,0.03-1.27c0.36-0.34,0.92-0.33,1.27,0.03c0.68,0.71,16.33,17.9-4.3,70
				C1536.56,315.82,1536.22,316.03,1535.86,316.03z"/>
		</g>
		<path class="st29" d="M1025.69,362.23l-179.52-19.59l13.32,157.31l27.07,50.87c71.26,2.96,137.2,5.67,136.77,5.67
			c2.28,0,2.35-3.42,0.07-3.52l-45.08-1.87c-0.26-0.35,0.8,0.78-56.64-56.67v-58.7l88.87,3.96l16.73-22.93v-50.9
			c95.22,6.95,90.72,7.71,90.93,4.88C1118.46,367.35,1117.96,369.75,1025.69,362.23z M1023.77,415.62l-14.95,20.48l-30.9-1.38
			c-4.07-48.09-1.87-51.31-5.27-51.08c-3.38,0.23-0.82,2.88,1.73,50.93l-56.22-2.51v63.84l54.99,54.99l-84.45-3.51l-25.75-48.09
			L850.04,346.6l173.73,18.96V415.62z"/>
	</g>
	<g>
		<g>
			<g>
				<polygon points="651.74,566.94 641.42,541.36 693,516.12 707.25,545.61 702.8,547.76 690.72,522.73 647.71,543.78 
					656.31,565.09 				"/>
			</g>
			<g>
				<path class="st23" d="M605.23,367.71c0,0,17.48,78.59,26.26,87.86c8.78,9.27,29.5,55.05,29.5,55.05s19.15,9.87,19.15,20.65
					l-4.57,7.64l-8.82,3.58l-4.41,2.51h-4.75c0,0-1.36-13.02-7.46-22.62c-6.1-9.6-31.5-32.87-44.91-64.38
					c-13.41-31.51-29.89-80.09-29.89-80.09L605.23,367.71z"/>
				<g>
					
						<rect x="550.18" y="547.13" transform="matrix(0.9082 -0.4186 0.4186 0.9082 -174.3053 341.2738)" class="st30" width="281.07" height="41.61"/>
					
						<rect x="544.49" y="588.89" transform="matrix(0.9082 -0.4186 0.4186 0.9082 -203.8069 301.4151)" class="st30" width="81.17" height="52.65"/>
					<path class="st30" d="M554.07,629.51c6.09,13.2,8.4,25.11,5.17,26.6c-3.23,1.49-10.78-8.01-16.87-21.21
						c-6.09-13.2-8.4-25.11-5.17-26.6C540.43,606.81,547.98,616.31,554.07,629.51z"/>
					<path class="st31" d="M770.54,500.75c-3.23,1.49-0.92,13.4,5.17,26.6c6.08,13.2,13.64,22.7,16.87,21.21l67.09-30.93
						l-22.04-47.81L770.54,500.75z"/>
					<path class="st32" d="M854.5,491.03c6.08,13.2,8.4,25.11,5.17,26.6c-3.23,1.49-10.78-8.01-16.87-21.21
						c-6.09-13.2-8.4-25.11-5.17-26.6C840.86,468.34,848.42,477.83,854.5,491.03z"/>
					<g>
						<path class="st33" d="M830.81,481.39l-57.45,26.48c-0.21,0.1-0.46,0.01-0.56-0.21c-0.1-0.21,0-0.46,0.21-0.56l57.45-26.48
							c0.21-0.1,0.47-0.01,0.56,0.21C831.11,481.03,831.02,481.29,830.81,481.39z"/>
					</g>
					<g>
						<path class="st33" d="M831.22,490.39l-57.45,26.48c-0.21,0.1-0.46,0.01-0.56-0.21c-0.1-0.21-0.01-0.47,0.21-0.56l57.45-26.48
							c0.22-0.1,0.47,0,0.56,0.21C831.52,490.04,831.43,490.29,831.22,490.39z"/>
					</g>
					<g>
						<path class="st33" d="M834.36,497.2l-57.45,26.48c-0.22,0.1-0.46,0.01-0.57-0.21c-0.1-0.21,0-0.47,0.21-0.56L834,496.43
							c0.21-0.1,0.46,0,0.56,0.21C834.66,496.85,834.57,497.11,834.36,497.2z"/>
					</g>
					<g>
						<path class="st33" d="M839,504.57l-57.45,26.48c-0.21,0.1-0.47,0.01-0.56-0.21c-0.1-0.21,0-0.46,0.21-0.56l57.45-26.48
							c0.21-0.1,0.47-0.01,0.56,0.21C839.31,504.22,839.21,504.47,839,504.57z"/>
					</g>
				</g>
				<path class="st23" d="M540.2,656.27c0,0,32.76,62.94,30.59,81.54c-2.17,18.6-9.18,33.6-3.29,59.02
					c5.89,25.42,52.87,117.7,53.94,134.54c0.45,7.1-1.71,7.76-1.71,7.76c0.06,12.24,3.83,25.36,6.36,27.89
					c3.26,3.26,6.88,19.39,9.98,19.39c3.1,0,29.29,2.89,29.29,2.89c0.7-5.97-7.34-1.2-11.98-13.6c-4.65-12.4-7.44-31-13.33-56.11
					c-5.89-25.11-30.01-139.69-30.01-166.04c0-26.35,2.42-26.47-1.61-43.83c-4.03-17.36-19.22-49.91-19.22-49.91L540.2,656.27z"/>
				<path class="st34" d="M575.34,440.99c0,0,5.45,88.52,9.72,109.62s28.57,170.6,28.57,170.6l26.41,198.39l-27.97,3.3
					l-49.53-138.62l3.47-50.45L516.94,587.4l22.78-147.49l20.04-0.98L575.34,440.99z"/>
				<path class="st35" d="M657.14,981.41c6.14,5.74,15.51,4.6,14.95,9.39c0,0-33.91-1.46-37.01-1.46c-3.1,0-5.73-19.07-8.99-22.32
					c-3.25-3.25-1.24,22.32-1.24,22.32h-3.34c0,0-2.24-26.35-5.34-36.58c-2.47-8.15,1.04-11.57,3.56-13.63
					C629.9,958.6,631.49,985.97,657.14,981.41z"/>
				<path class="st36" d="M592.27,307.62c-8.59-25.82-27-46.19-27-46.19s2.76,48.04,6.59,66.94c2.38,11.76-2.73,44.98,6.62,65.11
					c6.04-3.31,24.48-10.82,31.12-12.84C606.59,357.12,596.69,320.88,592.27,307.62z"/>
				<polygon class="st37" points="496.97,957.67 497.34,986.58 494.12,986.66 490.09,953.69 				"/>
				<path class="st16" d="M525.46,703.26c0,0-4.19,45.47-9.77,58.96c-5.58,13.49-1.09,192.05,3.56,206.47
					c1.03,3.2,2.43,6.05,3.88,8.56c5.1,8.79,6.26,10.58-0.61,10.58c-8.84,0-16.57-1.71-18.27-5.33
					c-2.94-6.26-5.49-27.78-11.53-27.78c0,0-4.1-8.04-3.06-12.26c1.57-6.35,5.88-3.07,5.88-11.9c0-8.84-28.83-143.22-24.18-162.75
					c4.65-19.53,7.9-21.86,7.9-45.1C479.26,699.44,525.46,703.26,525.46,703.26z"/>
				<path class="st38" d="M565.28,261.43c0,0-14.6-11.32-63.82-0.98c-2.41,0.5-6.05,57.11-6.05,57.11s23.68,94.01,19.04,117.44
					c0,0,27.35,23.24,68.34,3.23c0,0-5.07-73.78-1.3-90.2c3.77-16.42,11.25-31.29,0.77-48.38
					C571.78,282.56,565.28,261.43,565.28,261.43z"/>
				<path class="st39" d="M564.28,444.77l-66.73-155.7c-1.22,14.26-2.13,28.5-2.13,28.5s23.68,94.01,19.04,117.44
					C514.45,435,533.77,451.42,564.28,444.77z"/>
				<path class="st40" d="M514.45,435c0,0-27.59,44.75-33.95,69.38c-6.36,24.62-3.05,215.69-3.05,215.69s-10.97,39.26-10.97,58.17
					s16,144.65,16,144.65h34.46L527.33,733l30.71-190.02l17.3-101.99L514.45,435z"/>
				<path class="st41" d="M516.94,922.89c2.14-50.66,0.73-131.77,3.97-189.98c10.52-64.8,19.41-83.51,30.63-149.68
					c-0.75,4.88-9.86,65.39-17.44,112.44l-5.98,37.45l0.01-0.08C525.88,776.45,520.21,874.08,516.94,922.89z"/>
				<path class="st42" d="M537.76,437.29l-23.3-2.29c0,0-19.52,31.66-29.51,56.38l42.12,78.69l12.71-7.45l11.76,20.62l6.5-40.25
					l7.71-45.48L537.76,437.29z"/>
				<path class="st43" d="M497.09,329.77c9.61-10.33,10.23-14.58,10.23-33.87c0-19.3-5.86-35.45-5.86-35.45s-19.87,1.79-27.14,25.46
					c-9.01,29.34-47.87,69.9-47.36,98.58c8.42-4.31,25.11,9.78,34.57,8.97C463.71,374.99,488.99,338.48,497.09,329.77z"/>
				<path class="st44" d="M497.09,329.77c9-11.04,9.49-14.08,9.41-33.56c-0.05-11.85-1.87-24.34-5.04-35.76
					c2.25,5.65,3.85,11.56,4.96,17.55c2.44,12.9,2.06,29.12,0.47,36.48c-0.69,3.03-1.98,5.92-3.74,8.45
					C501.36,325.43,499.28,327.67,497.09,329.77z"/>
				<path class="st35" d="M495.03,934.72c2.66,16.17,12.77,42.9,19.29,46.71c10.76,3.07,8.86,1.46,8.82-4.19
					c5.1,8.79,10.89,13.3,4.02,13.3c-8.84,0-22.62,0.54-24.32-3.09c-2.94-6.25-4.55-29.92-10.6-29.92l1.88,29.14l-3.21,0.08
					c0,0-4.76-40.12-3.71-44.12C488.63,937.12,493.33,935.7,495.03,934.72z"/>
				<g>
					<path class="st45" d="M500.53,194.99c7.22,7-0.08,23.94-7.42,25.6l-0.3-2.41c5.32-0.68,13.91-15.75,7.48-22.92L500.53,194.99z"
						/>
					<path class="st45" d="M493.7,176.18c-0.15-6.22-1.59-18.85-7.3-17.02c-5.78,0.92,0.41,11.02,5.33,6.8
						c2.07-1.83,2.31-5.31,1.22-7.9c-3.32-8.06-19.67-5.39-15.98,2.46l-4.27,0.71c-2.14-14.77,24.76-13.36,22.42,1.36
						c-0.79,4.71-4.55,6.6-7.57,5.49c-4.88-1.72-6.78-9.17-1.43-10c6.65-2.02,8.37,10.81,8.55,18.12L493.7,176.18z"/>
					<path class="st16" d="M515.52,197.43c0,0-5.31,49.23,4.05,63.69c5.27,8.13,13.67,9.1,20.01,8.39c4.77-0.53,7.91-5.25,6.95-10.1
						c-2.5-12.58-6.7-36.7-4.58-47.54C544.89,196.84,515.52,197.43,515.52,197.43z"/>
					<path class="st23" d="M515.52,197.43c0,0-0.49,4.49-0.9,11.15c4.25,8.79,10.39,18.26,18.93,28.07
						c4.06,4.67,7.64,8.16,10.78,10.73c-2.08-12.45-3.93-27.55-2.37-35.52C544.89,196.84,515.52,197.43,515.52,197.43z"/>
					<g>
						<g>
							<path class="st16" d="M505.57,167.33c1.4-5.06,7.13-12.26,14.71-17.01c16.37-10.28,37.11,1.89,39.59,22.8
								c0.23,1.91,0.27,3.79,0.05,5.58c-1.41,11.41,7.02,17.73,7.02,17.73s-0.44,2.69-3.15,3.44c-2.7,0.75-2.4,2.09-1.52,3.87
								c0.88,1.77,1.81,2.11,1.13,3.47c-0.69,1.37-3.39,1.86-3.39,1.86s1.92,2.75,1.18,4.22c-0.74,1.47-1.85,1.35-1.85,1.35
								s-2.43,1.18-1.92,2.97c0.5,1.8-0.6,3.84-1.5,5.3c-1.27,2.05-9.22,11.74-29.69-7.04
								C505.78,197.08,502.41,178.79,505.57,167.33z"/>
						</g>
						<path class="st46" d="M559.32,176.25c0,0-8.37-1.27-13.68,7.44c0,0,6.85-6.1,12.79-5.65L559.32,176.25z"/>
						<path class="st46" d="M556.64,183.72c0,0,1.91,2.18,1.46,3.59c-0.46,1.4-1.48,1.6-1.48,1.6L556.64,183.72z"/>
						<path class="st25" d="M551.1,188.1c0,0,4.03-3.41,7.24-4.92c3.21-1.51,3.78-3.02,3.78-3.02s-3.19,2.22-6.22,3.41
							C552.86,184.76,551.1,188.1,551.1,188.1z"/>
						<path class="st25" d="M553.69,206.34c1.78,1.55,4.03,2.5,6.33,2.73c-2.34,0.03-4.72-0.63-6.86-2.14
							c-0.18-0.13-0.23-0.38-0.11-0.56c0.12-0.18,0.37-0.23,0.55-0.1c0.01,0.01,0.02,0.02,0.03,0.02L553.69,206.34z"/>
						<path class="st23" d="M553.21,198.91c-0.88,2.2-4.65,2.76-8.42,1.25c-3.77-1.51-6.11-4.51-5.23-6.71
							c0.88-2.2,4.65-2.76,8.42-1.25C551.74,193.71,554.08,196.71,553.21,198.91z"/>
					</g>
					<path class="st45" d="M478.04,165.36c0,0-12.16-4.85-16.61-0.15c-4.45,4.7-1.95,11.47-1.95,11.47s-4.48-4.09-5.02,9.11
						c-0.54,13.2,30.97,38.78,43.88,16.95C511.23,180.91,479.98,165.89,478.04,165.36z"/>
					<path class="st47" d="M498.39,191.24c-5.94-2.36-17.58-4.97-17.44,1.3c-0.32,9.47,12.04,11.68,10.72,4.76
						c-0.61-6.25-13.11-4.94-14.62,0.14c-1.83,5.75,4.18,12.42,10.95,8.89l1.4,2.96c-13.3,6.2-20.94-13.13-10.57-17.42
						c5.85-2.41,14.65-1.3,15.02,5.2c0.32,2.19-0.56,4.82-2.9,5.95c-2.4,1-4.5,0.16-6.18-0.66c-6.19-3.13-6.47-10.76-4.31-13.11
						c3.63-4.18,13.32-1.27,18.38,0.88L498.39,191.24z"/>
					<path class="st47" d="M522.32,138c-20.58,1.48-23.86,19.74-28,36.86c-4.14,17.12,18.78,29.38,20.67,28.57
						c0,0,7-20.69,14.69-20.96c7.69-0.27,28.2-17.46,28.2-17.46C564.56,150.71,542.89,136.52,522.32,138z"/>
					<path class="st16" d="M529.67,182.47c0,0,3.55-5.9-4.52-8.1c-8.07-2.2-8.21,11.36-3.71,15.31
						C525.95,193.63,529.67,182.47,529.67,182.47z"/>
					<path class="st23" d="M527.09,183.26c0,0,2.35-6.6-1.27-6.18c-3.62,0.41-6.16,7.51-3.51,9.01
						C524.96,187.6,527.09,183.26,527.09,183.26z"/>
				</g>
				<g>
					<path class="st48" d="M370.99,229.97l-16.1-31.09c0,0-4.84-8.22,17.22-17.04c13.15-5.27,23.7-8.83,26.54-2.45
						c2.85,6.39,32.52,101.5,32.52,101.5L370.99,229.97z"/>
					<path class="st49" d="M378.93,188.17c-6.3,7.44-15.39,10.48-24.04,10.71l15.12,33.94c0,0,26.87,8.57,22.42-5.56
						C387.98,213.14,378.93,188.17,378.93,188.17z"/>
					<path class="st29" d="M522.81,534.85L345.27,203.17c0,0,32.12,3.95,53.37-23.77l139.32,346.56L522.81,534.85z"/>
				</g>
				<g>
					<path class="st50" d="M415.74,268.38l-19.47-33.94c0,0-5.74-8.97,15.9-18.77c12.9-5.85,23.32-9.82,26.84-2.85
						c3.53,6.97,43.11,110.94,43.11,110.94L415.74,268.38z"/>
					<path class="st51" d="M419.75,222.56c-5.71,8.19-14.68,11.57-23.49,11.88l18.75,37.07c0,0,28.26,9.22,22.33-6.22
						C431.43,249.84,419.75,222.56,419.75,222.56z"/>
					<path class="st48" d="M449.78,237.14c3.12,6.17-8.49,18.31-25.92,27.13c-17.44,8.81-34.1,10.96-37.21,4.8
						c-3.12-6.17,8.48-18.32,25.92-27.13C430,233.12,446.66,230.97,449.78,237.14z"/>
					<path class="st52" d="M439.01,212.82l27.47,59.08L613.7,588.44c-2.03,4.07-6.11,8.07-11.55,10.82
						c-0.74,0.37-1.49,0.72-2.24,1.02L400.4,262.11l-13.53-22.93C386.88,239.19,420.03,243.31,439.01,212.82z"/>
					<g>
						<path class="st53" d="M386.65,269.07L386.65,269.07L386.65,269.07z"/>
						<polygon class="st53" points="449.78,237.14 449.78,237.14 449.78,237.14 						"/>
						<path class="st54" d="M417.99,267.24c-13.82,6.99-27.48,7.95-31.07,2.3l188.25,330.03l0.02-0.01
							c3.36,5.73,12.05,7.24,19.78,3.33c7.97-4.03,11.9-12.3,8.78-18.46L438.11,243.24C441,249.43,432.06,260.12,417.99,267.24z"/>
						<path class="st55" d="M603.75,584.42c-89.36-180.99-165.58-341.07-165.64-341.19C508.98,386.78,500.11,368.57,603.75,584.42z"
							/>
					</g>
				</g>
				<path class="st56" d="M425.91,385.54c-0.75,6.43-3.85,19.71,2.36,21.55c16.55,4.91,63.51,6.65,79.45-0.47
					c20.56-9.19,17.62-14.32,17.62-14.32s-2.27-1.64-2.27-5.62c0-3.98-3.95-8.5-6.14-10.69c-2.19-2.19-11.47,3.97-12.37,4.86
					c-0.89,0.89-8.51,18.34-18.58,15.47c-10.07-2.86-39.96-15.75-52.03-17.26C429.14,378.47,426.31,382.16,425.91,385.54z"/>
			</g>
		</g>
	</g>
</g>
</svg>
