<?xml version="1.0" encoding="utf-8"?>
<!-- Generator: Adobe Illustrator 24.0.1, SVG Export Plug-In . SVG Version: 6.00 Build 0)  -->
<svg version="1.1" id="Layer_1" xmlns="http://www.w3.org/2000/svg" xmlns:xlink="http://www.w3.org/1999/xlink" x="0px" y="0px"
	 viewBox="0 0 1920 1080" style="enable-background:new 0 0 1920 1080;" xml:space="preserve">
<style type="text/css">
	.st0{fill:#BDDFFF;}
	.st1{fill:#33405A;}
	.st2{fill:#FD5E5A;}
	.st3{fill:#591914;}
	.st4{fill:#BF2604;}
	.st5{fill:#F8E000;}
	.st6{fill:#8C1C03;}
	.st7{fill:#4F80FF;}
	.st8{fill:#FC7575;}
	.st9{fill:#284C8B;}
	.st10{fill:#0D3153;}
	.st11{fill:#A695C6;}
	.st12{fill:#C0E2ED;}
	.st13{fill:#56448E;}
	.st14{fill:#2F499F;}
	.st15{fill:#F27F3D;}
	.st16{fill:#EE0085;}
	.st17{fill:#F2A71B;}
	.st18{fill:#F2B90C;}
	.st19{fill:#D6F8F6;}
	.st20{fill:#3A4163;}
	.st21{fill:#591900;}
	.st22{fill:#FF8D8D;}
	.st23{fill:#001959;}
	.st24{fill:#FFFFFF;}
	.st25{fill:#580000;}
	.st26{fill:#55AFFF;}
	.st27{fill:#99C8F2;}
	.st28{fill:#000044;}
	.st29{fill:#172866;}
	.st30{fill:#00005A;}
	.st31{fill:#003135;}
	.st32{fill:#A6D6DF;}
	.st33{fill:#7CC4CF;}
	.st34{fill:#1B0800;}
	.st35{fill:#89A0A1;}
	.st36{fill:#11646F;}
	.st37{fill:#1A818E;}
	.st38{fill:#2699A6;}
	.st39{fill:#172E46;}
	.st40{fill:#26425F;}
	.st41{fill:#2C4A6A;}
	.st42{fill:#406F94;}
	.st43{fill:#051D31;}
	.st44{fill:#F7981D;}
	.st45{fill:#DD8426;}
	.st46{fill:#055257;}
	.st47{fill:#014245;}
	.st48{fill:#1DA8B7;}
	.st49{fill:#D64E27;}
	.st50{fill:#C23827;}
	.st51{fill:#A6D6B4;}
	.st52{fill:#0D64A5;}
	.st53{fill:#2B91BE;}
	.st54{fill:#1E7EA0;}
	.st55{fill:#0C6F88;}
	.st56{fill:#0B9399;}
	.st57{fill:#FFC40C;}
	.st58{fill:#77C7D7;}
	.st59{fill:#675352;}
	.st60{fill:#F06080;}
	.st61{fill:#B72D4C;}
	.st62{fill:#ED3455;}
	.st63{fill:#A6DDEB;}
	.st64{fill:#EB5729;}
</style>
<g>
	<path class="st0" d="M1283.08,144.02c-29.39,15.91-541.58,234.2-477.45,260.83c64.12,26.64,172.77-55.96,172.77-13.33
		c0,42.63-324.33,152.79-225.81,188.28c98.51,35.48,166.3-125.75,207.64-84.41c41.34,41.34-165.85,105.71-154.8,159.42
		c11.05,53.71,284.28-176.76,284.28-126.79c0,49.97-123.69,64.9-70.91,117.68c52.78,52.78,314.44-120.79,314.44-158.18
		c0-37.39-129.13-32.34-66.95-94.52c62.18-62.18,149.53-121.07,80.27-137.19c-69.26-16.12,41.32-90.54,41.32-125.25
		C1387.88,95.86,1283.08,144.02,1283.08,144.02z"/>
	<g>
		<path class="st1" d="M1365.9,184.33H1251v15.45l50.92,21.3l-2.23,48.67l5.11,0.23l2.21-48.44l58.89-16.74V184.33z M1360.79,200.93
			l-55.82,15.87l-48.85-20.44v-6.93h104.67V200.93z"/>
		<path class="st2" d="M1278.42,354.42c6.16-9.07,20.62-15.41,20.62-15.41c1.57-0.74,7.9-0.33,7.61,1.68
			c-0.29,2-4.22,0.48-7.51,3.83c-3.29,3.36-1.12,4.25,0.44,4.47c1.56,0.23,8.54,6.47,8.24,8.57c-0.3,2.1-1.53,2.04-1.86,4.29
			c-0.32,2.25-2.97,4.68-7.61,7.14c-4.63,2.46-15.81,2-18.95,4.35c-0.6,0.45-5.44,4.34-10.19,8.19c-2.61-2.86-6.38-5.17-6.5-9.61
			C1268.2,367.5,1273.25,362.03,1278.42,354.42z"/>
		<g>
			
				<rect x="959.1" y="579.92" transform="matrix(0.0494 -0.9988 0.9988 0.0494 638.9178 1841.3905)" class="st3" width="655.51" height="10.23"/>
		</g>
		<g>
			<path class="st4" d="M1358.15,190.88h-98.94c-1.09,0-1.97-0.88-1.97-1.97v-4.84c0-1.09,0.88-1.97,1.97-1.97h98.94
				c1.09,0,1.97,0.88,1.97,1.97v4.84C1360.12,190,1359.24,190.88,1358.15,190.88z"/>
			<rect x="1263.32" y="177.6" class="st5" width="91.85" height="17.11"/>
			<g>
				<path class="st6" d="M1273.47,177.6c-2.96,4.67-6.2,10.55-8.7,17.11h2.94c2.65-6.64,6.05-12.57,9.02-17.11H1273.47z"/>
				<path class="st6" d="M1286.15,177.6c-2.96,4.67-6.2,10.55-8.7,17.11h2.94c2.65-6.64,6.05-12.57,9.02-17.11H1286.15z"/>
				<path class="st6" d="M1298.84,177.6c-2.96,4.67-6.2,10.55-8.7,17.11h2.94c2.65-6.64,6.05-12.57,9.02-17.11H1298.84z"/>
				<path class="st6" d="M1311.53,177.6c-2.96,4.67-6.2,10.55-8.7,17.11h2.94c2.65-6.64,6.05-12.57,9.03-17.11H1311.53z"/>
				<path class="st6" d="M1324.22,177.6c-2.96,4.67-6.2,10.55-8.7,17.11h2.94c2.65-6.64,6.05-12.57,9.02-17.11H1324.22z"/>
				<path class="st6" d="M1336.91,177.6c-2.96,4.67-6.2,10.55-8.7,17.11h2.94c2.65-6.64,6.05-12.57,9.02-17.11H1336.91z"/>
				<path class="st6" d="M1349.6,177.6c-2.96,4.67-6.2,10.55-8.7,17.11h2.94c2.65-6.64,6.05-12.57,9.02-17.11H1349.6z"/>
			</g>
			<g>
				<path class="st7" d="M1262.76,177.6h0.44C1262.91,177.59,1262.76,177.6,1262.76,177.6z"/>
				<path class="st7" d="M1350.78,186.15c4.95-0.68,4.39-7.09,4.39-8.55c0-1.46-1.12,0-5.57,0c-4.45,0-39.9-0.79-43.05-0.79
					c-3.15,0-7.7,0.79-9.79-0.45c-2.09-1.24-33.43,1.24-33.43,1.24h-0.12c0.9,0.03,3.17,0.22,6.65,1.35
					c4.61,1.5,10.13,2.14,15.3,0.26c5.17-1.87,8.9,1.31,8.9,1.31s0.81,3.89,1.24,5.06c0.43,1.17,2.23-0.3,2.23-0.3
					s-1.79,3.47,1.48,4.13c3.27,0.66-0.22-7.88,4.39-9.12c4.61-1.24,13.62,1.46,13.62,1.46c5.63,1.91,11.14,4.05,12.27,2.93
					c1.12-1.12,4.64-2.09,8.22-0.67s2.66,5.02,3.4,4.28c0.74-0.74,0.6-4.9,2.56-2.93c1.97,1.97,1.99,6.68,3.42,8.1
					c1.43,1.43,0.97-3.38,1.64-1.35c0.68,2.02-3.6,20.82,1.13,20.82C1354.38,212.94,1345.83,186.83,1350.78,186.15z"/>
			</g>
		</g>
		<path class="st8" d="M1307.64,356.25c0,0-18.31-2.87-18.83,0.69c-0.51,3.56,16.88,3.85,16.88,3.85s-16.71-2.25-17.14,0.67
			c-0.42,2.92,13.84,5.01,13.84,5.01s-13.86-3.08-13.56-0.89c0.3,2.19,13.79,4.87,13.79,4.87s2.96-0.84,2.02-2.98
			c-0.69-1.56,0.51-1.98,1.15-2.84c0.65-0.86,1.1-2.84,1.22-3.65C1307.13,360.16,1309.96,357.75,1307.64,356.25z"/>
	</g>
	<path class="st9" d="M1538.11,931.17c0,13.04-185.97,23.61-415.38,23.61c-229.41,0-415.39-10.57-415.39-23.61
		c0-13.04,185.97-23.61,415.39-23.61C1352.13,907.56,1538.11,918.13,1538.11,931.17z"/>
	<path class="st10" d="M1130.79,893.61l-4,32.45c0,0,8.88,0,25.31,0c16.43,0,42.18-2.34,42.18-2.34s-38.61-12.8-38.61-26.99
		c0-14.18,0-14.18,0-14.18L1130.79,893.61z"/>
	<path class="st10" d="M1272.67,894.7c-2.19-5.77-8.25-17.92-8.25-17.92l-19.53,5.77l-4,33.69c0,0,57.71,0,66.59,0
		C1307.49,916.24,1274.87,900.47,1272.67,894.7z"/>
	<g>
		<path class="st11" d="M995.69,835.4c0,0-2.89,73.57-2.89,73.71c0,3.93-22.25,7.12-49.7,7.12c-7.63,0-14.85-0.25-21.31-0.69
			c-16.79-1.14-28.39-3.59-28.39-6.43c0-0.15-3.61-91.59-3.62-91.76h106.65L995.69,835.4z"/>
		<path class="st12" d="M990.52,830.79c-20.98,2.87-57.6,3.8-83.83,1.57c-5.14-0.43-9.88-0.99-14.03-1.68
			c-15.3-2.54-17.19-5.59-9.37-13.58c-0.16,0.25-0.25,0.5-0.25,0.75c0,2.99,11.13,5.61,27.91,7.1c9.29,0.82,20.31,1.3,32.14,1.3
			c33.16,0,60.05-3.76,60.05-8.4c0-0.54-0.37-1.07-1.06-1.58h0.09C1015.91,826.43,998.54,829.7,990.52,830.79z"/>
		<path class="st7" d="M883.04,817.85c0,4.64,26.88,8.4,60.05,8.4c33.16,0,60.05-3.76,60.05-8.4c0-0.64-0.14-1.07-1.11-1.67
			c-1.66-0.88-3.43-1.55-5.39-2.14c-9.92-2.73-30.17-4.59-53.54-4.59C909.93,809.45,883.04,813.22,883.04,817.85z"/>
		<path class="st13" d="M996.42,817.3c0,1.47-4.14,2.82-11.09,3.9c-9.75,1.52-25.04,2.49-42.23,2.49c-0.78,0-1.56,0-2.33-0.01
			c-16.12-0.08-30.37-1.02-39.69-2.45c-7.07-1.08-11.3-2.45-11.3-3.94c0-3.44,22.62-6.24,50.99-6.39c0.78,0,1.55-0.01,2.33-0.01
			C972.55,810.91,996.42,813.77,996.42,817.3z"/>
		<path class="st14" d="M985.33,821.2c-3.04,0.47-6.63,0.89-10.65,1.25h0c-8.84,0.78-19.76,1.24-31.58,1.24
			c-11.77,0-22.65-0.46-31.47-1.23c-3.97-0.35-7.52-0.76-10.55-1.23c9.75-1.51,25.04-2.49,42.23-2.49
			C960.37,818.74,975.57,819.7,985.33,821.2z"/>
		<path class="st7" d="M922.08,830.21c0,0,13.18-6.15,16.22-3.12c3.03,3.03,16.31,6.37,13.52,6.37c-2.78,0-16.71,0.13-18.68,0.1
			C931.16,833.53,919.62,835.86,922.08,830.21z"/>
		<path class="st7" d="M984,823.69c0,0,4.18-0.66,4.18,2.56c0,3.22,4.18,1.47,4.18,5.58c0,4.12-2.32,20.24,2.77,18.03
			c5.09-2.21,0.42-19.74,2.39-19.74c1.97,0-0.74,4.99,3.19,4.99c3.93,0,3.52-5.49,3.52-8.03c0-2.54-4.14-9.48-10.11-7.93
			C988.14,820.72,984,821.36,984,823.69z"/>
	</g>
	<path class="st15" d="M1194.9,312.41c0,0,10.35,90.3,19.37,90.3c9.02,0,48.43-36.47,48.43-36.47l12.09,15.28
		c0,0-45.73,66.86-71.92,55.09c-26.19-11.77-24.69-95.24-24.69-95.24L1194.9,312.41z"/>
	<polygon class="st15" points="1210.46,467.54 1270.61,883.01 1240.53,888.33 1161.5,608.64 1178.17,462.3 	"/>
	<path class="st16" d="M1194.9,315.63c0,0-13.12-10.1-57.58-0.06c-1.21,0.27-2.32,48.51-2.32,48.51s20.62,80.73,16.7,100.88
		c0,0,23.58,19.9,58.75,2.58c0,0-4.57-63.4-1.37-77.52c3.2-14.12,9.58-26.93,0.52-41.58C1200.55,333.78,1194.9,315.63,1194.9,315.63
		z"/>
	<path class="st17" d="M1194.9,312.41c0,0-13.12-8.7-57.58,1.33c-1.21,0.27-2.32,50.34-2.32,50.34s20.62,80.73,16.7,100.88
		c0,0,23.48,78.25,47.22,74.74c6.15-0.91,12.73-63.86,11.52-72.17c0,0-4.57-63.4-1.37-77.52c3.2-14.12,9.58-26.93,0.52-41.58
		C1200.55,333.78,1194.9,312.41,1194.9,312.41z"/>
	<path class="st2" d="M1135.27,484.64c-0.72-0.72-7.02-10-8.37-8.66c-1.35,1.35,5.58,9.91,5.58,9.91s-8.03-8.13-9.62-6.54
		c-1.59,1.59,10.74,12.56,12.03,12.56C1136.2,491.91,1135.27,484.64,1135.27,484.64z"/>
	<path class="st8" d="M1146.16,475.47c-0.11-0.2-4.85-5.76-11.13-13.92c-2.01-2.61-4.18-5.51-6.41-8.56
		c-3.09,2.6-6.01,5.65-9.27,8.22c2.64,3.23,5.04,6.19,7.02,8.71l0,0c2.18,2.85,3.68,5.03,4.24,6.26c3.75,8.4,4.29,15.73,4.29,15.73
		s7.6-0.27,9.3-1.97c1.7-1.7,0.36-4.29,2.86-6.79C1149.55,480.65,1146.16,475.47,1146.16,475.47z"/>
	<path class="st18" d="M1103.66,399.61c4.3-19.03,29.39-29.87,33.68-39.27c4.41-9.65,0.82-46.82,0.82-46.82
		c-18.65-1.25-61.54,78.27-60.47,90.26c0.75,8.37,22.13,42.91,38.01,62.34c3.26-2.56,9.83-10.53,12.92-13.13
		C1115.73,435.32,1100.92,411.73,1103.66,399.61z"/>
	<path class="st19" d="M1138.16,313.52c0.66,8.17,0.37,18.12,0.52,26.46c0.14,14.72-0.75,19.36-4,23.05
		c-7.54,8.74-27.72,19.42-31.03,36.58c4.7-17.01,24.22-26.48,32.1-35.66c2.98-3.43,3.55-7.09,3.92-11.74
		C1140.48,341.34,1139.82,324.45,1138.16,313.52z"/>
	<path class="st20" d="M951.13,906.79l3.59,24.37c0,0-14.38,0-24.37,0c-9.99,0-37.56,0-37.56,0s2-5.99,19.98-9.59
		c17.98-3.6,20.11-10.39,20.11-10.39l-2.53-15.18l16.38-2.4L951.13,906.79z"/>
	<path class="st15" d="M970.92,372.99c0,0-4.15-37.14-13.87-37.14c-20.36,0-54.46,102.92-55.52,118.08
		c-1.79,25.53,15.77,27.05,32.98,29.12c16.84,2.03,19.97-34.95,19.97-34.95L970.92,372.99z"/>
	<path class="st20" d="M1015.06,904.4l2.4,13.18c0,0-6.19,20.18-15.58,29.57s-29.57,9.99-29.57,2c0-7.99,21.05-32.77,21.05-42.36
		C993.35,897.2,1015.06,904.4,1015.06,904.4z"/>
	<polygon class="st17" points="1031.94,341.4 1000.72,329.61 976.44,331.16 957.05,335.85 928.35,456.03 930.35,554.78 
		1020.65,554.78 1005.07,492.29 	"/>
	<path class="st21" d="M958.75,390.74c-26.61,86.87-17.95,154.55-17.97,154.29l0,0.04c0.02,0.37-0.26,0.68-0.62,0.71
		c-1.26,0.08-0.5-1.42-1.6-13.66l-0.45-6.52c-2.76-50.18,8.36-121.81,36.29-184.79c0.71-1.61,3.15-0.53,2.44,1.08l0,0.01
		C976.04,343.86,967.89,360.76,958.75,390.74z"/>
	<path class="st2" d="M993.38,462.3c-6.86,4.79-11.33,11.72-26.14,15.92c8.67,6.77,18.59,13.8,28.05,19.28
		c2.25-11.98,3.87-21.88,4.14-33.86C999.1,463.77,993.72,462.2,993.38,462.3z"/>
	<path class="st18" d="M1049.96,365.14c-4.4-13.91-18.02-23.75-18.02-23.75c-14.95-1.73-19.3,76.81-19.3,76.81l-5.94,43.4
		c-1.22,1.3-5.66,0.03-7.26,0.69c-0.27,11.98-4.72,24.7-6.96,36.68c14.78,8.57,31.23,11.89,37.13,5.99
		C1043.01,491.58,1054.37,379.07,1049.96,365.14z"/>
	<path class="st8" d="M923.14,420.12c-5.86-1.26-24.15,5.09-24.15,5.09s-4.85,6.74-4.85,11.08c0,0.73,0.41,1.1,1.08,1.02
		c-1.26,0.92-1.87,1.67-1.36,2.18c2.42,2.42,21.52-6.76,22.66-5.62c1.14,1.14-21.7,4.87-19.85,9c0.77,1.73,9.55-1.02,15.07-2.93
		c-4.81,1.87-11.83,4.91-11.83,6.74c0,2.81,19.91-1.51,24.27-1.51c1.63,0,4.28,1.73,7.29,3.62c1.35-0.24,2.26,0.39,2.83,0.22
		c0,0,14.91-0.33,33.88,2.03C947.45,438.63,924.73,420.47,923.14,420.12z M902.47,433.36c-1.53,0.75-3.01,1.51-4.34,2.22
		c1.28-1.22,2.32-3.91,4.13-5.19c3.71-2.63,9.31-4.09,10.14-3.26C913.4,428.15,907.81,430.75,902.47,433.36z"/>
	<path class="st22" d="M1010.1,436.7c-1.01,4.81-0.84,19.19-3.12,22.78c0,0-2.48-1.75-3.29-0.9h-0.02
		c-8.11,4.32-19.58,16.23-41.95,20.99c-21.97,4.6-51.94,6.98-51.94-7.94c0-14.9,15.01-23.07,24.52-23.07c0,0,14.91,0.1,33.88,2.46
		c0.02,0,0.02,0,0.04,0C987.18,453.42,1008.13,435.2,1010.1,436.7z"/>
	<g>
		<path class="st8" d="M968.74,278.56l1.31,42.89l0.26,8.4c0.09,2.8-0.32,13.58,1.99,15.16c5.35,3.67,19.75,2.77,28.43-1.11
			c7.87-3.52-8.83-66.92-8.83-66.92S978.31,276.05,968.74,278.56z"/>
		<path class="st2" d="M991.9,277c0,0,0.53,2.02,1.36,5.35c-0.22,4.81-0.81,12.26-2.33,17.82c-2.03,7.43-11.39,20.07-20.88,21.29
			l-1.31-42.89C978.31,276.05,991.9,277,991.9,277z"/>
		<g>
			<path class="st23" d="M988.48,215.17c4.95,6.3,9.11,15.19,2.83,20.1c7.19-4.28,3.9-14.72-0.44-21.83L988.48,215.17z"/>
			<path class="st8" d="M958.95,242.47c0,0-10.6,1.88-11.05,15.43c-0.46,13.55,7.98,50.59,18.81,53.48
				c10.83,2.89,22.73-10.66,24.96-18.21c2.32-7.85,2.18-19.99,2.18-19.99S991.82,224.43,958.95,242.47z"/>
			<path class="st23" d="M1005.45,291.24c0,0-2.36,3.12-5.38-0.62c0,0-7-8.62-1.77-15.74c5.24-7.12,13.21-16.91,11.06-29.27
				c-2.15-12.36-17.1-11.47-17.1-11.47s-3.43-18.93-24.03-11.47c0,0-4.17-3.91-16.36-2.73c-12.19,1.18-8.93,7.71-16.02,6.96
				c-7.1-0.75-8.38-6.21-5.53-8.51c0,0-11.8,6.17-12.84,15.96c-1.04,9.79,17.58,9.3,17.58,9.3s-14.9,2.77-3.14,8.53
				c11.76,5.76,17.31,5.36,23.99-1.85c6.68-7.21,10.34-9.05,14.15-7.65c3.81,1.4,2.93,9.72,8.56,10.32
				c5.63,0.6,10.02,15.18,10.02,15.18s4.25-1.68,4.57,8.71c0.33,10.38-0.73,16.83,5.63,17.51
				C1005.22,295.05,1005.45,291.24,1005.45,291.24z"/>
			<path class="st8" d="M991.01,256.04c3.27-0.57,11.31,1.45,5.26,12.19c-6.05,10.74-12.35,0.16-11.86-4.46
				C984.9,259.16,988.51,256.47,991.01,256.04z"/>
			<path class="st23" d="M960.43,272.58c1.09,6.2,1.38,12.26,2.99,18.02c1.44-0.06,2.88-0.07,4.34,0.01
				c-2.41,0.95-4.4,1.43-5.31,1.69C962.36,292.01,959.46,284.18,960.43,272.58z"/>
			<g>
				<path class="st23" d="M962.86,270.63c0.37,0.04,0.73-0.21,0.8-0.59c0.02-0.1,0.6-2.67,3.72-4.14c2.71-1.28,9.6,0.1,12.04,0.73
					c0.42,0.11,0.8-0.13,0.9-0.53c0.1-0.39-0.13-0.8-0.53-0.9c-0.38-0.1-9.3-2.4-13.04-0.64c-3.83,1.8-4.52,5.05-4.55,5.19
					c-0.08,0.4,0.18,0.79,0.58,0.87C962.81,270.62,962.84,270.62,962.86,270.63z"/>
			</g>
			<path class="st24" d="M975.61,293.23c0,0-10.52,4.08-16.71,2.96c0,0,1.35,4.78,5.03,5.92
				C967.62,303.24,974.81,300.67,975.61,293.23z"/>
			<path class="st2" d="M995.64,262.35c0,0-0.23,7.4-3.83,7.51c-3.6,0.12-4.75-5.33-2.47-8.18
				C991.62,258.82,995.86,260.23,995.64,262.35z"/>
			<path class="st23" d="M965.52,273.43c0.25,1.42,1.36,2.41,2.48,2.21c1.12-0.2,1.83-1.51,1.57-2.93
				c-0.25-1.42-1.36-2.41-2.48-2.21C965.97,270.7,965.27,272.01,965.52,273.43z"/>
			<path class="st23" d="M950.9,275.26c0.25,1.42,1.36,2.41,2.48,2.21c1.12-0.2,1.83-1.51,1.58-2.93c-0.25-1.42-1.36-2.41-2.48-2.21
				C951.35,272.53,950.65,273.84,950.9,275.26z"/>
			<g>
				<path class="st23" d="M956.04,270.71c0.29,0.29,0.29,0.76,0,1.04c-0.17,0.16-0.39,0.23-0.6,0.21c-0.16-0.02-0.32-0.09-0.44-0.21
					c-0.81-0.81-3.3-2.97-5.05-3.16c-0.43-0.05-0.86-0.06-1.28-0.06c-0.07-0.5-0.14-0.99-0.2-1.47c0.53-0.01,1.08,0.01,1.63,0.07
					C952.72,267.41,955.9,270.58,956.04,270.71z"/>
			</g>
		</g>
	</g>
	<polygon class="st15" points="977.1,627.77 940.54,756.28 960.32,911.19 930.35,911.19 897.98,747.37 930.35,554.78 	"/>
	<path class="st17" d="M930.35,554.78l25.31,77.52c0,0,29.83,104.68,35.23,167.82c5.4,63.13,0,106.28,0,106.28l41.98,6.76
		c0,0,4.97-133.03-1.43-176.98c-6.39-43.95,1.43-151.03,1.43-151.03l-12.21-30.37H930.35z"/>
	<path class="st17" d="M1151.71,464.97c0,0-23.44,30.02-28.99,60.21c-5.54,30.19-7.52,185.57-7.52,185.57l-6.72,33.4l16.05,157.65
		l39.51-6.44c0,0,15.22-259.2,27.69-311.59c12.46-52.39,9.36-64.82,9.36-64.82L1199.2,472L1151.71,464.97z"/>
	<path class="st25" d="M1182.39,320.32c3.94,29.8,7.65,59.61,11.07,89.47c1.68,14.93,3.34,29.87,4.73,44.83
		c1.31,14.97,2.82,29.93,2.71,45.05c0,0.32-0.26,0.58-0.58,0.57c-0.32,0-0.58-0.26-0.58-0.58v-0.04
		c-0.01-14.94-1.64-29.93-3.07-44.86c-1.51-14.94-3.29-29.85-5.1-44.76c-3.66-29.81-7.63-59.59-11.81-89.33
		c-0.1-0.73,0.4-1.4,1.13-1.51c0.73-0.11,1.4,0.4,1.51,1.13L1182.39,320.32z"/>
	<path class="st7" d="M1125.22,334.24c0,0-8.42,19.84-5.78,20.24c2.64,0.39-0.13,7.85,0.61,14.46c0.74,6.61,3.94-13.64,6.77-15.74
		c2.83-2.1,3.89-1.99,5.23-10.99c1.34-9,3.83-25.69,0.44-21.03C1129.1,325.84,1125.22,334.24,1125.22,334.24z"/>
	<path class="st7" d="M1168.48,625.28c0,0,3.36-11.32-3.85-11.32c-7.2,0-11.07,37.34-7.78,40.62
		C1160.14,657.87,1168.48,625.28,1168.48,625.28z"/>
	<path class="st26" d="M1149.21,526.36c0,0-7.04,23.23-1.79,34.55c5.24,11.32,0.33-16.73,7.7-24.1c7.37-7.37,4.46-33.17,4.46-41.83
		c0-8.66-3.61,3.23-8.88,8.5c-5.27,5.27-10.61-2.54-10.61,8.46C1140.09,522.95,1149.21,526.36,1149.21,526.36z"/>
	<path class="st7" d="M1148.57,348.41c0,0-5.03,6.48-1.85,6.48C1149.9,354.89,1151.89,348.41,1148.57,348.41z"/>
	<path class="st7" d="M1150.12,339.88L1150.12,339.88c-1.18,0-2.14-0.96-2.14-2.14l0,0c0-1.18,0.96-2.14,2.14-2.14l0,0
		c1.18,0,2.14,0.96,2.14,2.14l0,0C1152.26,338.92,1151.29,339.88,1150.12,339.88z"/>
	<path class="st7" d="M1153,331.53L1153,331.53c-0.4,0-0.74-0.33-0.74-0.74l0,0c0-0.4,0.33-0.74,0.74-0.74l0,0
		c0.41,0,0.74,0.33,0.74,0.74l0,0C1153.73,331.2,1153.4,331.53,1153,331.53z"/>
	<path class="st26" d="M1028.02,355.13c0,0,6.44-4.66,7.33,0c0.89,4.66,5.55,17.76,5.55,26.64c0,8.88-6.44,9.32-6.44,4.88
		c0-4.44-5.11-10.86-5.11,5.11c0,15.97-4.66,26.86-5.99,28.19c-1.33,1.33-5.33-5.16-5.33-10.46s-3.11-9.95-2-16.62
		c1.11-6.67,10.88-36.31,10.88-36.31L1028.02,355.13z"/>
	<path class="st27" d="M1035.07,399.61c0,0-4.16,7.91,0,6.08C1039.23,403.86,1037.86,396.82,1035.07,399.61z"/>
	<path class="st27" d="M1036.9,415.84c-0.59,0.59-3.58,10.24,0,6.66C1040.48,418.92,1039.4,413.35,1036.9,415.84z"/>
	<path class="st27" d="M1009.73,345.15c0,0-14.98,3.4-6.89,7.92c8.09,4.51,14.08,6.05,14.08,3.5
		C1016.92,354.02,1009.73,345.15,1009.73,345.15z"/>
	<path class="st2" d="M1177.17,260.84c0,1.75-2.33,3.16-5.21,3.16c-2.88,0-5.21-1.41-5.21-3.16c0-1.74,2.33-3.16,5.21-3.16
		C1174.83,257.68,1177.17,259.09,1177.17,260.84z"/>
	<path class="st2" d="M1196.94,260.84c0,1.75-2.33,3.16-5.21,3.16c-2.88,0-5.21-1.41-5.21-3.16c0-1.74,2.33-3.16,5.21-3.16
		C1194.61,257.68,1196.94,259.09,1196.94,260.84z"/>
	<path class="st28" d="M1155.11,271.89c-1.18,1.18-7.14,3.69-7.14,9.29c0,5.59,7.88,11.03,4.23,12.78
		c-3.64,1.76-5.88-0.96-5.88,6.87c0,7.83,5.94,11.91,5.94,11.91s9.09,1.19,13.4-3.12c4.31-4.31-1.34-7.83,1.09-12.47
		c2.43-4.64,6.71-6.92,5.21-11.45c-0.67-2.01-3.57-5.82-7.15-8.48C1160.34,273.9,1155.11,271.89,1155.11,271.89z"/>
	<g>
		<path class="st28" d="M1152.2,222c3.24-3.24,16.41-4.01,16.41-4.01h0.98c4.12-1.57,25.92,30.83,23.17,48.11
			c-2.75,17.28-4.71,15.51-17.08,17.67c-12.37,2.16-21.6-7.07-24.73-17.28C1147.82,256.28,1148.96,225.24,1152.2,222z"/>
		<path class="st8" d="M1187.66,277.29c0.88,0.89-2.69,26.4,0.84,33.46c0,0-0.64,12.91-6.96,13.67c-5.5,0.66-15.47-5.86-16.56-10.9
			c-1.47-6.78,0-40.65,0-40.65L1187.66,277.29z"/>
		<path class="st2" d="M1187.29,287.85c-8.39,7.59-16.3,4.14-22.66-5.38c0.15-4.8,0.33-9.32,0.35-9.6l22.68,4.42
			C1188.02,277.66,1187.63,282.17,1187.29,287.85z"/>
		<path class="st8" d="M1185.01,219.96c0,0,10.63,2.02,11.89,11.13c1.27,9.11,3.04,16.7,1.27,27.33
			c-1.77,10.63-8.1,24.8-18.47,27.07c-10.37,2.28-21.25-14.93-21.25-24.29c0-9.36-3.8-25.05,3.29-34.66
			C1168.82,216.93,1185.01,219.96,1185.01,219.96z"/>
		<path class="st2" d="M1185.01,219.96c0,0,10.63,2.02,11.89,11.13c1.15,8.26,2.71,15.26,1.67,24.42c-1.69-1.17-4.09-2.34-7.47-3.46
			c-11.6-3.82-21.97-26.24-22.41-27.19l-0.18-0.4l-0.03-0.44c-0.06-0.89,0.06-1.82,0.32-2.76
			C1176.26,218.32,1185.01,219.96,1185.01,219.96z"/>
		<path class="st28" d="M1161.23,255.89c0,0-4.05-4.68-6.07-6.71c-2.02-2.02-7.08-22.01-2.02-28.84c5.06-6.83,14.74-7.21,22.49-8.1
			c7.75-0.89,20.03,5.01,20.72,16.55c0,0-19.93-7.57-25.5-4.91c-5.57,2.66-7.84,5.82-8.98,12.02
			C1160.72,242.1,1161.23,255.89,1161.23,255.89z"/>
		<path class="st8" d="M1161.23,255.89c0,0-2.71-11.75-7.22-8.91c-4.51,2.84,0.33,15.84,4.53,15.84
			C1162.75,262.83,1161.23,255.89,1161.23,255.89z"/>
		<path class="st2" d="M1156.85,249.46c0,0,6.66,10.68,2.09,9.5C1154.37,257.78,1152.57,247.47,1156.85,249.46z"/>
		<g>
			<path class="st29" d="M1185.11,262.85c-0.28-2.91-0.47-5.82-0.45-8.75c0.65,3.71,0.8,6.41,1.02,9.11
				c-1.55,0.42-3.4,1.29-5.73,0.41C1181.73,263.96,1183.49,263.45,1185.11,262.85z"/>
		</g>
		<path class="st29" d="M1179.36,253.82c-0.53-1.67-1.96-3.28-3.91-3.8c-3.47-0.91-5.59,4.09-7.97,4.04
			c1.71,0.88,4.44-2.05,6.32-2.79c1.02-0.41,1.92-0.13,2.93,0.35C1177.7,252.13,1178.58,252.91,1179.36,253.82z"/>
		<path class="st29" d="M1173.07,252.32c0,1.05,0.76,1.91,1.69,1.91c0.93,0,1.69-0.86,1.69-1.91c0-1.06-0.76-1.91-1.69-1.91
			C1173.83,250.41,1173.07,251.26,1173.07,252.32z"/>
		<path class="st29" d="M1187.08,254.91c0.6-1.65,2.11-3.18,4.08-3.62c3.51-0.75,5.4,4.34,7.78,4.4c-1.74,0.8-4.35-2.25-6.19-3.07
			c-1-0.46-1.91-0.21-2.94,0.22C1188.81,253.29,1187.9,254.04,1187.08,254.91z"/>
		<path class="st29" d="M1193.42,253.69c-0.05,1.05-0.84,1.88-1.77,1.83c-0.93-0.04-1.65-0.93-1.6-1.98
			c0.05-1.05,0.84-1.87,1.77-1.83C1192.75,251.75,1193.47,252.64,1193.42,253.69z"/>
		<path class="st29" d="M1180.59,245.73c0.38-0.25-2.65-3.29-6.28-3.63c-3.63-0.34-7.56,3.63-7.56,3.63s5.35-3.19,7.61-2.16
			C1176.61,244.6,1178.5,247.09,1180.59,245.73z"/>
		<g>
			<path class="st29" d="M1185.61,273.26c0.39-0.06,0.29-0.65-0.09-0.58c-0.06,0.01-6.03,0.81-10.99-3.11
				c-0.31-0.24-0.67,0.22-0.37,0.46C1177.53,272.69,1182.32,273.76,1185.61,273.26z"/>
		</g>
		<g>
			<path class="st29" d="M1181.15,275.19c0.15,0,0.28-0.12,0.29-0.27c0.06-0.73-4.35-0.21-5.98-2.89c-0.2-0.33-0.71-0.03-0.5,0.31
				c1.51,2.47,5.98,2.84,6.17,2.85C1181.13,275.19,1181.14,275.19,1181.15,275.19z"/>
		</g>
		<path class="st30" d="M1185.99,214.34c9.74,2.15,12.68,17.14,20.65,25.11c7.97,7.97,5.95,19.48,2.15,27.07
			c-3.8,7.59-9.88,2.66-9.88,2.66s3.18,1.77,5.2-4.56c2.02-6.33-1.52-11.26-12.27-14.8s-21-25.93-21-25.93
			C1170.57,219.51,1176.25,212.19,1185.99,214.34z"/>
		<path class="st31" d="M1198.92,269.18c3.69,2.15,8.9-6.89,5.1-12.8c-2.76-4.57-8.82-6.49-13.66-8.49
			c-7.67-4.4-15.04-16.57-19.51-24c3.24,8.87,10.11,21.17,18.39,26.07l1.99,0.86c2.05,0.83,8.28,2.5,11.29,6.56
			c2.42,3.18,1.27,8.13-0.34,10.47C1201.49,268.86,1200.23,269.65,1198.92,269.18z"/>
	</g>
	<path class="st28" d="M1153,299.39c0,0-6.67-2.13-6.67,4.79s11.45,13.64,10.07,13.64s-7.76-0.11-6.28,4.69
		c1.48,4.79,12.99,8.28,12.99,8.28s6.61-9.02,5.43-13.29c-1.17-4.26-4.82-1.49-4.82-1.49s5.82-8.97,3.03-13.06
		C1163.95,298.86,1153,299.39,1153,299.39z"/>
	<path class="st28" d="M1179.74,351.65c0,0-6.85-11.07-16.64-20.86c0,0-6.25,12.55-1.61,27.25c4.64,14.7,1.77,24.29,1.77,24.29
		s10.07-4.64,10.07-14.22c0,0,2.67,7.18,1.57,13.42C1174.91,381.52,1184.23,362.04,1179.74,351.65z"/>
</g>
<g>
	<g>
		<g>
			<path class="st32" d="M1312.36,895.78h-15.51V653.62c0-33.42,27.19-60.62,60.62-60.62c33.43,0,60.62,27.2,60.62,60.62v43.57
				h-15.51v-43.57c0-24.87-20.24-45.11-45.11-45.11c-24.87,0-45.11,20.24-45.11,45.11V895.78z"/>
		</g>
		<path class="st33" d="M1409.59,697.19v-43.97c0-28.74-23.38-52.11-52.11-52.11c-28.73,0-52.11,23.38-52.11,52.11v242.56h7V653.62
			c0-24.87,20.24-45.11,45.11-45.11c24.88,0,45.11,20.24,45.11,45.11v43.57H1409.59z"/>
	</g>
	<g>
		<path class="st34" d="M1384.78,904.57c0,19.42-10.72,35.17-23.95,35.17c-13.23,0-23.95-15.75-23.95-35.17
			c0-19.43,10.72-35.17,23.95-35.17C1374.06,869.4,1384.78,885.15,1384.78,904.57z"/>
		<path class="st32" d="M1383.41,904.57c0,16.36-7.09,29.63-15.83,29.63c-8.74,0-15.83-13.27-15.83-29.63
			c0-16.37,7.09-29.63,15.83-29.63C1376.32,874.94,1383.41,888.21,1383.41,904.57z"/>
		<path class="st35" d="M1380.74,904.57c0,13.61-5.89,24.65-13.17,24.65c-7.27,0-13.17-11.04-13.17-24.65
			c0-13.61,5.9-24.65,13.17-24.65C1374.85,879.92,1380.74,890.96,1380.74,904.57z"/>
		<path class="st32" d="M1373.94,904.57c0,6.58-2.85,11.91-6.36,11.91c-3.51,0-6.36-5.33-6.36-11.91c0-6.58,2.85-11.91,6.36-11.91
			C1371.09,892.66,1373.94,897.99,1373.94,904.57z"/>
	</g>
	<path class="st36" d="M1487.7,869.3c0,36.54-29.62,66.17-66.16,66.17l0,0c-36.54,0-66.17-29.62-66.17-66.17V758.87
		c0-36.54,29.63-66.16,66.17-66.16l0,0c36.54,0,66.16,29.62,66.16,66.16V869.3z"/>
	<path class="st37" d="M1458.46,882.86c0,28.47-23.07,51.54-51.54,51.54l0,0c-28.47,0-51.55-23.08-51.55-51.54V745.3
		c0-28.47,23.08-51.54,51.55-51.54l0,0c28.47,0,51.54,23.08,51.54,51.54V882.86z"/>
	<rect x="1364.92" y="837.06" class="st36" width="30.74" height="2.58"/>
	<polygon class="st36" points="1458.46,761.09 1437.6,761.09 1437.6,866.05 1440.19,866.05 1440.19,763.67 1458.46,763.67 	"/>
	<rect x="1364.92" y="843.34" class="st36" width="30.74" height="2.58"/>
	<rect x="1364.92" y="849.62" class="st36" width="30.74" height="2.58"/>
	<rect x="1364.92" y="855.9" class="st36" width="30.74" height="2.58"/>
	<path class="st38" d="M1426.02,739.24c0,9.81-7.95,17.76-17.76,17.76c-9.81,0-17.76-7.95-17.76-17.76
		c0-9.81,7.95-17.75,17.76-17.75C1418.06,721.49,1426.02,729.43,1426.02,739.24z"/>
	<path class="st39" d="M1352.63,863.5v6.75c0,38.05,30.85,68.9,68.9,68.9c38.05,0,68.9-30.85,68.9-68.9v-6.75H1352.63z"/>
	<path class="st40" d="M1352.63,863.5v20.87c0,29.64,24.03,53.68,53.68,53.68c29.64,0,53.68-24.03,53.68-53.68V863.5H1352.63z"/>
	<path class="st38" d="M1436.07,708.82c4.32,8.64-26.08-0.23-44.12,11.19c-18.04,11.42-34.06,71.51-34.06,71.51
		c-2.53-55.98,6.31-75.43,24.35-86.85C1400.28,693.25,1427.54,695.34,1436.07,708.82z"/>
	<g>
		<path class="st34" d="M1511.65,904.57c0,19.42-10.73,35.17-23.96,35.17c-13.23,0-23.95-15.75-23.95-35.17
			c0-19.43,10.72-35.17,23.95-35.17C1500.93,869.4,1511.65,885.15,1511.65,904.57z"/>
		<path class="st32" d="M1510.28,904.57c0,16.36-7.09,29.63-15.83,29.63c-8.75,0-15.83-13.27-15.83-29.63
			c0-16.37,7.09-29.63,15.83-29.63C1503.19,874.94,1510.28,888.21,1510.28,904.57z"/>
		<path class="st35" d="M1507.62,904.57c0,13.61-5.89,24.65-13.16,24.65c-7.27,0-13.17-11.04-13.17-24.65
			c0-13.61,5.89-24.65,13.17-24.65C1501.72,879.92,1507.62,890.96,1507.62,904.57z"/>
		<path class="st32" d="M1500.81,904.57c0,6.58-2.85,11.91-6.36,11.91c-3.51,0-6.36-5.33-6.36-11.91c0-6.58,2.85-11.91,6.36-11.91
			C1497.96,892.66,1500.81,897.99,1500.81,904.57z"/>
	</g>
	<path class="st36" d="M1423.52,739.24c0,8.43-6.83,15.27-15.26,15.27c-8.43,0-15.27-6.83-15.27-15.27
		c0-8.43,6.83-15.26,15.27-15.26C1416.69,723.98,1423.52,730.81,1423.52,739.24z"/>
	<path class="st41" d="M1427.63,873.09c3.28,5.12-10.12,11.47-29.94,14.18c-19.82,2.71-38.55,0.76-41.83-4.35
		c-3.28-5.12,10.13-11.47,29.94-14.19C1405.62,866.02,1424.35,867.97,1427.63,873.09z"/>
	<path class="st42" d="M1422.94,872.32c0.83,1.29-17.17-0.8-34.38,1.55c-17.21,2.35-27.1,8.27-27.94,6.98
		c-0.83-1.29,8.39-7.78,25.6-10.13C1403.42,868.36,1422.11,871.03,1422.94,872.32z"/>
	<path class="st42" d="M1417.17,877.55c0,1.93-1.99,3.49-4.46,3.49c-2.46,0-4.45-1.56-4.45-3.49c0-1.93,1.99-3.49,4.45-3.49
		C1415.18,874.06,1417.17,875.62,1417.17,877.55z"/>
	<g>
		<g>
			<path class="st32" d="M1481.28,862.33c-79.67,0-79.67-37.46-79.67-127.97h13.29c0,94.64,2.24,114.68,66.38,114.68
				c30.6,0,48.88-15.02,48.88-40.18c0-14.39-2.96-24.63-8.8-30.45c-7.65-7.61-20.07-7.53-31.04-7.5l-2.62,0.01v-13.29l2.56-0.01
				c12.22-0.06,28.92-0.13,40.48,11.37c8.56,8.52,12.72,21.56,12.72,39.87C1543.45,841.84,1519.63,862.33,1481.28,862.33z"/>
		</g>
		<g>
			<g>
				<path class="st33" d="M1521.36,778.41c5.23,5.21,8.13,14,8.68,26.11c0.04-0.83,0.12-1.64,0.12-2.5c0-14.39-2.96-24.63-8.8-30.45
					c-7.65-7.61-20.07-7.53-31.04-7.5l-2.62,0.01v6.83l2.62-0.01C1501.29,770.88,1513.71,770.8,1521.36,778.41z"/>
				<path class="st33" d="M1481.28,855.5c-77.63,0-79.62-35.59-79.67-121.14h0c0,90.51,0,127.97,79.67,127.97
					c38.35,0,62.17-20.49,62.17-53.47c0-1.16-0.06-2.23-0.1-3.35C1541.73,836.44,1518.26,855.5,1481.28,855.5z"/>
			</g>
		</g>
	</g>
	<path class="st32" d="M1418.82,739.24c0,5.83-4.73,10.56-10.55,10.56c-5.83,0-10.56-4.72-10.56-10.56
		c0-5.83,4.72-10.56,10.56-10.56C1414.09,728.68,1418.82,733.41,1418.82,739.24z"/>
	<g>
		<rect x="1295.6" y="879.92" class="st40" width="18.5" height="41.52"/>
		<g>
			<g>
				<g>
					<path class="st41" d="M1316.93,901.02c0,0.77-0.62,1.4-1.4,1.4h-21.37c-0.77,0-1.4-0.63-1.4-1.4v-25c0-0.77,0.63-1.39,1.4-1.39
						h21.37c0.77,0,1.4,0.62,1.4,1.39V901.02z"/>
					<path class="st39" d="M1315.87,874.68v26.07c0,0.68-0.55,1.23-1.23,1.23h-19.58c-0.68,0-1.23-0.55-1.23-1.23v-26.07
						c-0.61,0.15-1.06,0.69-1.06,1.35v25c0,0.77,0.63,1.4,1.4,1.4h21.37c0.77,0,1.4-0.63,1.4-1.4v-25
						C1316.93,875.37,1316.47,874.83,1315.87,874.68z"/>
					<g>
						<path class="st39" d="M1296.06,875.49c-0.23,0-0.42,0.19-0.42,0.42v26.29h0.83V875.9
							C1296.47,875.67,1296.28,875.49,1296.06,875.49z"/>
						<path class="st39" d="M1298.32,875.49c-0.23,0-0.41,0.19-0.41,0.42v26.29h0.83V875.9
							C1298.73,875.67,1298.55,875.49,1298.32,875.49z"/>
						<path class="st39" d="M1300.58,875.49c-0.23,0-0.42,0.19-0.42,0.42v26.29h0.83V875.9
							C1300.99,875.67,1300.81,875.49,1300.58,875.49z"/>
						<path class="st39" d="M1302.84,875.49c-0.23,0-0.42,0.19-0.42,0.42v26.29h0.83V875.9
							C1303.25,875.67,1303.07,875.49,1302.84,875.49z"/>
						<path class="st39" d="M1305.1,875.49c-0.23,0-0.42,0.19-0.42,0.42v26.29h0.83V875.9
							C1305.51,875.67,1305.33,875.49,1305.1,875.49z"/>
						<path class="st39" d="M1307.36,875.49c-0.23,0-0.42,0.19-0.42,0.42v26.29h0.83V875.9
							C1307.77,875.67,1307.59,875.49,1307.36,875.49z"/>
						<g>
							<rect x="1296.7" y="874.97" class="st42" width="0.52" height="26.67"/>
							<rect x="1298.96" y="874.97" class="st42" width="0.52" height="26.67"/>
							<rect x="1301.22" y="874.97" class="st42" width="0.52" height="26.67"/>
							<rect x="1303.48" y="874.97" class="st42" width="0.51" height="26.67"/>
							<rect x="1305.74" y="874.97" class="st42" width="0.52" height="26.67"/>
							<rect x="1308" y="874.97" class="st42" width="0.52" height="26.67"/>
							<polygon class="st42" points="1294.95,901.64 1294.43,901.14 1294.43,874.97 1294.95,874.97 							"/>
						</g>
						<path class="st39" d="M1309.62,875.49c-0.23,0-0.42,0.19-0.42,0.42v26.29h0.83V875.9
							C1310.03,875.67,1309.85,875.49,1309.62,875.49z"/>
						<path class="st39" d="M1311.88,875.49c-0.23,0-0.42,0.19-0.42,0.42v26.29h0.83V875.9
							C1312.3,875.67,1312.11,875.49,1311.88,875.49z"/>
						<path class="st39" d="M1314.14,875.49c-0.23,0-0.42,0.19-0.42,0.42v26.29h0.83V875.9
							C1314.56,875.67,1314.37,875.49,1314.14,875.49z"/>
						<g>
							<rect x="1310.26" y="874.97" class="st42" width="0.52" height="26.67"/>
							<rect x="1312.52" y="874.97" class="st42" width="0.52" height="26.67"/>
							<rect x="1314.78" y="874.97" class="st42" width="0.52" height="26.67"/>
						</g>
					</g>
				</g>
			</g>
		</g>
		<g>
			<polygon class="st39" points="1302.71,933.02 1361.74,933.02 1347.09,920.05 1322.05,920.05 			"/>
			<polygon class="st40" points="1309.75,933.02 1231.65,933.02 1265.37,920.05 1343.47,920.05 			"/>
		</g>
		<path class="st43" d="M1365.34,936.38c0,1.85-1.51,3.36-3.36,3.36h-80.62c-1.86,0-3.36-1.51-3.36-3.36l0,0
			c0-1.86,1.5-3.36,3.36-3.36h80.62C1363.83,933.02,1365.34,934.53,1365.34,936.38L1365.34,936.38z"/>
		<path class="st39" d="M1315.3,936.38c0,1.85-1.51,3.36-3.36,3.36h-80.62c-1.86,0-3.36-1.51-3.36-3.36l0,0
			c0-1.86,1.5-3.36,3.36-3.36h80.62C1313.79,933.02,1315.3,934.53,1315.3,936.38L1315.3,936.38z"/>
		<path class="st42" d="M1326.42,924.99c0,1.52-15.49,2.76-34.61,2.76c-19.11,0-34.61-1.24-34.61-2.76c0-1.53,15.5-2.77,34.61-2.77
			C1310.92,922.22,1326.42,923.46,1326.42,924.99z"/>
		<path class="st42" d="M1262.97,928.55c0,0.56-4.2,1.01-9.37,1.01c-5.18,0-9.37-0.45-9.37-1.01c0-0.56,4.19-1.01,9.37-1.01
			C1258.77,927.54,1262.97,927.99,1262.97,928.55z"/>
	</g>
</g>
<g>
	<path class="st44" d="M847.49,820.2l-2.24,13.35l-15.17,90.75c-13.61,3.09-26.58,4.73-38.44,5.37
		c-37.31,2.05-63.57-5.37-63.57-5.37l-12.01-99.78l-0.52-4.32H847.49z"/>
	<path class="st45" d="M847.49,820.2l-2.24,13.35c-11.79,2.19-23.61,3.3-35.04,3.61c-41.88,1.18-79.06-8.21-94.14-12.63l-0.52-4.32
		H847.49z"/>
	<path class="st45" d="M847.49,820.2l-2.24,13.35l-15.17,90.75c-13.61,3.09-26.58,4.73-38.44,5.37
		c4.19-15.91,13.99-58.62,18.57-92.51c0.81-5.98,1.46-11.71,1.89-16.96H847.49z"/>
	<g>
		<path class="st46" d="M775.95,813.92h-12.81c0,0-2.31-11.89-4.63-23.7c-2.13-10.88-4.25-21.69-4.49-22.93c0,0,3.4,2.88,10.96,2.07
			l7.81,31.75L775.95,813.92z"/>
		<path class="st47" d="M775.95,813.92h-12.81c0,0-2.31-11.89-4.63-23.7c3.96,3.53,9.83,8.43,14.28,10.89L775.95,813.92z"/>
	</g>
	<g>
		<path class="st48" d="M786.67,745.36l-6.91,1.57l-7.99,1.82l-4.18-13.58c5.57,0.59,9.68-1.02,12.17-2.57
			c1.97-1.16,2.97-2.31,2.97-2.31L786.67,745.36z"/>
		<path class="st46" d="M786.67,745.36l-6.91,1.57V732.6c1.97-1.16,2.97-2.31,2.97-2.31L786.67,745.36z"/>
	</g>
	<polygon class="st49" points="745.14,813.92 716.25,813.92 720.33,782.44 735.5,782.44 	"/>
	<polygon class="st50" points="745.14,813.92 732.07,813.92 730.36,782.44 735.5,782.44 	"/>
	<g>
		<path class="st48" d="M712.91,771.47c-2.05,10.2-10.29,13.62-11.38,12.62c-1.3-1.21-0.78-2.97,2.08-7.65
			c1.91-3.12,2.42-7.72,2.57-10.49c0.06-1.42,0.04-2.37,0.04-2.37l7.06,0.83C713.5,767.06,713.34,769.4,712.91,771.47z"/>
		<path class="st46" d="M712.91,771.47c-1.94-1.71-5.05-4.17-6.73-5.51c0.06-1.42,0.04-2.37,0.04-2.37l7.06,0.83
			C713.5,767.06,713.34,769.4,712.91,771.47z"/>
	</g>
	<path class="st51" d="M764.98,769.37l18.27-15.14h25.06l0,0l-21.66-8.87l-14.88,3.4l-17.75,18.54
		C754.03,767.3,756.72,770.95,764.98,769.37z"/>
	<path class="st51" d="M767.59,735.18c0,0,3.13-5.36,15.14-4.9C782.73,730.28,779.09,736.83,767.59,735.18z"/>
	<polygon class="st52" points="712.07,748.76 705.45,748.76 703.63,763.38 710.42,764.32 	"/>
	<g>
		<polygon class="st53" points="754.03,762.07 742.36,769.68 710.43,764.32 710.56,762.51 711.56,748.75 743.74,748.75 
			750.93,758.07 		"/>
		<path class="st52" d="M754.03,762.07l-11.66,7.61l-31.93-5.36l0.13-1.82c6.21,0.13,28.4,1.09,28.4,1.09l11.97-5.52L754.03,762.07z
			"/>
	</g>
	<g>
		<polygon class="st54" points="736.79,768.67 736.79,773.91 716.71,773.91 716.71,765.05 		"/>
		<polygon class="st55" points="736.79,768.67 736.79,772.47 716.71,766.74 716.71,765.05 		"/>
	</g>
	<g>
		<polygon class="st44" points="735.5,782.44 720.33,782.44 720.33,773.91 733.13,773.91 		"/>
		<polygon class="st45" points="735.5,782.44 730.13,782.44 725.05,773.91 733.13,773.91 		"/>
	</g>
	<g>
		<polygon class="st49" points="708.95,753.02 708.23,759.9 705.43,759.59 702.15,759.21 702.85,752.24 708.49,752.97 		"/>
		<polygon class="st50" points="708.95,753.02 708.23,759.9 705.43,759.59 708.49,752.97 		"/>
	</g>
	<g>
		<polygon class="st48" points="826.35,813.92 775.95,813.92 772.63,800.48 764.98,769.37 783.26,754.23 808.32,754.23 
			820.93,795.98 		"/>
		<path class="st56" d="M826.35,813.92h-50.39l-3.32-13.44c3.76,0.61,15.06,2.31,23.04,2.31c6.27,0,17.85-3.99,25.26-6.82
			L826.35,813.92z"/>
	</g>
	<g>
		<path class="st57" d="M850.62,818.1c0,2.33-1.88,4.18-4.18,4.18H716.25c-2.31,0-4.17-1.85-4.17-4.18c0-1.14,0.46-2.17,1.2-2.94
			c0.78-0.74,1.83-1.24,2.97-1.24h130.19C848.74,813.92,850.62,815.82,850.62,818.1z"/>
		<path class="st44" d="M850.62,818.1c0,2.33-1.88,4.18-4.18,4.18H799.5l4.21-8.36h42.73C848.74,813.92,850.62,815.82,850.62,818.1z
			"/>
	</g>
	<path class="st58" d="M781.33,813.92c-0.17,1.96-0.42,4.83-0.74,8.36c-1.16,13.02-3.36,34.82-6.11,50.83
		c-2.05,11.78-4.41,20.4-6.88,20.08c-7.58-1.02-4.69-22.51-5.22-23.3c-0.52-0.77-6.53,24.3-13.06,23.25c-6.25-1-0.52-24.07-0.04-26
		c-0.84,1.83-10.38,22.76-15.63,20.5c-5.47-2.34,3.93-28.96,4.09-29.73c0.17-0.81-13.25,19.04-17.42,17.03
		c-4.18-2.03,0.77-8.56,4.72-21.76c2.4-8.03,8.47-21.38,13.03-30.89c1.64-3.41,3.07-6.34,4.08-8.36H781.33z"/>
	<path class="st49" d="M866.05,861.5c-1.47-2.57-9.73-2.66-17.21-3.93c-0.74-0.11-1.47-0.26-2.21-0.41
		c-1.12-0.26-2.24-0.52-3.26-0.86c-0.04-0.01-0.08-0.01-0.12-0.04c-5.33-1.74-11.85-4.97-17.11-6.29c-0.75-0.2-1.46-0.35-2.15-0.46
		c-0.69-0.1-1.36-0.17-1.99-0.17c-1.92,0-3.47,0.56-4.42,1.94l-4.05-12.47l-0.67-2.14l-3.43-10.56l-0.69-2.08l-3.27-10.14
		c0,0,4.63-1.55,8.64-0.95c1.13,0.18,2.21,0.52,3.11,1.14c0.28,0.17,0.55,0.35,0.78,0.59c0.4,0.35,1.75-4.68,6.44-8.15
		c0.55-0.4,1.14-0.78,1.76-1.11c2.15-1.2,4.86-2.02,8.26-2.05c0.49,0,1.01,0.03,1.53,0.04c0.46,0.03,0.9,0.06,1.33,0.13
		c5.93,0.7,10.41,3.86,14,8.3c0.43,0.52,0.86,1.07,1.25,1.66c3.57,4.97,6.23,11.19,8.58,17.42c0.26,0.61,0.46,1.2,0.69,1.79
		c0.03,0.05,0.04,0.13,0.06,0.19c2.63,7.05,3.5,14.72,3.85,20.51v0.03c0.14,2.47,0.18,4.62,0.23,6.2
		C866.02,860.42,866.04,861.03,866.05,861.5z"/>
	<path class="st59" d="M866.28,862.73c0.09-0.46-0.03-0.86-0.23-1.21c0.04,0.59,0.08,0.98,0.15,1.11
		C866.31,862.68,866.33,862.72,866.28,862.73z"/>
	<path class="st59" d="M866.21,862.63c0.03,0.05,0.05,0.12,0.08,0.1C866.33,862.72,866.31,862.68,866.21,862.63z"/>
	<path class="st50" d="M866.21,862.63c-0.08-0.13-0.12-0.52-0.15-1.11c-1.84-3.26-14.4-2.57-22.68-5.2c-0.03,0-0.05-0.01-0.08-0.01
		c-0.01-0.01-0.03-0.01-0.04-0.03c-9.19-2.98-21.9-10.41-25.68-4.99c-1.74,2.52,9.83,5.49,18.31,8.32
		c8.47,2.86,29.61,7.83,30.4,3.12C866.26,862.74,866.23,862.68,866.21,862.63z"/>
	<g>
		<path class="st60" d="M860.02,930.21l-30.02,7.31c0,0,1.57,8.09,1.3,8.26l30.29-6.06L860.02,930.21z"/>
		<polygon class="st61" points="799.5,936.3 799.71,943.7 831.3,945.78 829.99,937.52 		"/>
		<path class="st62" d="M829.99,924.86c-0.96-0.5-30.5,11.43-30.5,11.43l30.5,1.23l30.02-7.31
			C860.02,930.21,830.97,925.38,829.99,924.86z"/>
	</g>
	<path class="st63" d="M791.64,879.04c-9.35,1.43-5.73-28.96-5.08-34c-0.77,4.51-5,28.75-11.39,28.26c-0.24-0.03-0.5-0.08-0.7-0.18
		c-5.46-2.56,0.7-30.14,1.39-33.22c-0.9,2.88-8.09,25.73-13.49,24.53c-5.75-1.3,0-30.55,0-30.55s-11.21,24.81-17.24,22.71
		c-4.07-1.42,0.72-21.3,4.72-34.3c1.05-3.41,2.06-6.34,2.8-8.36h46.9c0.05,1.98,0.12,4.86,0.14,8.36
		C799.85,841.25,799.15,877.87,791.64,879.04z"/>
	<g>
		<path class="st64" d="M826.14,849.98c-0.75-0.2-1.46-0.35-2.15-0.46c-0.59-3.87-1.11-7.44-1.65-10.78h-0.03
			c-0.1-0.72-0.2-1.39-0.33-2.07c-0.72-4.08-1.48-7.83-2.42-11.2h-0.03c-0.18-0.7-0.38-1.36-0.59-2.03
			c-1.23-3.9-2.78-7.35-4.85-10.47c1.13,0.18,2.21,0.52,3.11,1.14c1.59,2.76,2.8,5.74,3.82,9.04c0.22,0.66,0.4,1.34,0.6,2.01
			c0.97,3.47,1.74,7.26,2.46,11.42c0.12,0.7,0.23,1.39,0.35,2.1c0.55,3.39,1.07,6.98,1.64,10.88
			C826.11,849.7,826.12,849.83,826.14,849.98z"/>
	</g>
	<g>
		<path class="st64" d="M848.84,857.58c-0.74-0.11-1.47-0.26-2.21-0.41c-1.46-6.85-3.76-13.7-6.34-20.11
			c-0.29-0.68-0.56-1.36-0.83-2.01c-1.93-4.55-3.98-8.86-6-12.72c-0.32-0.64-0.65-1.27-0.97-1.87c-3.15-5.96-6.07-10.81-8.04-13.91
			c0.55-0.4,1.14-0.78,1.76-1.11c2.03,3.22,5.05,8.21,8.29,14.35c0.32,0.61,0.65,1.24,0.98,1.88c2.05,4,4.13,8.4,6.1,13.08
			c0.27,0.67,0.54,1.3,0.82,1.98C845.07,843.36,847.41,850.48,848.84,857.58z"/>
	</g>
	<g>
		<path class="st64" d="M866,859.65c-2.99-8.25-7.21-16.93-11.67-25.06c-0.35-0.65-0.7-1.27-1.05-1.89
			c-2.95-5.27-5.97-10.28-8.82-14.73c-0.37-0.6-0.74-1.19-1.13-1.75c-3.47-5.36-6.57-9.82-8.86-12.83c0.49,0,1.01,0.03,1.53,0.04
			c0.46,0.03,0.9,0.06,1.33,0.13c2.33,3.07,5.06,7.08,8.01,11.67c0.37,0.59,0.73,1.18,1.1,1.76c2.93,4.67,6,9.85,8.96,15.24
			c0.33,0.61,0.69,1.27,1.02,1.92c3.48,6.38,6.71,12.99,9.35,19.27v0.03C865.91,855.92,865.95,858.06,866,859.65z"/>
	</g>
	<g>
		<path class="st64" d="M852.59,813.51c-1.71,1.09-3.78,2.28-6.15,3.48c-0.64,0.33-1.3,0.65-1.98,0.97
			c-2.67,1.28-5.65,2.56-8.98,3.7c-0.67,0.23-1.33,0.43-2.02,0.67c-3.64,1.16-7.58,2.13-11.82,2.83c-0.68,0.1-1.37,0.2-2.07,0.32
			h-0.03c-3.22,0.41-6.61,0.67-10.11,0.67l-0.69-2.08c3.56,0.04,6.98-0.19,10.22-0.61c0.7-0.09,1.39-0.19,2.08-0.29
			c4.1-0.61,7.94-1.56,11.44-2.69c0.69-0.22,1.37-0.42,2.01-0.68c3.26-1.09,6.2-2.31,8.84-3.57c0.69-0.33,1.36-0.68,2.01-0.98
			c2.33-1.18,4.32-2.33,6-3.38C851.77,812.38,852.19,812.93,852.59,813.51z"/>
	</g>
	<g>
		<path class="st64" d="M861.92,832.91c-1.61,0.38-3.47,0.81-5.5,1.24c-0.66,0.15-1.37,0.29-2.1,0.43
			c-3.58,0.74-7.61,1.48-11.93,2.14c-0.69,0.13-1.41,0.22-2.11,0.33c-5.04,0.72-10.38,1.3-15.84,1.61c-0.68,0.01-1.39,0.06-2.1,0.08
			h-0.03c-1.85,0.09-3.72,0.13-5.6,0.13c-1.06,0-2.14-0.01-3.2-0.04l-0.67-2.14c3.01,0.13,6.07,0.12,9.13-0.03
			c0.7-0.01,1.39-0.05,2.11-0.1c5.26-0.26,10.46-0.83,15.36-1.52c0.7-0.08,1.43-0.18,2.12-0.31c4.25-0.63,8.18-1.34,11.7-2.05
			c0.73-0.17,1.43-0.32,2.12-0.46c2.13-0.46,4.08-0.91,5.77-1.3c0.26,0.61,0.46,1.2,0.69,1.79
			C861.88,832.77,861.9,832.85,861.92,832.91z"/>
	</g>
</g>
</svg>
