<?xml version="1.0" encoding="utf-8"?>
<!-- Generator: Adobe Illustrator 24.0.1, SVG Export Plug-In . SVG Version: 6.00 Build 0)  -->
<svg version="1.1" id="Layer_1" xmlns="http://www.w3.org/2000/svg" xmlns:xlink="http://www.w3.org/1999/xlink" x="0px" y="0px"
	 viewBox="0 0 1920 1080" style="enable-background:new 0 0 1920 1080;" xml:space="preserve">
<style type="text/css">
	.st0{fill:#BDDFFF;}
	.st1{fill:#33405A;}
	.st2{fill:#FD5E5A;}
	.st3{fill:#591914;}
	.st4{fill:#BF2604;}
	.st5{fill:#F8E000;}
	.st6{fill:#8C1C03;}
	.st7{fill:#4F80FF;}
	.st8{fill:#FC7575;}
	.st9{fill:#284C8B;}
	.st10{fill:#0D3153;}
	.st11{fill:#A695C6;}
	.st12{fill:#C0E2ED;}
	.st13{fill:#56448E;}
	.st14{fill:#2F499F;}
	.st15{fill:#F27F3D;}
	.st16{fill:#EE0085;}
	.st17{fill:#F2A71B;}
	.st18{fill:#F2B90C;}
	.st19{fill:#D6F8F6;}
	.st20{fill:#3A4163;}
	.st21{fill:#591900;}
	.st22{fill:#FF8D8D;}
	.st23{fill:#001959;}
	.st24{fill:#FFFFFF;}
	.st25{fill:#580000;}
	.st26{fill:#55AFFF;}
	.st27{fill:#99C8F2;}
	.st28{fill:#000044;}
	.st29{fill:#172866;}
	.st30{fill:#00005A;}
	.st31{fill:#003135;}
	.st32{fill:#A6D6DF;}
	.st33{fill:#7CC4CF;}
	.st34{fill:#1B0800;}
	.st35{fill:#89A0A1;}
	.st36{fill:#11646F;}
	.st37{fill:#1A818E;}
	.st38{fill:#2699A6;}
	.st39{fill:#172E46;}
	.st40{fill:#26425F;}
	.st41{fill:#2C4A6A;}
	.st42{fill:#406F94;}
	.st43{fill:#051D31;}
	.st44{fill:#F7981D;}
	.st45{fill:#DD8426;}
	.st46{fill:#055257;}
	.st47{fill:#014245;}
	.st48{fill:#1DA8B7;}
	.st49{fill:#D64E27;}
	.st50{fill:#C23827;}
	.st51{fill:#A6D6B4;}
	.st52{fill:#0D64A5;}
	.st53{fill:#2B91BE;}
	.st54{fill:#1E7EA0;}
	.st55{fill:#0C6F88;}
	.st56{fill:#0B9399;}
	.st57{fill:#FFC40C;}
	.st58{fill:#77C7D7;}
	.st59{fill:#675352;}
	.st60{fill:#F06080;}
	.st61{fill:#B72D4C;}
	.st62{fill:#ED3455;}
	.st63{fill:#A6DDEB;}
	.st64{fill:#EB5729;}
</style>
<g>
	<path class="st0" d="M1415.67,53.8C1378.63,73.86,733,349.01,813.83,382.59c80.83,33.58,217.79-70.54,217.79-16.8
		c0,53.74-408.82,192.6-284.64,237.33c124.18,44.73,209.62-158.51,261.74-106.4c52.11,52.11-209.06,133.25-195.13,200.95
		c13.92,67.7,358.34-222.81,358.34-159.82c0,62.99-155.91,81.81-89.38,148.34c66.53,66.53,396.36-152.26,396.36-199.39
		c0-47.13-162.78-40.76-84.39-119.14c78.38-78.38,188.48-152.61,101.18-172.93c-87.3-20.32,52.09-114.12,52.09-157.88
		C1547.77-6.9,1415.67,53.8,1415.67,53.8z"/>
	<g>
		<path class="st1" d="M1520.07,104.61h-144.84v19.47l64.18,26.85l-2.81,61.35l6.44,0.3l2.79-61.06l74.23-21.11V104.61z
			 M1513.62,125.54l-70.37,20.01l-61.58-25.76v-8.73h131.94V125.54z"/>
		<path class="st2" d="M1409.8,319.01c7.77-11.43,25.99-19.43,25.99-19.43c1.98-0.93,9.96-0.41,9.6,2.11
			c-0.36,2.52-5.32,0.6-9.47,4.83c-4.15,4.23-1.42,5.35,0.55,5.63c1.97,0.29,10.77,8.16,10.39,10.8c-0.38,2.65-1.93,2.57-2.35,5.41
			c-0.41,2.84-3.75,5.9-9.59,9c-5.84,3.1-19.92,2.52-23.89,5.49c-0.75,0.56-6.85,5.47-12.85,10.33c-3.29-3.6-8.05-6.51-8.2-12.11
			C1396.91,335.5,1403.28,328.61,1409.8,319.01z"/>
		<g>
			
				<rect x="1007.28" y="603.26" transform="matrix(0.0494 -0.9988 0.9988 0.0494 741.2454 1998.2549)" class="st3" width="826.29" height="12.89"/>
		</g>
		<g>
			<path class="st4" d="M1510.82,112.87h-125.74c-1.09,0-1.97-0.88-1.97-1.97v-7.13c0-1.09,0.88-1.97,1.97-1.97h125.74
				c1.09,0,1.97,0.88,1.97,1.97v7.12C1512.79,111.98,1511.9,112.87,1510.82,112.87z"/>
			<rect x="1390.77" y="96.12" class="st5" width="115.78" height="21.56"/>
			<g>
				<path class="st6" d="M1403.55,96.12c-3.73,5.89-7.81,13.3-10.96,21.56h3.71c3.34-8.37,7.63-15.84,11.38-21.56H1403.55z"/>
				<path class="st6" d="M1419.55,96.12c-3.73,5.89-7.81,13.3-10.96,21.56h3.71c3.34-8.37,7.63-15.84,11.38-21.56H1419.55z"/>
				<path class="st6" d="M1435.54,96.12c-3.73,5.89-7.81,13.3-10.96,21.56h3.71c3.34-8.37,7.63-15.84,11.37-21.56H1435.54z"/>
				<path class="st6" d="M1451.53,96.12c-3.73,5.89-7.81,13.3-10.96,21.56h3.71c3.34-8.37,7.63-15.84,11.38-21.56H1451.53z"/>
				<path class="st6" d="M1467.52,96.12c-3.73,5.89-7.81,13.3-10.96,21.56h3.71c3.34-8.37,7.63-15.84,11.37-21.56H1467.52z"/>
				<path class="st6" d="M1483.52,96.12c-3.73,5.89-7.81,13.3-10.96,21.56h3.71c3.34-8.37,7.63-15.84,11.38-21.56H1483.52z"/>
				<path class="st6" d="M1499.52,96.12c-3.73,5.89-7.81,13.3-10.96,21.56h3.71c3.34-8.37,7.63-15.84,11.38-21.56H1499.52z"/>
			</g>
			<g>
				<path class="st7" d="M1390.06,96.12h0.56C1390.25,96.11,1390.06,96.12,1390.06,96.12z"/>
				<path class="st7" d="M1501.01,106.91c6.24-0.85,5.53-8.94,5.53-10.78c0-1.85-1.42,0-7.03,0c-5.61,0-50.29-1-54.27-1
					c-3.97,0-9.71,1-12.34-0.56c-2.63-1.56-42.14,1.56-42.14,1.56h-0.15c1.14,0.03,4,0.28,8.38,1.7c5.81,1.89,12.77,2.7,19.28,0.33
					c6.52-2.36,11.22,1.65,11.22,1.65s1.02,4.9,1.56,6.38c0.54,1.48,2.82-0.38,2.82-0.38s-2.25,4.37,1.86,5.21
					c4.12,0.83-0.28-9.93,5.54-11.49c5.82-1.56,17.17,1.85,17.17,1.85c7.09,2.41,14.05,5.11,15.47,3.69
					c1.42-1.42,5.85-2.63,10.36-0.85c4.51,1.78,3.35,6.33,4.29,5.39c0.94-0.94,0.75-6.17,3.23-3.69c2.48,2.48,2.51,8.41,4.31,10.22
					c1.8,1.8,1.22-4.26,2.07-1.7c0.85,2.55-4.54,26.25,1.42,26.25C1505.55,140.67,1494.77,107.76,1501.01,106.91z"/>
			</g>
		</g>
		<path class="st8" d="M1446.63,321.32c0,0-23.08-3.61-23.73,0.88c-0.65,4.49,21.27,4.85,21.27,4.85s-21.07-2.84-21.6,0.84
			c-0.53,3.68,17.44,6.32,17.44,6.32s-17.47-3.88-17.09-1.13c0.38,2.75,17.38,6.14,17.38,6.14s3.74-1.06,2.55-3.76
			c-0.87-1.97,0.64-2.5,1.45-3.58c0.82-1.08,1.39-3.58,1.53-4.61C1445.98,326.24,1449.55,323.21,1446.63,321.32z"/>
	</g>
	<path class="st9" d="M1737.14,1046.02c0,16.44-234.42,29.76-523.6,29.76c-289.18,0-523.6-13.32-523.6-29.76
		c0-16.43,234.42-29.76,523.6-29.76C1502.71,1016.26,1737.14,1029.58,1737.14,1046.02z"/>
	<path class="st10" d="M1223.71,998.67l-5.04,40.91c0,0,11.19,0,31.9,0c20.71,0,53.16-2.94,53.16-2.94s-48.67-16.14-48.67-34.02
		c0-17.88,0-17.88,0-17.88L1223.71,998.67z"/>
	<path class="st10" d="M1402.55,1000.04c-2.76-7.27-10.4-22.58-10.4-22.58l-24.62,7.28l-5.04,42.46c0,0,72.75,0,83.94,0
		C1446.44,1027.2,1405.32,1007.32,1402.55,1000.04z"/>
	<g>
		<path class="st11" d="M1053.41,925.31c0,0-3.64,92.73-3.64,92.91c0,4.96-28.05,8.98-62.65,8.98c-9.61,0-18.72-0.31-26.86-0.87
			c-21.16-1.44-35.79-4.53-35.79-8.11c0-0.18-4.55-115.45-4.56-115.67h134.43L1053.41,925.31z"/>
		<path class="st12" d="M1046.89,919.49c-26.44,3.62-72.61,4.79-105.67,1.97c-6.48-0.55-12.46-1.25-17.69-2.12
			c-19.29-3.2-21.67-7.04-11.81-17.12c-0.21,0.31-0.31,0.63-0.31,0.95c0,3.77,14.03,7.07,35.18,8.95
			c11.71,1.04,25.61,1.64,40.51,1.64c41.8,0,75.69-4.74,75.69-10.59c0-0.68-0.46-1.34-1.34-1.99h0.12
			C1078.9,913.99,1057,918.11,1046.89,919.49z"/>
		<path class="st7" d="M911.41,903.18c0,5.85,33.89,10.58,75.69,10.58c41.8,0,75.69-4.74,75.69-10.58c0-0.81-0.17-1.35-1.4-2.11
			c-2.09-1.11-4.33-1.96-6.79-2.69c-12.51-3.44-38.03-5.79-67.49-5.79C945.3,892.6,911.41,897.34,911.41,903.18z"/>
		<path class="st13" d="M1054.33,902.48c0,1.85-5.22,3.56-13.99,4.92c-12.29,1.91-31.57,3.14-53.23,3.14c-0.98,0-1.97,0-2.94-0.01
			c-20.31-0.1-38.29-1.28-50.03-3.09c-8.92-1.37-14.24-3.09-14.24-4.96c0-4.34,28.51-7.87,64.27-8.05c0.98,0,1.96-0.01,2.94-0.01
			C1024.23,894.42,1054.33,898.03,1054.33,902.48z"/>
		<path class="st14" d="M1040.34,907.41c-3.84,0.59-8.36,1.13-13.43,1.57h0c-11.14,0.98-24.9,1.57-39.8,1.57
			c-14.83,0-28.55-0.58-39.67-1.55c-5-0.44-9.48-0.96-13.3-1.55c12.29-1.91,31.56-3.14,53.23-3.14
			C1008.89,904.3,1028.04,905.52,1040.34,907.41z"/>
		<path class="st7" d="M960.62,918.75c0,0,16.62-7.75,20.44-3.93c3.82,3.82,20.55,8.03,17.04,8.03s-21.07,0.16-23.55,0.12
			C972.07,922.94,957.52,925.88,960.62,918.75z"/>
		<path class="st7" d="M1038.67,910.54c0,0,5.27-0.83,5.27,3.22c0,4.05,5.26,1.85,5.26,7.04c0,5.19-2.93,25.52,3.49,22.73
			c6.42-2.79,0.54-24.88,3.01-24.88c2.48,0-0.93,6.29,4.03,6.29c4.95,0,4.44-6.93,4.44-10.12c0-3.2-5.21-11.95-12.74-9.99
			C1043.9,906.79,1038.67,907.6,1038.67,910.54z"/>
	</g>
	<path class="st15" d="M1304.52,266.06c0,0,13.04,113.82,24.41,113.82c11.37,0,61.05-45.97,61.05-45.97l15.24,19.26
		c0,0-57.64,84.28-90.66,69.44c-33.02-14.84-31.13-120.06-31.13-120.06L1304.52,266.06z"/>
	<polygon class="st15" points="1324.13,461.6 1399.95,985.31 1362.04,992.02 1262.41,639.46 1283.43,455 	"/>
	<path class="st16" d="M1304.52,270.12c0,0-16.54-12.73-72.58-0.08c-1.53,0.35-2.92,61.15-2.92,61.15s26,101.77,21.05,127.17
		c0,0,29.72,25.08,74.05,3.25c0,0-5.76-79.92-1.73-97.72c4.03-17.8,12.08-33.95,0.66-52.42
		C1311.64,292.99,1304.52,270.12,1304.52,270.12z"/>
	<path class="st17" d="M1304.52,266.06c0,0-16.54-10.97-72.58,1.68c-1.53,0.35-2.92,63.45-2.92,63.45s26,101.77,21.05,127.17
		c0,0,29.6,98.64,59.53,94.22c7.76-1.15,16.04-80.49,14.53-90.97c0,0-5.76-79.92-1.73-97.72c4.03-17.8,12.08-33.95,0.66-52.42
		C1311.64,292.99,1304.52,266.06,1304.52,266.06z"/>
	<path class="st2" d="M1229.36,483.16c-0.91-0.91-8.85-12.61-10.55-10.91c-1.7,1.7,7.03,12.49,7.03,12.49s-10.13-10.25-12.13-8.25
		c-2,2,13.53,15.84,15.17,15.84C1230.52,492.33,1229.36,483.16,1229.36,483.16z"/>
	<path class="st8" d="M1243.08,471.6c-0.14-0.26-6.11-7.26-14.03-17.54c-2.53-3.29-5.27-6.94-8.08-10.79
		c-3.9,3.27-7.57,7.13-11.68,10.36c3.33,4.07,6.35,7.8,8.85,10.98l0,0c2.74,3.59,4.64,6.34,5.34,7.89
		c4.73,10.59,5.41,19.83,5.41,19.83s9.58-0.34,11.72-2.48c2.14-2.14,0.45-5.41,3.61-8.56
		C1247.36,478.13,1243.08,471.6,1243.08,471.6z"/>
	<path class="st18" d="M1189.51,375.98c5.43-23.99,37.05-37.65,42.46-49.5c5.56-12.17,1.03-59.02,1.03-59.02
		c-23.5-1.58-77.57,98.66-76.22,113.78c0.95,10.55,27.89,54.1,47.91,78.58c4.11-3.23,12.39-13.28,16.28-16.55
		C1204.73,420.99,1186.05,391.26,1189.51,375.98z"/>
	<path class="st19" d="M1232.99,267.46c0.84,10.3,0.47,22.85,0.66,33.35c0.17,18.55-0.94,24.4-5.04,29.06
		c-9.51,11.02-34.95,24.48-39.11,46.1c5.92-21.44,30.53-33.37,40.47-44.95c3.75-4.32,4.48-8.94,4.94-14.8
		C1235.92,302.52,1235.09,281.24,1232.99,267.46z"/>
	<path class="st20" d="M997.23,1015.29l4.53,30.72c0,0-18.13,0-30.72,0c-12.59,0-47.35,0-47.35,0s2.52-7.55,25.18-12.09
		c22.66-4.53,25.35-13.1,25.35-13.1l-3.19-19.14l20.65-3.02L997.23,1015.29z"/>
	<path class="st15" d="M1022.18,342.43c0,0-5.24-46.82-17.49-46.82c-25.67,0-68.65,129.73-69.99,148.84
		c-2.25,32.18,19.87,34.1,41.57,36.71c21.23,2.56,25.17-44.05,25.17-44.05L1022.18,342.43z"/>
	<path class="st20" d="M1077.82,1012.27l3.02,16.62c0,0-7.81,25.44-19.64,37.27c-11.84,11.84-37.27,12.59-37.27,2.52
		c0-10.07,26.53-41.31,26.53-53.39C1050.46,1003.21,1077.82,1012.27,1077.82,1012.27z"/>
	<polygon class="st17" points="1099.1,302.6 1059.74,287.73 1029.15,289.69 1004.7,295.61 968.53,447.09 971.04,571.57 
		1084.87,571.57 1065.23,492.8 	"/>
	<path class="st21" d="M1006.84,364.79c-33.54,109.5-22.63,194.82-22.65,194.48l0,0.05c0.03,0.46-0.32,0.86-0.79,0.89
		c-1.58,0.1-0.62-1.78-2.02-17.21l-0.56-8.22c-3.48-63.26,10.54-153.54,45.75-232.94c0.9-2.03,3.97-0.67,3.07,1.36l0,0.01
		C1028.64,305.7,1018.36,327,1006.84,364.79z"/>
	<path class="st2" d="M1050.5,455c-8.65,6.03-14.29,14.77-32.95,20.06c10.93,8.53,23.44,17.39,35.35,24.3
		c2.83-15.11,4.88-27.58,5.22-42.68C1057.71,456.85,1050.93,454.87,1050.5,455z"/>
	<path class="st18" d="M1121.81,332.53c-5.55-17.53-22.72-29.93-22.72-29.93c-18.84-2.18-24.33,96.82-24.33,96.82l-7.49,54.7
		c-1.53,1.64-7.14,0.04-9.15,0.87c-0.34,15.11-5.95,31.13-8.78,46.24c18.63,10.8,39.37,14.99,46.8,7.56
		C1113.06,491.9,1127.38,350.09,1121.81,332.53z"/>
	<path class="st8" d="M961.95,401.83c-7.39-1.59-30.44,6.42-30.44,6.42s-6.11,8.5-6.11,13.96c0,0.92,0.51,1.39,1.36,1.28
		c-1.59,1.16-2.36,2.11-1.72,2.75c3.05,3.05,27.13-8.52,28.57-7.08c1.44,1.44-27.36,6.13-25.02,11.34
		c0.98,2.18,12.04-1.28,18.99-3.7c-6.06,2.36-14.91,6.19-14.91,8.5c0,3.54,25.1-1.9,30.59-1.9c2.05,0,5.39,2.17,9.19,4.56
		c1.7-0.31,2.85,0.5,3.57,0.27c0,0,18.79-0.42,42.71,2.56C992.6,425.17,963.96,402.27,961.95,401.83z M935.9,418.52
		c-1.93,0.95-3.8,1.9-5.47,2.8c1.62-1.54,2.93-4.93,5.21-6.55c4.67-3.31,11.73-5.16,12.78-4.11
		C949.69,411.95,942.63,415.23,935.9,418.52z"/>
	<path class="st22" d="M1071.57,422.73c-1.27,6.06-1.06,24.19-3.93,28.72c0,0-3.12-2.2-4.15-1.13h-0.03
		c-10.23,5.45-24.68,20.46-52.87,26.46c-27.69,5.8-65.48,8.8-65.48-10.01c0-18.78,18.92-29.08,30.9-29.08c0,0,18.79,0.13,42.71,3.11
		c0.03,0,0.03,0,0.05,0C1042.68,443.8,1069.08,420.83,1071.57,422.73z"/>
	<g>
		<path class="st8" d="M1019.44,223.39l1.65,54.07l0.32,10.59c0.11,3.52-0.4,17.12,2.51,19.12c6.75,4.63,24.9,3.5,35.83-1.4
			c9.92-4.44-11.12-84.35-11.12-84.35S1031.5,220.22,1019.44,223.39z"/>
		<path class="st2" d="M1048.64,221.42c0,0,0.67,2.54,1.71,6.74c-0.28,6.07-1.02,15.45-2.93,22.46
			c-2.56,9.37-14.35,25.3-26.32,26.84l-1.65-54.07C1031.5,220.22,1048.64,221.42,1048.64,221.42z"/>
		<g>
			<path class="st23" d="M1044.32,143.49c6.23,7.94,11.49,19.15,3.57,25.34c9.06-5.39,4.91-18.56-0.55-27.52L1044.32,143.49z"/>
			<path class="st8" d="M1007.1,177.9c0,0-13.36,2.36-13.93,19.44c-0.57,17.08,10.06,63.77,23.71,67.41
				c13.65,3.64,28.65-13.44,31.46-22.95c2.93-9.9,2.75-25.2,2.75-25.2S1048.53,155.16,1007.1,177.9z"/>
			<path class="st23" d="M1065.71,239.37c0,0-2.97,3.93-6.78-0.78c0,0-8.83-10.86-2.23-19.83c6.6-8.97,16.65-21.32,13.95-36.9
				c-2.71-15.58-21.55-14.46-21.55-14.46s-4.32-23.86-30.29-14.46c0,0-5.26-4.93-20.62-3.44c-15.37,1.49-11.25,9.72-20.2,8.77
				c-8.95-0.95-10.56-7.83-6.97-10.73c0,0-14.87,7.78-16.19,20.12c-1.31,12.34,22.15,11.72,22.15,11.72s-18.78,3.49-3.95,10.75
				c14.83,7.26,21.82,6.75,30.24-2.34c8.42-9.09,13.03-11.41,17.84-9.65c4.81,1.76,3.69,12.25,10.79,13.01
				c7.1,0.76,12.63,19.13,12.63,19.13s5.35-2.11,5.76,10.98s-0.92,21.21,7.1,22.07C1065.42,244.18,1065.71,239.37,1065.71,239.37z"
				/>
			<path class="st8" d="M1047.51,195c4.12-0.72,14.26,1.83,6.63,15.37c-7.63,13.54-15.57,0.21-14.95-5.62
				C1039.81,198.93,1044.36,195.55,1047.51,195z"/>
			<path class="st23" d="M1008.96,215.86c1.37,7.81,1.73,15.45,3.76,22.72c1.81-0.08,3.63-0.09,5.47,0.01
				c-3.04,1.19-5.54,1.8-6.7,2.13C1011.4,240.34,1007.75,230.47,1008.96,215.86z"/>
			<g>
				<path class="st23" d="M1012.02,213.39c0.47,0.05,0.92-0.27,1.01-0.74c0.03-0.13,0.75-3.36,4.7-5.22
					c3.41-1.61,12.1,0.12,15.17,0.92c0.53,0.14,1-0.17,1.13-0.66c0.13-0.5-0.17-1.01-0.66-1.13c-0.48-0.12-11.72-3.02-16.43-0.81
					c-4.83,2.27-5.7,6.37-5.73,6.54c-0.1,0.5,0.23,0.99,0.73,1.09C1011.97,213.38,1012,213.39,1012.02,213.39z"/>
			</g>
			<path class="st24" d="M1028.09,241.88c0,0-13.26,5.14-21.06,3.73c0,0,1.7,6.03,6.35,7.46
				C1018.02,254.5,1027.09,251.25,1028.09,241.88z"/>
			<path class="st2" d="M1053.34,202.95c0,0-0.29,9.32-4.82,9.47s-5.99-6.72-3.11-10.31
				C1048.28,198.51,1053.63,200.28,1053.34,202.95z"/>
			<path class="st23" d="M1015.38,216.92c0.31,1.79,1.71,3.04,3.13,2.79c1.41-0.25,2.3-1.9,1.98-3.69
				c-0.31-1.79-1.71-3.04-3.13-2.79C1015.95,213.48,1015.06,215.13,1015.38,216.92z"/>
			<path class="st23" d="M996.95,219.23c0.32,1.79,1.72,3.04,3.13,2.79c1.41-0.25,2.3-1.9,1.99-3.69c-0.32-1.79-1.72-3.04-3.13-2.79
				C997.52,215.78,996.63,217.44,996.95,219.23z"/>
			<g>
				<path class="st23" d="M1003.43,213.5c0.36,0.36,0.36,0.96,0,1.32c-0.21,0.21-0.49,0.3-0.76,0.27c-0.21-0.02-0.4-0.11-0.56-0.27
					c-1.03-1.03-4.17-3.75-6.36-3.98c-0.54-0.06-1.08-0.08-1.61-0.08c-0.09-0.63-0.17-1.25-0.25-1.86c0.67-0.01,1.36,0.01,2.06,0.08
					C999.24,209.34,1003.26,213.33,1003.43,213.5z"/>
			</g>
		</g>
	</g>
	<polygon class="st15" points="1029.97,663.58 983.89,825.57 1008.82,1020.83 971.04,1020.83 930.25,814.33 971.04,571.57 	"/>
	<path class="st17" d="M971.04,571.57l31.9,97.71c0,0,37.6,131.96,44.4,211.54c6.8,79.58,0,133.97,0,133.97l52.92,8.52
		c0,0,6.26-167.68-1.8-223.08c-8.06-55.4,1.8-190.38,1.8-190.38l-15.39-38.28H971.04z"/>
	<path class="st17" d="M1250.07,458.36c0,0-29.55,37.84-36.54,75.9c-6.98,38.05-9.48,233.92-9.48,233.92l-8.47,42.11l20.23,198.72
		l49.8-8.11c0,0,19.19-326.73,34.9-392.77c15.71-66.03,11.8-81.7,11.8-81.7l-2.38-59.19L1250.07,458.36z"/>
	<path class="st25" d="M1288.75,276.03c4.97,37.56,9.65,75.14,13.95,112.78c2.12,18.82,4.21,37.65,5.96,56.51
		c1.65,18.87,3.56,37.73,3.41,56.78c0,0.4-0.33,0.73-0.74,0.72c-0.4,0-0.73-0.33-0.73-0.73v-0.05c-0.01-18.84-2.07-37.73-3.87-56.54
		c-1.91-18.83-4.15-37.63-6.42-56.42c-4.62-37.58-9.61-75.12-14.89-112.6c-0.13-0.92,0.5-1.77,1.42-1.9c0.92-0.13,1.77,0.5,1.9,1.42
		L1288.75,276.03z"/>
	<path class="st7" d="M1216.69,293.57c0,0-10.61,25.01-7.29,25.51c3.32,0.49-0.17,9.9,0.77,18.23c0.93,8.33,4.96-17.19,8.53-19.83
		c3.56-2.64,4.9-2.5,6.59-13.85c1.69-11.35,4.83-32.38,0.56-26.51C1221.57,282.98,1216.69,293.57,1216.69,293.57z"/>
	<path class="st7" d="M1271.21,660.44c0,0,4.23-14.27-4.85-14.27c-9.08,0-13.95,47.06-9.81,51.21
		C1260.7,701.52,1271.21,660.44,1271.21,660.44z"/>
	<path class="st26" d="M1246.92,535.74c0,0-8.87,29.28-2.26,43.55c6.61,14.27,0.42-21.09,9.7-30.38c9.29-9.29,5.63-41.81,5.63-52.72
		c0-10.91-4.55,4.07-11.19,10.72c-6.64,6.64-13.37-3.2-13.37,10.67C1235.43,531.45,1246.92,535.74,1246.92,535.74z"/>
	<path class="st7" d="M1246.11,311.44c0,0-6.34,8.17-2.33,8.17C1247.79,319.61,1250.31,311.44,1246.11,311.44z"/>
	<path class="st7" d="M1248.07,300.69L1248.07,300.69c-1.49,0-2.7-1.22-2.7-2.7l0,0c0-1.49,1.21-2.7,2.7-2.7l0,0
		c1.48,0,2.7,1.22,2.7,2.7l0,0C1250.77,299.47,1249.55,300.69,1248.07,300.69z"/>
	<path class="st7" d="M1251.7,290.16L1251.7,290.16c-0.51,0-0.93-0.42-0.93-0.93l0,0c0-0.51,0.42-0.93,0.93-0.93l0,0
		c0.51,0,0.93,0.42,0.93,0.93l0,0C1252.63,289.74,1252.21,290.16,1251.7,290.16z"/>
	<path class="st26" d="M1094.16,319.91c0,0,8.11-5.88,9.23,0c1.12,5.88,6.99,22.38,6.99,33.58c0,11.19-8.11,11.75-8.11,6.16
		c0-5.6-6.44-13.69-6.44,6.44c0,20.14-5.88,33.86-7.55,35.53c-1.67,1.67-6.72-6.51-6.72-13.19s-3.92-12.54-2.52-20.95
		c1.4-8.4,13.71-45.77,13.71-45.77L1094.16,319.91z"/>
	<path class="st27" d="M1103.04,375.98c0,0-5.25,9.97,0,7.66C1108.29,381.33,1106.56,372.46,1103.04,375.98z"/>
	<path class="st27" d="M1105.35,396.44c-0.74,0.74-4.51,12.91,0,8.4C1109.86,400.32,1108.5,393.29,1105.35,396.44z"/>
	<path class="st27" d="M1071.11,307.32c0,0-18.88,4.29-8.68,9.98c10.19,5.69,17.75,7.62,17.75,4.42
		C1080.17,318.51,1071.11,307.32,1071.11,307.32z"/>
	<path class="st2" d="M1282.16,201.05c0,2.2-2.94,3.98-6.57,3.98c-3.63,0-6.57-1.78-6.57-3.98c0-2.2,2.94-3.98,6.57-3.98
		C1279.22,197.07,1282.16,198.85,1282.16,201.05z"/>
	<path class="st2" d="M1307.1,201.05c0,2.2-2.94,3.98-6.57,3.98c-3.63,0-6.57-1.78-6.57-3.98c0-2.2,2.94-3.98,6.57-3.98
		C1304.15,197.07,1307.1,198.85,1307.1,201.05z"/>
	<path class="st28" d="M1254.36,214.98c-1.49,1.49-9,4.65-9,11.7c0,7.05,9.93,13.9,5.33,16.11c-4.59,2.22-7.41-1.21-7.41,8.66
		c0,9.87,7.48,15.01,7.48,15.01s11.45,1.5,16.89-3.94c5.44-5.44-1.69-9.87,1.37-15.71c3.06-5.84,8.46-8.72,6.57-14.43
		c-0.84-2.54-4.51-7.34-9.01-10.69C1260.95,217.51,1254.36,214.98,1254.36,214.98z"/>
	<g>
		<path class="st28" d="M1250.7,152.1c4.09-4.09,20.68-5.06,20.68-5.06h1.24c5.2-1.98,32.68,38.86,29.21,60.65
			c-3.47,21.78-5.94,19.56-21.53,22.28c-15.6,2.72-27.23-8.91-31.17-21.78C1245.18,195.3,1246.61,156.18,1250.7,152.1z"/>
		<path class="st8" d="M1295.39,221.79c1.11,1.12-3.39,33.27,1.06,42.18c0,0-0.81,16.28-8.78,17.23
			c-6.93,0.83-19.5-7.38-20.88-13.74c-1.86-8.54,0-51.24,0-51.24L1295.39,221.79z"/>
		<path class="st2" d="M1294.93,235.1c-10.57,9.57-20.54,5.21-28.57-6.78c0.18-6.05,0.42-11.75,0.44-12.1l28.59,5.57
			C1295.85,222.25,1295.36,227.94,1294.93,235.1z"/>
		<path class="st8" d="M1292.06,149.53c0,0,13.39,2.55,14.99,14.03c1.59,11.48,3.83,21.05,1.59,34.45
			c-2.23,13.39-10.21,31.25-23.28,34.13c-13.07,2.87-26.79-18.82-26.79-30.62c0-11.8-4.78-31.58,4.15-43.7
			C1271.64,145.7,1292.06,149.53,1292.06,149.53z"/>
		<path class="st2" d="M1292.06,149.53c0,0,13.39,2.55,14.99,14.03c1.45,10.41,3.42,19.24,2.11,30.78
			c-2.13-1.47-5.16-2.95-9.42-4.36c-14.62-4.82-27.69-33.08-28.24-34.28l-0.23-0.5l-0.03-0.55c-0.07-1.12,0.07-2.29,0.4-3.47
			C1281.02,147.46,1292.06,149.53,1292.06,149.53z"/>
		<path class="st28" d="M1262.07,194.82c0,0-5.1-5.9-7.65-8.45c-2.55-2.55-8.93-27.75-2.55-36.36c6.38-8.61,18.59-9.09,28.35-10.21
			c9.76-1.12,25.25,6.32,26.12,20.86c0,0-25.13-9.54-32.14-6.19c-7.02,3.35-9.88,7.33-11.32,15.15
			C1261.44,177.44,1262.07,194.82,1262.07,194.82z"/>
		<path class="st8" d="M1262.07,194.82c0,0-3.42-14.81-9.1-11.23c-5.68,3.58,0.42,19.97,5.71,19.97
			C1263.99,203.56,1262.07,194.82,1262.07,194.82z"/>
		<path class="st2" d="M1256.56,186.7c0,0,8.39,13.46,2.63,11.98C1253.43,197.19,1251.16,184.2,1256.56,186.7z"/>
		<g>
			<path class="st29" d="M1292.18,203.58c-0.35-3.66-0.59-7.33-0.56-11.03c0.82,4.68,1.01,8.09,1.28,11.48
				c-1.95,0.53-4.29,1.62-7.22,0.51C1287.91,204.98,1290.14,204.34,1292.18,203.58z"/>
		</g>
		<path class="st29" d="M1284.93,192.21c-0.67-2.11-2.47-4.13-4.93-4.79c-4.37-1.14-7.05,5.16-10.04,5.1
			c2.15,1.1,5.6-2.58,7.97-3.52c1.28-0.52,2.42-0.16,3.69,0.44C1282.84,190.07,1283.94,191.06,1284.93,192.21z"/>
		<path class="st29" d="M1277.01,190.31c0,1.33,0.95,2.41,2.13,2.41c1.18,0,2.13-1.08,2.13-2.41c0-1.33-0.96-2.41-2.13-2.41
			C1277.96,187.91,1277.01,188.98,1277.01,190.31z"/>
		<path class="st29" d="M1294.66,193.58c0.76-2.08,2.65-4.01,5.14-4.56c4.42-0.95,6.81,5.47,9.8,5.54c-2.2,1-5.48-2.83-7.8-3.87
			c-1.26-0.58-2.41-0.27-3.7,0.27C1296.84,191.54,1295.69,192.48,1294.66,193.58z"/>
		<path class="st29" d="M1302.65,192.04c-0.06,1.33-1.06,2.36-2.23,2.31c-1.18-0.05-2.08-1.17-2.02-2.5
			c0.06-1.33,1.06-2.36,2.24-2.31C1301.81,189.59,1302.71,190.71,1302.65,192.04z"/>
		<path class="st29" d="M1286.48,182c0.48-0.31-3.34-4.15-7.92-4.58c-4.58-0.43-9.53,4.58-9.53,4.58s6.75-4.02,9.59-2.72
			C1281.47,180.58,1283.84,183.72,1286.48,182z"/>
		<g>
			<path class="st29" d="M1292.8,216.71c0.49-0.07,0.37-0.82-0.11-0.73c-0.07,0.01-7.6,1.03-13.86-3.92
				c-0.39-0.3-0.84,0.28-0.46,0.58C1282.62,215.99,1288.66,217.33,1292.8,216.71z"/>
		</g>
		<g>
			<path class="st29" d="M1287.18,219.14c0.19,0,0.36-0.15,0.37-0.34c0.07-0.92-5.48-0.26-7.54-3.64c-0.26-0.42-0.89-0.03-0.63,0.39
				c1.9,3.12,7.54,3.58,7.78,3.59C1287.16,219.14,1287.17,219.14,1287.18,219.14z"/>
		</g>
		<path class="st30" d="M1293.29,142.44c12.28,2.71,15.98,21.61,26.03,31.65c10.05,10.04,7.49,24.56,2.71,34.13
			c-4.78,9.57-12.45,3.35-12.45,3.35s4,2.23,6.55-5.74c2.55-7.97-1.91-14.19-15.47-18.66c-13.56-4.47-26.47-32.69-26.47-32.69
			C1273.86,148.96,1281.01,139.72,1293.29,142.44z"/>
		<path class="st31" d="M1309.58,211.56c4.66,2.71,11.22-8.69,6.43-16.13c-3.48-5.76-11.12-8.18-17.22-10.71
			c-9.67-5.55-18.96-20.88-24.6-30.25c4.09,11.18,12.74,26.68,23.18,32.86l2.51,1.09c2.58,1.04,10.43,3.16,14.23,8.27
			c3.06,4.01,1.6,10.25-0.43,13.2C1312.82,211.16,1311.24,212.16,1309.58,211.56z"/>
	</g>
	<path class="st28" d="M1251.7,249.64c0,0-8.41-2.69-8.41,6.04c0,8.73,14.44,17.19,12.69,17.19s-9.78-0.13-7.91,5.91
		c1.87,6.04,16.37,10.44,16.37,10.44s8.33-11.38,6.85-16.75c-1.48-5.37-6.07-1.88-6.07-1.88s7.33-11.31,3.81-16.47
		C1265.51,248.97,1251.7,249.64,1251.7,249.64z"/>
	<path class="st28" d="M1285.41,315.52c0,0-8.63-13.96-20.97-26.3c0,0-7.88,15.82-2.03,34.35c5.85,18.53,2.23,30.62,2.23,30.62
		s12.69-5.84,12.69-17.93c0,0,3.37,9.05,1.98,16.91C1279.31,353.18,1291.07,328.62,1285.41,315.52z"/>
</g>
<g>
	<g>
		<g>
			<path class="st32" d="M1452.58,1001.41h-19.55V696.16c0-42.13,34.28-76.41,76.42-76.41s76.42,34.28,76.42,76.41v54.93h-19.55
				v-54.93c0-31.35-25.51-56.86-56.87-56.86c-31.35,0-56.86,25.51-56.86,56.86V1001.41z"/>
		</g>
		<path class="st33" d="M1575.13,751.09v-55.43c0-36.22-29.47-65.69-65.69-65.69c-36.22,0-65.69,29.47-65.69,65.69v305.75h8.83
			V696.16c0-31.35,25.51-56.86,56.86-56.86c31.36,0,56.87,25.51,56.87,56.86v54.93H1575.13z"/>
	</g>
	<g>
		<path class="st34" d="M1543.87,1012.5c0,24.48-13.52,44.33-30.19,44.33c-16.68,0-30.19-19.85-30.19-44.33
			c0-24.49,13.52-44.34,30.19-44.34C1530.35,968.16,1543.87,988.01,1543.87,1012.5z"/>
		<path class="st32" d="M1542.14,1012.5c0,20.63-8.93,37.35-19.96,37.35c-11.02,0-19.96-16.73-19.96-37.35
			c0-20.63,8.94-37.36,19.96-37.36C1533.2,975.14,1542.14,991.87,1542.14,1012.5z"/>
		<path class="st35" d="M1538.78,1012.5c0,17.16-7.43,31.07-16.6,31.07c-9.16,0-16.6-13.91-16.6-31.07
			c0-17.16,7.43-31.07,16.6-31.07C1531.35,981.42,1538.78,995.34,1538.78,1012.5z"/>
		<path class="st32" d="M1530.2,1012.5c0,8.29-3.59,15.01-8.02,15.01c-4.43,0-8.02-6.72-8.02-15.01c0-8.29,3.59-15.01,8.02-15.01
			C1526.61,997.48,1530.2,1004.2,1530.2,1012.5z"/>
	</g>
	<path class="st36" d="M1673.6,968.03c0,46.06-37.34,83.4-83.4,83.4l0,0c-46.06,0-83.4-37.34-83.4-83.4V828.84
		c0-46.06,37.34-83.4,83.4-83.4l0,0c46.06,0,83.4,37.34,83.4,83.4V968.03z"/>
	<path class="st37" d="M1636.74,985.12c0,35.89-29.08,64.97-64.97,64.97l0,0c-35.88,0-64.98-29.09-64.98-64.97v-173.4
		c0-35.88,29.09-64.97,64.98-64.97l0,0c35.89,0,64.97,29.09,64.97,64.97V985.12z"/>
	<rect x="1518.83" y="927.39" class="st36" width="38.74" height="3.26"/>
	<polygon class="st36" points="1636.74,831.63 1610.45,831.63 1610.45,963.93 1613.71,963.93 1613.71,834.88 1636.74,834.88 	"/>
	<rect x="1518.83" y="935.31" class="st36" width="38.74" height="3.26"/>
	<rect x="1518.83" y="943.22" class="st36" width="38.74" height="3.26"/>
	<rect x="1518.83" y="951.14" class="st36" width="38.74" height="3.26"/>
	<path class="st38" d="M1595.85,804.09c0,12.36-10.03,22.38-22.38,22.38c-12.37,0-22.39-10.02-22.39-22.38
		c0-12.36,10.02-22.38,22.39-22.38C1585.82,781.71,1595.85,791.72,1595.85,804.09z"/>
	<path class="st39" d="M1503.34,960.72v8.51c0,47.97,38.89,86.85,86.86,86.85c47.97,0,86.85-38.89,86.85-86.85v-8.51H1503.34z"/>
	<path class="st40" d="M1503.34,960.72v26.31c0,37.37,30.29,67.66,67.67,67.66c37.37,0,67.66-30.29,67.66-67.66v-26.31H1503.34z"/>
	<path class="st38" d="M1608.52,765.75c5.45,10.89-32.87-0.29-55.61,14.1c-22.74,14.39-42.93,90.14-42.93,90.14
		c-3.19-70.57,7.96-95.09,30.69-109.47C1563.41,746.12,1597.77,748.75,1608.52,765.75z"/>
	<g>
		<path class="st34" d="M1703.79,1012.5c0,24.48-13.52,44.33-30.2,44.33c-16.68,0-30.19-19.85-30.19-44.33
			c0-24.49,13.52-44.34,30.19-44.34C1690.27,968.16,1703.79,988.01,1703.79,1012.5z"/>
		<path class="st32" d="M1702.06,1012.5c0,20.63-8.93,37.35-19.95,37.35c-11.02,0-19.96-16.73-19.96-37.35
			c0-20.63,8.93-37.36,19.96-37.36C1693.13,975.14,1702.06,991.87,1702.06,1012.5z"/>
		<path class="st35" d="M1698.7,1012.5c0,17.16-7.43,31.07-16.59,31.07c-9.17,0-16.6-13.91-16.6-31.07
			c0-17.16,7.43-31.07,16.6-31.07C1691.27,981.42,1698.7,995.34,1698.7,1012.5z"/>
		<path class="st32" d="M1690.13,1012.5c0,8.29-3.59,15.01-8.02,15.01c-4.43,0-8.02-6.72-8.02-15.01c0-8.29,3.59-15.01,8.02-15.01
			C1686.54,997.48,1690.13,1004.2,1690.13,1012.5z"/>
	</g>
	<path class="st36" d="M1592.71,804.09c0,10.63-8.61,19.24-19.24,19.24c-10.63,0-19.24-8.61-19.24-19.24
		c0-10.63,8.61-19.24,19.24-19.24C1584.09,784.85,1592.71,793.46,1592.71,804.09z"/>
	<path class="st41" d="M1597.88,972.81c4.14,6.45-12.75,14.45-37.74,17.87c-24.99,3.42-48.59,0.96-52.73-5.49
		c-4.13-6.45,12.77-14.46,37.74-17.88C1570.14,963.9,1593.74,966.35,1597.88,972.81z"/>
	<path class="st42" d="M1591.96,971.84c1.04,1.63-21.64-1.01-43.33,1.95c-21.69,2.97-34.16,10.43-35.21,8.79
		c-1.04-1.63,10.58-9.8,32.26-12.77C1567.37,966.85,1590.92,970.21,1591.96,971.84z"/>
	<path class="st42" d="M1584.69,978.43c0,2.43-2.51,4.39-5.62,4.39c-3.1,0-5.61-1.96-5.61-4.39c0-2.43,2.51-4.4,5.61-4.4
		C1582.18,974.03,1584.69,976,1584.69,978.43z"/>
	<g>
		<g>
			<path class="st32" d="M1665.51,959.24c-100.43,0-100.43-47.22-100.43-161.3h16.76c0,119.3,2.82,144.55,83.67,144.55
				c38.57,0,61.61-18.93,61.61-50.64c0-18.14-3.73-31.05-11.09-38.38c-9.64-9.59-25.3-9.49-39.13-9.46l-3.3,0.01v-16.76l3.23-0.01
				c15.4-0.07,36.45-0.17,51.02,14.33c10.79,10.74,16.03,27.18,16.03,50.26C1743.88,933.42,1713.85,959.24,1665.51,959.24z"/>
		</g>
		<g>
			<g>
				<path class="st33" d="M1716.03,853.47c6.59,6.56,10.25,17.65,10.95,32.92c0.05-1.05,0.15-2.07,0.15-3.15
					c0-18.14-3.73-31.05-11.09-38.38c-9.64-9.59-25.3-9.49-39.13-9.46l-3.3,0.01v8.61l3.3-0.01
					C1690.73,843.97,1706.39,843.87,1716.03,853.47z"/>
				<path class="st33" d="M1665.51,950.64c-97.85,0-100.36-44.86-100.42-152.7h0c0,114.09,0,161.3,100.43,161.3
					c48.34,0,78.36-25.82,78.36-67.4c0-1.46-0.08-2.81-0.12-4.22C1741.7,926.61,1712.12,950.64,1665.51,950.64z"/>
			</g>
		</g>
	</g>
	<path class="st32" d="M1586.77,804.09c0,7.35-5.96,13.31-13.3,13.31c-7.35,0-13.31-5.96-13.31-13.31c0-7.35,5.96-13.31,13.31-13.31
		C1580.81,790.78,1586.77,796.74,1586.77,804.09z"/>
	<g>
		<rect x="1431.45" y="981.42" class="st40" width="23.32" height="52.33"/>
		<g>
			<g>
				<g>
					<path class="st41" d="M1458.33,1008.02c0,0.97-0.78,1.76-1.76,1.76h-26.94c-0.97,0-1.76-0.79-1.76-1.76v-31.51
						c0-0.97,0.79-1.75,1.76-1.75h26.94c0.97,0,1.76,0.79,1.76,1.75V1008.02z"/>
					<path class="st39" d="M1457,974.81v32.87c0,0.85-0.7,1.55-1.55,1.55h-24.68c-0.85,0-1.55-0.7-1.55-1.55v-32.87
						c-0.77,0.19-1.34,0.88-1.34,1.7v31.51c0,0.97,0.79,1.76,1.76,1.76h26.94c0.97,0,1.76-0.79,1.76-1.76v-31.51
						C1458.33,975.69,1457.76,975,1457,974.81z"/>
					<g>
						<path class="st39" d="M1432.03,975.83c-0.29,0-0.53,0.24-0.53,0.52v33.14h1.05v-33.14
							C1432.55,976.07,1432.31,975.83,1432.03,975.83z"/>
						<path class="st39" d="M1434.88,975.83c-0.28,0-0.52,0.24-0.52,0.52v33.14h1.04v-33.14
							C1435.4,976.07,1435.17,975.83,1434.88,975.83z"/>
						<path class="st39" d="M1437.73,975.83c-0.29,0-0.52,0.24-0.52,0.52v33.14h1.05v-33.14
							C1438.25,976.07,1438.02,975.83,1437.73,975.83z"/>
						<path class="st39" d="M1440.58,975.83c-0.29,0-0.52,0.24-0.52,0.52v33.14h1.05v-33.14
							C1441.1,976.07,1440.86,975.83,1440.58,975.83z"/>
						<path class="st39" d="M1443.43,975.83c-0.29,0-0.52,0.24-0.52,0.52v33.14h1.04v-33.14
							C1443.95,976.07,1443.71,975.83,1443.43,975.83z"/>
						<path class="st39" d="M1446.28,975.83c-0.29,0-0.52,0.24-0.52,0.52v33.14h1.04v-33.14
							C1446.8,976.07,1446.57,975.83,1446.28,975.83z"/>
						<g>
							<rect x="1432.83" y="975.18" class="st42" width="0.65" height="33.62"/>
							<rect x="1435.68" y="975.18" class="st42" width="0.65" height="33.62"/>
							<rect x="1438.53" y="975.18" class="st42" width="0.65" height="33.62"/>
							<rect x="1441.39" y="975.18" class="st42" width="0.65" height="33.62"/>
							<rect x="1444.23" y="975.18" class="st42" width="0.65" height="33.62"/>
							<rect x="1447.08" y="975.18" class="st42" width="0.65" height="33.62"/>
							<polygon class="st42" points="1430.64,1008.8 1429.98,1008.17 1429.98,975.18 1430.64,975.18 							"/>
						</g>
						<path class="st39" d="M1449.13,975.83c-0.29,0-0.53,0.24-0.53,0.52v33.14h1.05v-33.14
							C1449.65,976.07,1449.41,975.83,1449.13,975.83z"/>
						<path class="st39" d="M1451.98,975.83c-0.29,0-0.53,0.24-0.53,0.52v33.14h1.05v-33.14
							C1452.5,976.07,1452.27,975.83,1451.98,975.83z"/>
						<path class="st39" d="M1454.83,975.83c-0.29,0-0.52,0.24-0.52,0.52v33.14h1.05v-33.14
							C1455.35,976.07,1455.12,975.83,1454.83,975.83z"/>
						<g>
							<rect x="1449.93" y="975.18" class="st42" width="0.65" height="33.62"/>
							<rect x="1452.78" y="975.18" class="st42" width="0.65" height="33.62"/>
							<rect x="1455.63" y="975.18" class="st42" width="0.65" height="33.62"/>
						</g>
					</g>
				</g>
			</g>
		</g>
		<g>
			<polygon class="st39" points="1440.42,1048.35 1514.83,1048.35 1496.36,1032.01 1464.8,1032.01 			"/>
			<polygon class="st40" points="1449.29,1048.35 1350.84,1048.35 1393.35,1032.01 1491.8,1032.01 			"/>
		</g>
		<path class="st43" d="M1519.36,1052.59c0,2.34-1.9,4.24-4.24,4.24h-101.62c-2.34,0-4.24-1.9-4.24-4.24l0,0
			c0-2.34,1.9-4.24,4.24-4.24h101.62C1517.46,1048.35,1519.36,1050.25,1519.36,1052.59L1519.36,1052.59z"/>
		<path class="st39" d="M1456.28,1052.59c0,2.34-1.9,4.24-4.24,4.24h-101.62c-2.34,0-4.24-1.9-4.24-4.24l0,0
			c0-2.34,1.9-4.24,4.24-4.24h101.62C1454.39,1048.35,1456.28,1050.25,1456.28,1052.59L1456.28,1052.59z"/>
		<path class="st42" d="M1470.3,1038.23c0,1.92-19.53,3.48-43.63,3.48c-24.09,0-43.63-1.56-43.63-3.48c0-1.92,19.54-3.49,43.63-3.49
			C1450.77,1034.74,1470.3,1036.31,1470.3,1038.23z"/>
		<path class="st42" d="M1390.32,1042.72c0,0.7-5.29,1.28-11.81,1.28c-6.53,0-11.82-0.57-11.82-1.28c0-0.7,5.29-1.27,11.82-1.27
			C1385.03,1041.45,1390.32,1042.02,1390.32,1042.72z"/>
	</g>
</g>
<g>
	<path class="st44" d="M866.6,906.14l-2.82,16.83l-19.12,114.39c-17.15,3.9-33.51,5.96-48.45,6.77
		c-47.03,2.58-80.13-6.77-80.13-6.77l-15.14-125.77l-0.66-5.45H866.6z"/>
	<path class="st45" d="M866.6,906.14l-2.82,16.83c-14.86,2.76-29.76,4.16-44.17,4.55c-52.79,1.48-99.66-10.35-118.66-15.93
		l-0.66-5.45H866.6z"/>
	<path class="st45" d="M866.6,906.14l-2.82,16.83l-19.12,114.39c-17.15,3.9-33.51,5.96-48.45,6.77
		c5.29-20.05,17.63-73.89,23.4-116.62c1.02-7.54,1.84-14.76,2.39-21.37H866.6z"/>
	<g>
		<path class="st46" d="M776.43,898.23h-16.15c0,0-2.92-14.99-5.84-29.87c-2.69-13.72-5.35-27.34-5.66-28.9
			c0,0,4.29,3.63,13.81,2.61l9.85,40.02L776.43,898.23z"/>
		<path class="st47" d="M776.43,898.23h-16.15c0,0-2.92-14.99-5.84-29.87c5,4.45,12.4,10.62,18,13.73L776.43,898.23z"/>
	</g>
	<g>
		<path class="st48" d="M789.93,811.8l-8.7,1.98l-10.07,2.29l-5.27-17.12c7.03,0.74,12.2-1.29,15.34-3.24
			c2.48-1.47,3.74-2.92,3.74-2.92L789.93,811.8z"/>
		<path class="st46" d="M789.93,811.8l-8.7,1.98v-18.07c2.48-1.47,3.74-2.92,3.74-2.92L789.93,811.8z"/>
	</g>
	<polygon class="st49" points="737.58,898.23 701.17,898.23 706.31,858.54 725.43,858.54 	"/>
	<polygon class="st50" points="737.58,898.23 721.11,898.23 718.95,858.54 725.43,858.54 	"/>
	<g>
		<path class="st48" d="M696.96,844.71c-2.58,12.86-12.98,17.17-14.35,15.91c-1.64-1.53-0.98-3.74,2.63-9.64
			c2.4-3.93,3.05-9.74,3.24-13.22c0.08-1.79,0.05-2.98,0.05-2.98l8.9,1.05C697.7,839.15,697.5,842.1,696.96,844.71z"/>
		<path class="st46" d="M696.96,844.71c-2.45-2.16-6.37-5.25-8.48-6.95c0.08-1.79,0.05-2.98,0.05-2.98l8.9,1.05
			C697.7,839.15,697.5,842.1,696.96,844.71z"/>
	</g>
	<path class="st51" d="M762.6,842.07l23.03-19.08h31.59l0,0l-27.3-11.19l-18.76,4.29l-22.37,23.37
		C748.78,839.46,752.19,844.05,762.6,842.07z"/>
	<path class="st51" d="M765.89,798.97c0,0,3.95-6.75,19.08-6.17C784.97,792.8,780.38,801.05,765.89,798.97z"/>
	<polygon class="st52" points="695.9,816.09 687.55,816.09 685.26,834.51 693.82,835.7 	"/>
	<g>
		<polygon class="st53" points="748.78,832.87 734.08,842.46 693.84,835.7 694,833.41 695.26,816.07 735.83,816.07 744.88,827.82 		
			"/>
		<path class="st52" d="M748.78,832.87l-14.7,9.59l-40.25-6.75l0.16-2.29c7.83,0.16,35.8,1.37,35.8,1.37l15.09-6.96L748.78,832.87z"
			/>
	</g>
	<g>
		<polygon class="st54" points="727.06,841.18 727.06,847.79 701.75,847.79 701.75,836.62 		"/>
		<polygon class="st55" points="727.06,841.18 727.06,845.97 701.75,838.75 701.75,836.62 		"/>
	</g>
	<g>
		<polygon class="st44" points="725.43,858.54 706.31,858.54 706.31,847.79 722.45,847.79 		"/>
		<polygon class="st45" points="725.43,858.54 718.66,858.54 712.26,847.79 722.45,847.79 		"/>
	</g>
	<g>
		<polygon class="st49" points="691.97,821.45 691.06,830.13 687.53,829.74 683.39,829.26 684.28,820.47 691.39,821.39 		"/>
		<polygon class="st50" points="691.97,821.45 691.06,830.13 687.53,829.74 691.39,821.39 		"/>
	</g>
	<g>
		<polygon class="st48" points="839.95,898.23 776.43,898.23 772.24,881.29 762.6,842.07 785.63,822.99 817.22,822.99 
			833.12,875.61 		"/>
		<path class="st56" d="M839.95,898.23h-63.52l-4.19-16.94c4.74,0.77,18.99,2.92,29.05,2.92c7.9,0,22.5-5.03,31.83-8.59
			L839.95,898.23z"/>
	</g>
	<g>
		<path class="st57" d="M870.54,903.5c0,2.93-2.37,5.27-5.27,5.27h-164.1c-2.92,0-5.25-2.34-5.25-5.27c0-1.43,0.58-2.74,1.51-3.71
			c0.98-0.94,2.3-1.56,3.74-1.56h164.1C868.17,898.23,870.54,900.61,870.54,903.5z"/>
		<path class="st44" d="M870.54,903.5c0,2.93-2.37,5.27-5.27,5.27H806.1l5.3-10.54h53.87C868.17,898.23,870.54,900.61,870.54,903.5z
			"/>
	</g>
	<path class="st58" d="M783.2,898.23c-0.21,2.47-0.53,6.09-0.94,10.54c-1.47,16.41-4.24,43.89-7.7,64.07
		c-2.58,14.84-5.56,25.71-8.67,25.31c-9.56-1.29-5.92-28.37-6.58-29.37c-0.66-0.97-8.24,30.62-16.46,29.3
		c-7.88-1.26-0.66-30.34-0.05-32.77c-1.06,2.3-13.09,28.69-19.7,25.84c-6.9-2.95,4.95-36.51,5.16-37.48
		c0.21-1.02-16.7,24-21.95,21.47c-5.27-2.56,0.97-10.78,5.95-27.43c3.03-10.12,10.67-26.95,16.43-38.94
		c2.06-4.3,3.87-7.99,5.14-10.54H783.2z"/>
	<path class="st49" d="M890,958.2c-1.85-3.24-12.27-3.35-21.7-4.95c-0.93-0.14-1.85-0.32-2.79-0.52c-1.42-0.32-2.82-0.66-4.11-1.08
		c-0.05-0.02-0.1-0.02-0.15-0.05c-6.72-2.19-14.94-6.27-21.57-7.93c-0.95-0.26-1.84-0.44-2.71-0.58c-0.87-0.13-1.71-0.21-2.51-0.21
		c-2.42,0-4.37,0.71-5.58,2.45l-5.11-15.72l-0.84-2.69l-4.32-13.31l-0.87-2.63l-4.13-12.78c0,0,5.84-1.95,10.9-1.19
		c1.42,0.23,2.79,0.66,3.92,1.43c0.35,0.21,0.69,0.43,0.98,0.74c0.5,0.44,2.21-5.9,8.12-10.27c0.69-0.5,1.43-0.98,2.22-1.4
		c2.71-1.52,6.13-2.55,10.41-2.58c0.61,0,1.27,0.03,1.93,0.05c0.58,0.03,1.13,0.08,1.68,0.16c7.48,0.89,13.12,4.87,17.65,10.46
		c0.55,0.66,1.08,1.35,1.58,2.1c4.5,6.27,7.85,14.1,10.82,21.95c0.32,0.77,0.58,1.52,0.87,2.26c0.03,0.06,0.05,0.16,0.08,0.24
		c3.32,8.88,4.42,18.55,4.85,25.85v0.03c0.18,3.11,0.23,5.82,0.29,7.82C889.95,956.83,889.98,957.61,890,958.2z"/>
	<path class="st59" d="M890.29,959.75c0.11-0.58-0.03-1.08-0.29-1.53c0.05,0.74,0.1,1.24,0.19,1.4
		C890.32,959.69,890.35,959.74,890.29,959.75z"/>
	<path class="st59" d="M890.19,959.62c0.03,0.06,0.06,0.15,0.1,0.13C890.35,959.74,890.32,959.69,890.19,959.62z"/>
	<path class="st50" d="M890.19,959.62c-0.1-0.16-0.15-0.66-0.19-1.4c-2.32-4.11-18.15-3.24-28.59-6.56c-0.03,0-0.06-0.02-0.1-0.02
		c-0.02-0.02-0.03-0.02-0.05-0.03c-11.59-3.76-27.61-13.12-32.37-6.29c-2.19,3.18,12.4,6.91,23.08,10.49
		c10.67,3.61,37.33,9.86,38.31,3.93C890.26,959.77,890.23,959.69,890.19,959.62z"/>
	<g>
		<path class="st60" d="M882.39,1044.81l-37.85,9.22c0,0,1.98,10.2,1.64,10.41l38.19-7.64L882.39,1044.81z"/>
		<polygon class="st61" points="806.1,1052.48 806.38,1061.81 846.19,1064.44 844.54,1054.03 		"/>
		<path class="st62" d="M844.54,1038.07c-1.21-0.63-38.44,14.41-38.44,14.41l38.44,1.55l37.85-9.22
			C882.39,1044.81,845.77,1038.72,844.54,1038.07z"/>
	</g>
	<path class="st63" d="M796.21,980.3c-11.78,1.8-7.22-36.51-6.4-42.86c-0.97,5.69-6.3,36.23-14.36,35.62
		c-0.31-0.03-0.63-0.1-0.89-0.23c-6.88-3.22,0.89-37.99,1.76-41.88c-1.13,3.63-10.2,32.43-17,30.92c-7.25-1.64,0-38.51,0-38.51
		s-14.14,31.27-21.73,28.63c-5.13-1.79,0.9-26.85,5.95-43.23c1.32-4.3,2.59-7.99,3.53-10.54h59.12c0.06,2.5,0.15,6.12,0.18,10.54
		C806.55,932.67,805.67,978.84,796.21,980.3z"/>
	<g>
		<path class="st64" d="M839.69,943.68c-0.95-0.26-1.84-0.44-2.71-0.58c-0.74-4.88-1.4-9.38-2.08-13.59h-0.03
			c-0.13-0.9-0.26-1.76-0.42-2.61c-0.9-5.14-1.87-9.86-3.05-14.12h-0.03c-0.23-0.89-0.48-1.71-0.74-2.56
			c-1.55-4.92-3.5-9.27-6.11-13.2c1.42,0.23,2.79,0.66,3.92,1.43c2,3.48,3.53,7.24,4.82,11.4c0.27,0.84,0.5,1.69,0.76,2.53
			c1.23,4.37,2.19,9.16,3.09,14.39c0.15,0.89,0.29,1.76,0.44,2.64c0.69,4.27,1.35,8.8,2.06,13.72
			C839.65,943.33,839.66,943.49,839.69,943.68z"/>
	</g>
	<g>
		<path class="st64" d="M868.3,953.26c-0.93-0.14-1.85-0.32-2.79-0.52c-1.84-8.64-4.74-17.26-7.99-25.35
			c-0.37-0.85-0.71-1.71-1.05-2.53c-2.43-5.74-5.01-11.17-7.56-16.04c-0.4-0.81-0.82-1.6-1.22-2.35
			c-3.97-7.51-7.66-13.62-10.14-17.54c0.69-0.5,1.43-0.98,2.22-1.4c2.56,4.06,6.37,10.35,10.44,18.08c0.4,0.77,0.82,1.56,1.24,2.37
			c2.58,5.04,5.21,10.59,7.69,16.49c0.34,0.84,0.68,1.64,1.03,2.5C863.55,935.33,866.5,944.31,868.3,953.26z"/>
	</g>
	<g>
		<path class="st64" d="M889.93,955.87c-3.77-10.4-9.09-21.34-14.72-31.59c-0.43-0.82-0.89-1.6-1.32-2.39
			c-3.72-6.64-7.53-12.96-11.12-18.57c-0.47-0.76-0.94-1.5-1.42-2.21c-4.37-6.75-8.28-12.38-11.17-16.17c0.61,0,1.27,0.03,1.93,0.05
			c0.58,0.03,1.13,0.08,1.68,0.16c2.93,3.87,6.38,8.93,10.09,14.72c0.47,0.74,0.92,1.48,1.39,2.22c3.69,5.88,7.56,12.41,11.3,19.21
			c0.42,0.77,0.87,1.6,1.29,2.42c4.38,8.04,8.46,16.38,11.78,24.29v0.03C889.82,951.16,889.87,953.87,889.93,955.87z"/>
	</g>
	<g>
		<path class="st64" d="M873.03,897.71c-2.16,1.37-4.77,2.87-7.75,4.38c-0.81,0.42-1.64,0.82-2.5,1.22
			c-3.37,1.61-7.12,3.22-11.32,4.66c-0.84,0.29-1.68,0.55-2.55,0.84c-4.59,1.47-9.56,2.69-14.89,3.56c-0.85,0.13-1.72,0.26-2.61,0.4
			h-0.03c-4.06,0.52-8.33,0.84-12.75,0.84l-0.87-2.63c4.48,0.05,8.8-0.24,12.88-0.77c0.89-0.11,1.76-0.24,2.63-0.37
			c5.17-0.77,10.01-1.97,14.43-3.39c0.87-0.27,1.72-0.53,2.53-0.85c4.11-1.37,7.82-2.92,11.14-4.5c0.87-0.42,1.71-0.85,2.53-1.24
			c2.93-1.48,5.45-2.93,7.56-4.26C871.99,896.28,872.53,896.97,873.03,897.71z"/>
	</g>
	<g>
		<path class="st64" d="M884.79,922.16c-2.03,0.48-4.37,1.02-6.93,1.56c-0.84,0.19-1.72,0.37-2.64,0.55
			c-4.51,0.94-9.59,1.87-15.04,2.69c-0.87,0.16-1.77,0.27-2.66,0.42c-6.35,0.9-13.09,1.64-19.97,2.03c-0.85,0.02-1.76,0.08-2.64,0.1
			h-0.03c-2.34,0.11-4.69,0.16-7.06,0.16c-1.34,0-2.69-0.02-4.03-0.05l-0.84-2.69c3.79,0.16,7.66,0.15,11.51-0.03
			c0.89-0.02,1.76-0.06,2.66-0.13c6.63-0.32,13.19-1.05,19.36-1.92c0.89-0.1,1.81-0.23,2.68-0.39c5.35-0.79,10.32-1.69,14.75-2.58
			c0.92-0.21,1.8-0.4,2.68-0.58c2.69-0.58,5.14-1.14,7.27-1.64c0.32,0.77,0.58,1.52,0.87,2.26
			C884.74,921.99,884.76,922.08,884.79,922.16z"/>
	</g>
</g>
</svg>
