<?xml version="1.0" encoding="utf-8"?>
<!-- Generator: Adobe Illustrator 24.0.1, SVG Export Plug-In . SVG Version: 6.00 Build 0)  -->
<svg version="1.1" id="Layer_1" xmlns="http://www.w3.org/2000/svg" xmlns:xlink="http://www.w3.org/1999/xlink" x="0px" y="0px"
	 viewBox="0 0 1920 1080" style="enable-background:new 0 0 1920 1080;" xml:space="preserve">
<style type="text/css">
	.st0{fill:#E5EDEB;}
	.st1{fill:#4D7BCB;}
	.st2{fill:#FFEE9B;}
	.st3{fill:#FFF7CF;}
	.st4{fill:#5B007C;}
	.st5{fill:#3F3C43;}
	.st6{fill:#F7B28B;}
	.st7{fill:#54688B;}
	.st8{fill:#002B32;}
	.st9{fill:#FD5E5A;}
	.st10{fill:#FC7575;}
	.st11{fill:#383D43;}
	.st12{fill:#3A556E;}
	.st13{fill:#3A1425;}
	.st14{fill:#691C15;}
	.st15{fill:#1D1B22;}
	.st16{fill:#E88C66;}
	.st17{fill:#393644;}
	.st18{fill:#E06633;}
	.st19{fill:#FFDEC9;}
	.st20{fill:#FFFFFF;}
	.st21{fill:#2E0A29;}
	.st22{fill:#172866;}
	.st23{fill:#1B2B80;}
	.st24{fill:#2F499F;}
	.st25{fill:#023135;}
	.st26{fill:#7095B9;}
	.st27{fill:#0F1D5B;}
	.st28{fill:#375866;}
	.st29{fill:#1A2A63;}
	.st30{fill:#D24307;}
	.st31{fill:#99C8F2;}
	.st32{fill:#96C7F6;}
	.st33{fill:#C0DDFA;}
	.st34{fill:#ABD2F8;}
	.st35{fill:#1E3340;}
	.st36{fill:#381A3F;}
	.st37{fill:#653870;}
	.st38{fill:#333643;}
	.st39{fill:#26253A;}
	.st40{fill:#4C5063;}
	.st41{fill:#31003D;}
	.st42{fill:#1B2E96;}
	.st43{fill:#353535;}
	.st44{fill:#696969;}
	.st45{fill:#7C8BDE;}
	.st46{fill:#460E02;}
	.st47{fill:#EA5353;}
	.st48{fill:#EE66B2;}
	.st49{fill:#BE2703;}
	.st50{fill:#8C1C03;}
	.st51{fill:#FF8D8D;}
	.st52{fill:#4F005E;}
	.st53{fill:#42004A;}
	.st54{fill:#6A0084;}
	.st55{fill:#A02103;}
	.st56{fill:#9E9E9E;}
	.st57{fill:#7D87B7;}
	.st58{fill:#979FC5;}
	.st59{fill:#B8B8B8;}
	.st60{fill:#61567C;}
	.st61{fill:#2D1175;}
	.st62{fill:#B96E16;}
	.st63{fill:#FABE78;}
	.st64{fill:#5D68A7;}
	.st65{fill:#F98A8A;}
	.st66{fill:#EA7373;}
	.st67{fill:#D86666;}
	.st68{fill:#94BBFF;}
	.st69{fill:#777CAA;}
	.st70{fill:#2B3278;}
	.st71{fill:#E3E4FF;}
	.st72{fill:#3E2720;}
	.st73{fill:#BBDFFF;}
	.st74{fill:#4083BF;}
	.st75{fill:#6188CB;}
	.st76{fill:#2A5780;}
	.st77{fill:#2C4053;}
	.st78{fill:#8CB5D9;}
	.st79{fill:#D86B47;}
</style>
<g>
	<path class="st0" d="M333.53,971.22c0,0,223.82-360.23,635-443.15c218.42-44.05,310.87-226.75,477.88-254.4
		c167-27.64,221.35,218.68,250.48,407.62s-15.7,296.58-15.7,296.58L333.53,971.22z"/>
	<g>
		<path class="st1" d="M638.27,730.38c3.39,1.31,5.41,2.32,5.41,2.32s-6.54-10.29-17.04-20.79c-10.5-10.5-9.05-12.38-21.88-10.17
			c-12.83,2.21-19.46-3.54-22.11-3.54c-1.34,0-3,5.73-5.14,11.14c-4.42,1.61-9.08,3.78-12.72,5.91c-2.98-3.08-5.13-6.87-10.01-6.87
			c-4.6,0-5.48,8.96-8.07,16.21c-2.99,1.61-6.49,3.8-9.76,6.09c-0.04-6.61,7.65-22.74,7.65-22.74s-27.42,8.85-27.42,13.71
			c0,4.86,18.13,13.27,10.17,13.27c-7.96,0-16.81-12.83-16.81-12.83s-14.27,7.52-11.56,15.92c2.71,8.4-6.1,11.43-9,14.33
			c-0.01,0.01-0.01,0.01-0.01,0.02c-6.72,2.39-15.26,7.18-18.94,10.86c-6.19,6.19,11.35,42.61,6.78,47.18
			c-4.57,4.57-13.86-35.38-13.86-39.22c0-2.21-1.98-2.39-4.54-0.63c7.43-41.09,18.94-76.6,36.87-94.6
			c7.05-7.33,15.58-11.74,22.01-15.58c0.09-0.05,0.16-0.1,0.25-0.15c-1.32,2.14-2.47,5.94-2.47,12.77
			c0,16.14,41.55,21.48,35.38,15.31c-6.16-6.16-13.05-25.26-9.73-25.26c3.32,0,8.85,20.13,17.69,24.33
			c8.85,4.2,19.24-7.08,19.24-7.08s-27.75-20.9-24.99-23.66c2.76-2.76,26.76,25.21,33.39,27.86c6.64,2.65,18.8-10.17,18.8-10.17
			s-45.78-24.55-44.49-28.75c1.29-4.2,42.5,26.1,48.91,24.11c6.42-1.99,11.94-14.82,11.94-14.82s-46.44-15.7-44.67-19.46
			c1.77-3.76,38.92,16.59,44.23,15.48c5.31-1.1,2.65-16.37,2.65-19.02c0-2.65-28.64-6.52-31.4-9.29c-2.76-2.76,28.09,5.09,30.3,5.09
			c2.21,0,4.64-2.65,2.43-7.74c-2.21-5.09-4.2-21.89-4.2-21.89c-2.65,0-14.37-9.29-16.36-11.28c-1.99-1.99-9.51,15.7-12.38,15.7
			c-2.88,0,8.4-15.92,8.4-19.68c0-3.76-7.08-7.08-12.83-7.08c-5.75,0-14.6,38.4-17.25,38.4c-2.65,0,9.29-39.28,7.52-41.05
			c-1.77-1.77-6.85-4.42-17.47-2.88c-10.61,1.55-4.64,46.44-8.4,50.2c-3.76,3.76,0-47.55,0-48.87c0-1.33-13.27,2.21-17.91,6.86
			c-4.64,4.64,3.32,47.99,0,51.3c-3.32,3.32-5.97-41.35-5.97-46c0-4.64-4.2-5.09-16.15,9.95c-3.29,4.15-3.88,8.7-3.05,13.14
			c-18.81,8.3-15.06,38.41-6.9,46.57c4.14,4.14,9.12,5.16,13.04,5.17c-18,10.61-29.02,17.84-41.28,45.91
			c-0.01-9.5-1.06-30.1-6.19-35.23c-5.16-5.16,6.19-2.36,6.19-7.67c0-5.31-0.59-25.65-2.95-28.01c-2.36-2.36-8.55,16.22-12.38,12.39
			c-3.83-3.83,10.91-15.33,10.91-16.81c0-1.47-8.55-29.19-10.62-29.19s-0.59,12.09-6.49,15.04s3.24-17.1,3.24-23.29
			c0-6.19-6.04-7.52-12.97-14.45c-6.93-6.93-14.74-19.17-14.74-19.17s5.9,20.64,15.04,38.33c8.62,16.68,10.94,78.68,11.18,85.72
			c-0.16,0.18-0.27,0.41-0.27,0.67c-0.51,36.34-0.99,68-1.45,95.6c-0.41,1.2-0.41,2.88-0.08,4.9c-0.01,0.57-0.02,1.14-0.03,1.7
			c-0.65,4.38-1.28,8.89-1.87,13.48c-2-5.98-3.32-10.42-3.32-10.42s-1.14,1.21-2.75,3.21c-0.91-5.34-2.85-9.47-6.13-10.73
			c0,0-1.6,1.63-3.95,3.86c-1.04-34.87-2.8-66.06-5.7-84.66c-0.68-3.67-1.26-7.28-2.8-11.26c2.13-0.04,4.96-0.67,8.72-2.43
			c12.44-5.83-2.28-47.94-4.24-39.75c-1.96,8.19-13.55,21.74-15.06,18.53s11.5-15.82,10.73-25.89
			c-0.77-10.07-14.17-16.05-14.17-16.05s-3.52,34.39-6.91,32.71c-3.38-1.68,7.3-34.99,6.34-42.36
			c-0.96-7.37-16.36-14.51-16.36-14.51s1.83,53.14-1.99,53.41c-3.82,0.27,0.85-50.53-3.59-56.01c-4.44-5.49-16.83-6.2-16.83-6.2
			s8.95,50.59,5.25,50.23c-3.7-0.35-4.86-43.64-8.12-48.37c-3.26-4.74-13.81,3.34-15.86,4.3c-2.04,0.96,7.95,30.06,7.07,33.73
			c-0.88,3.67-8.81-29-9.81-31.14c-1-2.14-4.15-3.53-7.07,0.44c-2.92,3.98-14.97,11.97-14.97,11.97c1.2,2.57-0.64,17.26-1.27,19.9
			c-0.63,2.64,16.41,3.53,17.71,6.31c1.3,2.78-16.08-2.38-18.97-1.03c-2.9,1.36-2.25,9.4,0.36,14.96c2.6,5.56,36.2,0.26,37.4,2.82
			c1.2,2.57-34.48,5.2-35.04,7.55c-0.56,2.35-0.3,8.23,5.7,17.94c6,9.71,37.89-12.27,42.49-9.99c4.6,2.28-36.64,17.16-37.66,17.64
			c-1.02,0.48,7.72,12.04,13.4,14.85c5.68,2.82,35.47-20.53,39.53-18.52c4.06,2.01-29.16,20.7-32.74,22.38
			c-3.58,1.68-2.01,5.9,14.98,12.03c4.69,1.69,8.45,0.61,11.5-1.79c14.3,14.57,34.65,1.84,38.59-8.78
			c1.97,16.17,3.28,38.84,4.13,64.29c-3.65-6.24-11.1-13.27-14.69-9.68c-4.87,4.87-9.95,25.87-15.48,20.35
			c-5.53-5.53,13.71-19.9,11.5-28.31c-2.21-8.41-9.69-15.64-12.5-12.83c-2.82,2.82-2.09,31.4-5.63,27.86
			c-3.54-3.54,5.25-32.02,2.65-34.61c-2.6-2.6-15.77-14.93-20.64-10.06c-4.87,4.86,5.75,31.11,2.95,28.3
			c-2.8-2.8-9.73-32.14-13.56-35.97c-3.83-3.83-9.9,0.98-13.56-2.69c0,0-0.74,8.14-2.65,10.06c-1.92,1.92,18.58,19.16,15.92,19.16
			c-2.65,0-19.46-15.63-19.46-15.63s1.33,16.66,5.01,20.34c3.69,3.68,23.29,6.78,23.29,10.03c0,3.24-25.36-4.13-25.36-4.13
			s5.01,19.16,13.86,21.53c8.85,2.36,22.7,0.59,22.7,3.83c0,3.24-17.4,1.18-17.4,1.18s4.13,23.59,15.63,23.59s12.81-2.06,12.81,2.06
			c0,4.13-8.98-2.95-8.98,4.42c0,7.37,8.34,22.16,12.68,17.82c2.33-2.33,3.89-5.71,4.85-8.35c6.04,22.64,13.45,55.57,18.46,95.18
			h3.57c-5.18-41.21-12.97-75.24-19.16-98.15c3.87,2.4,13.92,8.3,22.06,10.48c-0.51,4.64-0.14,13.97,2.53,22.3
			c0.14,23.26,0.08,45.83-0.04,65.37h5.24c0.06-16.7,0.06-35.63-0.06-55.34c1.58,1.96,3.42,3.59,5.63,4.65
			c0.92,0.44,1.83,0.8,2.74,1.11c-1.22,17.06-2.15,33.88-2.84,49.58h4.76c0.45-15.19,1.12-31.6,2.17-48.57
			c0.95,0.15,1.9,0.26,2.81,0.29c-0.39,19.81-0.73,35.61-1,48.28h3.48c0.17-14.28,0.37-30.8,0.57-48.37
			c4.64-0.4,8.41-1.98,10.6-3.14c-4.39,14.78-6.72,33.28-7.79,51.51h3.23c0.75-14.93,2.25-29.82,4.89-42.16
			c0.38,2.94,1.31,6.54,3.22,10.93c6.78,15.63,35.68,8.85,35.68,8.85c-17.69,0-22.7-29.78-17.4-32.14
			c5.31-2.36,2.36,24.77,19.75,28.9c17.4,4.13,22.7-9.73,22.7-9.73c-13.56-2.65-37.89-24.91-33.31-29.49
			c4.58-4.57,27.12,26.54,36.26,26.54c9.14,0,19.17-24.18,19.17-24.18c-11.2,6.49-47.77-10.62-51.17-16.51
			c-3.41-5.9,36.14,15.63,50.58,12.97c14.45-2.65,13.56-28.01,13.56-28.01c-4.57,4.57-44.23,0.3-48.36-3.83
			c-4.13-4.13,39.22,2.06,47.47-2.06c8.26-4.13,5.6-25.24,5.6-25.24s-30.08,6.37-37.74,4.31c-7.67-2.06,31.55-5.9,35.09-14.74
			c3.54-8.85-5.2-29.37-5.2-29.37c-4.05,4.05-16.81,0.7-22.11,0.1c14.44-6.92,31.3-14.89,38.54-17.91
			C589.94,727.2,622.76,725.74,638.27,730.38z M393.37,710.78c-0.89,0.2-1.62,0.49-2.29,0.81c5.04-7.21,7.28-17.23,8.63-16.56
			C402,696.16,398.64,709.61,393.37,710.78z M430.21,788.66c-6.05,5.3-13.41,10.84-15.64,8.61c-3.26-3.26,10.39-10.68,15.43-16.41
			C430.07,783.44,430.14,786.04,430.21,788.66z M447.05,835.24c-0.19,2.08-0.38,4.16-0.56,6.25c-3.13-0.4-7.14-5.62-10.56-10.16
			c-0.01-1.12-0.03-2.25-0.05-3.38c0.26-0.06,0.56-0.08,0.8-0.16c0.89-0.31,1.73-1,2.52-1.98
			C441.98,829.61,445.01,832.75,447.05,835.24z M511.65,616.15c0.19-1.04,0.23-1.97,0.22-2.85c4.11,8.95,11.71,16.34,10.61,17.44
			C520.61,632.63,510.55,622.35,511.65,616.15z M455.53,769.28c0.37-42.97,0.54-78.16,0.2-85.95c3.4,3.69,1.27,22.51,6.46,27.7
			c3,3,6.34,3.61,8.79,2.1c-1.1,2.84-2.22,5.84-3.37,9.05c-0.92,2.87-5.88,17.83-7.79,26.47
			C458.29,754.92,456.86,761.87,455.53,769.28z M467.2,829.86c-3.1,1.33-7.97-9.18-12.06-20c0.04-4.33,0.09-8.64,0.13-12.92
			c0.17-1.27,0.35-2.53,0.53-3.8C461.2,808.17,471.44,828.04,467.2,829.86z M502,793.88c-7.67,0-3.65-24.75-2.83-36.38
			c1.72,0.56,3.52,1.1,5.27,1.6C504.4,771.62,508.93,793.88,502,793.88z M536.14,751.66c-3.05,5.17-5.35,21.52-10.55,22.76
			c-4.68,1.11,1.24-12.9,4.42-19.81C531.95,753.67,534,752.69,536.14,751.66z"/>
		<path class="st1" d="M483.52,967.07h-79.55c-19.4-5.71-32.19-15.46-32.19-26.55c0-10.42,11.31-19.67,28.79-25.49h86.37
			c17.48,5.81,28.79,15.06,28.79,25.49C515.72,951.61,502.92,961.37,483.52,967.07z"/>
	</g>
	<g>
		<g>
			
				<rect x="741.38" y="119.89" transform="matrix(-1.836970e-16 1 -1 -1.836970e-16 1327.1401 -625.8619)" class="st2" width="470.24" height="461.5"/>
			<rect x="754.62" y="124.39" class="st3" width="443.77" height="452.5"/>
		</g>
		<g>
			<g>
				<rect x="812.8" y="272.54" class="st4" width="19.8" height="1.69"/>
			</g>
			<g>
				<rect x="770.95" y="214.17" class="st4" width="61.65" height="1.69"/>
			</g>
			<g>
				<rect x="770.95" y="363.75" class="st4" width="59.87" height="1.69"/>
			</g>
			<g>
				<rect x="820.21" y="215.02" class="st4" width="0.56" height="149.57"/>
			</g>
			<g>
				<rect x="805.01" y="215.02" class="st4" width="0.56" height="149.57"/>
			</g>
			<g>
				<rect x="795.44" y="215.02" class="st4" width="0.56" height="149.57"/>
			</g>
			<g>
				<rect x="787.56" y="215.02" class="st4" width="0.56" height="149.57"/>
			</g>
			<g>
				<rect x="777.14" y="215.02" class="st4" width="0.56" height="149.57"/>
			</g>
			<g>
				<rect x="832.6" y="208.17" class="st4" width="253.63" height="0.56"/>
			</g>
			<g>
				<rect x="832.03" y="201.04" class="st4" width="317.52" height="0.56"/>
			</g>
			<g>
				<rect x="832.17" y="192.03" class="st4" width="317.38" height="0.56"/>
			</g>
			<g>
				<rect x="830.81" y="430.37" class="st4" width="139.25" height="0.56"/>
			</g>
			<g>
				<rect x="830.81" y="438.62" class="st4" width="255.41" height="0.56"/>
			</g>
			<g>
				<rect x="830.81" y="455.52" class="st4" width="255.41" height="0.56"/>
			</g>
			<g>
				<rect x="830.81" y="465.09" class="st4" width="315.37" height="0.56"/>
			</g>
			<g>
				<rect x="937.03" y="364.59" class="st4" width="0.56" height="105"/>
			</g>
			<g>
				<rect x="969.78" y="395.56" class="st4" width="0.56" height="38.28"/>
			</g>
			<g>
				<rect x="991.64" y="369.66" class="st4" width="0.56" height="73.47"/>
			</g>
			<g>
				<rect x="1017.45" y="389.36" class="st4" width="0.56" height="53.77"/>
			</g>
			<g>
				<rect x="1046.35" y="389.36" class="st4" width="0.56" height="53.77"/>
			</g>
			<g>
				<rect x="1085.95" y="373.22" class="st4" width="0.56" height="85.39"/>
			</g>
			<g>
				<rect x="830.53" y="369.66" class="st4" width="0.56" height="99.93"/>
			</g>
			<g>
				<rect x="1145.91" y="338.69" class="st4" width="0.56" height="130.9"/>
			</g>
			<g>
				<rect x="1015.32" y="175.99" class="st4" width="1.69" height="11.82"/>
			</g>
			<g>
				<g>
					<rect x="1018.17" y="181.62" class="st4" width="43.29" height="0.56"/>
				</g>
				<g>
					<g>
						<path class="st4" d="M1018.39,181.9c0.59,0.59,0.87,1.75,0.89,2.56c-0.81-1.08-1.85-2.03-3.12-2.56
							c1.27-0.51,2.27-1.51,3.12-2.56C1019.22,180.2,1019,181.25,1018.39,181.9z"/>
					</g>
				</g>
			</g>
			<g>
				<polygon class="st4" points="798.02,414.98 772.64,414.98 772.64,414.42 797.73,414.42 864.37,323.04 864.82,323.37 				"/>
			</g>
			<g>
				<rect x="803.41" y="299.28" class="st4" width="21.02" height="1.69"/>
			</g>
			<g>
				<rect x="792.15" y="309.32" class="st4" width="32.28" height="1.69"/>
			</g>
			<g>
				<rect x="782.77" y="329.97" class="st4" width="43.91" height="1.69"/>
			</g>
			<g>
				<rect x="831.75" y="187.81" class="st4" width="1.69" height="23.65"/>
			</g>
			<g>
				<rect x="1149.27" y="187.81" class="st4" width="0.56" height="23.65"/>
			</g>
			<g>
				<rect x="1085.95" y="197.19" class="st4" width="0.56" height="15.76"/>
			</g>
			<g>
				<rect x="988.14" y="195.69" class="st4" width="0.56" height="15.76"/>
			</g>
			<g>
				<rect x="774.61" y="406.82" class="st4" width="11.54" height="3.66"/>
			</g>
			<g>
				<rect x="1033.59" y="171.59" class="st4" width="27.87" height="4.4"/>
			</g>
			<g>
				<rect x="1038.81" y="479.44" class="st4" width="89.35" height="5.63"/>
			</g>
			<g>
				<rect x="1071.89" y="490.7" class="st4" width="47.2" height="4.5"/>
			</g>
			<g>
				<path class="st5" d="M831.56,212.2v152.39h9.76v-9.01h-0.75v-77.69h1.03v-9.01h-1.03v-47.67h26.09v47.67h-14.08v9.01h54.61
					v24.77h21.68v52.92h-74.79v9.01c45.26,0,97.94,0,136.23,0l27.02,22.24h29.62l25.05-19.42h14.22V221.21h55.46v109.6h9.01V212.2
					C1113.75,212.2,864.59,212.2,831.56,212.2z M937.88,277.89h43.07v32.09h-43.07V277.89z M937.88,268.88v-47.67h18.02v47.67
					H937.88z M980.95,268.88H960.4v-47.67h20.55V268.88z M871.16,221.21h57.71v47.67h-57.71V221.21z M911.7,298.16v-20.27h17.17
					v20.27H911.7z M937.88,355.58v-41.1h43.07v41.1H937.88z M1077.22,358.4h-8.3l-25.05,19.42h-23.31l-27.02-22.24h-3.58V221.21
					h87.26V358.4z"/>
				<polygon class="st5" points="859.06,389.36 859.06,398.37 969.51,398.37 997.26,420.74 1002.91,413.72 972.68,389.36 				"/>
			</g>
		</g>
		<rect x="813.92" y="554.93" class="st6" width="269.56" height="12.74"/>
		<rect x="937.03" y="525.31" class="st6" width="173.14" height="12.96"/>
		<rect x="797.81" y="135.76" class="st6" width="231.73" height="9.18"/>
	</g>
	<path class="st1" d="M1420.88,574.39c-2.8-1.31-19.62,3.68-18.36,0.99c1.26-2.69,17.75-3.55,17.14-6.11
		c-0.61-2.56-2.4-16.77-1.23-19.26c0,0-11.66-7.73-14.48-11.58c-2.82-3.85-5.87-2.5-6.84-0.43c-0.97,2.07-8.65,33.69-9.49,30.13
		s8.83-31.71,6.85-32.64c-1.98-0.93-12.19-8.74-15.34-4.16c-3.15,4.58-4.28,46.47-7.85,46.81c-3.58,0.34,5.08-48.61,5.08-48.61
		s-11.99,0.69-16.28,6c-4.3,5.31,0.22,54.46-3.48,54.2c-3.7-0.26-1.93-51.69-1.93-51.69s-14.9,6.91-15.83,14.04
		c-0.93,7.14,9.41,39.37,6.13,40.99c-3.27,1.62-6.69-31.66-6.69-31.66s-12.97,5.79-13.71,15.54c-0.75,9.75,11.83,21.95,10.38,25.06
		c-1.46,3.11-12.68-10.01-14.57-17.93c-1.89-7.92-16.14,32.83-4.1,38.47c3.64,1.7,6.37,2.31,8.44,2.35
		c-1.5,3.85-2.06,7.34-2.71,10.89c-2.81,18-4.51,48.18-5.52,81.93c-2.28-2.16-3.82-3.74-3.82-3.74c-3.17,1.22-5.05,5.22-5.93,10.38
		c-1.56-1.94-2.66-3.11-2.66-3.11s-1.28,4.29-3.21,10.08c-0.58-4.44-1.18-8.8-1.81-13.04c-0.01-0.55-0.02-1.1-0.03-1.65
		c0.31-1.96,0.32-3.58-0.08-4.74c-0.44-26.72-0.91-57.35-1.4-92.51c0-0.25-0.11-0.48-0.27-0.65c0.23-6.81,2.48-66.8,10.82-82.94
		c8.84-17.12,14.55-37.09,14.55-37.09s-7.56,11.84-14.27,18.55c-6.71,6.7-12.55,7.99-12.55,13.98c0,5.99,8.85,25.39,3.14,22.54
		c-5.71-2.85-4.28-14.55-6.28-14.55c-2,0-10.27,26.82-10.27,28.25c0,1.43,14.27,12.55,10.56,16.26c-3.71,3.71-9.7-14.26-11.98-11.98
		c-2.28,2.28-2.85,21.97-2.85,27.11c0,5.14,10.99,2.42,5.99,7.42c-4.97,4.97-5.98,24.9-5.99,34.09
		c-11.86-27.16-22.52-34.15-39.94-44.43c3.79,0,8.62-0.99,12.62-5c7.89-7.89,11.52-37.03-6.68-45.06c0.8-4.3,0.24-8.7-2.95-12.72
		c-11.56-14.55-15.62-14.12-15.62-9.63s-2.57,47.72-5.78,44.51c-3.21-3.21,4.49-45.15,0-49.65c-4.49-4.49-17.33-7.92-17.33-6.63
		c0,1.28,3.64,50.93,0,47.29c-3.64-3.64,2.14-47.08-8.13-48.58c-10.27-1.5-15.19,1.07-16.91,2.78c-1.71,1.71,9.84,39.72,7.28,39.72
		c-2.57,0-11.13-37.16-16.69-37.16c-5.57,0-12.41,3.21-12.41,6.85c0,3.64,10.91,19.05,8.13,19.05c-2.78,0-10.06-17.12-11.98-15.19
		c-1.93,1.93-13.27,10.91-15.84,10.91c0,0-1.93,16.26-4.07,21.18c-2.14,4.92,0.21,7.49,2.35,7.49c2.14,0,31.99-7.6,29.32-4.92
		c-2.68,2.67-30.39,6.42-30.39,8.99c0,2.57-2.57,17.33,2.57,18.4c5.14,1.07,41.09-18.62,42.8-14.98
		c1.71,3.64-43.23,18.83-43.23,18.83s5.35,12.41,11.56,14.34c6.21,1.93,46.08-27.39,47.33-23.32c1.25,4.07-43.05,27.82-43.05,27.82
		s11.77,12.41,18.19,9.84c6.42-2.57,29.64-29.64,32.31-26.96c2.68,2.68-24.18,22.9-24.18,22.9s10.06,10.91,18.62,6.85
		c8.56-4.07,13.91-23.54,17.12-23.54c3.21,0-3.45,18.48-9.42,24.45c-5.97,5.97,34.24,0.8,34.24-14.82c0-6.61-1.11-10.29-2.4-12.36
		c0.08,0.05,0.16,0.09,0.24,0.14c6.22,3.72,14.48,7.99,21.3,15.08c17.35,17.42,28.49,51.78,35.68,91.54
		c-2.48-1.71-4.39-1.53-4.39,0.61c0,3.71-8.99,42.37-13.41,37.95c-4.42-4.42,12.55-39.66,6.56-45.65
		c-3.56-3.56-11.82-8.2-18.33-10.51c0,0-0.01-0.01-0.01-0.02c-2.81-2.81-11.33-5.74-8.71-13.87c2.62-8.13-11.18-15.41-11.18-15.41
		s-8.56,12.41-16.26,12.41c-7.7,0,9.84-8.13,9.84-12.84c0-4.71-26.54-13.27-26.54-13.27s7.45,15.61,7.4,22.01
		c-3.16-2.21-6.54-4.33-9.44-5.89c-2.51-7.02-3.36-15.69-7.81-15.69c-4.73,0-6.8,3.67-9.69,6.65c-3.51-2.05-8.02-4.15-12.31-5.71
		c-2.07-5.23-3.67-10.77-4.97-10.77c-2.57,0-8.99,5.56-21.4,3.42c-12.41-2.14-11.01-0.32-21.17,9.84
		c-10.16,10.16-16.49,20.12-16.49,20.12s1.96-0.98,5.23-2.25c15-4.49,46.77-3.08,58.51,1.82c7.01,2.92,23.33,10.64,37.3,17.33
		c-5.13,0.58-17.47,3.83-21.4-0.09c0,0-8.45,19.86-5.03,28.42c3.42,8.56,41.37,12.27,33.95,14.27c-7.42,2-36.52-4.17-36.52-4.17
		s-2.57,20.43,5.42,24.42c7.99,3.99,49.93-2,45.94,2c-3.99,4-42.37,8.13-46.79,3.71c0,0-0.86,24.54,13.12,27.11
		c13.98,2.57,52.24-18.26,48.95-12.55c-3.29,5.71-38.68,22.25-49.52,15.98c0,0,9.7,23.4,18.54,23.4c8.85,0,30.66-30.1,35.09-25.68
		c4.43,4.43-19.11,25.96-32.24,28.53c0,0,5.14,13.41,21.97,9.41c16.83-3.99,13.98-30.24,19.12-27.96c5.14,2.28,0.29,31.1-16.83,31.1
		c0,0,27.96,6.56,34.52-8.56c1.84-4.25,2.75-7.74,3.11-10.58c4.43,20.69,5.62,48.76,5.26,71.64h-27.89v7.12h4.51l3.09,88.36h74.1
		l3.09-88.36h4.3v-7.12h-27.73c4.27-52.13,13.73-95.4,21.08-122.94c0.92,2.56,2.44,5.83,4.69,8.08c4.2,4.2,12.27-10.11,12.27-17.24
		c0-7.13-8.69-0.29-8.69-4.28c0-3.99,1.27-2,12.4-2c11.13,0,15.12-22.83,15.12-22.83s-16.83,2-16.83-1.14s13.41-1.43,21.97-3.71
		c8.56-2.28,13.41-20.83,13.41-20.83s-24.54,7.13-24.54,4c0-3.14,18.97-6.14,22.54-9.7c3.57-3.57,4.85-19.69,4.85-19.69
		s-16.26,15.12-18.83,15.12c-2.57,0,17.26-16.69,15.41-18.54c-1.85-1.85-2.57-9.74-2.57-9.74c-3.55,3.55-9.42-1.11-13.13,2.6
		c-3.71,3.71-10.41,32.1-13.12,34.81c-2.71,2.71,7.56-22.68,2.85-27.39c-4.71-4.71-17.46,7.22-19.97,9.74
		c-2.51,2.51,5.99,30.07,2.57,33.49c-3.42,3.42-2.72-24.24-5.45-26.96c-2.73-2.73-9.96,4.28-12.1,12.41
		c-2.14,8.13,16.48,22.04,11.13,27.39c-5.35,5.35-10.27-14.98-14.98-19.69c-3.48-3.48-10.69,3.33-14.22,9.37
		c0.83-24.62,2.1-46.56,4-62.21c3.81,10.28,23.5,22.6,37.34,8.49c2.95,2.33,6.59,3.37,11.13,1.73c16.45-5.93,17.96-10.01,14.5-11.63
		c-3.46-1.62-35.61-19.71-31.68-21.66c3.93-1.95,32.76,20.65,38.25,17.92c5.5-2.72,13.96-13.91,12.97-14.37
		c-0.99-0.46-40.89-14.87-36.44-17.07c4.45-2.21,35.31,19.06,41.11,9.67c5.81-9.4,6.06-15.08,5.52-17.36
		c-0.54-2.28-35.07-4.82-33.91-7.3c1.16-2.48,33.67,2.65,36.19-2.73C1423.05,583.49,1423.68,575.7,1420.88,574.39z M1242.03,552.25
		c-0.01,0.85,0.04,1.75,0.22,2.75c1.07,5.99-8.67,15.94-10.49,14.12C1230.69,568.06,1238.05,560.91,1242.03,552.25z M1312.35,757.88
		c0.77,0.94,1.58,1.61,2.44,1.91c0.24,0.08,0.52,0.11,0.78,0.16c-0.01,1.09-0.03,2.18-0.04,3.27c-3.31,4.39-7.19,9.44-10.22,9.83
		c-0.18-2.02-0.36-4.03-0.54-6.04C1306.73,764.59,1309.67,761.55,1312.35,757.88z M1300.47,797.5c0.88-0.03,1.79-0.14,2.72-0.28
		c1.78,28.77,2.45,56,2.79,77.84h-3.9C1301.85,861.65,1301.28,838.26,1300.47,797.5z M1310.99,875.06
		c-0.59-22.51-1.8-50.38-3.84-78.81c0.87-0.3,1.76-0.65,2.65-1.07c2.14-1.02,3.92-2.61,5.45-4.5c-0.22,32.71-0.06,63.26,0.14,84.39
		H1310.99z M1284.86,657.59c-1.1-3.11-2.19-6.01-3.26-8.76c2.38,1.47,5.6,0.88,8.51-2.03c5.02-5.02,2.95-23.23,6.25-26.8
		c-0.33,7.53-0.16,41.59,0.2,83.17c-1.29-7.18-2.67-13.9-4.16-19.97C1290.55,674.85,1285.74,660.37,1284.86,657.59z M1296.29,726.26
		c0.17,1.22,0.35,2.45,0.51,3.67c0.04,4.14,0.08,8.32,0.13,12.51c-3.96,10.47-8.67,20.64-11.67,19.35
		C1281.16,760.03,1291.07,740.8,1296.29,726.26z M1254.32,691.77c0.8,11.26,4.69,35.21-2.74,35.21c-6.71,0-2.33-21.55-2.37-33.65
		C1250.92,692.84,1252.66,692.31,1254.32,691.77z M1224.49,688.98c3.07,6.69,8.81,20.25,4.28,19.17
		c-5.04-1.2-7.26-17.03-10.22-22.02C1220.62,687.12,1222.6,688.07,1224.49,688.98z M1287.27,794.38c2.11,1.12,5.77,2.66,10.25,3.04
		c0.37,32.12,0.72,60.7,0.94,77.64h-2.93C1295.77,849.54,1294.08,817.32,1287.27,794.38z M1320.51,875.06
		c-0.24-23.28-0.51-57.83-0.3-94.09c2.58-8.07,2.94-17.09,2.44-21.58c7.87-2.11,17.59-7.82,21.34-10.14
		c-7.48,27.65-17.37,72.05-21.75,125.81H1320.51z M1336.19,730.26c-2.16,2.16-9.28-3.2-15.13-8.34c0.06-2.53,0.13-5.05,0.2-7.55
		C1326.14,719.93,1339.34,727.1,1336.19,730.26z M1358.93,647.34c-0.65-0.31-1.36-0.6-2.22-0.78c-5.1-1.13-8.36-14.14-6.13-15.24
		C1351.88,630.67,1354.05,640.37,1358.93,647.34z"/>
	<path class="st7" d="M1733,974.1c0,10.4-344.4,18.83-769.24,18.83c-424.84,0-769.24-8.43-769.24-18.83
		c0-10.4,344.4-18.83,769.24-18.83C1388.6,955.27,1733,963.7,1733,974.1z"/>
	<g>
		<path class="st8" d="M776.49,418.45l7-4.72c0,0-18.26-30.03-16.38-55.91c0.99-13.66-21.41-33.79-27.36-30.68
			c-0.36-0.14-19.89,0.43-21.62,45.05l-4.16,52.27l21.1,18.69c0,0,13.3-22.8,30.21-12.78c16.91,10.02,22.11,9.72,22.11,9.72
			S776.49,423.26,776.49,418.45z"/>
		<path class="st9" d="M836.77,954.98c-3.49-9.32-5.59-23.29-10.01-42.15c-0.52-2.21-1.23-5.38-2.08-9.23
			c-5.75-0.75-11.66,2.09-16.48,4.69c1.9,5.1,4.45,11.18,4.59,13.4c0.34,5.33-1.29,5.83-1.29,5.83c0.04,9.19,2.88,19.05,4.78,20.95
			c2.45,2.44,5.17,14.57,7.5,14.57c2.33,0,22,2.17,22,2.17C846.3,960.71,840.27,964.29,836.77,954.98z"/>
		<path class="st10" d="M736.03,949.7c-1.03-3.19-2.05-17.13-2.87-35.45c-5.13-0.07-10.88-1.83-16.32-0.75
			c0.41,2.52,1.37,6.87,1.37,7.55c0,6.64-3.24,4.17-4.42,8.94c-0.78,3.17,2.3,9.21,2.3,9.21c4.54,0,6.45,16.17,8.66,20.87
			c1.28,2.72,7.09,4,13.73,4c5.16,0,4.29-1.35,0.46-7.95C737.86,954.25,736.81,952.1,736.03,949.7z"/>
		<g>
			<path class="st11" d="M803.01,755.18c-0.65-2.81-18.73-155.86-25.49-212.33l-36.48-1.27l-20.16,83.5l47.96,151.2
				c-1.63,13.97-1,25.24,3.42,44.34c3.65,15.76,18.63,68.45,27.59,92.54c4.82-2.6,19.59-7.74,24.82-9.56
				C804.28,777.21,809.87,784.73,803.01,755.18z"/>
			<path class="st12" d="M738.3,770.83l30.55-171.62l-3.68-58.76h-29.89c0,0-29.94,32.36-36.68,73.35
				c-6.73,40.99,5.76,157.76,5.76,157.76s-1.31,14.68-4.3,27.25c-3.13,13.15,2.41,95.59,5.98,117.33c5.43-1.08,22-1.96,27.13-1.89
				c-1.96-43.75-2.76-112.5,0.19-119.64C735.3,789.92,737.02,780.06,738.3,770.83z"/>
			<polygon class="st13" points="778.56,548.94 729.14,547.87 735.27,540.45 778.56,540.45 			"/>
		</g>
		<path class="st9" d="M841.9,420.67c0.7-4.54,0.39-7.68-1.02-9.09c-1.41-1.41-0.72-2.24-2.04-3.56c-1.32-1.32-4.39-0.12-4.78-3.57
			c-0.39-3.45,0.55-23.19-1.88-22.72c-2.43,0.47-2.7,26.6-3.68,27.58c-0.98,0.98-2.74,2.04-3.37-2.04
			c-0.63-4.07,2.51-6.03,1.25-7.29c-1.25-1.25-4.87,2.97-5.17,4.46c0,0-3.13,13.47,0,22.56c2.43,7.05,3.63,13.07,3.97,18.82l0,0
			c0.46,13.23-1.29,26.79-5.36,47.45c-0.9,4.59-5.02,3.42-7.46,2.06l-11.18,17.34c7.8,9.29,18.22,14.58,23.17,13.98
			c12.71-1.55,11.06-78.95,11.06-78.95c-0.04-0.95-0.01-0.4-0.07-1.88l0,0c-0.18-4.69-0.33-9-0.33-9.58
			C835,432.82,841.19,425.22,841.9,420.67z"/>
		<path class="st10" d="M837.84,407.47c0,0-11.62,11.35-9.39,13.58c2.23,2.23,11.56-9.82,11.56-9.82s-10.35,10.55-8.52,12.38
			c1.83,1.83,10.78-7.08,10.78-7.08s-9.44,8.11-7.74,9.05c1.69,0.93,7.74-5.55,7.74-5.55s0.87-2.42,0.55-3.88
			c-0.32-1.46,0.2-2.07-0.06-2.98c-0.26-0.91-1.42-2.26-1.93-2.77C840.31,409.88,840.11,406.63,837.84,407.47z"/>
		<path class="st14" d="M811.38,492.74c0.95-2.36,2.33-5.17-0.64-7.23c-4.06-2.82-3.91-0.78-3.91-7.04c0-5.85-1.57-6.71-6.06-8.14
			c-0.16-0.53-0.32-1.06-0.48-1.6c-5.64-19.27-24.31-47.97-29.69-50.27c-5.37-2.3-5.33,11.71-5.33,11.71s34.6,87.66,35.9,89.21
			l11.18-24.01l-0.86-2.52C811.46,492.8,811.42,492.77,811.38,492.74z"/>
		<polygon class="st15" points="719.29,941.43 719.57,963.14 717.15,963.21 714.12,938.44 		"/>
		<path class="st16" d="M770.6,418.45c0,0-10.97-8.5-47.94-0.74c-1.81,0.38-4.54,42.9-4.54,42.9s12.32,66.49,8.84,84.08
			c0,0,26.01,21.59,56.8,6.55c0,0-3.81-55.42-0.97-67.75c2.84-12.33,8.45-23.51,0.58-36.34C775.49,434.32,770.6,418.45,770.6,418.45
			z"/>
		<path class="st17" d="M717.7,924.58c2,12.15,9.97,36.1,14.63,36.11c6.29,0.02,6.66-0.31,6.62-4.55c3.83,6.6,8.18,9.99,3.02,9.99
			c-6.64,0-16.99,0.4-18.27-2.32c-2.21-4.7-3.42-22.48-7.96-22.48l1.41,21.89l-2.41,0.06c0,0-3.57-30.13-2.79-33.14
			C713.03,926,716.42,925.31,717.7,924.58z"/>
		<path class="st17" d="M839.22,959.33c4.61,4.31,12.03,3.39,11.62,6.99c0,0-25.48-1.09-27.8-1.09s-4.31-14.32-6.75-16.77
			c-2.44-2.45-0.93,16.77-0.93,16.77h-2.51c0,0-1.68-19.79-4.01-27.48c-1.85-6.12,0.78-8.7,2.67-10.24
			C819.15,942.13,819.95,962.75,839.22,959.33z"/>
		<g>
			<path class="st10" d="M756.47,564.98l1.42-1.02c0,0,5.92,0.06,8.4-1.16c2.48-1.22,5.52-1.18,4.4,0c-1.12,1.18-6.74,2.45-5.61,5.5
				C766.2,571.35,756.47,564.98,756.47,564.98z"/>
			<g>
				<path class="st10" d="M777.71,566.63c-1.06,0.65-3.32,0.92-5.66,1.72c-2.34,0.8,10.58-4.89,10.58-6.77
					c0-1.87-10.82,3.86-13.97,5.2c-3.58,1.52-9.27-1.13-10.78-2.83c0,0-44.6-14.96-56.44-23.35c-1.06-0.75-3.81-4.61-3.48-7.51
					c-7.61,0.68-15.31-3.64-22.09,0c0.08,4.67-1.04,16.31,0.21,18.61c7.73,14.23,58.07,19.57,68.65,19.57s20.95,2.53,23.89,2.53
					s16.62-7.5,17.03-11C786.04,559.51,779.1,565.77,777.71,566.63z"/>
				<path class="st18" d="M718.12,463.37c7.73-8.72,5.92-47.53,5.92-47.53s-21.06,0.98-30.61,19.34
					c-10.03,19.27-14.11,38.11-20.14,102.64c6.78-3.64,17.07-4.05,24.68-4.73C699.72,517.5,711.6,470.73,718.12,463.37z"/>
			</g>
		</g>
		<path class="st10" d="M756.24,384.18c0.85,0.85-2.59,25.43,0.81,32.24c0,0,8.96,35.14,2.87,35.87
			c-5.29,0.63-25.11-30.06-26.16-34.92c-1.42-6.53-0.16-37.98-0.16-37.98L756.24,384.18z"/>
		<path class="st19" d="M757.05,416.42c0.91,5.01,7.05,36.36,2.21,34.74c-5.73-2.57-23.02-27.82-25.5-33.79
			c3.11,9.58,28.24,51.74,29.22,29.15C762.87,437.66,759.68,424.8,757.05,416.42z"/>
		<path class="st9" d="M755.89,394.36c-8.08,7.31-16.42,2.23-22.55-6.94c0.14-4.62,0.03-9.27,0.04-9.54l22.86,6.3
			C756.59,384.54,756.22,388.88,755.89,394.36z"/>
		<path class="st10" d="M753.69,328.96c0,0,10.24,1.95,11.46,10.72c1.22,8.77,2.92,16.09,1.22,26.32
			c-1.7,10.24-7.8,23.89-17.79,26.08c-9.99,2.19-20.47-14.38-20.47-23.4c0-9.02-3.66-24.13,3.17-33.39
			C738.09,326.03,753.69,328.96,753.69,328.96z"/>
		<g>
			<path class="st20" d="M742.13,376.17c5.39,2.35,13.37,2.41,13.37,2.41s-0.56,1.09-1.54,2.27c-2.33-0.13-6.9-0.54-10.66-1.89
				C742.51,377.45,742.13,376.17,742.13,376.17z"/>
			<path class="st21" d="M743.3,378.96c3.76,1.34,8.33,1.76,10.66,1.89C750.14,385.39,746.1,384.29,743.3,378.96z"/>
		</g>
		<path class="st9" d="M754.34,325.24c0,0,9.59,5.67,10.81,14.44c1.1,7.95,2.61,14.7,1.61,23.52c-1.63-1.13-3.94-2.26-7.2-3.33
			c-9.03-2.97-18.41-16.09-19.52-27.14C738.83,320.91,754.34,325.24,754.34,325.24z"/>
		<g>
			<path class="st22" d="M753.79,370.27c-0.27-2.8-0.45-5.6-0.43-8.43c0.62,3.57,0.77,6.18,0.98,8.78
				c-1.49,0.41-3.28,1.24-5.52,0.39C750.53,371.34,752.23,370.85,753.79,370.27z"/>
		</g>
		<path class="st22" d="M748.25,361.58c-0.51-1.61-1.89-3.16-3.77-3.66c-3.34-0.87-5.38,3.94-7.68,3.89
			c1.65,0.84,4.28-1.97,6.09-2.69c0.98-0.4,1.85-0.12,2.82,0.34C746.65,359.95,747.49,360.7,748.25,361.58z"/>
		<path class="st22" d="M742.19,360.13c0,1.02,0.73,1.84,1.63,1.84c0.9,0,1.63-0.83,1.63-1.84c0-1.02-0.73-1.84-1.63-1.84
			C742.92,358.29,742.19,359.11,742.19,360.13z"/>
		<path class="st22" d="M755.68,362.62c0.58-1.59,2.03-3.07,3.93-3.48c3.38-0.72,5.2,4.18,7.49,4.24c-1.68,0.77-4.19-2.16-5.96-2.96
			c-0.96-0.44-1.84-0.21-2.83,0.21C757.35,361.07,756.47,361.78,755.68,362.62z"/>
		<path class="st22" d="M761.79,361.45c-0.05,1.02-0.81,1.81-1.71,1.77c-0.9-0.04-1.59-0.9-1.54-1.91c0.04-1.02,0.81-1.81,1.71-1.76
			C761.15,359.58,761.84,360.43,761.79,361.45z"/>
		<path class="st22" d="M749.43,353.77c0.36-0.24-2.55-3.17-6.05-3.5c-3.5-0.33-7.28,3.5-7.28,3.5s5.16-3.07,7.33-2.08
			C745.6,352.69,747.41,355.08,749.43,353.77z"/>
		<path class="st23" d="M744.64,321.53c-7.46,0.85-19.28-0.97-24.79,11.21c-3.25,6.91-9.92,20.25-9.92,43.94
			c0,35.3-34.06,50.93-34.06,50.93l14.93,7.21l8.91-7.21l-6.08,12.96l24.47,2.44l1.04-16.91l5.06,19.23l11.44-2.32
			c0,0-4.51-57.77-5-79.59c0.08,0.09,0.12,0.14,0.12,0.14s-0.1-2.81-0.11-6.42c0-0.01,0-0.01,0-0.02c0.06-1.06,0.06-2.15,0.02-3.25
			c0.06-3.47,0.24-7.13,0.69-9.56c1.1-5.97,3.29-9.02,8.65-11.58c5.36-2.56,24.57,4.73,24.57,4.73
			C763.95,326.35,752.11,320.67,744.64,321.53z"/>
		<path class="st24" d="M754.64,323.54c9.38,2.07,12.22,16.51,19.89,24.19c7.68,7.68,5.73,18.77,2.07,26.08
			c-3.66,7.31-9.52,2.56-9.52,2.56s3.06,1.71,5.01-4.39c1.95-6.09-1.46-10.85-11.82-14.26c-10.36-3.41-20.23-24.98-20.23-24.98
			C739.78,328.52,745.25,321.47,754.64,323.54z"/>
		<path class="st25" d="M767.08,376.37c3.56,2.07,8.58-6.64,4.92-12.33c-2.66-4.4-8.5-6.25-13.16-8.18
			c-7.39-4.24-14.49-15.96-18.8-23.12c3.12,8.54,9.74,20.39,17.72,25.11l1.92,0.83c1.97,0.79,7.97,2.41,10.87,6.32
			c2.33,3.07,1.22,7.83-0.33,10.09C769.56,376.06,768.35,376.82,767.08,376.37z"/>
		<path class="st10" d="M732.73,364.67c0,0-2.61-11.32-6.95-8.58c-4.34,2.73,0.32,15.26,4.37,15.26
			C734.19,371.35,732.73,364.67,732.73,364.67z"/>
		<path class="st9" d="M728.51,358.46c0,0,6.41,10.29,2.01,9.15C726.13,366.48,724.39,356.55,728.51,358.46z"/>
		<path class="st9" d="M744.71,368.17c-0.45,1.34-2.9,1.72-5.48,0.86c-2.58-0.86-4.3-2.64-3.86-3.98c0.45-1.34,2.9-1.72,5.48-0.86
			C743.43,365.05,745.15,366.83,744.71,368.17z"/>
		<path class="st9" d="M765.49,367.5c0.19,1.27-1.48,2.59-3.73,2.93c-2.26,0.34-4.24-0.41-4.43-1.68c-0.19-1.27,1.48-2.59,3.73-2.93
			C763.31,365.47,765.29,366.22,765.49,367.5z"/>
	</g>
	<g>
		<g>
			<g>
				<path class="st26" d="M618.34,477.55c0,0,50.16,15.91,53.18,44.45l-13.38,4.33l-46.27-28.81L618.34,477.55z"/>
				<path class="st27" d="M563.21,672.27c0,0,28.93,248.53,36.17,275.06v16.76h55.48c0,0-3.35-5.59-9.62-5.59
					c-6.27,0-22.12-6.05-26.46-10.24c-4.34-4.19,2.73-347.67,2.73-347.67H552.6L563.21,672.27z"/>
				<polygon class="st28" points="555.05,389.7 553.73,410.47 602.94,404.88 591.44,390.79 				"/>
				<path class="st29" d="M595.43,622.13l-8,40.21c0,0-64.04,217.78-61.24,293.89c0,0,5.39,9.02,24.42,14.36
					c1.02,0.29,2,3.83,2,3.83h-49.63l2.8-15.32c0,0,1.6-258.95,1.6-289.1c0-30.15,8.01-69.4,8.01-69.4h83.25L595.43,622.13z"/>
				<path class="st30" d="M628.72,549.04c0-70.46-20.58-140.53-35.97-149.45c0,0-17.89-1.23-27.1-1.54
					c-13.73-0.46-34.87,6.47-46.27,45.34c-7.19,24.5-3.79,83.63-3.02,135.16c0.34,22.85-3.13,44.2-2.64,60.38
					c38.79,0,67.17-1.29,104.81-1.29C619.1,625.34,628.72,571.18,628.72,549.04z"/>
				<path class="st31" d="M574.08,483c0.11,1.05-22.88-82.89-22.88-82.89s-7.71,2.61-17.96,9.39
					c-10.24,6.78-24.41,53.56-24.41,53.56s3.47,110.68,3.47,119.1c0,4.53-7.37,72.31-14.18,133.99l83.93,7.96
					C580.79,638.07,574.08,483,574.08,483z"/>
				<path class="st32" d="M592.74,399.59c0,0,29.6,11.53,35.97,88.97c6.37,77.44,6.37,235.56,6.37,235.56h-29
					c0,0-3.14-225.88-3.14-241.37C602.94,467.26,592.74,399.59,592.74,399.59z"/>
				<polygon class="st33" points="591.44,390.79 602.9,480.79 606.96,435.79 602.94,430.91 602.94,404.88 				"/>
				<path class="st34" d="M532.26,679.39h21.14c6.29,0,11.39-5.1,11.39-11.39v-40.36h-43.92v40.36
					C520.87,674.3,525.97,679.39,532.26,679.39z"/>
				
					<rect x="509.42" y="565.37" transform="matrix(-1 -1.224647e-16 1.224647e-16 -1 1030.293 1155.8806)" class="st34" width="11.45" height="25.14"/>
				<path class="st10" d="M541.24,488.3c-0.02-0.02-0.04-0.04-0.06-0.06C541.7,488.2,541.67,488.23,541.24,488.3z"/>
				<polygon class="st35" points="660.69,534.07 733.83,481.82 657.89,474.93 600.47,535.51 				"/>
				<path class="st10" d="M629.35,510.22c0,0-8.94,2-12.24,5.54c-4.22,4.52-14.23,11.85-18.43,11.85c-4.21,0-22.12,1.75-22.12,1.75
					l-3.01,19.71c0,0,66.84-15.31,69.98-18.68c3.15-3.37-15.67,2.5-15.67,1c0-1.5,22.67-3.19,21.5-6.98
					c-1.17-3.79-20.92,5.1-22.67,3.22c-1.75-1.88,23.84-5.01,23.84-9.01c0-4-25.48,5.79-25.48,5.79s-0.47-2.03,6.43-5.29
					c6.89-3.25,13.58-5.87,12.05-7.51c-1.53-1.64-19.15,8.73-21.48,6.24L629.35,510.22z"/>
				<path class="st34" d="M540.15,416.97c0,0,8.47,15.49,6.77,37.79c-1.69,22.31-4.57,56.52,0.17,67.67c4.74,11.16,39.46,0,39.46,0
					v26.4c0,0-50.35,20.45-64.94,13.76c-14.58-6.69-13.2-64.33-13.2-92.59C508.43,441.76,530.85,396.7,540.15,416.97z"/>
				<polygon class="st33" points="574.08,483 555.05,389.7 535.39,404.99 552.6,436.93 551.32,446.93 				"/>
				<path class="st10" d="M653.75,536.13c0,0,1.2,1.21,4.84,3.47c3.53,2.19,7.08-1.25,7.83-1.91c1.42-1.26,3.35-3.66,4.32-5.19
					c0.96-1.54,1.45-2.55,1.79-4.15c0.5-2.35-8.3-9.59-9.13-9c-0.55,0.4-0.98,0.93-0.8,1.53c0.19,0.64,5.04,7.7,5.04,7.7
					s-6.94-6.88-8.98-6.66c-2.03,0.22-1.77,1.46-1.24,2.04c0.52,0.58,7.07,8.87,7.07,8.87s-8.27-6.36-9.6-6.21
					c-1.33,0.14-2.23,1.87,1.1,4.69c1.87,1.58,4.93,5.37,4.93,5.37s-6.23-3.89-8.22-3.67C650.72,533.22,653.75,536.13,653.75,536.13
					z"/>
			</g>
			<g>
				<path class="st36" d="M566.29,372.9c-0.85-0.54-11.42-26.83-11.42-26.83s-7.05-19.74-2.5-23.08
					c4.55-3.34,15.38-14.93,24.86-15.14s15.85,2.63,16.7,3.17c0.85,0.54,7,10.92,7,10.92s-2.86-3.5-4.34,9.47
					C595.12,344.38,566.29,372.9,566.29,372.9z"/>
				<path class="st10" d="M590.22,371.72c-1.13,3.36-0.64,27.33-1.53,33.37c-0.88,5.96-28.08,15.2-28.62-6.48
					c-0.53-21.67,1.61-47.17,1.61-47.17L590.22,371.72z"/>
				<path class="st9" d="M590.22,371.72L590.22,371.72L590.22,371.72l-9.47-6.73l-19.07-13.55c0,0,0,0.01,0,0.03
					c0,0.01,0,0.02,0,0.02c0,0.01,0,0.01,0,0.01c-0.01,0.09-0.02,0.26-0.04,0.5c-0.06,0.79-0.18,2.36-0.33,4.54l0,0.01
					c-0.03,0.44-0.06,0.91-0.09,1.39c0,0.03,0,0.06-0.01,0.09c-0.1,1.57-0.22,3.39-0.33,5.38c-0.01,0.11-0.01,0.22-0.02,0.34
					c-0.03,0.47-0.05,0.95-0.08,1.45c0,0.01,0,0.01,0,0.02c-0.01,0.26-0.03,0.51-0.04,0.77c0,0.03,0,0.06,0,0.08
					c0,0.1-0.01,0.2-0.02,0.3c0,0.04,0,0.08-0.01,0.11c-0.01,0.17-0.02,0.34-0.03,0.51c3.54,11.62,16.93,24.24,28.52,25.74
					c0.02-0.8,0.07-1.61,0.13-2.42C589.46,382.17,589.58,373.62,590.22,371.72z"/>
				<path class="st10" d="M560.61,331.57c-3.48,8.67-3.67,24.52,4.64,36.51c8.31,11.99,19.77,18.17,27.98,12.12
					c8.21-6.05,10.56-43.98,4.63-53.75C591.92,316.7,565.92,318.37,560.61,331.57z"/>
				<path class="st37" d="M560.62,367.99c0,0-1.85-12.41-6.61-15.43c-4.76-3.02-6.91-4.87-7.77-9.25
					c-0.86-4.38-16.74-7.31-14.15-14.52c2.59-7.21,15.03-10.58,21.35-23.1c6.32-12.53,13.15-19.46,27.88-14.9
					c14.74,4.56,16.79,13.55,16.79,13.55s6.5-1.13,10.48,6.65c3.97,7.78,1.12,12.2-1.44,15.86c0,0,0.55-10.27-2.97-9.56
					c-3.52,0.71,0.03,12.01,0.03,12.01s-5.3-4.33-10.93-11.03c-5.64-6.7-4.25,1.14-2.58,9.63s-10.84,0.49-16.4-5.65
					c-5.56-6.14-13.51-0.4-16.42,8.3C554.97,339.27,567.5,352.94,560.62,367.99z"/>
				<path class="st10" d="M563.35,345.18c0,0-5.2-8.87-7.9-5.02c-2.7,3.86-0.47,15.38,5.26,15.49
					C566.44,355.78,563.35,345.18,563.35,345.18z"/>
				<path class="st9" d="M560.42,345.83c0,0,0.2-5.14-2.59-3.44c-2.79,1.7,0.02,9.96,2.59,9.8
					C562.99,352.02,560.42,345.83,560.42,345.83z"/>
				<path class="st22" d="M589.88,343.45c1,2.35,1.67,4.81,2.08,7.33c0.83,5.45-0.05,7.77-0.08,8.12c-0.63-0.12-2.32-0.37-4.55-0.95
					c1.43-0.04,2.86-0.01,4.28,0.08l-0.48,0.35C591.38,353.44,590.41,348.49,589.88,343.45z"/>
				<path class="st24" d="M582.85,344.77c0.3,1.54-0.37,2.97-1.5,3.2c-1.13,0.23-2.29-0.83-2.6-2.38c-0.3-1.54,0.37-2.97,1.5-3.2
					C581.39,342.16,582.55,343.23,582.85,344.77z"/>
				<path class="st24" d="M598.42,342.56c0.3,1.54-0.37,2.97-1.5,3.2c-1.13,0.23-2.29-0.83-2.6-2.38c-0.3-1.54,0.37-2.97,1.5-3.2
					C596.95,339.95,598.11,341.01,598.42,342.56z"/>
				<path class="st22" d="M574.01,340.86c0,0,2.39-4.2,6.37-5c3.98-0.81,2.78,2.55,1.85,2.73
					C581.3,338.78,573.85,340.08,574.01,340.86z"/>
				<path class="st22" d="M593,333.92c0,0,4.72,1.4,5.61,3.56c0,0-4.99-0.41-5.89-1.58C591.82,334.73,593,333.92,593,333.92z"/>
				<path class="st20" d="M577.32,364.57c0,0,12.18,4.58,18.78,0.18c0,0-1.85,6.13-3.53,7.24
					C589.02,374.31,580.31,372.54,577.32,364.57z"/>
			</g>
		</g>
	</g>
	<g>
		<polygon class="st38" points="1209.2,631.42 1306.89,665.13 1275.09,447.89 		"/>
		<path class="st38" d="M1239.2,934.27l5.91,29.67c0,0-63.46,4.69-63.46,1.87c0-2.82,33.13-11.39,37.05-15.32
			c5.55-5.55,3.6-11.13,3.6-11.13L1239.2,934.27z"/>
		<path class="st39" d="M1593.41,651.14c-1.83-1.84-80.54,14.77-80.54,14.77l17.65-125.16l14.49-86.58l23.73-42.87
			c0,0,30.23-9.16,32.01-6l9.96,96.45L1593.41,651.14z"/>
		<path class="st40" d="M1620.13,961.24l2.35,12.94c0,0-6.08,19.81-15.3,29.02c-9.22,9.22-29.02,9.8-29.02,1.96
			c0-7.84,20.66-32.16,20.66-41.58C1598.83,954.18,1620.13,961.24,1620.13,961.24z"/>
		<path class="st40" d="M1557.38,963.59l3.53,23.93c0,0-14.12,0-23.93,0c-9.8,0-36.87,0-36.87,0s1.96-5.88,19.61-9.41
			c17.65-3.53,18.63-9.66,18.63-9.66l-1.37-15.44l16.08-2.35L1557.38,963.59z"/>
		<path class="st41" d="M1399.46,385.13c-2.39,21.05,14.6,20.44,10,37.49c-1.7,6.33-5.71,12.3-11.07,16.44
			c-9.58,7.39-19.07-1.31-19.07-1.31s10.06-1.36,9.27-3.98c0,0-10.75,5.9-15.45,0.83c-4.71-5.08-5.25-9.28-5.25-9.28
			s10.91,4.36,7.43-4.34c-2.42-6.06-5.33-13.71-9.02-22.02c-7.56-17.09,2.59-37.83,7.54-46.47c8.63-3.57,24.09,15.82,33.21,13.23
			C1404.35,372.13,1400.26,378.11,1399.46,385.13z"/>
		<polygon class="st42" points="1193.55,586.3 1193.55,652.06 1215.28,942.15 1246.74,939.1 1250.21,747.87 1232.37,582.92 		"/>
		<polygon class="st43" points="1582.87,689.7 1546.98,815.84 1560.12,967.9 1536.98,967.9 1505.21,807.1 1536.98,622.96 		"/>
		<path class="st44" d="M1536.98,618.05l21.38,71.73c0,0,32.75,107.11,38.04,169.08c5.3,61.97,0,104.33,0,104.33l29.22,4.71
			c0,0,16.86-128.64,10.59-171.79c-6.27-43.14,1.4-148.25,1.4-148.25l-11.99-29.81H1536.98z"/>
		<path class="st38" d="M1279.02,938.57c0,0-3.65,13.87-3.65,23.83c0,9.95-31.42,38.17-37.68,31.91
			c-6.26-6.26,16.6-52.29,16.6-52.29l1.57-7.83L1279.02,938.57z"/>
		<path class="st45" d="M1206.06,582.92l7.51,66c0,0,49.27,235.66,35.07,296.21h37.58l8.14-288.49l-18.16-69.3L1206.06,582.92z"/>
		<g>
			<path class="st46" d="M1395.77,461.97c0,0-2.02-22.4-8.9-22.4c-14.44,0-39.54,69.02-40.29,79.77
				c-1.27,18.09,11.18,19.18,23.38,20.64c11.94,1.44,14.15-24.78,14.15-24.78L1395.77,461.97z"/>
			<g>
				<polygon class="st15" points="1436.92,967.82 1436.56,989.74 1439,989.82 1442.15,964.82 				"/>
				<g>
					<path class="st10" d="M1420.05,775.01c0,0,2.61,34.29,6.81,44.53c4.2,10.24-3.31,145.65-6.87,156.57
						c-0.79,2.42-1.86,4.59-2.97,6.48c-3.89,6.65-4.77,8.01,0.44,8.03c6.7,0.02,12.57-1.25,13.87-4c2.25-4.74,4.23-21.06,8.82-21.04
						c0,0,3.13-6.09,2.35-9.29c-1.17-4.82-4.45-2.34-4.43-9.04c0.02-6.7,22.23-108.56,18.75-123.38
						c-3.48-14.83-5.94-16.6-5.88-34.23C1451,772.01,1420.05,775.01,1420.05,775.01z"/>
					<path class="st10" d="M1404.89,739.11c0,0-25.01,47.65-23.41,61.77c1.6,14.11,6.88,25.51,2.35,44.78
						c-4.53,19.27-40.4,89.14-41.25,101.91c-0.36,5.38,1.28,5.89,1.28,5.89c-0.07,9.28-2.97,19.22-4.9,21.14
						c-2.48,2.46-5.27,14.69-7.62,14.68c-2.35-0.01-22.22,2.12-22.22,2.12c-0.51-4.53,5.57-0.89,9.13-10.29
						c3.56-9.39,5.72-23.49,10.25-42.52c4.53-19.03,23.12-105.87,23.18-125.86c0.07-19.99-1.77-20.09,1.33-33.24
						s14.7-37.81,14.7-37.81L1404.89,739.11z"/>
					<path class="st47" d="M1381.48,800.87c-1.6-14.11,23.41-61.77,23.41-61.77l-37.18,2.56c0,0-11.6,24.65-14.7,37.81
						c-2.27,9.65-1.89,12.28-1.55,20.88c7.11,1.53,18.16,3.76,30.79,5.8C1381.95,804.43,1381.69,802.67,1381.48,800.87z"/>
					<path class="st9" d="M1450.94,789.64c0.06-17.63-30.9-14.63-30.9-14.63s1.67,21.86,4.47,35.89c10.47,0.5,20.37,0.3,28.54-1.05
						C1451.71,804.69,1450.9,799.8,1450.94,789.64z"/>
				</g>
				<path class="st48" d="M1386.87,439.58c0,0,11.58-8.91,50.81-0.06c1.07,0.24,2.04,42.81,2.04,42.81s-18.2,71.24-14.74,89.02
					c0,0-20.81,17.56-51.84,2.27c0,0,4.03-55.95,1.21-68.41c-2.82-12.46-8.45-23.76-0.46-36.7
					C1381.88,455.58,1386.87,439.58,1386.87,439.58z"/>
				<path class="st49" d="M1363.58,658.86c3.29-15.99,9.55-85.24,9.55-85.24s4.03-55.95,1.21-68.41
					c-2.82-12.46-8.45-23.76-0.46-36.7c7.99-12.93,12.98-28.94,12.98-28.94s11.58-8.91,50.81-0.06c1.07,0.24,2.04,42.81,2.04,42.81
					s-18.2,71.24-14.74,89.02c0,0,20.81,34.02,25.57,52.71c4.76,18.69,1.32,164.12,1.32,164.12c-20.22,7.05-102.84,0-102.84,0
					S1360.29,674.85,1363.58,658.86z"/>
				<path class="st17" d="M1417.02,982.6c-0.05,4.28,0.22,5.23,6.67,3.82c4.65-2.16,12.84-23.6,14.89-35.86
					c1.29,0.75,4.71,1.7,5.78,5.87c0.78,3.04-2.93,33.46-2.93,33.46l-2.43-0.07l1.5-22.09c-4.59-0.01-5.86,17.93-8.11,22.67
					c-1.3,2.74-11.75,2.3-18.46,2.28C1408.72,992.65,1413.13,989.25,1417.02,982.6z"/>
				<path class="st17" d="M1315.37,985.42c-4.67,4.34-11.78,3.45-11.36,7.08c0,0,25.72-1.02,28.08-1.01
					c2.35,0.01,4.4-14.45,6.87-16.91c2.48-2.46,0.89,16.93,0.89,16.93l2.53,0.01c0,0,1.76-19.98,4.14-27.73
					c1.89-6.17-0.76-8.78-2.66-10.35C1336.09,968.19,1334.82,988.95,1315.37,985.42z"/>
			</g>
			<path class="st9" d="M1411.69,525.28c-4.86,3.39-8.03,8.31-18.53,11.28c6.14,4.8,13.18,9.78,19.88,13.67
				c1.59-8.5,2.74-15.51,2.93-24C1415.75,526.32,1411.94,525.21,1411.69,525.28z"/>
			<path class="st50" d="M1455.35,456.41c-3.12-9.86-16.33-16.83-16.33-16.83c-10.59-1.23-13.68,54.45-13.68,54.45l-4.21,30.76
				c-0.86,0.92-4.01,0.02-5.15,0.49c-0.19,8.49-1.34,16.46-2.93,24.95c10.47,6.08,20.14,9.48,24.32,5.3
				C1446.87,546.03,1458.48,466.28,1455.35,456.41z"/>
			<path class="st10" d="M1361.9,495.38c-4.16-0.9-17.12,3.61-17.12,3.61s-3.44,4.78-3.44,7.85c0,0.52,0.29,0.78,0.77,0.72
				c-0.89,0.65-1.33,1.18-0.97,1.55c1.72,1.72,15.26-4.79,16.06-3.98c0.81,0.81-15.39,3.45-14.07,6.38
				c0.55,1.23,6.77-0.72,10.68-2.08c-3.41,1.33-8.39,3.48-8.39,4.78c0,1.99,14.12-1.07,17.21-1.07c1.15,0,3.03,1.22,5.17,2.56
				c0.95-0.17,1.6,0.28,2,0.15c0,0,10.57-0.23,24.02,1.44C1379.13,508.5,1363.03,495.63,1361.9,495.38z M1347.25,504.76
				c-1.08,0.53-2.14,1.07-3.07,1.57c0.91-0.87,1.65-2.77,2.93-3.68c2.63-1.86,6.6-2.9,7.19-2.31
				C1355,501.07,1351.03,502.92,1347.25,504.76z"/>
			<path class="st51" d="M1423.55,507.13c-0.71,3.41-0.6,13.6-2.21,16.15c0,0-1.76-1.24-2.33-0.64h-0.01
				c-5.75,3.07-13.88,11.51-29.73,14.88c-15.58,3.26-36.82,4.95-36.82-5.63c0-10.56,10.64-16.36,17.38-16.36
				c0,0,10.57,0.07,24.02,1.75c0.01,0,0.01,0,0.03,0C1407.3,518.98,1422.14,506.06,1423.55,507.13z"/>
			<g>
				<path class="st41" d="M1381.87,347.57c0,0,3.7-9.5,26.08-9.5c22.38,0,26.97,22.1,24.1,27.55c-2.87,5.45,2.01,16.49,7.17,18
					c5.17,1.51,18.09,8.59,11.11,15.57c-6.99,6.99,5.54,6.6,5.54,12.91c0,6.31-3.83,10.47-12.62,11.6
					C1434.45,424.83,1381.87,347.57,1381.87,347.57z"/>
				<path class="st10" d="M1386.92,408.59c0,0,3.2,27.01,3.2,44.57c0,2.67,13.87-0.15,16.56-2.12c4.29-3.13,7.36-5.21,8.11-11.11
					c0.5-3.95-10.98-42.61-10.98-42.61L1386.92,408.59z"/>
				<path class="st9" d="M1405.43,402.89c-2.52,8.31-7.09,17.38-15.63,20.38c-0.46,0.16-0.9,0.29-1.34,0.38
					c-0.78-8.63-1.54-15.06-1.54-15.06l16.89-11.26C1403.81,397.33,1404.45,399.51,1405.43,402.89z"/>
				<path class="st10" d="M1377.92,352.48c0,0-5.68,3.17-7.94,10.17c-2.26,7,1.27,15.79,0.32,21.83
					c-0.95,6.04,5.76,36.58,20.8,31.97c15.04-4.61,17.34-26.68,18.11-31.59c0.77-4.91-3.36-22.97-11.05-28.23
					C1390.48,351.36,1377.92,352.48,1377.92,352.48z"/>
				<path class="st9" d="M1369.99,362.65c2.26-7,7.94-10.17,7.94-10.17s12.56-1.13,20.24,4.14c7.68,5.27,11.82,23.33,11.05,28.23
					c-0.59,3.75-2.07,17.52-9.45,25.87c-0.77-8.55,5.32-21.23,2.8-33.42c-0.74,0.45-4.01,0.79-5.66,0.7
					c-6.95-0.36,2.69-10.21-3.62-19.93c-3.9-2.93-4.03-3.28-6.58-3.89c-0.83,7.85-8.44,21.55-16.3,29.42
					C1370.94,377.61,1367.84,369.32,1369.99,362.65z"/>
				<g>
					<path class="st52" d="M1380.81,383.06c-0.47,3.81-1.44,8.37-2.42,12.1c1.18,0.72,2.76,1.2,4.28,1.07
						c-2.44,0.8-4.86-0.71-5.01-0.74C1378.34,392.38,1379.07,388.21,1380.81,383.06z"/>
					<path class="st52" d="M1388.03,377.45c0,0,3.04-1.97,6.43-2.09c3.39-0.12,7.72,4.11,7.72,4.11s-4.85-3.31-7.12-3.14
						c-2.27,0.17-4.58,1.47-4.58,1.47L1388.03,377.45z"/>
					<path class="st52" d="M1379.94,376.9c0,0-2.33-2.4-5.13-3.02c-2.81-0.63-6.83,2.92-6.83,2.92s4.36-2.55,6.23-2.05
						c1.86,0.51,3.65,2.13,3.65,2.13L1379.94,376.9z"/>
					<path class="st20" d="M1389.3,402.46c-7.45,2.11-10.13,1.71-12.58,0.97C1380.07,406.57,1386.35,405.4,1389.3,402.46z"/>
					<path class="st52" d="M1389.79,382.58c0.19,1.19,1.2,2.01,2.24,1.84c1.05-0.17,1.74-1.27,1.54-2.45
						c-0.19-1.19-1.2-2.01-2.24-1.84C1390.29,380.29,1389.59,381.39,1389.79,382.58z"/>
					<path class="st53" d="M1398.44,383.62c-7.1-7.3-9.9-1.96-12.26-1.58c1.92,0.12,4.11-1.95,6.22-1.41
						C1394.12,381.07,1396.7,382.64,1398.44,383.62z"/>
					<path class="st52" d="M1373.67,382.13c0.18,1.19,0.98,2.03,1.8,1.88c0.82-0.15,1.34-1.23,1.16-2.42
						c-0.18-1.19-0.98-2.03-1.8-1.88C1374.01,379.86,1373.49,380.94,1373.67,382.13z"/>
					<path class="st53" d="M1379.69,382.96c-5.65-6.89-8.24-1.49-10.24-1.02c1.61,0.03,3.54-2.11,5.29-1.67
						C1376.17,380.62,1378.28,382.07,1379.69,382.96z"/>
					<path class="st9" d="M1389.34,393.98c0.33,2.03,2.78,3.33,5.48,2.89c2.7-0.44,4.61-2.44,4.28-4.48
						c-0.33-2.03-2.78-3.33-5.48-2.89C1390.92,389.94,1389,391.95,1389.34,393.98z"/>
				</g>
				<path class="st52" d="M1393.29,358.08c-5.01-3.77-8.94-4.99-11.7-5.28c-1.2-0.06-2.15-0.05-2.86-0.01
					c-1.02,0.11-1.64,0.3-1.85,0.26c-0.01-0.06,0.09-0.35,0.31-0.77c1.04-2.28,4.93-8.82,15.28-8.64c0.34,0,0.69,0,1.03,0.02
					c6.35,0.25,12.76,0.08,18.91,1.96c3.6,1.1,7.15,3,9.83,5.67c3.29,3.27,3.69,7.17,3.79,11.63c0.18,8.15-1.62,16.48,0.45,24.5
					c1.98,7.68,6.58,14.86,13.61,18.81c6.11,3.44,9.2,8.8,10.02,15.77c0.85,7.23-0.57,15.02-3.93,21.48
					c-6.02,11.53-18.13,6.44-18.13,6.44s8.77-5.52,7.04-7.89c0,0-8.47,11.38-15.54,12.24c-12.12,1.48-17.35-7.66-17.35-7.66
					s15.82-2.65,9.27-10.21c-4.57-5.26-5.28-12.69-10.34-21.18c-2.78-4.67-0.23-12.6,1.86-21.29c0.16-1.01,0.59-2.78,1.07-4.85
					c0.95-4.89,1.43-9.87,0.47-14.51c-0.75,0.45-1.83,0.79-3.47,0.7c-4-0.21-3.98-2.62-4.14-6.23
					C1396.41,365.55,1395.38,361.3,1393.29,358.08z"/>
				<path class="st52" d="M1381.87,347.57c0,0-7.86-1.2-14.56,3.68c-6.7,4.89-7.39,24.31-3.87,28.33c3.52,4.03-12.58,9.31-3.9,10.02
					C1371.85,390.62,1389.44,349.58,1381.87,347.57z"/>
				<path class="st54" d="M1418.52,378.16c-2.63,4.92-4.98,11.53-5.59,16.88c-1.8,17.12,17.61,11.08,22.56,12.22
					c3.06,0.61,5.24,3.85,3.51,7.5c-1.39,3.02-3.59,3.64-4.85,4.75c-1.92,1.7-1.43,4.11,0.3,5.33c3.42,2.44,8.66-1.05,9.37,4.21
					c0.58,3.68-1.16,7.69-4.37,9.98c3.52-1.83,5.79-5.94,5.56-10.1c-0.26-4.29-3.16-4.54-7.16-4.87c-2.47-0.22-3.18-1.54-2.86-2.26
					c0.39-1.45,3.88-1.48,6.1-6.02c1.7-3.23,0.95-7.13-1.93-9.42c-7.51-6.07-28.63,8.22-23.88-16.92
					C1415.98,385.59,1417.17,381.85,1418.52,378.16z"/>
				<path class="st54" d="M1379.46,350.29c-11.67-0.38-19.01,9.04-15.92,18.79c0.53,1.65,1.41,3.32,3.02,3.91l0.67-2.35
					c-0.64-0.07-1.44-1.68-1.67-2.27C1362.1,359.88,1368.35,350.77,1379.46,350.29z"/>
			</g>
		</g>
		<path class="st55" d="M1625.62,420.19c0,0-37.67-20.15-62.17,4.35c-24.5,24.5-26.47,93.71-26.47,93.71v80.01l-3.52,35.62
			l91.76-10.91l-12.35-122.13L1625.62,420.19z"/>
		<path class="st56" d="M1546.98,538.83l60.13-127.62l38.7,13.32l-13.53,114.3l25.3,128.25c0,0-98.54-8.53-110.6,3.53V538.83z"/>
		<path class="st57" d="M1563.46,424.53c0,0-22.36,70.89-22.36,92.6c0,21.7-17.65,148.78-17.65,148.78h-10.59l14.71-148.78
			l18.17-68.06L1563.46,424.53z"/>
		<polygon class="st58" points="1568.73,411.3 1539.28,540.74 1545.74,449.06 1551.66,442.86 1546.98,443.91 1558.72,418.56 		"/>
		<path class="st10" d="M1471.38,563.06c15.77,1.53,22.88,2.43,23.22,1.25c-0.89-1.24-4.37-1.86-15.37-3.44
			c-6.33-0.91-16.62-3.55-17.88-4.74c-1.81-2.52,4.05-1.97,7.21-1.26c0.33,0.07,32.77,6.89,35.25,2.36
			c2.52-4.6-6.77-6.19-12.32-7.07c-5.66-0.9-8.57-5.72-6.44-6.53c2.63-1.01,8.32,4.63,17.54,5.55c8.07,0.8,19.7,2.55,24.75,3.67
			l4.86,3.2l14.88-1.04l-0.75,14.62l-11.39,2.89c-9.69,3.45-24.09,7.99-33.69,9.61c-10.09,1.69-18.66,1.36-23,0.55
			c-1.05-0.19-1.12-1.53-0.1-1.67c2.67-0.37,6.57-0.56,9.3-0.7c9.01-0.45,12.04-2.2,12.56-4.01c-1.27-1.29-4.81-1.26-17.2-0.48
			c-5.73,0.36-13.57,0.85-14.83,0.32c-5.04-3.4,7.78-3.91,13.59-3.89c5.97,0.02,12.33,0.61,13.08-2c0.25-0.85-7.5-2.08-17.21-2.42
			C1442.15,566.6,1454.08,561.38,1471.38,563.06z"/>
		<path class="st59" d="M1645.82,424.53c0,0,13.63-3.46,20,43.36c6.37,46.82-7.65,108-20,113.89
			c-12.35,5.88-115.31-7.06-115.31-7.06l6.47-29.5c0,0,64.63,1.51,77.07-10.93c12.44-12.44,13.57-49.43,11.57-69.79
			C1623.62,444.14,1645.82,424.53,1645.82,424.53z"/>
		<path class="st60" d="M1218.88,406.66c0,0-25.34,42.74-25.34,63.59c0,20.86-9.32,102.29,0,132.07
			c7.58,24.24,53.34,30.21,93.94-10.39c15-15-16.28-83.29-16.28-83.29l23.17-103.33l-40.72-13.18
			C1253.65,392.13,1237.66,419.81,1218.88,406.66z"/>
		<polygon class="st57" points="1271.39,397.87 1294.37,405.31 1298.12,526.67 1331.31,648.92 1306.89,665.13 1241.13,551.86 
			1249.28,449.88 		"/>
		<path class="st57" d="M1194.76,430.47l24.12-23.81c0,0-23.13,51.51-23.13,75.18c0,23.67-2.19,141.84-2.19,141.84
			s-11.56-33.61-11.56-65.55C1181.99,526.18,1194.76,430.47,1194.76,430.47z"/>
		<g>
			<path class="st10" d="M1556.78,317.75c0,0-14.01,17.37-16.38,29.37c-2.44,12.34-5.52,32.08-5.52,32.08l5.5,0.15
				c0,0,4.27,11.13,4.07,18.46c-0.21,7.33,11.53,3.07,18.25,3.26c6.72,0.19,21.85-5.2,28.25-26.11
				C1597.34,354.05,1609.09,316.77,1556.78,317.75z"/>
			<path class="st10" d="M1603.99,422.11c0,0-39.61,11.87-37.58,9.95c1.85-1.75-0.84-28.18-1.51-36.74
				c1.51-3.51,13.01-30.2,12.28-28.5c0,0,0,0,0-0.02l2.37-5.47L1603.99,422.11z"/>
			<path class="st61" d="M1538.81,304.4c-0.65,1.03-11.87,22.31,6.19,31.06c18.06,8.75,22.94-2.98,27.62,4.48
				c4.68,7.47-4.78,19.08-1,25.91l6.06,1.34c0,0,1.34-3.58,3.78-3.51c2.44,0.07,2.61,18.59,6.55,18.7
				c3.93,0.11,12.01-15.43,15.88-22.66c3.87-7.23,12.2-31.76-1.67-38.57c-13.87-6.81-20.12-2.09-19.95-8.2
				c0.17-6.11-6.12,0.13-6.12,0.13s-3.23-4.68-0.95-9.81c2.29-5.13-14.77-7.45-19.04,2.83
				C1551.93,316.39,1545.85,293.29,1538.81,304.4z"/>
			<path class="st10" d="M1576.43,356.85c0,0-0.64,12.05,2.27,12.13c2.91,0.08,9.47-6.57,8.59-13.86
				C1586.42,347.82,1577.98,348.46,1576.43,356.85z"/>
			<path class="st9" d="M1578.49,355.6c0,0-1.59,4.75,0.53,6.99c2.12,2.24,6.47-2.87,4.26-6.86
				C1581.07,351.74,1579.03,352.85,1578.49,355.6z"/>
			<path class="st61" d="M1546.9,351.36l-0.55,2.9c0,0,5.13-0.47,7.85,2.41c2.72,2.88,3.1,3.21,3.1,3.21S1556,353.25,1546.9,351.36z
				"/>
			<path class="st61" d="M1552.15,360.5c-0.04,1.48-1.08,2.64-2.32,2.61c-1.24-0.03-2.21-1.26-2.17-2.73
				c0.04-1.48,1.08-2.64,2.32-2.61C1551.22,357.81,1552.19,359.03,1552.15,360.5z"/>
			<path class="st61" d="M1547.07,387.29c1.74,0.05,3.51-0.28,4.93-1.08c0.7-0.42,1.27-0.98,1.67-1.63
				c0.43-0.63,0.55-1.41,0.67-2.15l0.01-0.1c0.07-0.48,0.52-0.8,1-0.73c0.48,0.08,0.8,0.52,0.73,1c0,0.04-0.02,0.09-0.03,0.13
				c-0.3,0.94-0.65,1.89-1.34,2.62c-0.65,0.75-1.47,1.3-2.34,1.64C1550.61,387.63,1548.78,387.62,1547.07,387.29z"/>
			<path class="st61" d="M1530.14,326.17c-0.16,0.99,0.82,2.78,1.39,3.61c3.09,4.26,9.31,5.03,13.47,5.68
				c-0.56,0.02-6.15,0.94-10.79-0.53c-5.01-1.47-7.93-4.88-8.7-8.27L1530.14,326.17z"/>
			<path class="st9" d="M1578.49,398.98c-1.94,1.83-8.48,5.86-12.52,8.28c-0.53-6.61-1.07-11.94-1.07-11.94s3.29,3,12.24-28.71
				c0,0,0.02,0.07,0.04,0.2c0,0.02,0,0.02,0,0.02C1577.56,369.57,1581.21,396.43,1578.49,398.98z"/>
			<path class="st61" d="M1544.05,392.8c0,0-1.1,4.7-1.18,7.41c-0.08,2.71,6.62,5.9,12.77,4.33c6.15-1.57,14.74-5.36,16.88-7.38
				c2.14-2.02,4.6-30.09,4.6-30.09l-5.49-1.21c0,0-3.25,18.25-5.59,20.46C1563.71,388.53,1544.05,392.8,1544.05,392.8z"/>
		</g>
		<path class="st62" d="M1602.45,573.36c0,5.49,10.37,9.94,23.17,9.94c12.79,0,23.17-4.45,23.17-9.94c0-5.49-10.37-9.94-23.17-9.94
			C1612.83,563.42,1602.45,567.87,1602.45,573.36z"/>
		<g>
			<path class="st63" d="M1625.21,580.76c0-0.17,0.14-0.32,0.32-0.32h0.09c0.85,0,1.71-0.02,2.54-0.06c0.17,0.01,0.33,0.13,0.33,0.3
				c0.01,0.17-0.13,0.32-0.3,0.33c-0.85,0.04-1.71,0.06-2.58,0.06h-0.09C1625.35,581.08,1625.21,580.93,1625.21,580.76z
				 M1622.96,581.01c-0.86-0.05-1.73-0.11-2.57-0.2c-0.17-0.02-0.3-0.17-0.28-0.35c0.01-0.18,0.18-0.31,0.35-0.29
				c0.83,0.09,1.68,0.15,2.54,0.19c0.17,0.01,0.31,0.16,0.3,0.33c-0.01,0.17-0.15,0.3-0.32,0.3
				C1622.97,581.01,1622.96,581.01,1622.96,581.01z M1630.42,580.54c-0.02-0.17,0.11-0.33,0.29-0.35c0.85-0.09,1.69-0.2,2.52-0.33
				c0.18-0.02,0.34,0.09,0.36,0.27c0.03,0.17-0.09,0.34-0.26,0.36c-0.84,0.13-1.7,0.24-2.56,0.33c-0.01,0-0.02,0-0.03,0
				C1630.57,580.82,1630.43,580.7,1630.42,580.54z M1617.83,580.48c-0.87-0.14-1.72-0.31-2.53-0.49c-0.17-0.04-0.28-0.21-0.24-0.38
				c0.04-0.17,0.21-0.28,0.38-0.24c0.8,0.18,1.64,0.35,2.49,0.48c0.17,0.03,0.3,0.19,0.26,0.37c-0.02,0.16-0.16,0.27-0.31,0.27
				C1617.87,580.48,1617.85,580.48,1617.83,580.48z M1635.47,579.76c-0.04-0.17,0.07-0.34,0.24-0.38c0.84-0.19,1.67-0.41,2.45-0.65
				c0.16-0.05,0.34,0.05,0.39,0.21c0.05,0.17-0.04,0.35-0.21,0.4c-0.8,0.24-1.64,0.46-2.5,0.66c-0.02,0.01-0.05,0.01-0.07,0.01
				C1635.63,580.01,1635.51,579.91,1635.47,579.76z M1612.81,579.32c-0.86-0.27-1.68-0.56-2.44-0.88c-0.16-0.07-0.24-0.25-0.17-0.42
				c0.06-0.16,0.25-0.24,0.42-0.17c0.74,0.31,1.54,0.59,2.38,0.86c0.17,0.05,0.26,0.23,0.21,0.4c-0.04,0.14-0.17,0.23-0.31,0.23
				C1612.87,579.34,1612.84,579.33,1612.81,579.32z M1640.37,578.3c-0.07-0.16,0.01-0.35,0.17-0.42c0.83-0.34,1.59-0.71,2.27-1.1
				c0.15-0.09,0.35-0.04,0.44,0.12c0.09,0.15,0.03,0.35-0.12,0.44c-0.7,0.4-1.48,0.78-2.34,1.14c-0.04,0.02-0.08,0.02-0.12,0.02
				C1640.54,578.5,1640.43,578.43,1640.37,578.3z M1608.04,577.29c-0.86-0.5-1.57-1.02-2.12-1.56c-0.13-0.12-0.13-0.32,0-0.45
				c0.12-0.12,0.32-0.12,0.45,0c0.51,0.5,1.18,1,1.99,1.47c0.15,0.09,0.2,0.28,0.12,0.44c-0.06,0.1-0.17,0.16-0.28,0.16
				C1608.14,577.34,1608.09,577.33,1608.04,577.29z M1644.81,575.79c-0.12-0.13-0.12-0.33,0.01-0.45c0.72-0.69,1.1-1.37,1.1-1.95
				c0-0.18,0.15-0.32,0.32-0.32h0c0.18,0,0.32,0.14,0.31,0.32c0,0.76-0.45,1.6-1.3,2.41c-0.06,0.06-0.14,0.09-0.22,0.09
				C1644.95,575.88,1644.87,575.85,1644.81,575.79z M1605,573.62c-0.18-0.01-0.31-0.15-0.31-0.33c0.02-0.76,0.49-1.58,1.33-2.39
				c0.13-0.12,0.33-0.11,0.45,0.01c0.12,0.13,0.11,0.33-0.01,0.45c-0.72,0.68-1.11,1.36-1.13,1.94c0,0.17-0.15,0.31-0.32,0.31
				C1605.01,573.62,1605,573.62,1605,573.62z M1644.84,571.42c-0.51-0.5-1.19-0.99-2-1.46c-0.15-0.09-0.2-0.28-0.12-0.44
				c0.09-0.15,0.29-0.21,0.44-0.12c0.86,0.5,1.57,1.02,2.12,1.56c0.13,0.12,0.13,0.32,0.01,0.45c-0.06,0.06-0.15,0.1-0.23,0.1
				C1644.99,571.51,1644.91,571.48,1644.84,571.42z M1608.04,569.8c-0.09-0.15-0.03-0.35,0.12-0.44c0.7-0.4,1.49-0.78,2.34-1.13
				c0.16-0.07,0.35,0.01,0.42,0.17c0.07,0.16-0.01,0.35-0.17,0.42c-0.83,0.34-1.59,0.71-2.27,1.09c-0.05,0.03-0.11,0.04-0.16,0.04
				C1608.2,569.96,1608.09,569.9,1608.04,569.8z M1640.59,568.86c-0.74-0.31-1.54-0.59-2.38-0.85c-0.17-0.05-0.26-0.23-0.21-0.4
				c0.05-0.16,0.21-0.25,0.4-0.21c0.86,0.27,1.68,0.56,2.44,0.87c0.16,0.07,0.24,0.25,0.17,0.42c-0.05,0.12-0.17,0.2-0.3,0.2
				C1640.67,568.88,1640.63,568.88,1640.59,568.86z M1612.72,567.77c-0.05-0.17,0.04-0.35,0.21-0.4c0.79-0.24,1.63-0.46,2.5-0.66
				c0.16-0.03,0.34,0.07,0.38,0.24c0.04,0.17-0.07,0.34-0.24,0.38c-0.85,0.19-1.68,0.41-2.45,0.64c-0.03,0.01-0.06,0.01-0.09,0.01
				C1612.89,567.99,1612.76,567.91,1612.72,567.77z M1635.76,567.36c-0.81-0.18-1.65-0.34-2.49-0.48c-0.17-0.03-0.29-0.19-0.26-0.36
				c0.03-0.17,0.19-0.29,0.36-0.27c0.85,0.14,1.7,0.3,2.53,0.49c0.17,0.04,0.28,0.21,0.24,0.38c-0.04,0.15-0.16,0.25-0.31,0.25
				C1635.8,567.36,1635.78,567.36,1635.76,567.36z M1617.7,566.6c-0.03-0.18,0.09-0.34,0.26-0.37c0.83-0.13,1.69-0.24,2.56-0.33
				c0.21-0.02,0.33,0.11,0.35,0.29c0.02,0.17-0.11,0.33-0.29,0.35c-0.85,0.09-1.7,0.19-2.52,0.32c-0.02,0-0.03,0-0.05,0
				C1617.86,566.87,1617.72,566.75,1617.7,566.6z M1630.74,566.55c-0.82-0.09-1.67-0.15-2.53-0.19c-0.18-0.01-0.31-0.16-0.3-0.33
				c0.01-0.18,0.18-0.29,0.33-0.3c0.87,0.04,1.74,0.11,2.57,0.19c0.17,0.02,0.3,0.17,0.29,0.35c-0.01,0.16-0.16,0.29-0.32,0.29
				C1630.76,566.55,1630.75,566.55,1630.74,566.55z M1622.79,566.05c-0.01-0.18,0.13-0.33,0.3-0.33c0.79-0.04,1.62-0.06,2.49-0.06
				c0.02,0,0.04,0,0.06,0l0.02,0.32v-0.32c0.18,0,0.3,0.14,0.3,0.32c0,0.18-0.16,0.32-0.34,0.32c-0.85,0-1.69,0.02-2.5,0.06
				c0,0-0.01,0-0.01,0C1622.94,566.35,1622.8,566.22,1622.79,566.05z"/>
		</g>
		<polygon class="st58" points="1546.98,538.83 1602.29,454.9 1596.4,442.35 1608.76,443.13 1625.62,416.92 1600.74,405.29 		"/>
		<polygon class="st51" points="1281.42,632.7 1281.42,650.76 1264.57,647.36 1258.05,641.73 1264.57,624.68 		"/>
		<path class="st58" d="M1294.37,405.31c0,0,14.09-1.3,21.29,17.35c7.2,18.66,5.64,127,5.64,127l-35.07,90.18l-21.66-15.16
			c0,0,15.63-62.62,12.65-94.76C1274.24,497.77,1294.37,405.31,1294.37,405.31z"/>
		<path class="st64" d="M1286.23,648.85c0,0-31.22-8.82-42.17-19.77c0,0,15.3,18.07,24.66,22.53
			C1278.07,656.08,1286.23,648.85,1286.23,648.85z"/>
		<g>
			<path class="st65" d="M1255.52,325.96c1.62-10.21-8.25-17.76-18.52-18.95c-10.08-1.16-19.87-2.54-24.27,3.06
				c-10.63,13.52-1.99,43.21-1.99,43.21s4.85,13.95,18.51,16.06C1238.6,370.77,1252.5,345.06,1255.52,325.96z"/>
			<path class="st66" d="M1260.83,356.01c0,0-4.33,39.2-7.18,48.86c-2.85,9.66-37.61,14.64-36.33,5.35c1-7.26,8.7-37.5,8.7-37.5
				L1260.83,356.01z"/>
			<path class="st67" d="M1257.49,382.86c-0.4-0.17-0.67-0.31-0.73-0.41c-3-4.5-5.06-18.86-5.06-18.86s-4.06,13.63-5.24,21.32
				c-0.76,4.9-10.11,6.78-19.05,7.15c-1.1-2.1-1.79-4.64-2.13-6.77c-0.11,2.25,0.02,4.63,0.53,6.82c-1.57,0.03-3.1,0.02-4.56-0.03
				c2.32-9.71,4.77-19.36,4.77-19.36l34.82-16.71C1260.83,356.01,1259.32,369.68,1257.49,382.86z"/>
			<path class="st68" d="M1211.36,372.6c-1.1,1.71-3.01,4.02-5.06,5.36c-2.53-4.17-3.57-9.49-2.94-13.58
				c1.14-7.4,6.35-10.71,6.77-13.44c0,0,0.64,6.52,9.17,9.19c8.52,2.67,16.57-2.89,20.4-5.7c3.83-2.81,8.59-5.35,9.43-10.79
				c0.84-5.44,4.72-26.62,4.72-26.62s1.47-3.51,10.23,2.69c8.76,6.2,7.06,9.63,7.47,17.08c0.41,7.44-2.5,12.44,3.09,15.24
				c5.59,2.8,10.7,12.52,4.72,21.12c-5.99,8.6-18.68,7.81-21.73,3.65c-3.05-4.16-5.79-15.7-5.79-15.7s-3.38,10.8-4.46,17.82
				c-0.69,4.48-10,6.07-18.92,6.29c-1.13-1.94-1.85-4.27-2.22-6.22c-0.09,2.05,0.08,4.23,0.62,6.25c-4.5,0.03-8.76-0.27-11.6-0.7
				c-2.67-0.41-4.92-1.77-6.74-3.66C1210.11,378.55,1211,375.59,1211.36,372.6z"/>
			<path class="st69" d="M1265.05,319.51c8.12,5.27,7.49,9.66,7.79,16.24c0.65,9.57-2.34,12.55,3.04,15.23
				c12.01,7.31,9.43,27.13-6.82,29.34c-4.04,0.37-8.85-0.14-11.43-3.5c3.01,2.79,7.48,2.81,11.18,2.02
				c13.5-2.91,15.58-19.49,5.55-25.19c-7.1-3.06-3.82-9.5-4.17-17.8c-0.23-6.15,1.42-9.34-6.02-15.13
				c-2.61-2.12-8.02-6.18-10.31-3.69C1255.85,313.98,1262,317.55,1265.05,319.51z"/>
			<path class="st65" d="M1245.95,336.55c0,0,3.38-3.37,8.17-1.46c4.78,1.9-0.98,14.03-5.33,13.36
				C1244.43,347.78,1245.95,336.55,1245.95,336.55z"/>
			<path class="st70" d="M1218.12,329.33c-2.22,14.81-1.29,13.38-1.57,20.71c1.66-0.09,3.33-0.07,5-0.07
				c-5.78,1.31-5.08,1.04-6.01,1.22C1215.71,348.57,1213.32,340.97,1218.12,329.33z"/>
			<path class="st71" d="M1238.21,332.46c0,0-2.57-2.67-8.49-3.69c-5.92-1.02-7.96-0.97-7.96-0.97s1.73-5.77,5.13-4.29
				c3.39,1.48,3.36,4.41,6.92,3.01C1237.37,325.11,1238.21,332.46,1238.21,332.46z"/>
			<path class="st71" d="M1205.37,323.9c0,0,2.57-0.87,6.28,1.19c3.71,2.05,4.82,3.07,4.82,3.07s1.52-5.39-0.99-5.86
				c-2.51-0.48-3.75,1.85-5.12-0.97C1208.99,318.51,1205.37,323.9,1205.37,323.9z"/>
			<path class="st70" d="M1209.24,330.21c-0.19,1.21,0.49,2.32,1.52,2.48c1.03,0.16,2.01-0.7,2.19-1.91
				c0.19-1.21-0.49-2.32-1.52-2.48C1210.41,328.14,1209.43,329,1209.24,330.21z"/>
			<path class="st70" d="M1224.97,333.09c-0.19,1.21,0.49,2.32,1.52,2.48c1.02,0.16,2.01-0.7,2.19-1.91
				c0.19-1.21-0.49-2.32-1.52-2.48C1226.14,331.03,1225.15,331.88,1224.97,333.09z"/>
			<path class="st67" d="M1249.88,338.04c0,0,3.43-2.13,3.74,0.27c0.31,2.4-2,7-4.19,6.96
				C1247.24,345.24,1249.88,338.04,1249.88,338.04z"/>
			<path class="st20" d="M1215.94,356.12c2.64,3.45,8.68,4.02,14.71-0.58c0.75-0.57-0.01-1.74-0.83-1.28
				C1228.46,354.51,1223.85,359.52,1215.94,356.12z"/>
		</g>
		<path class="st58" d="M1256.42,390.28l23.71,6.41l-12.91,43.27l4.38,9.21l-30.48,102.68c0,0,3.84-78.03,5.05-103.52
			C1247.4,422.83,1256.42,390.28,1256.42,390.28z"/>
	</g>
	<rect x="647.4" y="700.77" class="st72" width="470.81" height="14.84"/>
	<rect x="675.5" y="715.61" class="st72" width="13.34" height="262.26"/>
	<rect x="1081.5" y="715.61" class="st72" width="13.34" height="262.26"/>
	<rect x="1060.14" y="715.61" class="st72" width="13.34" height="262.26"/>
	<rect x="705.17" y="715.61" class="st72" width="13.34" height="262.26"/>
	<g>
		<g>
			<rect x="801.35" y="596.92" class="st31" width="55.28" height="104.18"/>
			<rect x="851.69" y="596.92" class="st73" width="5.27" height="104.18"/>
			<polygon class="st74" points="796.76,596.92 857.82,596.92 869.3,575.28 816.11,575.02 			"/>
			<g>
				<polygon class="st75" points="819.69,575.04 800.44,596.92 801.81,596.92 821.07,575.05 				"/>
				<polygon class="st75" points="825,575.07 805.76,596.92 807.14,596.92 826.37,575.08 				"/>
				<polygon class="st75" points="830.3,575.1 811.09,596.92 812.46,596.92 831.67,575.1 				"/>
				<polygon class="st75" points="835.6,575.12 816.41,596.92 817.79,596.92 836.97,575.13 				"/>
				<polygon class="st75" points="840.9,575.15 821.73,596.92 823.11,596.92 842.27,575.15 				"/>
				<polygon class="st75" points="846.2,575.17 827.06,596.92 828.44,596.92 847.57,575.18 				"/>
				<polygon class="st75" points="851.5,575.2 832.38,596.92 833.76,596.92 852.88,575.2 				"/>
				<polygon class="st75" points="856.8,575.22 837.71,596.92 839.09,596.92 858.18,575.23 				"/>
				<polygon class="st75" points="862.1,575.25 843.03,596.92 844.41,596.92 863.48,575.26 				"/>
				<polygon class="st75" points="867.41,575.28 848.35,596.92 849.73,596.92 868.78,575.28 				"/>
			</g>
			<polygon class="st74" points="872.76,539.24 853.24,561.17 936.31,561.17 955.14,539.53 			"/>
			<rect x="856.63" y="561.17" class="st31" width="79.68" height="139.94"/>
			<rect x="936.31" y="561.17" class="st73" width="28.32" height="139.94"/>
			<polygon class="st76" points="964.64,561.17 936.31,561.17 955.14,539.53 964.64,549.03 			"/>
			<g>
				<polygon class="st75" points="951.95,539.52 932.9,561.17 934.27,561.17 953.32,539.52 				"/>
				<polygon class="st75" points="946.07,539.5 927,561.17 928.38,561.17 947.45,539.5 				"/>
				<polygon class="st75" points="940.19,539.48 921.1,561.17 922.48,561.17 941.57,539.48 				"/>
				<polygon class="st75" points="934.31,539.46 915.21,561.17 916.59,561.17 935.69,539.46 				"/>
				<polygon class="st75" points="928.44,539.43 909.31,561.17 910.69,561.17 929.81,539.44 				"/>
				<polygon class="st75" points="922.56,539.41 903.41,561.17 904.79,561.17 923.93,539.42 				"/>
				<polygon class="st75" points="916.68,539.39 897.52,561.17 898.9,561.17 918.05,539.4 				"/>
				<polygon class="st75" points="910.8,539.37 891.62,561.17 893,561.17 912.18,539.38 				"/>
				<polygon class="st75" points="904.92,539.35 885.73,561.17 887.11,561.17 906.3,539.36 				"/>
				<polygon class="st75" points="899.05,539.33 879.83,561.17 881.21,561.17 900.42,539.34 				"/>
				<polygon class="st75" points="893.17,539.31 873.93,561.17 875.31,561.17 894.54,539.32 				"/>
				<polygon class="st75" points="887.29,539.29 868.04,561.17 869.42,561.17 888.66,539.3 				"/>
				<polygon class="st75" points="881.41,539.27 862.14,561.17 863.52,561.17 882.79,539.28 				"/>
				<polygon class="st75" points="875.53,539.25 856.24,561.17 857.62,561.17 876.91,539.26 				"/>
			</g>
			<g>
				<rect x="826.37" y="602.87" class="st74" width="2.63" height="10.45"/>
				<rect x="830.36" y="602.87" class="st74" width="2.63" height="10.45"/>
				<rect x="834.35" y="602.87" class="st74" width="2.63" height="10.45"/>
				<rect x="838.33" y="602.87" class="st74" width="2.62" height="10.45"/>
				<rect x="842.32" y="602.87" class="st74" width="2.63" height="10.45"/>
				<rect x="846.31" y="602.87" class="st74" width="2.63" height="10.45"/>
				<rect x="826.37" y="615.44" class="st74" width="2.63" height="10.45"/>
				<rect x="830.36" y="615.44" class="st74" width="2.63" height="10.45"/>
				<rect x="834.35" y="615.44" class="st74" width="2.63" height="10.45"/>
				<rect x="838.33" y="615.44" class="st74" width="2.62" height="10.45"/>
				<rect x="842.32" y="615.44" class="st74" width="2.63" height="10.45"/>
				<rect x="846.31" y="615.44" class="st74" width="2.63" height="10.45"/>
				<rect x="826.37" y="628" class="st74" width="2.63" height="10.45"/>
				<rect x="830.36" y="628" class="st74" width="2.63" height="10.45"/>
				<rect x="834.35" y="628" class="st74" width="2.63" height="10.45"/>
				<rect x="838.33" y="628" class="st74" width="2.62" height="10.45"/>
				<rect x="842.32" y="628" class="st74" width="2.63" height="10.45"/>
				<rect x="846.31" y="628" class="st74" width="2.63" height="10.45"/>
				<rect x="826.37" y="640.57" class="st74" width="2.63" height="10.45"/>
				<rect x="830.36" y="640.57" class="st74" width="2.63" height="10.45"/>
				<rect x="834.35" y="640.57" class="st74" width="2.63" height="10.45"/>
				<rect x="838.33" y="640.57" class="st74" width="2.62" height="10.45"/>
				<rect x="842.32" y="640.57" class="st74" width="2.63" height="10.45"/>
				<rect x="846.31" y="640.57" class="st74" width="2.63" height="10.45"/>
				<rect x="826.37" y="653.13" class="st74" width="2.63" height="10.45"/>
				<rect x="830.36" y="653.13" class="st74" width="2.63" height="10.45"/>
				<rect x="834.35" y="653.13" class="st74" width="2.63" height="10.45"/>
				<rect x="838.33" y="653.13" class="st74" width="2.62" height="10.45"/>
				<rect x="842.32" y="653.13" class="st74" width="2.63" height="10.45"/>
				<rect x="846.31" y="653.13" class="st74" width="2.63" height="10.45"/>
				<rect x="826.37" y="665.7" class="st74" width="2.63" height="10.45"/>
				<rect x="830.36" y="665.7" class="st74" width="2.63" height="10.45"/>
				<rect x="834.35" y="665.7" class="st74" width="2.63" height="10.45"/>
				<rect x="838.33" y="665.7" class="st74" width="2.62" height="10.45"/>
				<rect x="842.32" y="665.7" class="st74" width="2.63" height="10.45"/>
				<rect x="846.31" y="665.7" class="st74" width="2.63" height="10.45"/>
				<rect x="826.37" y="678.26" class="st74" width="2.63" height="10.45"/>
				<rect x="830.36" y="678.26" class="st74" width="2.63" height="10.45"/>
				<rect x="834.35" y="678.26" class="st74" width="2.63" height="10.45"/>
				<rect x="838.33" y="678.26" class="st74" width="2.62" height="10.45"/>
				<rect x="842.32" y="678.26" class="st74" width="2.63" height="10.45"/>
				<rect x="846.31" y="678.26" class="st74" width="2.63" height="10.45"/>
			</g>
			<g>
				<rect x="862.65" y="566.23" class="st74" width="3.93" height="15.66"/>
				<rect x="868.63" y="566.23" class="st74" width="3.94" height="15.66"/>
				<rect x="874.6" y="566.23" class="st74" width="3.94" height="15.66"/>
				<rect x="880.58" y="566.23" class="st74" width="3.94" height="15.66"/>
				<rect x="886.56" y="566.23" class="st74" width="3.94" height="15.66"/>
				<rect x="892.54" y="566.23" class="st74" width="3.94" height="15.66"/>
				<rect x="862.65" y="585.06" class="st74" width="3.93" height="15.66"/>
				<rect x="868.63" y="585.06" class="st74" width="3.94" height="15.66"/>
				<rect x="874.6" y="585.06" class="st74" width="3.94" height="15.66"/>
				<rect x="880.58" y="585.06" class="st74" width="3.94" height="15.66"/>
				<rect x="886.56" y="585.06" class="st74" width="3.94" height="15.66"/>
				<rect x="892.54" y="585.06" class="st74" width="3.94" height="15.66"/>
				<rect x="862.65" y="603.89" class="st74" width="3.93" height="15.66"/>
				<rect x="868.63" y="603.89" class="st74" width="3.94" height="15.66"/>
				<rect x="874.6" y="603.89" class="st74" width="3.94" height="15.66"/>
				<rect x="880.58" y="603.89" class="st74" width="3.94" height="15.66"/>
				<rect x="886.56" y="603.89" class="st74" width="3.94" height="15.66"/>
				<rect x="892.54" y="603.89" class="st74" width="3.94" height="15.66"/>
				<rect x="862.65" y="622.72" class="st74" width="3.93" height="15.66"/>
				<rect x="868.63" y="622.72" class="st74" width="3.94" height="15.66"/>
				<rect x="874.6" y="622.72" class="st74" width="3.94" height="15.66"/>
				<rect x="880.58" y="622.72" class="st74" width="3.94" height="15.66"/>
				<rect x="886.56" y="622.72" class="st74" width="3.94" height="15.66"/>
				<rect x="892.54" y="622.72" class="st74" width="3.94" height="15.66"/>
				<rect x="862.65" y="641.55" class="st74" width="3.93" height="15.66"/>
				<rect x="868.63" y="641.55" class="st74" width="3.94" height="15.66"/>
				<rect x="874.6" y="641.55" class="st74" width="3.94" height="15.66"/>
				<rect x="880.58" y="641.55" class="st74" width="3.94" height="15.66"/>
				<rect x="886.56" y="641.55" class="st74" width="3.94" height="15.66"/>
				<rect x="892.54" y="641.55" class="st74" width="3.94" height="15.66"/>
				<rect x="862.65" y="660.38" class="st74" width="3.93" height="15.66"/>
				<rect x="868.63" y="660.38" class="st74" width="3.94" height="15.66"/>
				<rect x="874.6" y="660.38" class="st74" width="3.94" height="15.66"/>
				<rect x="880.58" y="660.38" class="st74" width="3.94" height="15.66"/>
				<rect x="886.56" y="660.38" class="st74" width="3.94" height="15.66"/>
				<rect x="892.54" y="660.38" class="st74" width="3.94" height="15.66"/>
				<rect x="862.65" y="679.21" class="st74" width="3.93" height="15.66"/>
				<rect x="868.63" y="679.21" class="st74" width="3.94" height="15.66"/>
				<rect x="874.6" y="679.21" class="st74" width="3.94" height="15.66"/>
				<rect x="880.58" y="679.21" class="st74" width="3.94" height="15.66"/>
				<rect x="886.56" y="679.21" class="st74" width="3.94" height="15.66"/>
				<rect x="892.54" y="679.21" class="st74" width="3.94" height="15.66"/>
			</g>
			<g>
				<rect x="901.14" y="566.23" class="st74" width="3.94" height="15.66"/>
				<rect x="907.12" y="566.23" class="st74" width="3.94" height="15.66"/>
				<rect x="913.1" y="566.23" class="st74" width="3.94" height="15.66"/>
				<rect x="919.08" y="566.23" class="st74" width="3.93" height="15.66"/>
				<rect x="925.05" y="566.23" class="st74" width="3.94" height="15.66"/>
				<rect x="931.03" y="566.23" class="st74" width="3.94" height="15.66"/>
				<rect x="901.14" y="585.06" class="st74" width="3.94" height="15.66"/>
				<rect x="907.12" y="585.06" class="st74" width="3.94" height="15.66"/>
				<rect x="913.1" y="585.06" class="st74" width="3.94" height="15.66"/>
				<rect x="919.08" y="585.06" class="st74" width="3.93" height="15.66"/>
				<rect x="925.05" y="585.06" class="st74" width="3.94" height="15.66"/>
				<rect x="931.03" y="585.06" class="st74" width="3.94" height="15.66"/>
				<rect x="901.14" y="603.89" class="st74" width="3.94" height="15.66"/>
				<rect x="907.12" y="603.89" class="st74" width="3.94" height="15.66"/>
				<rect x="913.1" y="603.89" class="st74" width="3.94" height="15.66"/>
				<rect x="919.08" y="603.89" class="st74" width="3.93" height="15.66"/>
				<rect x="925.05" y="603.89" class="st74" width="3.94" height="15.66"/>
				<rect x="931.03" y="603.89" class="st74" width="3.94" height="15.66"/>
				<rect x="901.14" y="622.72" class="st74" width="3.94" height="15.66"/>
				<rect x="907.12" y="622.72" class="st74" width="3.94" height="15.66"/>
				<rect x="913.1" y="622.72" class="st74" width="3.94" height="15.66"/>
				<rect x="919.08" y="622.72" class="st74" width="3.93" height="15.66"/>
				<rect x="925.05" y="622.72" class="st74" width="3.94" height="15.66"/>
				<rect x="931.03" y="622.72" class="st74" width="3.94" height="15.66"/>
				<rect x="901.14" y="641.55" class="st74" width="3.94" height="15.66"/>
				<rect x="907.12" y="641.55" class="st74" width="3.94" height="15.66"/>
				<rect x="913.1" y="641.55" class="st74" width="3.94" height="15.66"/>
				<rect x="919.08" y="641.55" class="st74" width="3.93" height="15.66"/>
				<rect x="925.05" y="641.55" class="st74" width="3.94" height="15.66"/>
				<rect x="931.03" y="641.55" class="st74" width="3.94" height="15.66"/>
				<rect x="901.14" y="660.38" class="st74" width="3.94" height="15.66"/>
				<rect x="907.12" y="660.38" class="st74" width="3.94" height="15.66"/>
				<rect x="913.1" y="660.38" class="st74" width="3.94" height="15.66"/>
				<rect x="919.08" y="660.38" class="st74" width="3.93" height="15.66"/>
				<rect x="925.05" y="660.38" class="st74" width="3.94" height="15.66"/>
				<rect x="931.03" y="660.38" class="st74" width="3.94" height="15.66"/>
				<rect x="901.14" y="679.21" class="st74" width="3.94" height="15.66"/>
				<rect x="907.12" y="679.21" class="st74" width="3.94" height="15.66"/>
				<rect x="913.1" y="679.21" class="st74" width="3.94" height="15.66"/>
				<rect x="919.08" y="679.21" class="st74" width="3.93" height="15.66"/>
				<rect x="925.05" y="679.21" class="st74" width="3.94" height="15.66"/>
				<rect x="931.03" y="679.21" class="st74" width="3.94" height="15.66"/>
			</g>
		</g>
		<g>
			<polygon class="st75" points="1017.09,700.77 995.73,700.77 995.73,527.41 1017.09,518.35 			"/>
			<polygon class="st31" points="1039.65,539.42 1017.09,518.35 1017.09,700.77 1040.19,700.77 			"/>
			<rect x="982.88" y="532.17" class="st77" width="12.85" height="168.6"/>
			<rect x="946.94" y="526.47" class="st74" width="37.27" height="174.3"/>
			<g>
				<rect x="939.34" y="525.21" class="st76" width="47.56" height="1.64"/>
			</g>
			<g>
				<rect x="984.2" y="531.35" class="st76" width="11.53" height="1.64"/>
			</g>
			<g>
				<polygon class="st76" points="1040.51,540.77 1016.92,519.32 996.05,528.16 995.41,526.65 1017.25,517.39 1041.61,539.55 				
					"/>
			</g>
			<rect x="1007.05" y="529.57" class="st76" width="5.37" height="11.64"/>
			<rect x="1001.56" y="554.28" class="st76" width="4.85" height="10.25"/>
			<rect x="1007.05" y="577.57" class="st76" width="2.69" height="10.64"/>
			<rect x="967.66" y="535.64" class="st78" width="8.84" height="10.08"/>
			<rect x="949.52" y="549.65" class="st78" width="35.68" height="3.29"/>
			<rect x="949.82" y="558.63" class="st78" width="35.68" height="3.29"/>
			<rect x="950.12" y="567.62" class="st78" width="35.68" height="3.28"/>
			<rect x="950.42" y="576.61" class="st78" width="35.68" height="3.28"/>
			<rect x="950.72" y="585.6" class="st78" width="35.68" height="3.29"/>
			<rect x="951.02" y="594.59" class="st78" width="35.68" height="3.28"/>
			<rect x="951.32" y="603.57" class="st78" width="35.68" height="3.29"/>
			<rect x="951.63" y="612.56" class="st78" width="35.68" height="3.29"/>
			<rect x="951.93" y="621.55" class="st78" width="35.68" height="3.28"/>
			<rect x="952.23" y="630.54" class="st78" width="35.68" height="3.28"/>
			<rect x="952.53" y="639.52" class="st78" width="35.68" height="3.28"/>
			<rect x="952.83" y="648.51" class="st78" width="35.68" height="3.28"/>
			<rect x="953.13" y="657.5" class="st78" width="35.68" height="3.29"/>
			<rect x="953.43" y="666.49" class="st78" width="35.68" height="3.28"/>
			<rect x="953.73" y="675.47" class="st78" width="35.68" height="3.29"/>
			<rect x="954.03" y="684.46" class="st78" width="35.68" height="3.29"/>
		</g>
	</g>
	<rect x="628.56" y="698.6" class="st79" width="508.49" height="9.59"/>
</g>
</svg>
