<?xml version="1.0" encoding="utf-8"?>
<!-- Generator: Adobe Illustrator 24.0.1, SVG Export Plug-In . SVG Version: 6.00 Build 0)  -->
<svg version="1.1" id="_x32_" xmlns="http://www.w3.org/2000/svg" xmlns:xlink="http://www.w3.org/1999/xlink" x="0px" y="0px"
	 viewBox="0 0 1000 600" style="enable-background:new 0 0 1000 600;" xml:space="preserve">
<style type="text/css">
	.st0{fill:#EBFFFF;}
	.st1{fill:#59CFE2;}
	.st2{fill:#A39097;}
	.st3{fill:#8C7A81;}
	.st4{fill:#56424C;}
	.st5{fill:#6D5B62;}
	.st6{opacity:0.5;fill:#847279;}
	.st7{fill:#5B232D;}
	.st8{fill:#6D525D;}
	.st9{fill:#847279;}
	.st10{fill:#726067;}
	.st11{fill:#AF9CA3;}
	.st12{fill:#BCA7AF;}
	.st13{fill:#2D1E27;}
	.st14{fill:#FFCC4D;}
	.st15{fill:#FFB24D;}
	.st16{fill:#44323C;}
	.st17{fill:#FFE36E;}
	.st18{fill:#612E89;}
	.st19{fill:#8545AF;}
	.st20{fill:#FFAE92;}
	.st21{fill:#F78774;}
	.st22{fill:#422F39;}
	.st23{fill:#FFB339;}
	.st24{fill:#FFB839;}
	.st25{fill:#BA3655;}
	.st26{fill:#EF7A62;}
	.st27{fill:#7F2D46;}
	.st28{fill:#FFDD7D;}
	.st29{fill:#DD8237;}
	.st30{fill:#EACE94;}
	.st31{fill:#604748;}
	.st32{fill:#99334E;}
	.st33{fill:#56172C;}
	.st34{clip-path:url(#SVGID_2_);}
	.st35{fill:#FFB53E;}
	.st36{fill:#EDD096;}
	.st37{fill:#FFE7B3;}
	.st38{fill:#FFF1D4;}
	.st39{fill:#FFF4D7;}
	.st40{fill:#796696;}
	.st41{fill:#5E4C7F;}
	.st42{fill:#E5D8B5;}
	.st43{fill:#6D2140;}
	.st44{fill:#FF862C;}
	.st45{fill:#F2EAD1;}
	.st46{fill:#E2D7BA;}
	.st47{fill:#CCB88B;}
	.st48{fill:#EADDC1;}
	.st49{fill:#3F2D2E;}
	.st50{fill:#A58895;}
	.st51{fill:#BCA6AF;}
	.st52{fill:#FFAD40;}
	.st53{fill:#5283B2;}
	.st54{fill:#3B709B;}
	.st55{fill:#A50F2F;}
	.st56{fill:#FFAC33;}
	.st57{fill:#5B3239;}
	.st58{fill:#FF9D33;}
	.st59{fill:#5B4B51;}
	.st60{fill:#FFB43B;}
	.st61{fill:#F2DDE9;}
	.st62{fill:#C11F3A;}
	.st63{fill:#DD264E;}
	.st64{fill:#FFE9F2;}
	.st65{fill:#ED7656;}
	.st66{opacity:0.5;}
</style>
<g>
	<g>
		<path class="st0" d="M748.17,351.97c-17.75-7.93-37.41-12.34-58.1-12.34c-48.89,0-92.03,24.6-117.74,62.09
			c-18.62-20.51-45.49-33.39-75.37-33.39c-24.62,0-47.19,8.74-64.79,23.29v81.74H1000V206.99c-19.94-7.05-41.4-10.89-63.75-10.89
			C842.69,196.1,764.82,263.24,748.17,351.97z"/>
		<circle class="st0" cx="685.69" cy="276.65" r="23.27"/>
		<circle class="st0" cx="604.24" cy="259.55" r="11.31"/>
		<circle class="st0" cx="155.92" cy="313.65" r="50.57"/>
		
			<ellipse transform="matrix(0.7071 -0.7071 0.7071 0.7071 -132.5585 95.8761)" class="st0" cx="49.45" cy="207.95" rx="39.08" ry="39.08"/>
		
			<ellipse transform="matrix(0.974 -0.2264 0.2264 0.974 -78.0367 74.9743)" class="st0" cx="287.9" cy="377.76" rx="34.98" ry="34.98"/>
		
			<ellipse transform="matrix(0.7071 -0.7071 0.7071 0.7071 55.6798 578.4135)" class="st0" cx="726.05" cy="222" rx="17.63" ry="17.63"/>
		
			<ellipse transform="matrix(0.379 -0.9254 0.9254 0.379 446.7398 989.2624)" class="st0" cx="960.46" cy="161.77" rx="19.65" ry="19.65"/>
		
			<ellipse transform="matrix(0.9771 -0.213 0.213 0.9771 7.972 201.4557)" class="st0" cx="939.01" cy="63.73" rx="10.75" ry="10.75"/>
		<path class="st0" d="M396.58,339.37c13.45,0,24.36-10.9,24.36-24.36c0-13.45-10.9-24.36-24.36-24.36
			c-8.01,0-15.12,3.87-19.56,9.84v29.03C381.45,335.5,388.56,339.37,396.58,339.37z"/>
	</g>
	<g>
		<polygon class="st1" points="684.15,418.4 684.15,453.77 684.15,453.77 		"/>
		<path class="st1" d="M993.41,347.31v-2.34h-5.65v-9.31h-1.72v9.31H973.1v2.34h-6.09l0-28.49h-1.72v28.49h-41.06v4.14h-0.44h-2.25
			v86.99v11.18h-4.56v-25.09l-5.12-2.5v-4.94h-6.08v-2.34h-3.46v-9.31h-1.05v9.31h-7.92v2.34h-3.73v-28.49h-1.05v28.49h-12.63v-1.18
			c1.22-0.45,2.06-1.34,2.06-2.38c0-1.04-0.84-1.93-2.06-2.38v-2.05h-1.05v1.79c-0.22-0.03-0.44-0.05-0.67-0.05
			c-2.09,0-3.78,1.2-3.78,2.69s1.69,2.69,3.78,2.69c0.23,0,0.45-0.02,0.67-0.05v0.92h-11.45v3.13h-10.12v16.08v34.29l-6.19-0.63
			v-8.21h-1.69v8.04l-2.53-0.26V451.2h-1.69v18.16l-13.9-1.41v6.66h-2.12V411.2l-6.23-3.18v-18.17l-5.66-2.89v-21.75l-14.79-6.23
			v-6.37l-1.4-0.74v-6.84l-0.6-1.11l-0.6,1.11v6.21l-2.18-1.15v-19.88l-0.6-1.45l-0.6,1.45l0,19.85h-1.71v-10.54l-0.6-1.11
			l-0.6,1.11v10.54h-2.5v5.79l-16.1,6.78h-0.15v0.94h0.08v18.84h-0.08v1.98h0.08v0.01l-5.66,2.89v0.06h-0.04v0.85h0.04v17.26
			l-6.19,3.16h-0.04v0.99v21.49v1.58l0,70.6h-14.25v3.12h-5.25v21.6c-0.24,0.09-0.48,0.17-0.71,0.27c-0.07,0.03-0.14,0.06-0.21,0.09
			c-1.25,0.54-2.37,1.21-3.32,1.99c-0.05-0.04-0.11-0.08-0.16-0.12c-0.25-0.18-0.51-0.35-0.77-0.51c-0.19-0.12-0.39-0.23-0.58-0.35
			c-0.25-0.15-0.5-0.29-0.75-0.43c-0.26-0.14-0.53-0.26-0.8-0.39c-0.28-0.13-0.57-0.27-0.86-0.39c-0.4-0.17-0.81-0.33-1.23-0.48
			c-0.2-0.07-0.41-0.13-0.61-0.19c-0.34-0.11-0.68-0.21-1.02-0.3c-0.22-0.06-0.44-0.11-0.66-0.16c-0.35-0.08-0.71-0.15-1.07-0.22
			c-0.22-0.04-0.43-0.08-0.65-0.11c-0.39-0.06-0.79-0.11-1.2-0.15c-0.19-0.02-0.38-0.04-0.57-0.06c-0.6-0.04-1.2-0.07-1.81-0.07
			c-0.62,0-1.22,0.03-1.82,0.07c-0.21,0.02-0.42,0.04-0.63,0.07c-0.38,0.04-0.76,0.08-1.13,0.14c-0.26,0.04-0.51,0.09-0.77,0.13
			c-0.31,0.06-0.61,0.12-0.92,0.19c-0.28,0.07-0.56,0.13-0.84,0.21c-0.25,0.07-0.5,0.14-0.75,0.22c-0.31,0.09-0.61,0.19-0.91,0.3
			c-0.18,0.07-0.36,0.14-0.54,0.21c-1.5,0.58-2.89,1.3-4.14,2.16c-1.14-2.13-3.11-3.89-5.57-5.07c-0.07-0.03-0.14-0.07-0.21-0.1
			c-0.23-0.11-0.47-0.2-0.71-0.3v-24.08h-5.25v-3.48h-14.25l0-43.33h-0.04l-6.19-3.52v-19.24h0.04v-0.95h-0.04V430l-5.66-3.22v-0.02
			h0.08v-2.2h-0.08v-21.01h0.08v-1.05h-0.15l-16.1-7.56v-6.46h-2.5v-11.75h-1.19v11.75h-1.71l-1.19,0.03l-2.18,1.28v-6.92l-0.6-1.24
			l-0.6,1.24v7.62l-1.4,0.83v7.1l-14.79,6.94v24.24l-5.66,3.22v20.25l-6.23,3.55v8.49h-2.12v-7.43l-13.9,1.57v-20.24h-1.69v20.43
			l-2.53,0.29v-8.96h-1.69v9.15l-6.19,0.7v-38.23v-17.93H579.8v-3.48h-11.45v-1.03c0.22,0.03,0.44,0.05,0.67,0.05
			c2.09,0,3.78-1.34,3.78-3c0-1.66-1.69-3-3.78-3c-0.23,0-0.45,0.02-0.67,0.05v-2h-1.05v2.29c-1.22,0.5-2.06,1.49-2.06,2.65
			c0,1.16,0.84,2.16,2.06,2.65v1.32h-12.63v-31.76h-1.05v31.76h-3.73v-2.61h-7.92V388h-1.05v10.37h-3.46v2.61h-6.08v5.51l-5.12,2.79
			v27.97h-4.56V424.8v-96.97h-2.25H519v-4.61h-41.06v-31.76h-1.72l0,31.76h-6.09v-2.61H457.2v-10.37h-1.72v10.37h-5.65v2.61h-34.15
			v4.61h-0.44l-4.69,4.2v42.52h-2.06v-11.07h-2.25v11.07h-2.75v-28.08h-2.25v28.08h-2.75v-78.39l-9.94-7.68h-0.06h-37.06v-8.61
			h-4.77v5.27h-9.73v-27.82h-2.17v27.82h-4.83v-15.32h-2.17v15.32h-5.38v3.33H314h-0.25v151.65l-4.56-0.01v-34.15l-8.19-1.66l0-9.59
			h-5.85v4.36h-11.93l0-22.98h-2.66v22.98h-5.92v-12.65h-2.66v12.65h-6.6v3.36h-16.37v26.24h-4.94l0-68.92v-2.51v-34.08v-1.57h-0.04
			l-6.06-5.01v-27.37h0.04v-1.35h-0.04v-0.1l-5.55-4.58v-0.02h0.08v-3.13h-0.08v-29.89h0.08v-1.49h-0.15l-15.78-10.75v-9.18h-2.45
			v-16.72l-0.59-1.76l-0.59,1.76v16.72h-1.68l0-31.49l-0.59-2.3l-0.59,2.3v31.54l-2.14,1.83v-9.85l-0.59-1.76l-0.59,1.76v10.85
			l-1.38,1.17v10.1l-14.51,9.88v34.49l-5.55,4.58v28.81l-6.11,5.05v100.57h-2.08v-10.57l-13.63,2.23v-28.8h-1.65v29.07l-2.48,0.41
			v-12.75h-1.65v13.02l-6.07,0.99v-54.39v-25.51h-9.93v-4.96h-11.22v-1.46c0.21,0.04,0.43,0.08,0.66,0.08
			c2.05,0,3.71-1.91,3.71-4.26c0-2.36-1.66-4.26-3.71-4.26c-0.22,0-0.44,0.03-0.66,0.08v-2.85h-1.03v3.26
			c-1.19,0.71-2.02,2.12-2.02,3.78c0,1.65,0.83,3.07,2.02,3.78v1.87h-12.38v-45.19h-1.03v45.19h-3.66v-3.72h-7.76v-14.76h-1.03
			v14.76h-3.39v3.72h-5.96v7.84l-5.02,3.97v39.8h-4.47v-17.73V230.88h-2.21h-0.43v-6.56H41.9v-45.19h-1.69l0,45.19h-5.97v-3.72
			H21.56v-14.76h-1.69v14.76h-5.54v3.72H0v332.83h170.5l0,0h485.06h59.95h7.08h0h0h16.68l0,0h48.41l212.33,0V347.31H993.41z"/>
	</g>
	<g>
		
			<rect x="13.91" y="76.03" transform="matrix(8.634061e-07 1 -1 8.634061e-07 168.7152 76.0342)" class="st2" width="64.86" height="92.68"/>
		
			<rect x="41.07" y="103.2" transform="matrix(1.329093e-06 1 -1 1.329093e-06 195.8782 103.197)" class="st3" width="10.53" height="92.68"/>
		<rect x="61.23" class="st2" width="66.4" height="572.06"/>
		<rect x="94" class="st3" width="34" height="572.06"/>
		<g>
			<path class="st4" d="M106.35,274.33c0-2.12-1.59-3.83-3.56-3.83c-1.97,0-3.56,1.72-3.56,3.83c0,2.12,1.59,3.83,3.56,3.83
				C104.76,278.16,106.35,276.45,106.35,274.33z"/>
			<path class="st4" d="M123.51,274.33c0-2.12-1.59-3.83-3.56-3.83c-1.97,0-3.56,1.72-3.56,3.83c0,2.12,1.59,3.83,3.56,3.83
				C121.91,278.16,123.51,276.45,123.51,274.33z"/>
			<path class="st4" d="M106.35,256.89c0-2.12-1.59-3.83-3.56-3.83c-1.97,0-3.56,1.72-3.56,3.83c0,2.12,1.59,3.83,3.56,3.83
				C104.76,260.72,106.35,259.01,106.35,256.89z"/>
			<path class="st4" d="M123.51,256.89c0-2.12-1.59-3.83-3.56-3.83c-1.97,0-3.56,1.72-3.56,3.83c0,2.12,1.59,3.83,3.56,3.83
				C121.91,260.72,123.51,259.01,123.51,256.89z"/>
			<path class="st5" d="M120.93,256.89c0-1.23-0.93-2.23-2.07-2.23c-1.15,0-2.07,1-2.07,2.23c0,1.23,0.93,2.23,2.07,2.23
				C120,259.12,120.93,258.12,120.93,256.89z"/>
			<path class="st5" d="M120.93,274.33c0-1.23-0.93-2.23-2.07-2.23c-1.15,0-2.07,1-2.07,2.23c0,1.23,0.93,2.23,2.07,2.23
				C120,276.56,120.93,275.56,120.93,274.33z"/>
			<path class="st5" d="M103.78,274.33c0-1.23-0.93-2.23-2.07-2.23c-1.14,0-2.07,1-2.07,2.23c0,1.23,0.93,2.23,2.07,2.23
				C102.85,276.56,103.78,275.56,103.78,274.33z"/>
			<path class="st5" d="M103.78,256.89c0-1.23-0.93-2.23-2.07-2.23c-1.14,0-2.07,1-2.07,2.23c0,1.23,0.93,2.23,2.07,2.23
				C102.85,259.12,103.78,258.12,103.78,256.89z"/>
		</g>
		<g>
			<path class="st4" d="M106.35,131.1c0-2.12-1.59-3.83-3.56-3.83c-1.97,0-3.56,1.72-3.56,3.83c0,2.12,1.59,3.83,3.56,3.83
				C104.76,134.93,106.35,133.21,106.35,131.1z"/>
			<path class="st4" d="M123.51,131.1c0-2.12-1.59-3.83-3.56-3.83c-1.97,0-3.56,1.72-3.56,3.83c0,2.12,1.59,3.83,3.56,3.83
				C121.91,134.93,123.51,133.21,123.51,131.1z"/>
			<path class="st4" d="M106.35,113.65c0-2.12-1.59-3.83-3.56-3.83c-1.97,0-3.56,1.72-3.56,3.83s1.59,3.83,3.56,3.83
				C104.76,117.49,106.35,115.77,106.35,113.65z"/>
			<path class="st4" d="M123.51,113.65c0-2.12-1.59-3.83-3.56-3.83c-1.97,0-3.56,1.72-3.56,3.83s1.59,3.83,3.56,3.83
				C121.91,117.49,123.51,115.77,123.51,113.65z"/>
			<path class="st5" d="M120.93,113.65c0-1.23-0.93-2.23-2.07-2.23c-1.15,0-2.07,1-2.07,2.23c0,1.23,0.93,2.23,2.07,2.23
				C120,115.89,120.93,114.89,120.93,113.65z"/>
			<path class="st5" d="M120.93,131.1c0-1.23-0.93-2.23-2.07-2.23c-1.15,0-2.07,1-2.07,2.23s0.93,2.23,2.07,2.23
				C120,133.33,120.93,132.33,120.93,131.1z"/>
			<path class="st5" d="M103.78,131.1c0-1.23-0.93-2.23-2.07-2.23c-1.14,0-2.07,1-2.07,2.23s0.93,2.23,2.07,2.23
				C102.85,133.33,103.78,132.33,103.78,131.1z"/>
			<path class="st5" d="M103.78,113.65c0-1.23-0.93-2.23-2.07-2.23c-1.14,0-2.07,1-2.07,2.23c0,1.23,0.93,2.23,2.07,2.23
				C102.85,115.89,103.78,114.89,103.78,113.65z"/>
		</g>
		<g>
			<path class="st4" d="M107.53,428.06c0-2.12-1.59-3.83-3.56-3.83c-1.97,0-3.56,1.72-3.56,3.83s1.59,3.83,3.56,3.83
				C105.94,431.9,107.53,430.18,107.53,428.06z"/>
			<path class="st4" d="M124.69,428.06c0-2.12-1.59-3.83-3.56-3.83c-1.97,0-3.56,1.72-3.56,3.83s1.59,3.83,3.56,3.83
				C123.09,431.9,124.69,430.18,124.69,428.06z"/>
			<path class="st4" d="M107.53,410.62c0-2.12-1.59-3.83-3.56-3.83c-1.97,0-3.56,1.72-3.56,3.83s1.59,3.83,3.56,3.83
				C105.94,414.46,107.53,412.74,107.53,410.62z"/>
			<path class="st4" d="M124.69,410.62c0-2.12-1.59-3.83-3.56-3.83c-1.97,0-3.56,1.72-3.56,3.83s1.59,3.83,3.56,3.83
				C123.09,414.46,124.69,412.74,124.69,410.62z"/>
			<path class="st5" d="M122.11,410.62c0-1.23-0.93-2.23-2.07-2.23c-1.15,0-2.07,1-2.07,2.23c0,1.23,0.93,2.23,2.07,2.23
				C121.19,412.86,122.11,411.86,122.11,410.62z"/>
			<path class="st5" d="M122.11,428.06c0-1.23-0.93-2.23-2.07-2.23c-1.15,0-2.07,1-2.07,2.23s0.93,2.23,2.07,2.23
				C121.19,430.3,122.11,429.3,122.11,428.06z"/>
			<path class="st5" d="M104.96,428.06c0-1.23-0.93-2.23-2.07-2.23c-1.14,0-2.07,1-2.07,2.23s0.93,2.23,2.07,2.23
				C104.03,430.3,104.96,429.3,104.96,428.06z"/>
			<path class="st5" d="M104.96,410.62c0-1.23-0.93-2.23-2.07-2.23c-1.14,0-2.07,1-2.07,2.23c0,1.23,0.93,2.23,2.07,2.23
				C104.03,412.86,104.96,411.86,104.96,410.62z"/>
		</g>
		<path class="st6" d="M61.23,40.44V0h0.86h32.87h33.01v33.17c-15.85-9.17-26.68,1.49-33.01,8.3c-5.93,6.37-16.69,19.08-33.37-0.58
			C61.47,40.74,61.36,40.58,61.23,40.44z"/>
	</g>
	<g>
		<rect x="430.79" y="58.11" class="st3" width="6.46" height="122.1"/>
		<rect x="412.89" y="92.57" class="st3" width="6.46" height="87.63"/>
		<rect x="394.99" y="93.34" class="st3" width="6.46" height="86.87"/>
		<path class="st7" d="M437.69,135.43h-7.53c-1.01,0-1.83,0.82-1.83,1.83v28.31h11.19v-28.31
			C439.52,136.25,438.7,135.43,437.69,135.43z"/>
		<path class="st7" d="M419.97,122.19h-7.53c-1.01,0-1.83,0.82-1.83,1.83v41.55h11.19v-41.55
			C421.8,123.01,420.98,122.19,419.97,122.19z"/>
		<path class="st7" d="M402.25,134.49h-7.53c-1.01,0-1.83,0.82-1.83,1.83v29.64h11.19v-29.64
			C404.08,135.31,403.26,134.49,402.25,134.49z"/>
		<rect x="384.98" y="155.09" class="st2" width="66.4" height="403.03"/>
		<rect x="417.75" y="155.09" class="st3" width="34" height="403.03"/>
		<g>
			<path class="st4" d="M430.1,274.33c0-2.12-1.59-3.83-3.56-3.83c-1.97,0-3.56,1.72-3.56,3.83c0,2.12,1.59,3.83,3.56,3.83
				C428.5,278.16,430.1,276.45,430.1,274.33z"/>
			<path class="st4" d="M447.25,274.33c0-2.12-1.59-3.83-3.56-3.83c-1.97,0-3.56,1.72-3.56,3.83c0,2.12,1.59,3.83,3.56,3.83
				C445.66,278.16,447.25,276.45,447.25,274.33z"/>
			<path class="st4" d="M430.1,256.89c0-2.12-1.59-3.83-3.56-3.83c-1.97,0-3.56,1.72-3.56,3.83c0,2.12,1.59,3.83,3.56,3.83
				C428.5,260.72,430.1,259.01,430.1,256.89z"/>
			<path class="st4" d="M447.25,256.89c0-2.12-1.59-3.83-3.56-3.83c-1.97,0-3.56,1.72-3.56,3.83c0,2.12,1.59,3.83,3.56,3.83
				C445.66,260.72,447.25,259.01,447.25,256.89z"/>
			<path class="st5" d="M444.68,256.89c0-1.23-0.93-2.23-2.07-2.23c-1.14,0-2.07,1-2.07,2.23c0,1.23,0.93,2.23,2.07,2.23
				C443.75,259.12,444.68,258.12,444.68,256.89z"/>
			<path class="st5" d="M444.68,274.33c0-1.23-0.93-2.23-2.07-2.23c-1.14,0-2.07,1-2.07,2.23c0,1.23,0.93,2.23,2.07,2.23
				C443.75,276.56,444.68,275.56,444.68,274.33z"/>
			<path class="st5" d="M427.52,274.33c0-1.23-0.93-2.23-2.07-2.23s-2.07,1-2.07,2.23c0,1.23,0.93,2.23,2.07,2.23
				S427.52,275.56,427.52,274.33z"/>
			<path class="st5" d="M427.52,256.89c0-1.23-0.93-2.23-2.07-2.23s-2.07,1-2.07,2.23c0,1.23,0.93,2.23,2.07,2.23
				S427.52,258.12,427.52,256.89z"/>
		</g>
		<g>
			<path class="st4" d="M431.28,428.06c0-2.12-1.59-3.83-3.56-3.83c-1.97,0-3.56,1.72-3.56,3.83s1.59,3.83,3.56,3.83
				C429.68,431.9,431.28,430.18,431.28,428.06z"/>
			<path class="st4" d="M448.43,428.06c0-2.12-1.59-3.83-3.56-3.83c-1.97,0-3.56,1.72-3.56,3.83s1.59,3.83,3.56,3.83
				C446.84,431.9,448.43,430.18,448.43,428.06z"/>
			<path class="st4" d="M431.28,410.62c0-2.12-1.59-3.83-3.56-3.83c-1.97,0-3.56,1.72-3.56,3.83s1.59,3.83,3.56,3.83
				C429.68,414.46,431.28,412.74,431.28,410.62z"/>
			<path class="st4" d="M448.43,410.62c0-2.12-1.59-3.83-3.56-3.83c-1.97,0-3.56,1.72-3.56,3.83s1.59,3.83,3.56,3.83
				C446.84,414.46,448.43,412.74,448.43,410.62z"/>
			<path class="st5" d="M445.86,410.62c0-1.23-0.93-2.23-2.07-2.23c-1.15,0-2.07,1-2.07,2.23c0,1.23,0.93,2.23,2.07,2.23
				C444.93,412.86,445.86,411.86,445.86,410.62z"/>
			<path class="st5" d="M445.86,428.06c0-1.23-0.93-2.23-2.07-2.23c-1.15,0-2.07,1-2.07,2.23s0.93,2.23,2.07,2.23
				C444.93,430.3,445.86,429.3,445.86,428.06z"/>
			<path class="st5" d="M428.71,428.06c0-1.23-0.93-2.23-2.07-2.23c-1.14,0-2.07,1-2.07,2.23s0.93,2.23,2.07,2.23
				C427.78,430.3,428.71,429.3,428.71,428.06z"/>
			<path class="st5" d="M428.71,410.62c0-1.23-0.93-2.23-2.07-2.23c-1.14,0-2.07,1-2.07,2.23c0,1.23,0.93,2.23,2.07,2.23
				C427.78,412.86,428.71,411.86,428.71,410.62z"/>
		</g>
		<path class="st6" d="M384.98,195.53v-40.44h0.86h32.87h33.01v33.17c-15.85-9.17-26.68,1.49-33.01,8.3
			c-5.93,6.37-16.69,19.08-33.37-0.58C385.21,195.83,385.1,195.68,384.98,195.53z"/>
	</g>
	<g>
		<rect x="426.99" y="283" class="st8" width="292.29" height="14.32"/>
		<g>
			<rect x="702.02" y="511.23" class="st2" width="284.86" height="41.27"/>
			<rect x="702.02" y="549.88" class="st9" width="284.86" height="4.19"/>
			<rect x="702.02" y="470.79" class="st2" width="262.58" height="41.27"/>
			<rect x="702.02" y="509.45" class="st9" width="262.58" height="4.19"/>
			<rect x="702.02" y="430.36" class="st2" width="284.86" height="41.27"/>
			<rect x="699.63" y="511.23" class="st9" width="145.88" height="41.27"/>
			<rect x="699.63" y="470.79" class="st9" width="134.47" height="41.27"/>
			<rect x="699.63" y="430.36" class="st9" width="145.88" height="41.27"/>
			<rect x="702.02" y="469.02" class="st9" width="284.86" height="4.19"/>
			<rect x="735.18" y="468.84" class="st10" width="110.34" height="3.89"/>
			<rect x="735.18" y="509.51" class="st10" width="110.34" height="3.89"/>
		</g>
		<path class="st10" d="M447.68,289.1v264.97h277.7V289.1H447.68z M640.24,478.86h-124.6V364.31h124.6V478.86z"/>
		<path class="st2" d="M420.62,289.1v264.97h277.7V289.1H420.62z M613.18,478.86h-124.6V364.31h124.6V478.86z"/>
		<path class="st11" d="M420.62,289.1v142.56c21.01,8.22,43.91,13.29,67.96,14.49v-81.84h124.6v50.13
			c45.39-28.45,76.89-73.49,83.63-125.34H420.62z"/>
		<ellipse class="st10" cx="866.2" cy="448.95" rx="6.63" ry="9.72"/>
		<ellipse class="st10" cx="915" cy="448.95" rx="6.63" ry="9.72"/>
		<ellipse class="st10" cx="963.81" cy="448.95" rx="6.63" ry="9.72"/>
		<ellipse class="st10" cx="854.66" cy="492.91" rx="6.29" ry="9.22"/>
		<ellipse class="st10" cx="901.48" cy="492.91" rx="6.29" ry="9.22"/>
		<ellipse class="st10" cx="947.79" cy="492.91" rx="6.29" ry="9.22"/>
		<ellipse class="st10" cx="871.88" cy="531.49" rx="6.29" ry="9.22"/>
		<ellipse class="st10" cx="918.19" cy="531.49" rx="6.29" ry="9.22"/>
		<ellipse class="st10" cx="964.5" cy="531.49" rx="6.29" ry="9.22"/>
		<g>
			<path class="st12" d="M465.98,524.23c0-2.42-1.25-4.38-2.79-4.38c-1.54,0-2.79,1.96-2.79,4.38s1.25,4.38,2.79,4.38
				C464.73,528.6,465.98,526.65,465.98,524.23z"/>
			<path class="st12" d="M647.4,476.49c0-2.42-1.25-4.38-2.78-4.38s-2.79,1.96-2.79,4.38s1.25,4.38,2.79,4.38
				S647.4,478.9,647.4,476.49z"/>
			<path class="st12" d="M621.54,314.16c0-2.42-1.25-4.38-2.78-4.38s-2.79,1.96-2.79,4.38c0,2.42,1.25,4.38,2.79,4.38
				S621.54,316.58,621.54,314.16z"/>
			<path class="st12" d="M452.87,368.67c0-1.56-0.81-2.83-1.8-2.83c-0.99,0-1.8,1.27-1.8,2.83c0,1.56,0.81,2.83,1.8,2.83
				C452.06,371.5,452.87,370.23,452.87,368.67z"/>
			<path class="st12" d="M536.61,313.72c0-1.56-0.81-2.83-1.8-2.83c-0.99,0-1.8,1.27-1.8,2.83c0,1.56,0.81,2.83,1.8,2.83
				C535.8,316.55,536.61,315.28,536.61,313.72z"/>
			<path class="st12" d="M626.13,534.93c0-1.56-0.81-2.83-1.8-2.83c-0.99,0-1.8,1.27-1.8,2.83c0,1.56,0.81,2.83,1.8,2.83
				C625.32,537.76,626.13,536.49,626.13,534.93z"/>
			<path class="st12" d="M685.41,359.08c0-1.56-0.81-2.83-1.8-2.83s-1.8,1.27-1.8,2.83c0,1.56,0.81,2.83,1.8,2.83
				S685.41,360.64,685.41,359.08z"/>
			<path class="st12" d="M534.63,540.89c0-1.56-0.81-2.83-1.8-2.83c-0.99,0-1.8,1.27-1.8,2.83c0,1.56,0.81,2.83,1.8,2.83
				C533.83,543.72,534.63,542.46,534.63,540.89z"/>
			<path class="st12" d="M574.8,499.96c0-1.56-0.81-2.83-1.8-2.83c-0.99,0-1.8,1.27-1.8,2.83c0,1.56,0.81,2.83,1.8,2.83
				C574,502.79,574.8,501.52,574.8,499.96z"/>
			<path class="st12" d="M653.18,324.11c0-1.56-0.81-2.83-1.8-2.83c-0.99,0-1.8,1.27-1.8,2.83c0,1.56,0.81,2.83,1.8,2.83
				C652.37,326.94,653.18,325.67,653.18,324.11z"/>
			<path class="st12" d="M439.04,485c0-1.67-0.86-3.03-1.93-3.03c-1.06,0-1.93,1.35-1.93,3.03c0,1.67,0.86,3.03,1.93,3.03
				C438.18,488.02,439.04,486.67,439.04,485z"/>
			<path class="st12" d="M475.25,466.7c0-1.67-0.86-3.03-1.93-3.03c-1.06,0-1.93,1.35-1.93,3.03s0.86,3.03,1.93,3.03
				C474.38,469.72,475.25,468.37,475.25,466.7z"/>
			<path class="st12" d="M455.94,410.51c0-1.18-0.61-2.13-1.36-2.13c-0.75,0-1.36,0.95-1.36,2.13c0,1.18,0.61,2.13,1.36,2.13
				C455.33,412.64,455.94,411.68,455.94,410.51z"/>
			<ellipse class="st12" cx="680.82" cy="443.07" rx="1.36" ry="2.13"/>
			<path class="st12" d="M612.55,349.83c0-1.18-0.61-2.13-1.36-2.13c-0.75,0-1.36,0.95-1.36,2.13s0.61,2.13,1.36,2.13
				C611.94,351.96,612.55,351.01,612.55,349.83z"/>
			<path class="st12" d="M448.8,313.76c0-1.18-0.61-2.13-1.36-2.13c-0.75,0-1.36,0.95-1.36,2.13c0,1.18,0.61,2.13,1.36,2.13
				C448.19,315.89,448.8,314.94,448.8,313.76z"/>
			<path class="st12" d="M496.52,324.3c0-1.18-0.61-2.13-1.36-2.13c-0.75,0-1.36,0.95-1.36,2.13c0,1.18,0.61,2.13,1.36,2.13
				C495.91,326.43,496.52,325.48,496.52,324.3z"/>
			<path class="st12" d="M664.51,531.39c0-1.18-0.61-2.13-1.36-2.13c-0.75,0-1.36,0.95-1.36,2.13s0.61,2.13,1.36,2.13
				C663.9,533.52,664.51,532.57,664.51,531.39z"/>
			<path class="st12" d="M517.3,504.34c0-1.18-0.61-2.13-1.36-2.13c-0.75,0-1.36,0.95-1.36,2.13c0,1.18,0.61,2.13,1.36,2.13
				C516.7,506.47,517.3,505.51,517.3,504.34z"/>
		</g>
		<g>
			<rect x="748.92" y="218.96" class="st3" width="6.46" height="90.3"/>
			<rect x="731.02" y="191.68" class="st3" width="6.46" height="64.81"/>
			<rect x="713.11" y="214.38" class="st3" width="6.46" height="64.25"/>
			<path class="st7" d="M755.82,245.5h-7.53c-1.01,0-1.83,0.82-1.83,1.83v20.46h11.19v-20.46
				C757.65,246.32,756.83,245.5,755.82,245.5z"/>
			<path class="st7" d="M738.1,235.71h-7.53c-1.01,0-1.83,0.82-1.83,1.83v30.25h11.19v-30.25
				C739.93,236.53,739.11,235.71,738.1,235.71z"/>
			<path class="st7" d="M720.37,244.81h-7.53c-1.01,0-1.83,0.82-1.83,1.83v21.44h11.19v-21.44
				C722.2,245.63,721.39,244.81,720.37,244.81z"/>
			<rect x="703.11" y="260.05" class="st2" width="66.4" height="298.08"/>
			<rect x="735.87" y="260.05" class="st3" width="34" height="298.08"/>
			<g>
				<path class="st4" d="M748.22,348.23c0-1.57-1.59-2.84-3.56-2.84c-1.97,0-3.56,1.27-3.56,2.84s1.59,2.84,3.56,2.84
					C746.63,351.07,748.22,349.8,748.22,348.23z"/>
				<path class="st4" d="M765.38,348.23c0-1.57-1.59-2.84-3.56-2.84c-1.97,0-3.56,1.27-3.56,2.84s1.59,2.84,3.56,2.84
					C763.78,351.07,765.38,349.8,765.38,348.23z"/>
				<path class="st4" d="M748.22,335.34c0-1.57-1.59-2.84-3.56-2.84c-1.97,0-3.56,1.27-3.56,2.84c0,1.57,1.59,2.84,3.56,2.84
					C746.63,338.17,748.22,336.9,748.22,335.34z"/>
				<path class="st4" d="M765.38,335.34c0-1.57-1.59-2.84-3.56-2.84c-1.97,0-3.56,1.27-3.56,2.84c0,1.57,1.59,2.84,3.56,2.84
					C763.78,338.17,765.38,336.9,765.38,335.34z"/>
				<ellipse class="st5" cx="760.73" cy="335.34" rx="2.07" ry="1.65"/>
				<ellipse class="st5" cx="760.73" cy="348.23" rx="2.07" ry="1.65"/>
				<path class="st5" d="M745.65,348.23c0-0.91-0.93-1.65-2.07-1.65c-1.15,0-2.07,0.74-2.07,1.65c0,0.91,0.93,1.65,2.07,1.65
					C744.72,349.88,745.65,349.15,745.65,348.23z"/>
				<path class="st5" d="M745.65,335.34c0-0.91-0.93-1.65-2.07-1.65c-1.15,0-2.07,0.74-2.07,1.65c0,0.91,0.93,1.65,2.07,1.65
					C744.72,336.99,745.65,336.25,745.65,335.34z"/>
			</g>
			<g>
				<path class="st4" d="M749.41,461.93c0-1.57-1.59-2.84-3.56-2.84c-1.97,0-3.56,1.27-3.56,2.84s1.59,2.84,3.56,2.84
					C747.81,464.77,749.41,463.5,749.41,461.93z"/>
				<path class="st4" d="M766.56,461.93c0-1.57-1.59-2.84-3.56-2.84c-1.97,0-3.56,1.27-3.56,2.84s1.59,2.84,3.56,2.84
					C764.97,464.77,766.56,463.5,766.56,461.93z"/>
				<path class="st4" d="M749.41,449.03c0-1.57-1.59-2.84-3.56-2.84c-1.97,0-3.56,1.27-3.56,2.84s1.59,2.84,3.56,2.84
					C747.81,451.87,749.41,450.6,749.41,449.03z"/>
				<path class="st4" d="M766.56,449.03c0-1.57-1.59-2.84-3.56-2.84c-1.97,0-3.56,1.27-3.56,2.84s1.59,2.84,3.56,2.84
					C764.97,451.87,766.56,450.6,766.56,449.03z"/>
				<path class="st5" d="M763.99,449.03c0-0.91-0.93-1.65-2.07-1.65s-2.07,0.74-2.07,1.65c0,0.91,0.93,1.65,2.07,1.65
					S763.99,449.95,763.99,449.03z"/>
				<path class="st5" d="M763.99,461.93c0-0.91-0.93-1.65-2.07-1.65s-2.07,0.74-2.07,1.65s0.93,1.65,2.07,1.65
					S763.99,462.85,763.99,461.93z"/>
				<path class="st5" d="M746.83,461.93c0-0.91-0.93-1.65-2.07-1.65s-2.07,0.74-2.07,1.65s0.93,1.65,2.07,1.65
					S746.83,462.85,746.83,461.93z"/>
				<path class="st5" d="M746.83,449.03c0-0.91-0.93-1.65-2.07-1.65s-2.07,0.74-2.07,1.65c0,0.91,0.93,1.65,2.07,1.65
					S746.83,449.95,746.83,449.03z"/>
			</g>
			<path class="st6" d="M703.11,289.95v-29.91h0.86h32.87h33.01v24.53c-15.85-6.78-26.68,1.1-33.01,6.14
				c-5.93,4.71-16.69,14.11-33.37-0.43C703.34,290.18,703.23,290.06,703.11,289.95z"/>
		</g>
	</g>
	<g>
		<polygon class="st13" points="714.86,475.71 712.33,475.71 712.33,553.31 718.39,553.31 		"/>
		<polygon class="st4" points="722.02,481.6 708.79,477.1 711.74,492.39 724.21,492.39 		"/>
		<path class="st14" d="M767.69,446.38c0,0-34.88,5.31-53.59,28.82l91.76,16.94L767.69,446.38z"/>
		<path class="st15" d="M776.59,479.32c-15-13.97-19.97-28.42-11.12-32.28c0.57-0.25,1.19-0.44,1.84-0.59
			c-3.78,0.65-35.64,6.66-53.21,28.75l74.98,13.84C784.79,486.27,780.54,483,776.59,479.32z"/>
		<polygon class="st4" points="701.21,471.16 814.96,490.62 813.69,502.5 766.17,536.71 		"/>
		<polygon class="st16" points="705.09,475.08 766.17,536.71 813.69,502.5 813.74,502.08 		"/>
		<circle class="st4" cx="789.55" cy="546.48" r="7.58"/>
		<polygon class="st4" points="723.47,477.55 724.06,475.09 669.17,463.55 668.41,468 		"/>
		<path class="st14" d="M784.69,546.48c0,2.69,2.18,4.87,4.87,4.87s4.87-2.18,4.87-4.87c0-2.69-2.18-4.87-4.87-4.87
			S784.69,543.8,784.69,546.48z"/>
		<polygon class="st16" points="749.4,516.4 746.86,516.69 776.78,547.75 780.83,547.04 		"/>
		<rect x="777.03" y="544.71" class="st16" width="12.52" height="3.03"/>
		<path class="st16" d="M787.55,548.49c1.11,1.11,2.9,1.11,4,0c1.11-1.11,1.11-2.9,0-4c-1.11-1.11-2.9-1.11-4,0
			S786.44,547.38,787.55,548.49z"/>
		<path class="st4" d="M664.65,466.65c0,2.93,2.38,5.31,5.31,5.31s5.31-2.38,5.31-5.31s-2.38-5.31-5.31-5.31
			S664.65,463.72,664.65,466.65z"/>
		<path class="st14" d="M788.64,547.39c0.5,0.5,1.31,0.5,1.81,0c0.5-0.5,0.51-1.31,0.01-1.81c-0.5-0.5-1.31-0.5-1.81,0
			C788.15,546.08,788.14,546.89,788.64,547.39z"/>
		<path class="st4" d="M667.57,466.65c0,1.31,1.07,2.38,2.38,2.38c1.31,0,2.38-1.07,2.38-2.38c0-1.31-1.07-2.38-2.38-2.38
			C668.64,464.27,667.57,465.33,667.57,466.65z"/>
		<g>
			<polygon class="st17" points="764.04,452.69 764.99,452.64 765.07,451.59 764.12,451.63 			"/>
			<polygon class="st17" points="780.79,472.48 781.75,472.44 781.83,471.38 780.87,471.42 			"/>
			<polygon class="st14" points="767.32,469.77 768.28,469.73 768.36,468.68 767.4,468.72 			"/>
			<polygon class="st14" points="773.01,477.92 773.7,477.13 773.02,476.45 772.33,477.23 			"/>
			<polygon class="st17" points="790.51,483.48 791.2,482.7 790.52,482.01 789.83,482.79 			"/>
			<polygon class="st17" points="775.4,464.24 776.09,463.45 775.41,462.76 774.72,463.55 			"/>
			<polygon class="st17" points="767.05,460.66 767.39,459.67 766.47,459.39 766.14,460.37 			"/>
			<polygon class="st14" points="756.23,464.64 756.57,463.66 755.65,463.37 755.31,464.36 			"/>
			<polygon class="st14" points="742.72,462.04 742.88,461.03 741.91,460.98 741.76,461.99 			"/>
			<polygon class="st14" points="729.68,470.39 729.07,469.67 728.3,470.41 728.9,471.13 			"/>
			<polygon class="st14" points="749.35,466.26 748.75,465.55 747.97,466.28 748.58,467 			"/>
			<polygon class="st14" points="738.9,470.11 738.29,469.4 737.51,470.13 738.12,470.85 			"/>
			<polygon class="st14" points="747.29,474.48 746.68,473.76 745.9,474.49 746.51,475.21 			"/>
			<polygon class="st14" points="756.9,473.84 756.29,473.12 755.51,473.86 756.12,474.58 			"/>
			<polygon class="st14" points="759.24,452.37 760.05,451.74 759.54,450.9 758.73,451.53 			"/>
			<polygon class="st14" points="752.85,456.35 753.66,455.72 753.15,454.88 752.34,455.51 			"/>
		</g>
	</g>
	<g>
		<path class="st18" d="M584.96,394.13c5.47-3.1,19.92-14.21,21.47-23.32c3.2-18.86-8.22-24.96-11.34-24.28
			c-6.67,1.46-28.15,23.33-34.53,39.12c-2.79,6.91,1.58,15.8,5.59,17.4C571.31,405.12,579.83,397.04,584.96,394.13z"/>
		<path class="st19" d="M560.88,384.92c5.48,1.25,14.55-5.64,21.32-16.58c4.04-6.54,6.42-13.16,6.93-18.36
			C580.15,356.89,566.15,372.59,560.88,384.92z"/>
		<path class="st20" d="M580.46,437.83c0,0-21.49-32.74-20.9-46.31c0.59-13.57,26.7,2.19,26.7,2.19s3.02,24.19,1.75,29.38
			C586.93,427.52,580.46,437.83,580.46,437.83z"/>
		<path class="st21" d="M586.26,393.7c0,0-26.11-15.76-26.7-2.19c-0.02,0.44-0.01,0.91,0.01,1.39c0.46-0.37,0.97-0.66,1.52-0.85
			c6.34-2.12,18.31,15.69,20.16,40.06c0.3,3.9,3.55-6.41,4.18-2.98c1.18-2.27,2.2-4.52,2.58-6.06
			C589.28,417.9,586.26,393.7,586.26,393.7z"/>
		<path class="st4" d="M580.53,553.45h0.88c0,0,14.17-54.59,27.36-85.09l1.99,0.67l40.62,84.42h1.14c0,0-8.79-103.86-7.42-125.57
			l-61.73-11.54C577.2,457.7,575.15,506.95,580.53,553.45z"/>
		<path class="st22" d="M615.34,421.42c17.4,17.71,23.66,58.74,32.62,110.26c1.25,7.19,2.27,14.22,3.08,21.07l0.34,0.7h1.14
			c0,0-7.97-104.66-6.59-126.37L615.34,421.42z"/>
		<polygon class="st22" points="631.61,436.46 581.36,430.32 580.79,436.62 632.67,448.26 		"/>
		<path class="st18" d="M645.11,441.98l-64.02-8.73c0,0,8.02-72.87,16.58-83.23c0,0,12.43-9.08,25.28-7.69
			c12.85,1.38,26.48,14.13,27.11,17.59C651.14,365.93,646.14,398.62,645.11,441.98z"/>
		<path class="st18" d="M645.11,441.98l-64.02-8.73c0,0,8.02-72.87,16.58-83.23c0,0,12.43-9.08,25.28-7.69
			c12.85,1.38,26.48,14.13,27.11,17.59C651.14,365.93,646.14,398.62,645.11,441.98z"/>
		<path class="st19" d="M602.79,431.32c-8.15-1.39-15.7-1.7-21.37-1.09c-0.23,1.94-0.35,3.03-0.35,3.03l46.15,6.29
			C622.27,436.26,613.3,433.11,602.79,431.32z"/>
		<path class="st14" d="M647.32,435.7l-42.3-6.49l-1.27-15.07l-5.32,14.39l-17.07-2.43c0,0,1.65-58.53,11.68-77.76
			c3.35-6.43,27.89-9.39,31.87-9.62c3.98-0.23,27.2,13.05,28.58,18.27C659.8,380.97,647.32,435.7,647.32,435.7z"/>
		<path class="st23" d="M653.95,358.96c-0.57-0.09-7.87-5.71-8.37-5.4c-14.04,8.79-21.13,54.6-21.67,78.54l23.42,3.59
			C647.32,435.7,659.14,383.83,653.95,358.96z"/>
		<path class="st19" d="M608.65,382.45l28.49-38.38c-6.11-3.63-11.95-5.77-15.11-6.05c-2.62-0.23-11.06,1.24-19.44,4.74
			L608.65,382.45z"/>
		<path class="st18" d="M617.77,351.75c8.06,0,16.08-5.28,18.7-8.06c-5.38-2.95-11.63-5.42-14.45-5.66
			c-2.41-0.21-9.76,1.02-17.44,3.95C605.82,346.08,610.82,351.75,617.77,351.75z"/>
		<path class="st14" d="M620.86,345.31c4.82,0,8.99-1.64,11.04-4.02c-3.59-2.15-7.53-3.5-9.76-3.69c-1.92-0.17-7.48,0.54-12.95,2.8
			C610.87,343.26,615.45,345.31,620.86,345.31z"/>
		<ellipse class="st18" cx="646.04" cy="387.18" rx="10.8" ry="29.46"/>
		<path class="st19" d="M650.88,409.06c-4.65-3.88-14.49-12.36-15.11-23.77c-1.28-23.63,10.59-34.1,13.33-33.25
			c5.86,1.83,21.84,28.94,26.24,48.73c1.92,8.66-1.76,19.6-5.5,21.62C665.03,424.97,655.24,412.7,650.88,409.06z"/>
		<path class="st18" d="M675.33,400.77c-1.53-6.9-4.48-14.7-7.91-22c3.99,12.6,4.11,21.91-1.18,24.46
			c-6.72,3.23-19.27-6.49-27.35-23.3c-0.99-2.06-1.88-4.12-2.66-6.14c-0.49,3.42-0.7,7.24-0.46,11.51
			c0.62,11.41,10.09,20.69,14.75,24.57c4.36,3.64,14.52,15.11,19.33,12.53C673.57,420.37,677.25,409.42,675.33,400.77z"/>
		<path class="st21" d="M646.14,449.49c0,0,25.44-21.71,28.37-33.98c2.93-12.27-24.61-6.74-24.61-6.74s-7.44,21.12-7.63,26.06
			C642.11,439.07,646.14,449.49,646.14,449.49z"/>
		<path class="st20" d="M656.31,416.43c-1.27-0.58-2.9-0.26-4.71,0.77c-2.58,1.47-4.45,3.93-5.43,6.69
			c-1.65,4.68-3.91,8.7-4.07,10.64c-0.35,4.19,4.04,14.96,4.04,14.96s0.17-0.14,0.49-0.4c0.61-0.51,1.18-1.06,1.68-1.67
			c2.01-2.48,3.99-5.52,5.72-8.94C659.28,428.11,660.3,418.24,656.31,416.43z"/>
		<path class="st14" d="M633.43,327l-22.44-17.89c0,0,11.11-15.49,22.89-4.85C644.47,313.82,633.43,327,633.43,327z"/>
		<path class="st24" d="M633.88,304.26c-0.68-0.61-1.35-1.13-2.03-1.58c0.55,0.65,0.86,1.35,0.86,2.09c0,3.29-6.02,5.96-13.44,5.96
			c-2.79,0-5.37-0.38-7.52-1.02L633.43,327C633.43,327,644.47,313.82,633.88,304.26z"/>
		
			<ellipse transform="matrix(0.6162 -0.7876 0.7876 0.6162 -11.6697 612.1271)" class="st25" cx="622.24" cy="318.04" rx="6.97" ry="14.41"/>
		<path class="st26" d="M628.8,340.01l0.65-13.29l-16.05,2.5l-0.88,10.49C612.52,339.71,619.32,346.45,628.8,340.01z"/>
		<path class="st20" d="M632.05,319.42c-2.07,7.39-5.95,17.58-8.38,18.78c-2.43,1.19-10.92,0.89-13.23-2.09
			c-2.27-2.92-0.85-18.64,4.24-25.74C619.28,303.95,632.69,317.15,632.05,319.42z"/>
		<path class="st21" d="M614.67,310.37c-0.68,0.94-1.28,2.04-1.83,3.24c8.76-1.1,15.15,9.36,15.15,9.36l1.89-7.25
			C626,311.39,618.02,305.71,614.67,310.37z"/>
		<path class="st27" d="M628.01,313.83c-1.95,5.31-4.21,10.11-5.83,10.91c-2.15,1.06-9.03,0.94-12.19-1.16
			c-0.92,5.66-0.77,10.96,0.45,12.53c2.31,2.98,10.81,3.28,13.23,2.09c2.43-1.19,6.31-11.39,8.38-18.78
			C632.29,318.56,630.54,316.16,628.01,313.83z"/>
		<path class="st28" d="M615.5,301.11c1.84-1.97,4.39-3.11,5.68-2.55c1.29,0.56,0.85,2.61-1,4.58c-1.84,1.97-4.39,3.11-5.68,2.55
			C613.21,305.13,613.65,303.08,615.5,301.11z"/>
		<path class="st29" d="M615.76,301.16c1.29-1.37,3.06-2.17,3.96-1.78c0.9,0.39,0.59,1.82-0.7,3.19c-1.29,1.37-3.06,2.17-3.96,1.78
			C614.16,303.96,614.47,302.53,615.76,301.16z"/>
		<path class="st30" d="M651.44,554.07h6.78c0,0-5.5-3.24-6.18-3.24C651.35,550.83,651.44,554.07,651.44,554.07z"/>
		<polygon class="st22" points="604.7,463.58 580.79,552.22 581.41,552.83 609.02,469.08 614.57,470.16 		"/>
		<path class="st30" d="M581.87,554.07h-6.78c0,0,5.73-3.24,6.41-3.24S581.87,554.07,581.87,554.07z"/>
		<path class="st28" d="M605.91,408.9c0.08-1.39-0.43-2.56-1.16-2.63c-0.72-0.06-1.37,1.01-1.46,2.39
			c-0.08,1.39,0.43,2.56,1.16,2.63C605.17,411.35,605.82,410.28,605.91,408.9z"/>
		<path class="st28" d="M606.95,398.5c0.08-1.39-0.43-2.56-1.16-2.63c-0.72-0.07-1.37,1.01-1.46,2.39
			c-0.08,1.39,0.43,2.56,1.16,2.63C606.21,400.96,606.86,399.89,606.95,398.5z"/>
		<path class="st28" d="M608.31,388.74c0.08-1.39-0.43-2.56-1.16-2.63c-0.72-0.07-1.37,1.01-1.46,2.39
			c-0.08,1.39,0.43,2.56,1.16,2.63C607.58,391.2,608.23,390.13,608.31,388.74z"/>
		<path class="st27" d="M629.17,331.71c0,0,3.24-6.07,4.22-9.92c0,0-3.96-6.47-6.17-8.06l-2.27,11.8l2.89,1.31l1.03,1.89
			L629.17,331.71z"/>
		<path class="st28" d="M628.46,316.4c-5.42-5.53-13.01-8.69-16.95-7.06c-0.44,0.18-0.8,0.42-1.11,0.69
			c-0.2-1.08,0.86-2.24,1.87-2.66c3.94-1.63,12.18,1.71,17.6,7.24c4.82,4.92,6.36,11.62,3.3,12.74
			C634.18,324.77,632.49,320.51,628.46,316.4z"/>
		<path class="st20" d="M630.32,326.01c0.51-1.9,0.08-3.66-0.95-3.93c-1.03-0.28-2.28,1.04-2.79,2.93c-0.51,1.9-0.08,3.66,0.95,3.93
			C628.57,329.22,629.82,327.91,630.32,326.01z"/>
		<path class="st26" d="M629.61,325.82c0.31-1.17,0.05-2.25-0.59-2.42c-0.64-0.17-1.4,0.64-1.72,1.81
			c-0.31,1.17-0.05,2.25,0.59,2.42C628.52,327.8,629.29,326.99,629.61,325.82z"/>
		<path class="st20" d="M628.21,326.02c0.19-0.71,0.03-1.37-0.35-1.48c-0.39-0.1-0.86,0.39-1.05,1.1s-0.03,1.37,0.35,1.48
			C627.55,327.23,628.02,326.74,628.21,326.02z"/>
		<path class="st14" d="M616.52,301.57c0.95-1.01,2.25-1.6,2.92-1.31s0.43,1.34-0.51,2.35c-0.95,1.01-2.25,1.6-2.92,1.31
			C615.34,303.64,615.57,302.59,616.52,301.57z"/>
		<g>
			<path class="st31" d="M618.91,320.81c0.16-0.8,0.67-1.39,1.14-1.32c0.47,0.08,0.73,0.79,0.57,1.6c-0.16,0.8-0.67,1.39-1.14,1.32
				C619.01,322.33,618.76,321.61,618.91,320.81z"/>
			<path class="st32" d="M620.21,316.69l2.99,0.93c0.25,0.08,0.39,0.35,0.3,0.6l-0.32,0.95c-0.09,0.25-0.36,0.39-0.61,0.32
				l-2.99-0.93c-0.25-0.08-0.39-0.34-0.3-0.6l0.32-0.95C619.69,316.75,619.96,316.61,620.21,316.69z"/>
			<path class="st31" d="M611.75,318.9c0.16-0.8,0.67-1.39,1.14-1.32c0.47,0.08,0.73,0.79,0.57,1.6c-0.16,0.8-0.67,1.39-1.14,1.32
				C611.85,320.41,611.59,319.7,611.75,318.9z"/>
			<path class="st32" d="M611.38,314.68l3.09,0.46c0.26,0.04,0.43,0.28,0.39,0.54l-0.18,0.98c-0.05,0.26-0.3,0.44-0.55,0.4
				l-3.09-0.46c-0.26-0.04-0.43-0.28-0.39-0.54l0.18-0.99C610.87,314.82,611.12,314.64,611.38,314.68z"/>
			<path class="st26" d="M616.05,319.67c-1.55,2.47-2.29,4.1-1.76,4.92c0.33,0.51,1,0.57,1.55,0.52l0,0.06c0,0-1.84,0.58-2.44-0.21
				C612.81,324.17,613.93,322.41,616.05,319.67z"/>
			<path class="st33" d="M612.4,328.14c0.02-0.24,1.06-0.13,2.51-0.09c1.45,0.04,2.76-0.01,2.73,0.23
				c-0.02,0.24-1.22,0.26-2.67,0.22C613.53,328.46,612.38,328.39,612.4,328.14z"/>
		</g>
		<polygon class="st28" points="609.64,444.05 604.08,443.22 604.08,446.51 609.64,447.34 		"/>
		<g>
			<path class="st21" d="M648.16,453.82c1.21,0.98,0.98,4.94,0.07,6.12c-0.91,1.18-2.85,2.35-3.44,0.11
				c-0.59-2.24-0.17-5.18,0.59-6.09C646.13,453.06,647.48,453.27,648.16,453.82z"/>
			<path class="st21" d="M652.29,452.14c1.21,0.98,0.98,4.94,0.07,6.12c-0.91,1.18-2.85,2.35-3.44,0.11
				c-0.59-2.24-0.17-5.18,0.59-6.09S651.61,451.59,652.29,452.14z"/>
			<path class="st20" d="M642.95,433.45c-4.86,4.93-11.18,12.65-8.95,15.12c2.98,3.29,2.71,3.5,3.7,6.38
				c0.99,2.87,13.7,2.56,13.27-0.09c-0.43-2.66-0.83-7.69,1.56-12.44C655.59,436.36,642.95,433.45,642.95,433.45z"/>
			<path class="st20" d="M641.77,453.76l-4.73-6.72c-1.01,8.04,0.15,18.3,1.03,19.93c0.89,1.63,3.67,2.15,3.8,0.94
				C642.01,466.69,641.45,456.11,641.77,453.76z"/>
			<path class="st20" d="M646.76,454.53l-4.96-6.15c-0.59,8.74,0.4,12.53,1.22,13.23c0.76,0.65,4.03,0.03,4.13-0.74
				C647.25,460.09,646.46,456.57,646.76,454.53z"/>
			<path class="st20" d="M650.45,451.16l-4.78-2.57c0.2,5.79,1.43,10.17,2.38,11.11c0.95,0.94,4.02-0.48,3.97-1.35
				C651.98,457.47,650.49,452.86,650.45,451.16z"/>
			<path class="st4" d="M636.59,455.38c-4.7-6.82-5.9-10.14-5.9-10.14l6.09,5.86L636.59,455.38z"/>
		</g>
	</g>
	<g>
		<defs>
			<rect id="SVGID_1_" y="396.66" width="193.02" height="171.57"/>
		</defs>
		<clipPath id="SVGID_2_">
			<use xlink:href="#SVGID_1_"  style="overflow:visible;"/>
		</clipPath>
		<g class="st34">
			<path class="st14" d="M124.66,554.07H-150.8c0,0,63.47-107.85,147.29-135.58C-3.52,418.49,61.81,466.56,124.66,554.07z"/>
			<path class="st35" d="M-0.82,420.55c83.89,126.43-126.37,122.68-143.29,122.97c-4.35,6.59-6.69,10.55-6.69,10.55h275.47
				C69.3,476.99,12.05,430.53-0.82,420.55z"/>
			<path class="st14" d="M185.06,554.07H39c0,0,40.52-43.63,86.72-54.85C125.72,499.22,157.3,518.67,185.06,554.07z"/>
			<path class="st35" d="M125.72,499.22c-0.19,0.05-0.38,0.1-0.57,0.15c8.76,12.79,8.1,28.91-2.64,38.06
				c-18.63,15.87-61.82,15.65-78.65,11.75c-3.12,3.03-4.86,4.89-4.86,4.89h146.05C157.3,518.67,125.72,499.22,125.72,499.22z"/>
			<g>
				<path class="st36" d="M24.39,495.81l-43-5.84c-10.4,17.35-20.5,38.39-25.27,64.09h75.8C32.03,533.8,28.43,514.5,24.39,495.81z"
					/>
				<polygon class="st36" points="26.99,489.21 -20.46,482.12 -20.31,489.67 24.52,496.25 				"/>
				<polygon class="st37" points="19.21,485.05 -21.12,481.81 -20.54,488.86 18.98,495.91 				"/>
				<path class="st37" d="M18.96,494.87l-39.28-6.12c-11.24,18.33-20.2,40.15-26.96,65.32h63.48
					C19.49,534.07,19.48,514.44,18.96,494.87z"/>
				<path class="st38" d="M-27.27,501.16l46.46,6.11c-0.02-2.37-0.06-4.74-0.1-7.11l-42.78-5.62
					C-24.92,496.69-26.11,498.91-27.27,501.16z"/>
				<path class="st38" d="M19.19,514.64l-49.85-6.62c-0.6,1.26-1.2,2.52-1.78,3.81l51.58,6.85
					C19.17,517.34,19.18,515.99,19.19,514.64z"/>
			</g>
		</g>
	</g>
	<g>
		<path class="st20" d="M242.35,264.8c1.14-0.68,2.72,1.43,2.07,2.65c-0.64,1.22-7.29,12.44-7.29,12.44l-3.29-4.79
			C233.84,275.1,240.06,266.16,242.35,264.8z"/>
		<path class="st21" d="M234.94,273.57c-3.79,3.15-9.79,13.65-9.79,13.65l8.01,11.3c0,0,7.29-6.58,8.58-10.79
			c0.67-2.21-1.55-6.6-3.5-9.7C234.99,277.5,234.94,273.57,234.94,273.57z"/>
		<path class="st20" d="M239.02,283.72c-0.57-1.43-5-8.15-6.86-7.43c-1.86,0.71-3.65,3.72-5.86,10.01l5.36,7.29
			c4.29-4.58,1-11.44,1-11.44s1.57,2.36,2.72,3.15C236.51,286.08,239.59,285.15,239.02,283.72z"/>
		<polygon class="st39" points="222.37,289.83 225.64,284.92 234.65,298.02 231.78,303.54 		"/>
		<path class="st40" d="M194.34,389.25c10.09-24.67,39.5-88.54,39.5-88.54l-10.2-14.35l-47.62,50.93L194.34,389.25z"/>
		<path class="st41" d="M229.89,295.05c-3.78,9.74-16.97,46.51-43.13,69.96l7.58,24.24c10.09-24.67,39.5-88.54,39.5-88.54
			L229.89,295.05z"/>
		<path class="st4" d="M132.77,436.64l4.85,116.39h0.86l33.48-84.32l3.14-0.89l36.14,85.21h1.14l-11.98-127.97
			C200.39,425.06,167.87,417.34,132.77,436.64z"/>
		<path class="st16" d="M139.22,534.06c0.93-51.81,19.17-93.8,40.74-93.8c9.09,0,17.32,7.49,23.73,20.01l-3.3-35.2
			c0,0-32.53-7.72-67.62,11.58l4.85,116.39h0.86l1.05-2.64C139.24,545.08,139.12,539.63,139.22,534.06z"/>
		<path class="st42" d="M134.92,417.94l0.35,22.44l62.62-12.57l-1.74-18.1C156.84,396.72,134.92,417.94,134.92,417.94z"/>
		<path class="st39" d="M185.83,430.23l-8.93-13.09c0,0-3.8,8.73-7.1,16.3L185.83,430.23z"/>
		<path class="st43" d="M159.68,344.78l-1.4,1.03c6.45,15.46,13.03,69.6,13.03,69.6l5.75,7.43l3.36-10.51
			C177.2,395.65,159.68,344.78,159.68,344.78z"/>
		<path class="st40" d="M131.37,470.34c16.82-13.73,45.59-58.67,45.59-58.67l27.28,39.61c0,0-4.34-94.88-25.09-115.62
			c0,0-10.65,5.93-22.19,5.93c-14.82,0-24.25,2.04-32.05,13.41C126.36,403.39,127.19,428.39,131.37,470.34z"/>
		<path class="st41" d="M125,354.9l-0.07,0.1c1.43,48.38,2.27,73.38,6.45,115.34c1.57-1.28,3.23-2.83,4.97-4.59
			c5.26-11.36,9.22-26.65,10.79-44.15c2.37-26.4-3.88-47.07-11.28-61.75C133.17,354.53,128.38,349.99,125,354.9z"/>
		<path class="st39" d="M136.04,345.02c14.02,16.98,26.09,32.47,39.62,56.93c0,0,4.2-40.07-1.82-63.91
			c-4.03,1.76-9.62,2.66-17.24,2.66C148.07,340.71,141.71,342.29,136.04,345.02z"/>
		<path class="st42" d="M172.84,338.44c-3.95,1.5-9.22,2.27-16.24,2.27c-7.24,0-12.91,1.14-17.93,3.16
			c5.09,7.87,12.31,13.1,19.33,13.1C166.54,356.97,172.25,349.25,172.84,338.44z"/>
		<path class="st43" d="M176.17,395.93c-6.26-21.45-16.49-51.16-16.49-51.16l-1.4,1.03c3.33,7.98,6.69,26.26,9.17,42.09
			c2.69,4.37,5.61,9.95,8.4,14.99C175.84,402.89,176.31,399.62,176.17,395.93z"/>
		<path class="st44" d="M101.85,487.72c10.65,8.78,28.22,13.08,28.22,13.08l13.08-51.39l-19.06,0.56L101.85,487.72z"/>
		<path class="st14" d="M103.77,480.14c8.69,8.05,23.53,12.59,23.53,12.59l13.73-43.38l-16.36-0.46L103.77,480.14z"/>
		<path class="st44" d="M123.72,456.89c4.55,4.21,8.77,5.08,8.77,5.08l3.53-9.73l-8.57-0.24L123.72,456.89z"/>
		<path class="st40" d="M129.69,349.63c-12.33,9.72-33.31,38.65-35.88,52.88l22.16,19.9l15.88-14.09
			C143.81,389.04,139.18,353.38,129.69,349.63z"/>
		<path class="st41" d="M134.08,389.46c-8.54,12.18-19.49,20.5-29.07,23.11l10.96,9.84l17.69-12.66c4.6-7.42,4.93-18.69,5.28-28.21
			C137.53,384.2,135.91,386.85,134.08,389.46z"/>
		<path class="st45" d="M139.51,325.85l23.88-20.03c0,0-12.48-16.52-24.98-4.64C127.17,311.85,139.51,325.85,139.51,325.85z"/>
		<path class="st46" d="M153.44,312.82c-7.29,0-13.2-3.84-13.2-8.58c0-3.04,2.44-5.7,6.11-7.23c-2.56,0.37-5.25,1.61-7.94,4.16
			c-11.24,10.67,1.11,24.68,1.11,24.68l15.63-13.12C154.59,312.79,154.02,312.82,153.44,312.82z"/>
		
			<ellipse transform="matrix(0.772 -0.6356 0.6356 0.772 -166.2188 168.2425)" class="st47" cx="151.41" cy="315.82" rx="15.65" ry="7.57"/>
		<path class="st26" d="M146.69,341.54l-1.11-15.57l17.51,4.81l1.95,9.48C165.03,340.27,159.71,350.72,146.69,341.54z"/>
		<path class="st48" d="M144.36,341.97l1.87-4.39c0,0,3.53,5.74,11.68,3.64c3.27-0.84,6.73-4.58,6.73-4.58l2.52,2.99
			c-0.96,2.94-1.85,6.05-3.74,8.03l-3.74-2.15l-1.4,0.28l-1.96,3.83C150.96,347.61,146.61,345.2,144.36,341.97z"/>
		<polygon class="st43" points="160.33,348.56 157.44,347.16 157.81,342.44 159.49,341.79 161.55,346.18 		"/>
		<path class="st32" d="M162.67,314.89c0.36-6.62-2.36-11.22-2.36-11.22l-5.64,2.53L162.67,314.89z"/>
		<path class="st20" d="M141.15,316.94c2.45,7.97,12.06,20.67,14.73,21.9c2.67,1.23,8.53-1.28,10.96-4.58
			c2.38-3.23-1.81-19.32-7.53-26.89C154.14,300.52,140.39,314.48,141.15,316.94z"/>
		<path class="st45" d="M159.17,299.1c-1.72-2.26-4.96-3.59-7.24-2.97s-2.73,2.96-1.01,5.22c1.72,2.26,4.96,3.59,7.24,2.97
			C160.44,303.7,160.89,301.36,159.17,299.1z"/>
		<path class="st47" d="M158.75,299.15c-1.2-1.58-3.46-2.5-5.04-2.07c-1.59,0.43-1.9,2.06-0.7,3.64c1.2,1.58,3.46,2.5,5.04,2.07
			C159.63,302.35,159.95,300.73,158.75,299.15z"/>
		<g>
			<path class="st32" d="M155.87,339.05c-2-4.86-1.64-14.3,2.93-15.3c4.58-1,8.08,1.96,8.51,9.51
				C167.47,336.05,159.01,340.31,155.87,339.05z"/>
			<path class="st20" d="M158.79,333.83c-1.01-2.45-0.83-7.19,1.47-7.7c2.3-0.5,4.06,0.99,4.28,4.78
				C164.62,332.32,160.36,334.46,158.79,333.83z"/>
			<path class="st31" d="M154.91,319.82c-0.27-0.85-0.88-1.41-1.36-1.25c-0.48,0.16-0.66,0.97-0.39,1.82
				c0.27,0.85,0.88,1.41,1.36,1.25C155,321.48,155.18,320.67,154.91,319.82z"/>
			<path class="st32" d="M154.06,316.28l-3.01,1.48c-0.25,0.12-0.36,0.43-0.24,0.69l0.46,0.98c0.12,0.26,0.43,0.37,0.68,0.24
				l3.01-1.48c0.25-0.12,0.36-0.43,0.24-0.69l-0.46-0.98C154.62,316.26,154.32,316.15,154.06,316.28z"/>
			<path class="st31" d="M162.17,316.62c-0.27-0.85-0.88-1.41-1.36-1.25c-0.48,0.16-0.66,0.97-0.39,1.82
				c0.27,0.85,0.88,1.41,1.36,1.25C162.27,318.28,162.44,317.47,162.17,316.62z"/>
			<path class="st32" d="M162.02,313.14l-3.18,0.99c-0.27,0.08-0.42,0.37-0.33,0.65l0.31,1.04c0.08,0.28,0.37,0.43,0.63,0.35
				l3.18-0.99c0.27-0.08,0.42-0.37,0.33-0.65l-0.31-1.04C162.57,313.21,162.29,313.06,162.02,313.14z"/>
			<path class="st26" d="M157.76,318.13c1.94,2.43,2.93,4.09,2.48,5.06c-0.28,0.61-0.97,0.78-1.56,0.81l0.01,0.06
				c0,0,2,0.34,2.53-0.61C161.75,322.51,160.35,320.77,157.76,318.13z"/>
			<path class="st49" d="M161.84,328.29c0-1.05-0.54-1.78-1.22-1.64c-0.67,0.14-1.22,1.1-1.22,2.14c0,1.05,0.44,0.87,1.11,0.74
				C161.2,329.39,161.84,329.34,161.84,328.29z"/>
		</g>
		<polygon class="st16" points="167.39,470.77 174.82,469.92 211.23,553.03 212.37,553.03 176.92,465.02 		"/>
		<polygon class="st42" points="177.91,433.67 172.6,434.95 172.56,438.07 177.87,436.79 		"/>
		<path class="st42" d="M178.81,406.37c0-1.01-0.5-1.82-1.12-1.82s-1.12,0.82-1.12,1.82s0.5,1.82,1.12,1.82
			S178.81,407.38,178.81,406.37z"/>
		<path class="st21" d="M159.31,307.37c-5.17-6.85-18.92,7.11-18.16,9.57c0.83,2.69,2.47,5.92,4.39,9.07
			c3.48-10.42,11.2-14.14,16.67-13.88C161.3,310.35,160.33,308.72,159.31,307.37z"/>
		<path class="st32" d="M146.01,332.98l-7.58-12.01c0,0,3.36-6.79,6.86-9.44l3.22,13.8l-1.43,3.07l-0.86,1.29L146.01,332.98z"/>
		<path class="st42" d="M144.62,314.22c5.74-6.15,13.89-9.79,18.22-8.13c0.48,0.18,0.88,0.43,1.22,0.72
			c0.19-1.17-0.99-2.41-2.1-2.84c-4.33-1.66-13.18,2.19-18.92,8.34c-5.1,5.47-6.59,12.79-3.23,13.93
			C138.64,323.46,140.36,318.79,144.62,314.22z"/>
		<path class="st20" d="M147.66,324.51c-0.99-1.96-2.67-3.1-3.74-2.56c-1.07,0.55-1.13,2.57-0.14,4.53s2.67,3.1,3.74,2.56
			C148.59,328.49,148.66,326.46,147.66,324.51z"/>
		<path class="st26" d="M146.96,324.86c-0.64-1.25-1.7-1.98-2.39-1.63c-0.68,0.35-0.72,1.65-0.09,2.9c0.64,1.25,1.7,1.98,2.39,1.63
			C147.56,327.41,147.6,326.11,146.96,324.86z"/>
		<path class="st20" d="M147.36,325.17c-0.48-0.93-1.27-1.48-1.78-1.22c-0.51,0.26-0.54,1.23-0.06,2.16
			c0.48,0.93,1.27,1.48,1.78,1.22C147.81,327.07,147.84,326.1,147.36,325.17z"/>
		<path class="st42" d="M157.56,299.88c-0.85-1.12-2.46-1.78-3.59-1.47s-1.35,1.47-0.5,2.59c0.85,1.12,2.46,1.78,3.59,1.47
			C158.18,302.16,158.41,301,157.56,299.88z"/>
		<path class="st20" d="M124.99,448.07c1.72,7.43,8.58,11.15,8.58,11.15l3.5-8.01c0,0,3.07,3.57,3.5,8.01
			c0.43,4.43,3.29,5.58,4.43,4.15c1.14-1.43-0.21-13.51-1.5-16.51c-1.29-3-9.37-9.08-9.37-9.08L124.99,448.07z"/>
		<polygon class="st39" points="126.42,451.89 123.47,447.5 135.67,437.4 139.38,441.97 		"/>
		<path class="st40" d="M124.28,449.22c-10.15-4.58-34.98-21.94-30.46-46.7c4.83-26.45,26.2,0.9,29.75,7.81
			c2.17,4.22,15.92,27.45,15.92,27.45L124.28,449.22z"/>
		<path class="st41" d="M105.9,428.4c-6-6.3-10.34-13.11-12.62-19.22c0.47,21.19,21.78,35.89,31,40.04l6.8-5.29
			C123.67,442.7,114.21,437.12,105.9,428.4z"/>
		<path class="st42" d="M210.78,554.07h9.91c0,0-8.01-5.34-9.15-4.1C210.4,551.21,210.78,554.07,210.78,554.07z"/>
		<path class="st42" d="M139.99,554.07h-9.91c0,0,8.01-5.34,9.15-4.1C140.37,551.21,139.99,554.07,139.99,554.07z"/>
		<path class="st20" d="M243.02,283.35c-0.95-1.04-2.6-0.99-3.48,0.12c-0.8,1-1.59,2.07-1.68,2.5c-0.2,0.93,1.43,3.91,2.29,3.52
			c0.52-0.23,1.92-1.88,2.96-3.16C243.82,285.45,243.78,284.18,243.02,283.35L243.02,283.35z"/>
		<path class="st20" d="M235.71,281.1c-0.27,0.89,1.85,3.08,2.69,2.79c0.54-0.18,2.14-1.82,3.24-3c0.59-0.64,0.52-1.64-0.16-2.18
			l-1.14-0.91c-0.6-0.48-1.46-0.42-2,0.13C237.34,278.97,235.88,280.55,235.71,281.1z"/>
	</g>
	<g>
		<ellipse class="st50" cx="390.56" cy="406.33" rx="25.36" ry="2"/>
		
			<ellipse transform="matrix(0.0116 -0.9999 0.9999 0.0116 -11.6029 800.3561)" class="st51" cx="399.07" cy="406.05" rx="2" ry="24.72"/>
		<path class="st21" d="M411.84,359.49c1.61-1.32,4.86-4.93,5.58-4.75c0.72,0.18,2.25,3.68,1.93,4.18c-0.32,0.5-6.47,3.47-6.47,3.47
			L411.84,359.49z"/>
		<path class="st25" d="M349.26,318.85c-3.01-2.85-11.01-2.63-17.86,0.51c-6.85,3.13-9.96,7.99-6.95,10.84
			c3.01,2.85,11.01,2.63,17.86-0.51C349.16,326.56,352.27,321.7,349.26,318.85z"/>
		<path class="st14" d="M347.99,349.66c17.59,12.15,40.32,33.6,40.32,33.6s-8.15,15.01-12.3,15.87c-4.15,0.86-32.74-8.01-32.74-8.01
			L347.99,349.66z"/>
		<path class="st52" d="M383.79,379.09c-0.18,0.37-0.26,0.93-0.66,1.01c-14.41,3.16-25.99-21-31.14-25.43l-8.72,36.46
			c0,0,28.6,8.87,32.74,8.01c4.15-0.86,12.3-15.87,12.3-15.87S386.61,381.66,383.79,379.09z"/>
		<path class="st37" d="M372.13,368.94c0,0-17.77,20.71-8.9,34.51c0,0,8.97-2.25,12.42-5.97l1.37-26.52
			C375.4,369.35,373.39,368.82,372.13,368.94z"/>
		<path class="st30" d="M367.72,375.03c-4.59,7.18-10.35,19.31-4.49,28.43c0,0,8.97-2.25,12.42-5.97l0.99-19.07
			C373.14,378.04,370.03,376.81,367.72,375.03z"/>
		<path class="st53" d="M347.66,416.34c1.72-10.56,6.77-39.8,6.77-39.8c2.41-10.87-0.16-24.13-10.07-29.21
			c-13.26-6.79-28.39-5.94-39.98,1.52c-15.04,9.68-24.02,39.27-28.85,65.97c-3.5,19.37-6.76,69.78,2.25,137.27h0.93
			c9.2-29.84,20.74-57.82,29.96-77.6h3.13l36.91,77.6h0.86C344.99,501.38,341.39,454.75,347.66,416.34z"/>
		<polygon class="st54" points="312.11,476.1 300.86,474.2 314.39,473.44 349.57,552.09 348.71,552.09 		"/>
		<path class="st54" d="M279.5,535.12c0-86.23,40.32-118.97,69.44-126.46c2.17-12.9,5.49-32.12,5.49-32.12
			c2.41-10.87-0.16-24.13-10.07-29.21c-13.26-6.79-28.39-5.94-39.98,1.52c-15.04,9.68-24.02,39.27-28.85,65.97
			c-3.5,19.37-6.76,69.78,2.25,137.27h0.93c0.38-1.23,0.77-2.46,1.16-3.68C279.64,544.15,279.5,539.74,279.5,535.12z"/>
		<path class="st30" d="M348.02,554.07h9.15c0,0-6.86-3.86-8.08-4.15C347.88,549.63,348.02,554.07,348.02,554.07z"/>
		<rect x="365.2" y="406.43" class="st55" width="132.7" height="19.13"/>
		<rect x="365.2" y="424.78" class="st55" width="132.7" height="19.13"/>
		<rect x="365.2" y="443.13" class="st55" width="132.7" height="19.13"/>
		<rect x="351.85" y="461.47" class="st55" width="146.04" height="19.13"/>
		<rect x="351.85" y="479.82" class="st55" width="146.04" height="19.13"/>
		<rect x="336.6" y="498.17" class="st55" width="161.29" height="19.13"/>
		<rect x="321.73" y="516.52" class="st55" width="176.17" height="19.13"/>
		<rect x="305.72" y="534.87" class="st55" width="192.18" height="19.13"/>
		<path class="st52" d="M317.73,358.19c-3.69-5.99-12.22-9.42-12.35-9.34c-15.04,9.68-24.02,39.27-28.84,65.96
			c0,0.02-0.01,0.03-0.01,0.05c-0.59,3.25,1.63,6.33,4.89,6.86c9.3,1.49,18.92,2.7,20.53,2.24
			C304.62,423.2,329.93,378.02,317.73,358.19z"/>
		<path class="st14" d="M311.34,345.32c14.73,8.15,22.93,22.64,19.07,37.65h17.3c0,0,5.37-15.5,1.7-28.08
			c-1.27-4.35-5.37-8.24-9.56-9.96C325.88,339.22,311.34,345.32,311.34,345.32z"/>
		<path class="st56" d="M339.84,344.94c-9.8-4.02-19.88-2.21-25.02-0.77c7.57,7.34,21.08,14.44,27.15,13.78
			c4.88-0.53,5.74-4.6,2.78-9.92C343.26,346.72,341.56,345.65,339.84,344.94z"/>
		<path class="st26" d="M323.71,342.63l4.79-14.47l11.51,11.32l-0.45,5.93C339.56,345.42,332.03,352.85,323.71,342.63z"/>
		<path class="st30" d="M338.79,351.85l-4.65-4.04c0,0,4.69-2.3,5.44-5.26C340.82,344.7,341.26,347.35,338.79,351.85z"/>
		<path class="st14" d="M323.58,328.76c0.33-7.47,20.13-15.35,26.61-8.43c0,0-4.69-17.94-19.09-12.38
			C318.14,312.95,323.58,328.76,323.58,328.76z"/>
		<path class="st35" d="M332.23,307.56c-0.38,0.12-0.75,0.24-1.14,0.39c-12.95,5-7.51,20.81-7.51,20.81
			c0.19-4.31,6.86-8.75,13.71-10.41C332.85,315.24,330.66,310.67,332.23,307.56z"/>
		<path class="st20" d="M328.19,322.28c-0.7,7.43-0.98,18.57,0.81,20.5c1.79,1.93,9.98,5.16,13.06,3.17
			c2.43-1.57,6.72-20.3,5.22-25.81C345.26,312.72,328.4,319.99,328.19,322.28z"/>
		<path class="st21" d="M341.98,322.7c1.92-0.25,3.81-0.2,5.6,0.1c-0.02-1.06-0.12-1.97-0.31-2.66c-2.02-7.42-18.87-0.14-19.09,2.14
			c-0.31,3.26-0.53,7.23-0.54,10.83C329.96,327.72,335.31,323.57,341.98,322.7z"/>
		<path class="st57" d="M337.32,317.35c4.34,4.19,9.91,3.91,11.63,2.34C348.57,315.49,337.32,317.35,337.32,317.35z"/>
		<path class="st57" d="M326.74,322.59c-0.49,3.68-0.76,7.53-0.48,12.34l3.36-5.51l1.5,0.14l2.91-11.51
			C334.03,318.06,327.07,320.08,326.74,322.59z"/>
		<path class="st20" d="M330.2,328.41c0-2.23-0.82-4.04-1.82-4.04c-1.01,0-1.82,1.81-1.82,4.04c0,2.23,0.82,4.04,1.82,4.04
			C329.39,332.45,330.2,330.65,330.2,328.41z"/>
		<path class="st26" d="M329.36,328.56c0-1.37-0.5-2.49-1.12-2.49c-0.62,0-1.12,1.11-1.12,2.49s0.5,2.49,1.12,2.49
			C328.86,331.05,329.36,329.93,329.36,328.56z"/>
		<path class="st20" d="M329.53,328.74c0-0.91-0.33-1.65-0.74-1.65c-0.41,0-0.74,0.74-0.74,1.65c0,0.91,0.33,1.65,0.74,1.65
			C329.2,330.39,329.53,329.65,329.53,328.74z"/>
		<path class="st28" d="M331.78,320.87c6.85-3.13,14.84-3.36,17.86-0.51c0.33,0.32,0.58,0.66,0.76,1.02c0.56-0.91,0-2.33-0.77-3.07
			c-3.01-2.85-11.66-2.69-18.51,0.44c-6.09,2.79-9.82,8.33-7.43,10.42C323.67,326.48,326.69,323.2,331.78,320.87z"/>
		<path class="st28" d="M349.2,313.45c-0.99-2.43-2.9-4.35-4.27-4.29c-1.37,0.06-1.68,2.08-0.69,4.51c0.99,2.43,2.9,4.35,4.27,4.29
			C349.88,317.9,350.19,315.88,349.2,313.45z"/>
		<path class="st58" d="M348.95,313.4c-0.69-1.69-2.02-3.03-2.98-2.99c-0.95,0.04-1.17,1.45-0.48,3.14
			c0.69,1.69,2.02,3.03,2.98,2.99C349.42,316.5,349.64,315.09,348.95,313.4z"/>
		<path class="st14" d="M347.95,313.53c-0.45-1.1-1.31-1.96-1.93-1.94c-0.62,0.03-0.76,0.94-0.31,2.03c0.45,1.1,1.31,1.96,1.93,1.94
			C348.25,315.54,348.39,314.63,347.95,313.53z"/>
		<path class="st20" d="M375.73,398.85c-6.29-14.87,0.91-28.07,0.91-28.07s30.27-9.96,35.84-11.53l1.29,2
			C413.77,361.24,398.76,398.42,375.73,398.85z"/>
		<path class="st21" d="M392.37,376.02c-6.84,2.07-13.33,2.63-18.25,1.87c-1.24,5.25-1.82,12.85,1.61,20.96
			c23.02-0.43,38.04-37.61,38.04-37.61l-0.09-0.13C411.72,366.61,403.28,372.72,392.37,376.02z"/>
		<path class="st30" d="M332.5,353.57c-6.65-3.4-10.56-8.41-11.55-10.87c1.21-1.01,1.78-1.33,3.36-1.29c0,0,3.38,4.89,10.75,6.17
			L332.5,353.57z"/>
		
			<rect x="408.83" y="340.76" transform="matrix(0.8865 -0.4627 0.4627 0.8865 -113.8172 228.8378)" class="st9" width="1.53" height="11.36"/>
		<polygon class="st59" points="411.76,348.94 407.64,341.05 406.29,341.76 410.25,349.35 		"/>
		<path class="st60" d="M413.04,349.74l-2.7,1.41c-0.27,0.14-0.38,0.48-0.24,0.75l6.6,12.64c0.26,0.5,0.87,0.69,1.37,0.43l1.9-0.99
			c0.5-0.26,0.69-0.87,0.43-1.37l-6.6-12.64C413.65,349.71,413.31,349.6,413.04,349.74z"/>
		<path class="st61" d="M395.15,319.13L395.15,319.13l4.08,27.95c0,0,6.4,1.67,10.66-0.63c4.26-2.3,6.38-8.56,6.38-8.56
			L395.15,319.13z"/>
		<g>
			<rect x="379.89" y="406.43" class="st62" width="119.53" height="19.13"/>
			<rect x="379.89" y="424.78" class="st62" width="119.53" height="19.13"/>
			<rect x="379.89" y="443.13" class="st62" width="119.53" height="19.13"/>
			<rect x="367.87" y="461.47" class="st62" width="131.55" height="19.13"/>
			<rect x="367.87" y="479.82" class="st62" width="131.55" height="19.13"/>
			<rect x="354.13" y="498.17" class="st62" width="145.29" height="19.13"/>
			<rect x="340.73" y="516.52" class="st62" width="158.69" height="19.13"/>
			<rect x="326.31" y="534.87" class="st62" width="173.11" height="19.13"/>
			<g>
				<rect x="362.72" y="535.88" class="st63" width="33.94" height="17.92"/>
			</g>
			<g>
				<rect x="465.48" y="535.88" class="st63" width="33.94" height="17.92"/>
			</g>
			<g>
				<rect x="411.15" y="517.01" class="st63" width="33.94" height="17.92"/>
			</g>
			<g>
				<rect x="388.27" y="479.83" class="st63" width="33.94" height="17.92"/>
			</g>
			<g>
				<rect x="470.06" y="461.34" class="st63" width="28.79" height="17.92"/>
			</g>
			<g>
				<rect x="412.1" y="443.8" class="st63" width="35.08" height="17.92"/>
			</g>
			<g>
				<rect x="445.66" y="406.43" class="st63" width="35.08" height="17.92"/>
			</g>
		</g>
		<rect x="324.54" y="534.29" class="st55" width="174.88" height="2.26"/>
		
			<rect x="455.59" y="543.72" transform="matrix(-5.463645e-06 1 -1 -5.463645e-06 1009.593 80.1011)" class="st55" width="18.3" height="2.26"/>
		
			<rect x="421.71" y="543.72" transform="matrix(-5.463645e-06 1 -1 -5.463645e-06 975.7039 113.9901)" class="st55" width="18.3" height="2.26"/>
		
			<rect x="387.82" y="543.72" transform="matrix(-5.463645e-06 1 -1 -5.463645e-06 941.8148 147.879)" class="st55" width="18.3" height="2.26"/>
		
			<rect x="353.93" y="543.72" transform="matrix(-5.463645e-06 1 -1 -5.463645e-06 907.9257 181.7679)" class="st55" width="18.3" height="2.26"/>
		
			<rect x="461.03" y="507.11" transform="matrix(-1.157780e-05 1 -1 -1.157780e-05 978.4239 38.0646)" class="st55" width="18.3" height="2.26"/>
		
			<rect x="427.14" y="507.11" transform="matrix(-6.067385e-06 1 -1 -6.067385e-06 944.5322 71.9508)" class="st55" width="18.3" height="2.26"/>
		
			<rect x="393.25" y="507.11" transform="matrix(-4.906679e-06 1 -1 -4.906679e-06 910.6426 105.8391)" class="st55" width="18.3" height="2.26"/>
		
			<rect x="359.36" y="507.11" transform="matrix(-4.953454e-06 1 -1 -4.953454e-06 876.7534 139.7281)" class="st55" width="18.3" height="2.26"/>
		
			<rect x="367.08" y="525.03" transform="matrix(-5.463675e-06 1 -1 -5.463675e-06 902.3968 149.9284)" class="st55" width="18.3" height="2.26"/>
		
			<rect x="402.16" y="525.03" transform="matrix(-5.463675e-06 1 -1 -5.463675e-06 937.4775 114.8479)" class="st55" width="18.3" height="2.26"/>
		
			<rect x="437.24" y="525.03" transform="matrix(-5.463675e-06 1 -1 -5.463675e-06 972.5582 79.7674)" class="st55" width="18.3" height="2.26"/>
		
			<rect x="472.32" y="525.03" transform="matrix(-5.463675e-06 1 -1 -5.463675e-06 1007.639 44.6868)" class="st55" width="18.3" height="2.26"/>
		
			<rect x="378.81" y="488.14" transform="matrix(-1.146432e-05 1 -1 -1.146432e-05 877.2327 101.3142)" class="st55" width="18.3" height="2.26"/>
		
			<rect x="413.89" y="488.14" transform="matrix(-5.463645e-06 1 -1 -5.463645e-06 912.3111 66.2307)" class="st55" width="18.3" height="2.26"/>
		
			<rect x="448.97" y="488.14" transform="matrix(-6.097515e-06 1 -1 -6.097515e-06 947.3921 31.1505)" class="st55" width="18.3" height="2.26"/>
		
			<rect x="402.83" y="451.82" transform="matrix(-5.463675e-06 1 -1 -5.463675e-06 864.9333 40.9687)" class="st55" width="18.3" height="2.26"/>
		
			<rect x="437.91" y="451.82" transform="matrix(-6.082286e-06 1 -1 -6.082286e-06 900.0143 5.8885)" class="st55" width="18.3" height="2.26"/>
		
			<rect x="472.99" y="451.82" transform="matrix(-5.463675e-06 1 -1 -5.463675e-06 935.0948 -29.1924)" class="st55" width="18.3" height="2.26"/>
		
			<rect x="401.4" y="414.45" transform="matrix(-5.463645e-06 1 -1 -5.463645e-06 826.1349 5.03)" class="st55" width="18.3" height="2.26"/>
		
			<rect x="436.48" y="414.45" transform="matrix(-4.847011e-06 1 -1 -4.847011e-06 861.2153 -30.0508)" class="st55" width="18.3" height="2.26"/>
		
			<rect x="471.56" y="414.45" transform="matrix(-1.092729e-05 1 -1 -1.092729e-05 896.299 -65.1288)" class="st55" width="18.3" height="2.26"/>
		
			<rect x="390.82" y="433.23" transform="matrix(-5.463645e-06 1 -1 -5.463645e-06 834.3331 34.3911)" class="st55" width="18.3" height="2.26"/>
		
			<rect x="425.9" y="433.23" transform="matrix(-1.092729e-05 1 -1 -1.092729e-05 869.4162 -0.6871)" class="st55" width="18.3" height="2.26"/>
		
			<rect x="460.98" y="433.23" transform="matrix(-5.463645e-06 1 -1 -5.463645e-06 904.4946 -35.77)" class="st55" width="18.3" height="2.26"/>
		
			<rect x="390.82" y="469.55" transform="matrix(-5.463645e-06 1 -1 -5.463645e-06 870.6529 70.7111)" class="st55" width="18.3" height="2.26"/>
		
			<rect x="425.9" y="469.55" transform="matrix(-1.092729e-05 1 -1 -1.092729e-05 905.736 35.6331)" class="st55" width="18.3" height="2.26"/>
		
			<rect x="460.98" y="469.55" transform="matrix(-5.463645e-06 1 -1 -5.463645e-06 940.8143 0.55)" class="st55" width="18.3" height="2.26"/>
		
			<rect x="476.33" y="488.14" transform="matrix(-6.135277e-06 1 -1 -6.135277e-06 974.7513 3.7915)" class="st55" width="18.3" height="2.26"/>
		<rect x="340.08" y="515.99" class="st55" width="159.34" height="2.26"/>
		<rect x="354.09" y="497.26" class="st55" width="145.33" height="2.26"/>
		<rect x="365.96" y="460.65" class="st55" width="133.46" height="2.26"/>
		<rect x="375.88" y="442.73" class="st55" width="123.54" height="2.26"/>
		<rect x="375.88" y="424.43" class="st55" width="123.54" height="2.26"/>
		<rect x="365.96" y="478.58" class="st55" width="133.46" height="2.26"/>
		<path class="st55" d="M376.73,407.72c7.29,13.08,19.07,22.16,30.15,22.16c9.68,0,18.57-6.17,25.51-16.45
			c5.06,3.42,10.66,5.34,16.57,5.34c8.24,0,17.47-5.85,23.85-12.19C464.96,405.86,376.73,403.14,376.73,407.72z"/>
		<path class="st61" d="M380.25,406.43c7,13.08,16.63,21.16,27.28,21.16c9.3,0,17.83-6.17,24.5-16.45
			c4.86,3.42,10.24,5.34,15.92,5.34c7.91,0,15.26-3.7,21.39-10.04C469.34,401.85,380.25,401.85,380.25,406.43z"/>
		
			<rect x="383.5" y="384.38" transform="matrix(0.8493 -0.5278 0.5278 0.8493 -147.0467 270.7276)" class="st55" width="34.46" height="17.16"/>
		
			<rect x="389.77" y="381.64" transform="matrix(0.8493 -0.5278 0.5278 0.8493 -144.9403 272.6396)" class="st62" width="30.73" height="17.16"/>
		
			<rect x="397.12" y="388.55" transform="matrix(0.8494 -0.5278 0.5278 0.8494 -148.1962 269.6113)" class="st55" width="2.27" height="11.78"/>
		
			<rect x="404.77" y="383.69" transform="matrix(0.8494 -0.5278 0.5278 0.8494 -144.4779 272.9166)" class="st55" width="2.27" height="11.78"/>
		
			<rect x="412.42" y="378.83" transform="matrix(0.8494 -0.5278 0.5278 0.8494 -140.7597 276.222)" class="st55" width="2.27" height="11.78"/>
		<path class="st14" d="M306.24,349.23c-9.73-2.71-17.87,35.89-1.14,44.04c7.67,3.74,27.41,8.29,32.74,8.67
			c4.27,0.31,13.16-23.97,13.16-23.97S319.59,352.95,306.24,349.23z"/>
		<path class="st52" d="M342.99,371.92c0,0-20.35,11.57-19.8,27.15c0,0,8.43,2.51,13.05,1.16l14.57-20.64
			C349.61,376.75,346.33,373.92,342.99,371.92z"/>
		<path class="st52" d="M349.76,377c-0.21,0.71-0.51,1.38-0.93,1.98c-4.51,6.64-19.86,4.07-34.28-5.74
			c-7.4-5.03-13.11-10.99-16.31-16.5c-4.39,11.1-5.74,30.95,5.71,36.53c7.67,3.74,28.55,8.29,33.89,8.67
			c4.27,0.31,13.16-23.97,13.16-23.97S350.55,377.62,349.76,377z"/>
		<path class="st37" d="M346.8,371.54c0,0-22.19,12.49-21.62,28.88c0,0,8.87,2.65,13.73,1.22l15.32-21.71
			C352.98,376.94,349.94,374.23,346.8,371.54z"/>
		<path class="st30" d="M346.56,384.55c-5.1,0-9.78-0.77-13.4-2.06c-4.45,4.87-8.22,11.05-7.98,17.93c0,0,8.87,2.65,13.73,1.22
			l12.21-17.3C349.66,384.47,348.13,384.55,346.56,384.55z"/>
		<path class="st20" d="M338.32,401.4c-2.22-14.69,13.54-25.15,13.54-25.15s29.23,7.87,39.2,12.16l-0.57,1.54
			C390.49,389.95,360.68,401.95,338.32,401.4z"/>
		<path class="st21" d="M372.52,390.99c-13.45,0-24.84-2.95-28.77-7.02c-3.46,4.4-6.48,10.44-5.42,17.44
			c22.36,0.55,52.17-11.44,52.17-11.44l0.39-1.06C385.79,390.21,379.43,390.99,372.52,390.99z"/>
		<path class="st30" d="M279.29,554.07h-9.15c0,0,6.86-3.86,8.08-4.15C279.43,549.63,279.29,554.07,279.29,554.07z"/>
		<path class="st20" d="M387.75,387.12c3.72-0.57,9.58-3.72,11.01-2.93c1.43,0.79,6.94,3,6.01,3.93c-0.93,0.93-6.29-1.93-6.29-1.93
			l-0.57,0.36c0,0,5.08,2.29,4.36,3.22c-0.71,0.93-5.51-1.93-5.51-1.93l-0.86,0.43c0,0,4.86,2.79,3.93,3.15
			c-0.93,0.36-7.08-2.22-7.08-2.22l-2.72,0.91l-4.93-0.05L387.75,387.12z"/>
		<path class="st14" d="M413.13,349.98l-2.17,1.13c-0.22,0.11-0.3,0.39-0.19,0.6l5.42,10.39c0.21,0.4,0.7,0.55,1.1,0.34l1.52-0.8
			c0.4-0.21,0.55-0.7,0.34-1.1l-5.42-10.4C413.62,349.95,413.35,349.87,413.13,349.98z"/>
		<path class="st20" d="M417.82,354.84c-0.26-0.35-0.6-0.47-1.34,0.08c-0.74,0.55-1.7,1.43-1.34,1.91c0.35,0.47,1.55-0.09,2.28-0.65
			S418.08,355.19,417.82,354.84z"/>
		<path class="st20" d="M413.8,356.52c-0.39-0.34-0.83-0.4-1.59,0.46c-0.76,0.86-2.12,3.06-1.59,3.53c0.53,0.47,2.24-1.41,3-2.28
			C414.39,357.37,414.19,356.87,413.8,356.52z"/>
		<path class="st20" d="M415.47,359.15c0.38-0.36,0.48-0.78-0.26-1.54c-0.74-0.76-1.88-1.73-2.39-1.24
			c-0.51,0.49,0.3,1.78,1.03,2.54C414.59,359.68,415.1,359.51,415.47,359.15z"/>
		<path class="st20" d="M418.61,356.48c-0.24-0.32-0.55-0.43-1.22,0.07c-0.67,0.5-1.55,1.31-1.22,1.74
			c0.32,0.43,1.41-0.09,2.08-0.59C418.92,357.2,418.85,356.8,418.61,356.48z"/>
		<path class="st20" d="M419.3,358.17c-0.24-0.32-0.55-0.43-1.22,0.07c-0.67,0.5-1.55,1.31-1.22,1.74c0.32,0.43,1.41-0.09,2.08-0.59
			C419.61,358.89,419.54,358.49,419.3,358.17z"/>
		<path class="st64" d="M396.54,328.67l1.73,11.83c2.23,0.19,4.6,0.29,7.06,0.29c3.56,0,6.91-0.22,9.93-0.6c0.66-1.32,1-2.3,1-2.3
			l-10.9-9.68c-0.01,0-0.03,0-0.04,0C402.22,328.21,399.26,328.38,396.54,328.67z"/>
		<path class="st51" d="M431.07,436.31c0-3.24-2.82-7.72-3.65-7.72s-3.65,4.48-3.65,7.72c0,3.24,1.63,5.86,3.65,5.86
			S431.07,439.55,431.07,436.31z"/>
		<path class="st51" d="M416.92,452.15c0-2.62-2.43-6.26-3.15-6.26c-0.72,0-3.15,3.63-3.15,6.26c0,2.62,1.41,4.75,3.15,4.75
			C415.51,456.9,416.92,454.78,416.92,452.15z"/>
		<polygon class="st30" points="325.74,430.79 319.02,430.79 317.91,434.83 324.64,434.83 		"/>
		<g>
			<path class="st31" d="M336.68,329.51c0.2-0.81-0.04-1.55-0.54-1.66c-0.49-0.11-1.05,0.46-1.25,1.26
				c-0.2,0.81,0.04,1.55,0.54,1.66C335.92,330.88,336.48,330.32,336.68,329.51z"/>
			<path class="st32" d="M337.2,325.18l-3.31-0.29c-0.28-0.02-0.52,0.17-0.55,0.44l-0.1,1.01c-0.03,0.27,0.18,0.5,0.46,0.53
				l3.31,0.29c0.28,0.02,0.52-0.17,0.55-0.44l0.1-1.01C337.68,325.45,337.48,325.21,337.2,325.18z"/>
			<path class="st31" d="M344.47,330.49c0.2-0.81-0.04-1.55-0.54-1.66c-0.49-0.11-1.05,0.46-1.25,1.26
				c-0.2,0.81,0.04,1.55,0.54,1.66C343.71,331.87,344.27,331.3,344.47,330.49z"/>
			<path class="st32" d="M346.66,326.73l-3.2-0.76c-0.27-0.06-0.54,0.1-0.61,0.36l-0.26,0.98c-0.07,0.26,0.1,0.52,0.37,0.59
				l3.2,0.76c0.27,0.06,0.54-0.09,0.61-0.36l0.26-0.98C347.09,327.05,346.93,326.79,346.66,326.73z"/>
			<path class="st26" d="M339.95,329.55c0.44,2.88,0.45,4.69-0.42,5.25c-0.54,0.35-1.22,0.15-1.74-0.12l-0.02,0.05
				c0,0,1.53,1.25,2.46,0.75C341.16,334.99,340.83,332.92,339.95,329.55z"/>
			<polygon class="st65" points="341.22,339.49 341.3,339.03 334.43,337.92 334.35,338.41 			"/>
			<path class="st65" d="M339.46,340.33c0.04-0.24-0.66-0.26-1.62-0.41c-0.95-0.15-1.8-0.36-1.83-0.12
				c-0.04,0.24,0.57,0.72,1.52,0.87C338.49,340.82,339.43,340.58,339.46,340.33z"/>
		</g>
	</g>
	<rect x="0" y="552.91" class="st10" width="1000" height="47.09"/>
	<rect x="0" y="578.19" class="st6" width="1000" height="21.81"/>
	<g>
		<ellipse class="st16" cx="633.93" cy="576.85" rx="11.69" ry="15.2"/>
		<ellipse class="st16" cx="787.9" cy="576.85" rx="11.69" ry="15.2"/>
		<ellipse class="st16" cx="941.87" cy="576.85" rx="11.69" ry="15.2"/>
	</g>
	<g>
		<ellipse class="st16" cx="167.2" cy="576.85" rx="11.69" ry="15.2"/>
		<ellipse class="st16" cx="321.17" cy="576.85" rx="11.69" ry="15.2"/>
		<ellipse class="st16" cx="475.15" cy="576.85" rx="11.69" ry="15.2"/>
	</g>
	<g class="st66">
		<ellipse class="st9" cx="163.62" cy="577.36" rx="6.58" ry="8.56"/>
		<path class="st9" d="M324.29,577.36c0-4.73-2.95-8.56-6.58-8.56c-3.64,0-6.58,3.83-6.58,8.56s2.95,8.56,6.58,8.56
			C321.34,585.92,324.29,582.09,324.29,577.36z"/>
		<ellipse class="st9" cx="471.28" cy="577.36" rx="6.58" ry="8.56"/>
	</g>
	<g class="st66">
		<ellipse class="st9" cx="629.92" cy="577.36" rx="6.58" ry="8.56"/>
		<path class="st9" d="M790.59,577.36c0-4.73-2.95-8.56-6.58-8.56s-6.58,3.83-6.58,8.56c0,4.73,2.95,8.56,6.58,8.56
			C787.64,585.92,790.59,582.09,790.59,577.36z"/>
		<ellipse class="st9" cx="937.58" cy="577.36" rx="6.58" ry="8.56"/>
	</g>
	<rect x="540.49" y="552.91" class="st16" width="23.7" height="47.09"/>
	<rect x="78.87" y="552.91" class="st16" width="23.7" height="47.09"/>
</g>
</svg>
