<?xml version="1.0" encoding="utf-8"?>
<!-- Generator: Adobe Illustrator 24.0.1, SVG Export Plug-In . SVG Version: 6.00 Build 0)  -->
<svg version="1.1" id="Layer_1" xmlns="http://www.w3.org/2000/svg" xmlns:xlink="http://www.w3.org/1999/xlink" x="0px" y="0px"
	 viewBox="0 0 1920 1080" style="enable-background:new 0 0 1920 1080;" xml:space="preserve">
<style type="text/css">
	.st0{fill:#FFFFFF;}
	.st1{fill:#EDEBEC;}
	.st2{fill:#5EA9CC;}
	.st3{fill:#CBE1FD;}
	.st4{fill:#081A3D;}
	.st5{fill:#021430;}
	.st6{fill:#FDA92F;}
	.st7{fill:#F78D00;}
	.st8{fill:#D60F41;}
	.st9{fill:#B8073A;}
	.st10{fill:#FDE0C6;}
	.st11{fill:#8AC4F6;}
	.st12{fill:#FC8961;}
	.st13{fill:#F16D48;}
	.st14{fill:#5E0A0A;}
	.st15{fill:#F07F1A;}
	.st16{fill:#83C6DE;}
</style>
<g>
	<path class="st0" d="M1868.23,44.13v1011.28l-307.65-0.08l-708.48-0.3c0,0-1.4-1.23-3.91-3.64c-0.86-0.82-1.85-1.78-2.95-2.88
		c-2.29-2.27-5.09-5.12-8.29-8.55c-1.25-1.34-2.56-2.76-3.93-4.27c-12.64-13.94-29.94-35.13-46.92-62.67
		c-48.54-78.67-94.43-209.13-20.96-370.04c79.89-174.94,297.49-234.17,412.36-301.32c5.83-3.41,11.64-6.97,17.39-10.68
		c3.15-2.03,6.28-4.1,9.4-6.21c39.12-26.55,75.7-60.11,105.85-101.42c17.29-23.68,37.7-44.63,60.6-62.91
		c14.28-11.39,29.53-21.75,45.61-31.1c10.27-5.97,20.86-11.52,31.77-16.66c28.99-13.68,60.13-24.48,92.7-32.49
		c3.16-0.78,6.34-1.53,9.53-2.26c6.35-1.45,12.73-2.78,19.16-4.01c1.1-0.22,2.2-0.43,3.31-0.64c4.51-0.84,9.05-1.63,13.59-2.36
		c0.68-0.12,1.34-0.22,2.02-0.33c6.4-1.02,12.85-1.95,19.33-2.76h0.01c9.54-1.21,19.16-2.22,28.83-3c2.51-0.21,5.02-0.4,7.53-0.57
		c5.75-0.41,11.52-0.74,17.3-1c3.43-0.15,6.86-0.28,10.3-0.38c2.19-0.06,4.38-0.12,6.57-0.16c6.73-0.13,13.47-0.16,20.22-0.1
		C1755.16,23.14,1812.71,30.44,1868.23,44.13z"/>
	<g>
		<path class="st1" d="M994.04,1023.04h-18.63c-8.52,0-15.43-6.91-15.43-15.43V753.02c0-8.52,6.91-15.43,15.43-15.43h18.63
			c8.52,0,15.43,6.91,15.43,15.43v254.59C1009.47,1016.13,1002.56,1023.04,994.04,1023.04z"/>
		<path class="st1" d="M1061.49,1023.04h-18.63c-8.52,0-15.43-6.91-15.43-15.43V753.02c0-8.52,6.91-15.43,15.43-15.43h18.63
			c8.52,0,15.43,6.91,15.43,15.43v254.59C1076.93,1016.13,1070.02,1023.04,1061.49,1023.04z"/>
		<path class="st1" d="M1128.95,1023.04h-18.63c-8.52,0-15.43-6.91-15.43-15.43V753.02c0-8.52,6.91-15.43,15.43-15.43h18.63
			c8.52,0,15.43,6.91,15.43,15.43v254.59C1144.38,1016.13,1137.47,1023.04,1128.95,1023.04z"/>
		<path class="st1" d="M1196.41,1023.04h-18.63c-8.52,0-15.43-6.91-15.43-15.43V753.02c0-8.52,6.91-15.43,15.43-15.43h18.63
			c8.52,0,15.43,6.91,15.43,15.43v254.59C1211.84,1016.13,1204.93,1023.04,1196.41,1023.04z"/>
		<path class="st1" d="M1263.86,1023.04h-18.63c-8.52,0-15.43-6.91-15.43-15.43V753.02c0-8.52,6.91-15.43,15.43-15.43h18.63
			c8.52,0,15.43,6.91,15.43,15.43v254.59C1279.29,1016.13,1272.38,1023.04,1263.86,1023.04z"/>
		<path class="st1" d="M1331.32,1023.04h-18.63c-8.52,0-15.43-6.91-15.43-15.43V753.02c0-8.52,6.91-15.43,15.43-15.43h18.63
			c8.52,0,15.43,6.91,15.43,15.43v254.59C1346.75,1016.13,1339.84,1023.04,1331.32,1023.04z"/>
	</g>
	<g>
		<g>
			<path class="st1" d="M1678.27,22.73V646.3h-483.39V290.98c3.14-2.03,6.28-4.09,9.39-6.21c39.12-26.55,75.7-60.11,105.85-101.42
				c17.29-23.68,37.7-44.63,60.59-62.91c14.28-11.39,29.53-21.75,45.61-31.1c10.26-5.97,20.86-11.51,31.77-16.66
				c29-13.68,60.13-24.48,92.69-32.49c3.17-0.78,6.34-1.53,9.53-2.26c7.42-1.69,14.91-3.23,22.46-4.64
				c5.18-0.97,10.38-1.86,15.61-2.7c6.4-1.02,12.85-1.95,19.33-2.76h0.01c17.66-2.24,35.58-3.76,53.66-4.56
				c3.43-0.15,6.86-0.28,10.3-0.38C1673.89,22.83,1676.08,22.77,1678.27,22.73z"/>
			<g>
				<path class="st2" d="M1678.26,22.73c-2.19,0.04-4.37,0.1-6.57,0.16v613.43h-467.42V284.76c-3.11,2.12-6.25,4.18-9.4,6.21
					c-5.75,3.71-11.56,7.27-17.39,10.68v359.87h521.01V22.63C1691.74,22.57,1684.99,22.6,1678.26,22.73z"/>
			</g>
			<path class="st2" d="M1727.53,662.8h-577.3v-5.04c0-10.12,8.21-18.33,18.33-18.33h541.08c9.88,0,17.89,8.01,17.89,17.89V662.8z"
				/>
			<path class="st2" d="M1448.09,72.68v571.45h-31.77V89.33C1426.59,83.37,1437.19,77.82,1448.09,72.68z"/>
			<path class="st0" d="M1437.41,355.95h-2.55c-1.72,0-3.13-1.22-3.18-2.75l-1.12-32.12c-0.06-1.6,1.38-2.93,3.18-2.93h4.9
				c1.8,0,3.24,1.33,3.18,2.93l-1.22,32.12C1440.53,354.73,1439.13,355.95,1437.41,355.95z"/>
		</g>
		<g>
			<polygon class="st3" points="1630.05,343.39 1671.84,348.4 1628.48,636.5 1586.69,631.48 			"/>
			<polygon class="st4" points="1672.22,345.85 1671.46,350.95 1629.67,345.93 1630.44,340.84 			"/>
			<path class="st4" d="M1610.29,616.03c-4.15-0.5-7.06-3.91-6.5-7.61c0.56-3.7,4.37-6.3,8.52-5.81c4.15,0.5,7.06,3.91,6.5,7.61
				C1618.26,613.92,1614.44,616.52,1610.29,616.03z"/>
			<path class="st4" d="M1645.85,379.73c-4.15-0.5-7.06-3.9-6.5-7.61c0.56-3.7,4.37-6.31,8.52-5.81c4.15,0.5,7.06,3.91,6.5,7.61
				C1653.82,377.63,1650,380.23,1645.85,379.73z"/>
			<path class="st4" d="M1611.06,469.55c9.2,2.72,15.22,10.98,13.89,19.88c-1.34,8.89-9.59,15.43-19.27,15.89L1611.06,469.55z"/>
		</g>
		<g>
			<path class="st5" d="M1261.56,636.46h124.62c8.85,0,16.09-7.24,16.09-16.09v-78.65c0-8.85-7.24-16.09-16.09-16.09h-124.63
				c-8.85,0-16.09,7.24-16.09,16.09v78.65C1245.47,629.22,1252.71,636.46,1261.56,636.46z"/>
			<path class="st4" d="M1367.98,526.11c0,0-32.49-18.21-63.58-18.41c-20.25-0.13-43.32,17.63-44.71,17.83
				c-3.52,0.49,11.73,0.65,11.73,0.65s22.85-11.87,33.12-12.15c12.38-0.34,43.88,13.13,43.88,13.13L1367.98,526.11z"/>
			<path class="st4" d="M1246.32,636.46h124.63c8.85,0,16.09-7.24,16.09-16.09v-78.65c0-8.85-7.24-16.09-16.09-16.09h-124.63
				c-8.85,0-16.09,7.24-16.09,16.09v78.65C1230.22,629.22,1237.46,636.46,1246.32,636.46z"/>
		</g>
	</g>
	<g>
		<g>
			<polygon class="st6" points="1373.84,1049.53 1223.08,1049.53 1217.44,924.28 1378.95,924.28 			"/>
			<path class="st7" d="M1379.48,929.13h-164.97c-1.42,0-2.57-1.15-2.57-2.57v-0.42c0-1.42,1.15-2.57,2.57-2.57h164.97
				c1.42,0,2.57,1.15,2.57,2.57v0.42C1382.05,927.98,1380.9,929.13,1379.48,929.13z"/>
			<rect x="1234.28" y="966.34" class="st7" width="127.49" height="34.36"/>
		</g>
		<g>
			<polygon class="st8" points="1464.65,1049.53 1334.99,1049.53 1330.15,890.98 1469.05,890.98 			"/>
			<rect x="1325.42" y="886.8" class="st9" width="146.28" height="12.18"/>
			<rect x="1344.63" y="944.22" class="st10" width="109.64" height="43.5"/>
		</g>
	</g>
	<g>
		<g>
			<g>
				<path class="st4" d="M1494.21,526.85l-12.37-31.21c-1.14-2.89,0.28-6.18,3.17-7.33l0.15-0.06c2.89-1.14,6.18,0.28,7.33,3.17
					l12.37,31.21c1.14,2.89-0.28,6.18-3.17,7.33l-0.15,0.06C1498.65,531.16,1495.35,529.74,1494.21,526.85z"/>
				<path class="st4" d="M1459.94,481.04l38.51-15.26c3.17-1.26,6.8,0.31,8.06,3.48l3.52,8.87c1.26,3.17-0.31,6.8-3.48,8.06
					l-38.51,15.26c-3.17,1.26-6.8-0.31-8.06-3.48l-3.51-8.87C1455.2,485.92,1456.77,482.3,1459.94,481.04z"/>
				
					<rect x="1451.25" y="457.07" transform="matrix(-0.9297 0.3684 -0.3684 -0.9297 3025.8315 363.9758)" class="st6" width="53.84" height="27.51"/>
				<path class="st0" d="M1450.8,474.29c0,0,5.39,1.73,11.67-2.63c6.28-4.36,3.33-7.83,10.9-6.67s14.11-2.18,15.27-5.26
					c1.15-3.08,13.21-2.44,13.21-2.44l-3.73-9.17l-50.05,19.83L1450.8,474.29z"/>
			</g>
			<path class="st11" d="M1500.96,524.31c0.3,0.76-0.07,1.62-0.83,1.92c-0.76,0.3-1.62-0.07-1.92-0.83
				c-0.3-0.76,0.07-1.62,0.83-1.92C1499.79,523.18,1500.65,523.55,1500.96,524.31z"/>
		</g>
		<path class="st12" d="M1479.95,378.77c0,0-8.36-17.37-15.15-22.76c-6.78-5.39-24.9-4.08-25.59-2.7
			c-2.15,4.27,14.53,10.92,16.46,14.84c1.92,3.92-6.07,3.53,0.07,10.34c5.19,5.75,17.6,11.24,17.6,11.24L1479.95,378.77z"/>
		<path class="st5" d="M1472.73,376.79c4.4-6.84,5.71-7.2,5.71-7.2s72.71,29,79.65,31.42c6.94,2.42,110.67,8.52,110.67,8.52
			l31.31,68.81c0,0-138.24-31.53-155.7-38.01c-28.85-10.71-75.14-52.65-75.14-52.65S1469.27,382.16,1472.73,376.79z"/>
		<path class="st5" d="M1653.35,1020.17c0,0-1.58,25.52-6.32,31.52h-72.93c0.46-2.55,2.53-8.83,11.64-10.42
			c11.52-2,30.81-10.1,37.79-25.33C1630.88,999.92,1653.35,1020.17,1653.35,1020.17z"/>
		<path class="st5" d="M1782.78,1016.61c0,0,4.54,33.15-1.7,33.72c-0.83,0.08-27.74,0.06-38.27,0c-13.11-0.08-34.06,0.08-34.06,0.08
			c-2.71,0.11-4.48-2.82-3.1-5.16c1.51-2.56,4.4-5.3,9.91-6.36c11.48-2.21,30.63-10.65,37.34-26
			C1759.95,996.76,1782.78,1016.61,1782.78,1016.61z"/>
		<path class="st7" d="M1619.06,680.5c0,0,18.34,64.17,70.9,175.6c52.56,111.43,56.61,162.21,56.61,162.21l36.2-1.7
			c0,0-3.4-132.63-28.23-188.87c-24.83-56.23-29.88-210.11-29.88-210.11L1619.06,680.5z"/>
		<path class="st6" d="M1589.62,625.29c0,0-1.46,99.36,15.73,221.36c17.19,122,11.36,173.78,11.36,173.78l41.17,1.37
			c0,0,24.61-122.04,17.55-183.11c-7.05-61.06,33.69-209.53,33.69-209.53L1589.62,625.29z"/>
		<path class="st12" d="M1670.87,392.77l-19.42,14.38l-28.07-5.91c0.39-2.56,2.24-13.17,3.93-22.78c0.1-0.57,0.2-1.13,0.3-1.69
			c1.45-8.18,2.69-15.2,2.69-15.2l26.21-13.07l9.77-4.87c-0.03,0.17-0.76,9.07-0.86,10.37
			C1663.59,377.1,1670.87,392.77,1670.87,392.77z"/>
		<path class="st5" d="M1625.34,385.52c0.62-0.26,38.18-11.34,42.26-10c4.08,1.35,6.5,9.24,6.5,9.24l-57.99,16.52
			C1616.11,401.28,1617.5,388.82,1625.34,385.52z"/>
		<path class="st4" d="M1726.49,637.56c-6.36,29.04-139.11-62.09-137.34-79.82c0.19-1.95,0.39-3.91,0.58-5.85
			c2.45-24.68,4.8-48.83,4.96-64.59c0.13-13.67,2.01-27.65,4.52-40.35c2.3-11.72,5.14-22.36,7.61-30.65
			c1.74-5.84,4.98-10.98,9.28-15.02c3.05-2.87,6.63-5.17,10.59-6.75c1.07-0.45,2.17-0.83,3.29-1.15
			c15.99-4.64,38.11-10.38,44.11-8.63c16.25,4.78,28.31,33.37,36.86,69.83C1726.95,522.83,1730.65,618.63,1726.49,637.56z"/>
		<path class="st13" d="M1663.46,354.43c-5.76,11.02-27.21,20.54-36.15,24.04c0.1-0.57,0.2-1.13,0.3-1.69
			c1.45-8.18,2.69-15.2,2.69-15.2l26.21-13.07C1662.31,348.43,1665.84,349.9,1663.46,354.43z"/>
		<path class="st12" d="M1617.56,360.05c0,0,47.29,14.75,56.03-14.84c8.73-29.59,20.72-47.62-9.1-58.29
			c-29.83-10.67-39.05-1.12-44.37,8.05C1614.8,304.14,1605.49,355.45,1617.56,360.05z"/>
		<path class="st14" d="M1621.97,292.12c0,0,3.02,34.44,10.14,32.94s13.58-2.6,12.54,7.78c-1.04,10.38-10.92,22.37,11.03,24.2
			c21.95,1.84,53.5-54.77,47.47-65.48C1685.75,260.64,1596.83,254.4,1621.97,292.12z"/>
		<path class="st15" d="M1593.16,625.29c13.15,4.75-0.23-13.06,0-16.78c1.02-16.33-5.38-36.97-3.42-56.63l87.18-89.94
			C1676.92,461.95,1699.65,617.26,1593.16,625.29z"/>
		<path class="st6" d="M1726.49,637.56c-34.28,63.53-39.74,87.78-39.74,87.78c-29.83-3.4-80.95-62.05-97.17-77.71
			c0,0-2.2-72.17-0.44-89.9l24.78-0.71c0,0,44.79,11.35,56.4-4.05c11.61-15.41,6.58-91.02,6.58-91.02l34.04-7.36
			C1726.95,522.83,1735.69,620.51,1726.49,637.56z"/>
		<path class="st12" d="M1523.11,515.83c0,0-16.32-11.04-19.41-12c-3.1-0.96-4.91-5.75-5.44-6.51c-1.86-2.68-2.76,2.1-1.93,3.88
			c0.96,2.05,2.36,4.99-2.17,4.33c-0.87-0.13-8.27-0.3-9.81,3.1c-1.54,3.4-2.89,15.05,4.93,18.59c7.83,3.53,27.14,0.34,28.54,0.75
			C1529.63,531.39,1523.11,515.83,1523.11,515.83z"/>
		<path class="st4" d="M1522.96,512.84c0,0,79.63,13.54,86.69,10.1c11.26-5.48-4.37-86.28-4.37-86.28s-0.67-18.31,20.72-22.63
			c18.59-3.75,36.52,10.17,36.52,10.17s16.31,14.59,14.23,30.78c-4.62,35.88-11.8,108.85-35.8,120.04
			c-30.95,14.43-120.52-40.01-120.52-40.01s-2.98-3.65-2.56-10.43C1518.24,518.6,1522.96,512.84,1522.96,512.84z"/>
		<path class="st6" d="M1683.52,460.52l-6.6,1.43c0,0-13.95-60.37-60.81-60.67c3.05-2.87,6.63-5.17,10.59-6.75
			C1643.87,399.14,1673.69,413.82,1683.52,460.52z"/>
		<g>
			<g>
				<path class="st4" d="M1473.76,361.33l-27.64,16.42c-2.56,1.52-5.84,0.76-7.3-1.69l-0.08-0.13c-1.46-2.45-0.56-5.7,2-7.22
					l27.64-16.42c2.56-1.52,5.84-0.76,7.3,1.69l0.08,0.13C1477.22,356.56,1476.32,359.81,1473.76,361.33z"/>
				<path class="st4" d="M1444.29,415.25l-37.36-62.86c-2.34-3.93-1.03-9.06,2.9-11.39l3.78-2.25c3.93-2.34,9.06-1.03,11.4,2.9
					l37.36,62.86c2.34,3.93,1.03,9.06-2.9,11.39l-3.78,2.25C1451.76,420.49,1446.63,419.19,1444.29,415.25z"/>
				<polygon class="st6" points="1457.58,417.03 1434.92,430.5 1389.08,353.33 1393.74,350.56 1411.73,339.87 				"/>
				<path class="st0" d="M1441.37,426.38l-6.45,4.12l-45.85-77.16l4.66-2.77c2.69,1.94,14.72,11.15,15.63,21.17
					c1.02,11.29,14.88,18.86,15.26,24.82c0.38,5.96,0,14.62,7.31,17.12C1439.26,416.18,1441.37,426.38,1441.37,426.38z"/>
			</g>
			<path class="st11" d="M1470.45,355.53c0.67-0.4,1.54-0.18,1.94,0.49c0.4,0.67,0.18,1.54-0.49,1.94c-0.67,0.4-1.54,0.18-1.94-0.49
				C1469.56,356.8,1469.78,355.93,1470.45,355.53z"/>
		</g>
		<path class="st12" d="M1461.85,373.72c-0.09-0.08-3.68-4.41-7.22-8.61c-2.61-3.09-4.22-7.09-5.36-8.29
			c-2.68-2.82-4.96,3.54-0.99,11.57c3.36,6.8,9.62,12.35,11.8,13.84C1462.25,383.73,1461.85,373.72,1461.85,373.72z"/>
	</g>
	<g>
		<g>
			<g>
				<path class="st2" d="M1118.16,776.89c-1.09-0.48-1.59-1.75-1.11-2.85l9.61-21.97c0.76-1.74-0.04-3.77-1.77-4.53l-48.35-21.15
					c-3.92-1.72-5.72-6.3-4-10.22l7.24-16.54c1.72-3.92,6.3-5.72,10.22-4l20.07,8.78c1.09,0.48,1.59,1.75,1.11,2.85
					c-0.48,1.09-1.75,1.59-2.85,1.11l-20.07-8.78c-1.74-0.76-3.77,0.04-4.53,1.77l-7.24,16.54c-0.76,1.74,0.03,3.77,1.77,4.53
					l48.35,21.15c3.92,1.72,5.72,6.3,4,10.22l-9.61,21.97C1120.53,776.87,1119.26,777.37,1118.16,776.89z"/>
			</g>
			<path class="st4" d="M1116.95,785.2l-4.92-2.15c-1.84-0.8-2.69-2.97-1.88-4.81l10.93-24.99c0.81-1.84,2.97-2.69,4.81-1.88
				l4.92,2.15c1.84,0.81,2.69,2.97,1.88,4.81l-10.93,24.99C1120.96,785.16,1118.79,786.01,1116.95,785.2z"/>
			<path class="st2" d="M1193.28,733.92l-6.8,15.54c-1.77,4.05-6.49,5.89-10.54,4.12l-80.46-35.2c-4.04-1.77-5.89-6.48-4.12-10.53
				l6.8-15.54c1.77-4.05,6.49-5.89,10.53-4.12l80.46,35.2C1193.2,725.15,1195.05,729.87,1193.28,733.92z"/>
			<path class="st16" d="M1193.28,733.92l-2.34,5.35c-1.77,4.05-6.49,5.89-10.54,4.12l-80.46-35.2c-4.04-1.77-5.89-6.48-4.12-10.53
				l2.34-5.35c1.77-4.05,6.49-5.89,10.53-4.12l80.46,35.2C1193.2,725.15,1195.05,729.87,1193.28,733.92z"/>
		</g>
		<path class="st12" d="M973.42,796.88c0,0,17.49,2.54,21.55,7.1c4.06,4.56,6.59,8.11,4.06,10.14c-2.54,2.03-41.08-7.86-41.08-7.86
			L973.42,796.88z"/>
		<path class="st8" d="M931.33,735.01l47.16,60.35c0,0-4.06,8.11-17.24,9.63c-13.18,1.52-41.08-7.1-41.08-9.63
			S931.33,735.01,931.33,735.01z"/>
		<path class="st6" d="M1080.6,865.73c-13.71,15.81-42.64,26.02-98.45,28.61c-4.48,0.21-8.99,0.39-13.52,0.52
			c-4.66,0.14-9.33,0.24-14,0.3c-15.17,0.21-30.26,0.04-44.64-0.45c-13.94-0.48-27.22-1.24-39.26-2.24
			c-23.53-1.95-42.32-4.8-52.03-8.07c-2.91-0.97-5-1.99-6.16-3.03c-1-0.89-1.8-1.93-2.41-3.12c-3.52-6.53-1.68-17.23,2.57-29.02
			c6.2-17.17,17.58-36.63,25.24-48.81c1.54-2.43,2.91-4.56,4.07-6.34c2.34-3.58,3.79-5.67,3.79-5.67s26.07,2.42,61.76,7.05
			c7.28,0.94,14.97,1.98,22.91,3.1c76.74,10.85,153.2,30.36,153.12,56.24C1083.58,858.76,1083.84,862.01,1080.6,865.73z"/>
		<path class="st7" d="M985.59,894.03c-4.66,0.14-26.29,1.08-30.96,1.14c-15.17,0.21-30.26,0.04-44.64-0.45l-13.52-54.49
			C917.38,869.41,978.86,892.15,985.59,894.03z"/>
		<path class="st8" d="M940.39,1052.31h74.39c-1.17-2.83-4.01-6.53-10.91-7.73c-11.72-2.05-32.06-8.39-29.45-25.3
			c2.64-17.14-25.89-19.35-25.89-19.35S936.65,1045.78,940.39,1052.31z"/>
		<path class="st6" d="M1081.81,862.93c0,0-92.28,145.18-99.96,162.43c0,0-31.4,2.92-38.95-19.51c0,0,54.86-153.21,78.97-165.84
			C1045.98,827.39,1081.81,862.93,1081.81,862.93z"/>
		<g>
			<path class="st12" d="M895.71,557.28c0,0,31.78,43.49,60.1,45.82c0,0-3.62-16.37-11.98-26.69c2.25-3.63,4.2-6.94,5.88-9.9
				c5.56-9.86,8.03-15.75,8.03-15.75l-13.03-23.57l-2.69-12.67c-2.2,5.95-4.78,11.44-7.66,15.97
				C919.52,553.78,895.71,557.28,895.71,557.28z"/>
			<path class="st13" d="M933.13,530.25c0,0-4.61,21.79,16.59,36.26c5.56-9.86,8.03-15.75,8.03-15.75l-13.03-23.57
				C934.3,525.64,933.13,530.25,933.13,530.25z"/>
			<path class="st12" d="M961.71,563.89c0,0-39.86-21.72-25.96-46.33c13.91-24.62,18.13-44,44.16-31.17
				c26.04,12.82,25.63,24.99,22.99,34.33C1000.26,530.07,972.43,568.91,961.71,563.89z"/>
			<path class="st14" d="M935.89,468.55c-0.22-0.62-0.99-1.35-3-2.25c0,0,2.04-0.41,4.24,0.38c1.54-2.72,5.03-7.25,10.41-6.6
				c0,0-3.18,0.41-4.71,3.35c7.95-3.72,21.77-3.34,54.37,12.36c42.97,20.68,17.22,43.87,10.15,45.09
				c-7.07,1.22-17.88-13.78-28.9-17.05c-11.03-3.27-19.13,11.64-23.59,12.39c-4.46,0.75-1.56-2.5-5.6-6.65
				c-4.04-4.15-7.7,3.93-8.35,9.85c-0.66,5.92-10.14,10.4-10.14,10.4s0,0-3.94-10.09c-3.94-10.09,1.84-44.15,7.54-49.68
				C934.88,469.55,935.38,469.05,935.89,468.55z"/>
		</g>
		<path class="st8" d="M697.89,1004.85c0,0-9.27,14.07-11.43,18.63c-2.16,4.56,2.07,14.26,8.43,15.72
			c5.61,1.29,6.45,11.23,6.45,11.23h-27.18c-2.88,0-5.47-1.58-6.58-4.03c-3.83-8.44-4.71-19.41-5.48-23.08
			c-1.62-7.72-4.83-14.19-3.41-22.05c1.41-7.83,14.8-12.36,39.21-12.29C724.71,989.07,697.89,1004.85,697.89,1004.85z"/>
		<path class="st8" d="M777.81,835.17c20.5,21.72,171.02-23.22,158.4-34.66c-3.21-2.91-2.11-6.4-3.42-11.09
			c-6.24-22.22,6.19-60.24,11.52-74.98c1.25-3.42,2.1-5.58,2.26-6.01c5.09-13.76,9.03-28.08,11.6-41.92
			c4.96-26.56,4.87-51.26-1.92-66.39c-0.05-0.08-0.06-0.15-0.1-0.21c-28.2-8.24-43.72-49.72-43.72-49.72s-89.32,25.37-121.75,152.83
			c0,0-1.67,8.12-3.74,20.32h-0.01c-0.62,3.74-1.29,7.87-1.96,12.27c-3.46,22.68-5.47,51.77-7.53,73.42
			c-0.08,0.75-0.15,1.51-0.23,2.3C776.19,820.66,774.41,831.56,777.81,835.17z"/>
		<path class="st6" d="M896.34,813.61c0,0-15.01,1.98-45.27,4.21c-31.36,2.32-64.6,7.27-70,17.8c-1.79,3.49-0.54,12.32,2.95,24.52
			c7.73,26.97,26.48,70.39,47.88,108.89c-54.98,3.18-129.77,15.32-129.77,15.32c-12.23,13.83-7.11,30.02-7.11,30.02
			c3.92,0.03,15.72,1.7,31.82,4.3c58.33,9.39,129.37,28.7,173.43,28.7c9.64,0,16.85-6.84,19.78-15.79v-0.01
			C938.14,976.47,896.34,813.61,896.34,813.61z"/>
		<path class="st7" d="M784.02,864.23c30.34-0.96,106.45-38.32,105.21-38.62c-14.17-3.49-26.85-5.9-38.16-7.42
			c-31.36,2.53-64.6,7.91-70,19.37C779.28,841.36,780.52,850.96,784.02,864.23z"/>
		<path class="st15" d="M881.46,637.28c0,0,1.77,138.06,51.34,152.14c-6.24-22.22,6.19-60.24,11.52-74.98
			C931.54,678.93,908.02,643.12,881.46,637.28z"/>
		<path class="st6" d="M897.46,556.39c0,0,38.18,7.94,41.91,41.4c2.72,24.37-23.93,79.55-23.93,79.55l-5.07-5.07
			c0,0,23.39-68.13,19.79-79.72c-4.61-14.86-26.57-37.09-46.75-28.21L897.46,556.39z"/>
		<path class="st6" d="M777.81,835.17c20.5,21.72,174.26-22.74,161.65-34.19c-3.21-2.91-5.36-6.88-6.66-11.57
			c-6.24-22.22,6.19-60.24,11.52-74.98c1.25-3.42,2.1-5.58,2.26-6.01l-7.77-7.76l-28.45-28.39c0,0-8.41,9.55-24.32,20.37
			c-20.85,14.21-54.56,30.62-99.09,30.69h-0.01c-0.62,3.74-1.29,7.87-1.96,12.27c-3.46,22.68-5.47,51.77-7.53,73.42
			c-0.08,0.75-0.15,1.51-0.23,2.3C776.19,820.66,774.41,831.56,777.81,835.17z"/>
		<path class="st7" d="M886.04,692.65c5.69,40.13,18.41,88.71,46.76,96.77c-6.24-22.22,6.19-60.24,11.52-74.98
			c-1.66-4.6-3.5-9.22-5.51-13.77l-28.45-28.39C910.36,672.27,901.95,681.82,886.04,692.65z"/>
		<path class="st12" d="M1118.45,783.44c-9.29,0-26.6-8.47-28.16-8.63c-13.24-1.27-0.47-14.3-0.47-14.3s20.81-4.57,24.3-4.31
			c1.14,0.09,3.04,0.47,5.08,0.97l-2.24,5.34c0,0,14.51,2.21,14.69,6.24C1131.84,772.8,1123.01,783.44,1118.45,783.44z"/>
		<path class="st8" d="M1093.9,766.96c3.19-9.22-1.26-12.1-1.26-12.1s-90.88-43.1-98.32-47.85c-7.43-4.75-57.4-95.74-57.4-95.74
			s-18.52-37.21-42.11-36.46c-20.5,0.65-31.89,13.43-38.21,26.83c-7.53,15.96-4.35,34.93,7.77,47.76
			c27.21,28.8,81.86,85.82,96.02,94.48c31.51,19.27,125.94,34.85,125.94,34.85S1091.4,774.21,1093.9,766.96z"/>
	</g>
	<path class="st0" d="M1868.23,1048.5v8.68H629.72c-1.5,0-2.72-1.22-2.72-2.72v-3.25c0-1.49,1.22-2.71,2.72-2.71H1868.23z"/>
	<g>
		<path class="st9" d="M1247.96,988.95c-7.6,34.11-33.45,61.37-57.75,60.9c-24.3-0.48-37.83-28.52-30.23-62.63
			c7.6-34.11,33.45-61.38,57.75-60.9C1242.02,926.79,1255.55,954.84,1247.96,988.95z"/>
		<path class="st8" d="M1242.5,987.69c-7.6,34.11-33.45,61.38-57.75,60.9c-24.3-0.48-37.83-28.52-30.23-62.63
			c7.6-34.11,33.45-61.38,57.75-60.9C1236.56,925.53,1250.1,953.58,1242.5,987.69z"/>
		<g>
			<path class="st9" d="M1237.73,966.34c-0.75-8.88-3.45-16.73-7.93-22.56c-0.06-0.08-0.12-0.17-0.19-0.25
				c-3.22-4.1-7.18-6.99-11.68-8.56c-1.93-0.67-3.97-1.11-6.09-1.29c-0.59-0.05-1.19-0.08-1.8-0.1
				c-19.14-0.41-39.47,19.33-47.7,45.18c-0.74,2.3-1.38,4.65-1.91,7.04c-3.86,17.35-1.41,33.77,6.55,43.9
				c4.99,6.36,11.76,9.8,19.56,9.95c0.18,0.01,0.36,0.01,0.54,0.01c12.26,0,24.96-8.17,34.61-20.86c3.04-3.99,5.78-8.43,8.1-13.2
				c1.74-3.56,3.24-7.32,4.48-11.21c0.73-2.28,1.36-4.6,1.88-6.96C1237.79,980.09,1238.29,972.93,1237.73,966.34z M1235.54,987.28
				c-0.37,1.66-0.79,3.29-1.26,4.91c-1.2,4.14-2.71,8.14-4.48,11.93c-2.31,4.96-5.06,9.57-8.15,13.7
				c-9.58,12.87-22.3,21.2-34.56,21.2c-0.18,0-0.36,0-0.54-0.01c-7.6-0.15-14.2-3.51-19.07-9.71c-7.85-10-10.26-26.21-6.43-43.38
				c0.38-1.7,0.81-3.37,1.29-5.02c7.65-26.3,27.95-46.72,47.15-46.72c0.18,0,0.36,0.01,0.54,0.01c0.61,0.01,1.21,0.05,1.8,0.1
				c2.13,0.19,4.18,0.64,6.12,1.34c4.28,1.55,8.06,4.34,11.15,8.26c0.24,0.3,0.47,0.61,0.69,0.92c4.11,5.65,6.58,13.1,7.3,21.51
				C1237.66,972.88,1237.16,980,1235.54,987.28z"/>
		</g>
	</g>
</g>
</svg>
