<?xml version="1.0" encoding="utf-8"?>
<!-- Generator: Adobe Illustrator 24.0.1, SVG Export Plug-In . SVG Version: 6.00 Build 0)  -->
<svg version="1.1" id="Layer_1" xmlns="http://www.w3.org/2000/svg" xmlns:xlink="http://www.w3.org/1999/xlink" x="0px" y="0px"
	 viewBox="0 0 1920 1080" style="enable-background:new 0 0 1920 1080;" xml:space="preserve">
<style type="text/css">
	.st0{fill:#FFFFFF;}
	.st1{fill:#EDEBEC;}
	.st2{fill:#5EA9CC;}
	.st3{fill:#CBE1FD;}
	.st4{fill:#081A3D;}
	.st5{fill:#021430;}
	.st6{fill:#FDA92F;}
	.st7{fill:#F78D00;}
	.st8{fill:#D60F41;}
	.st9{fill:#B8073A;}
	.st10{fill:#FDE0C6;}
	.st11{fill:#8AC4F6;}
	.st12{fill:#FC8961;}
	.st13{fill:#F16D48;}
	.st14{fill:#5E0A0A;}
	.st15{fill:#F07F1A;}
	.st16{fill:#83C6DE;}
</style>
<g>
	<path class="st0" d="M1555.23,71.92v935.62l-284.63-0.08l-655.48-0.28c0,0-1.3-1.14-3.62-3.36c-0.79-0.76-1.71-1.65-2.73-2.67
		c-2.12-2.1-4.71-4.74-7.67-7.91c-1.16-1.24-2.37-2.56-3.63-3.95c-11.69-12.9-27.7-32.5-43.41-57.98
		c-44.91-72.79-87.37-193.48-19.39-342.36c73.91-161.85,275.23-216.65,381.51-278.78c5.4-3.16,10.77-6.45,16.09-9.88
		c2.91-1.88,5.81-3.79,8.7-5.75c36.19-24.56,70.04-55.61,97.93-93.83c16-21.91,34.88-41.29,56.06-58.21
		c13.21-10.53,27.32-20.12,42.2-28.77c9.5-5.52,19.3-10.65,29.39-15.41c26.82-12.66,55.63-22.65,85.76-30.06
		c2.92-0.72,5.86-1.41,8.82-2.09c5.87-1.34,11.78-2.58,17.72-3.71c1.02-0.21,2.04-0.4,3.06-0.59c4.17-0.78,8.37-1.51,12.58-2.19
		c0.62-0.11,1.24-0.21,1.87-0.31c5.92-0.94,11.89-1.8,17.88-2.56h0.01c8.83-1.12,17.72-2.05,26.68-2.78
		c2.32-0.19,4.64-0.37,6.96-0.53c5.32-0.38,10.66-0.68,16.01-0.92c3.17-0.14,6.35-0.26,9.53-0.35c2.03-0.06,4.05-0.11,6.08-0.15
		c6.22-0.12,12.46-0.15,18.71-0.09C1450.62,52.5,1503.87,59.25,1555.23,71.92z"/>
	<g>
		<path class="st1" d="M745.29,977.59h-14.93c-8.52,0-15.43-6.91-15.43-15.43V728.93c0-8.52,6.91-15.43,15.43-15.43h14.93
			c8.52,0,15.43,6.91,15.43,15.43v233.23C760.72,970.68,753.81,977.59,745.29,977.59z"/>
		<path class="st1" d="M807.69,977.59h-14.93c-8.52,0-15.43-6.91-15.43-15.43V728.93c0-8.52,6.91-15.43,15.43-15.43h14.93
			c8.52,0,15.43,6.91,15.43,15.43v233.23C823.13,970.68,816.22,977.59,807.69,977.59z"/>
		<path class="st1" d="M870.1,977.59h-14.93c-8.52,0-15.43-6.91-15.43-15.43V728.93c0-8.52,6.91-15.43,15.43-15.43h14.93
			c8.52,0,15.43,6.91,15.43,15.43v233.23C885.54,970.68,878.63,977.59,870.1,977.59z"/>
		<path class="st1" d="M932.51,977.59h-14.93c-8.52,0-15.43-6.91-15.43-15.43V728.93c0-8.52,6.91-15.43,15.43-15.43h14.93
			c8.52,0,15.43,6.91,15.43,15.43v233.23C947.94,970.68,941.04,977.59,932.51,977.59z"/>
		<path class="st1" d="M994.92,977.59h-14.93c-8.52,0-15.43-6.91-15.43-15.43V728.93c0-8.52,6.91-15.43,15.43-15.43h14.93
			c8.52,0,15.43,6.91,15.43,15.43v233.23C1010.35,970.68,1003.44,977.59,994.92,977.59z"/>
		<path class="st1" d="M1057.33,977.59h-14.93c-8.52,0-15.43-6.91-15.43-15.43V728.93c0-8.52,6.91-15.43,15.43-15.43h14.93
			c8.52,0,15.43,6.91,15.43,15.43v233.23C1072.76,970.68,1065.85,977.59,1057.33,977.59z"/>
	</g>
	<g>
		<g>
			<path class="st1" d="M1379.48,52.12v576.92H932.25V300.3c2.91-1.88,5.81-3.79,8.69-5.75c36.19-24.56,70.04-55.62,97.93-93.84
				c15.99-21.91,34.88-41.29,56.06-58.2c13.21-10.54,27.32-20.12,42.2-28.77c9.5-5.52,19.3-10.65,29.39-15.41
				c26.83-12.66,55.63-22.65,85.76-30.06c2.93-0.72,5.87-1.41,8.82-2.09c6.87-1.57,13.79-2.99,20.78-4.29
				c4.79-0.9,9.6-1.73,14.44-2.5c5.92-0.94,11.89-1.8,17.88-2.55h0.01c16.34-2.08,32.91-3.48,49.65-4.22
				c3.17-0.14,6.35-0.25,9.53-0.35C1375.43,52.21,1377.45,52.16,1379.48,52.12z"/>
			<g>
				<path class="st2" d="M1379.48,52.12c-2.02,0.04-4.05,0.09-6.08,0.15V619.8H940.95V294.55c-2.88,1.96-5.78,3.87-8.7,5.75
					c-5.32,3.43-10.7,6.72-16.09,9.88v332.94h482.03V52.03C1391.94,51.97,1385.7,52,1379.48,52.12z"/>
			</g>
			<path class="st2" d="M1425.06,644.3H890.95v-3.29c0-10.12,8.21-18.33,18.33-18.33h497.89c9.88,0,17.89,8.01,17.89,17.89V644.3z"
				/>
			<path class="st2" d="M1166.53,98.33v528.7h-29.39V113.74C1146.63,108.22,1156.44,103.09,1166.53,98.33z"/>
			<path class="st0" d="M1156.64,360.41h-2.36c-1.59,0-2.89-1.13-2.94-2.54l-1.04-29.72c-0.05-1.48,1.28-2.71,2.94-2.71h4.53
				c1.66,0,3,1.23,2.94,2.72l-1.13,29.72C1159.53,359.28,1158.23,360.41,1156.64,360.41z"/>
		</g>
		<g>
			<polygon class="st3" points="1334.87,348.79 1373.53,353.42 1333.41,619.97 1294.75,615.33 			"/>
			<polygon class="st4" points="1373.89,351.07 1373.18,355.78 1334.52,351.14 1335.23,346.43 			"/>
			<path class="st4" d="M1316.59,601.03c-3.84-0.46-6.53-3.61-6.02-7.04c0.52-3.43,4.05-5.83,7.89-5.37
				c3.84,0.46,6.53,3.61,6.02,7.04C1323.96,599.08,1320.43,601.49,1316.59,601.03z"/>
			<path class="st4" d="M1349.49,382.41c-3.84-0.46-6.53-3.61-6.02-7.04c0.52-3.43,4.05-5.83,7.89-5.37
				c3.84,0.46,6.53,3.61,6.02,7.04C1356.86,380.47,1353.33,382.87,1349.49,382.41z"/>
			<path class="st4" d="M1317.3,465.51c8.51,2.52,14.09,10.16,12.85,18.39c-1.24,8.22-8.87,14.28-17.83,14.7L1317.3,465.51z"/>
		</g>
		<g>
			<path class="st5" d="M995.15,619.94h112.89c8.85,0,16.09-7.24,16.09-16.09v-70.36c0-8.85-7.24-16.09-16.09-16.09H995.15
				c-8.85,0-16.09,7.24-16.09,16.09v70.36C979.06,612.69,986.3,619.94,995.15,619.94z"/>
			<path class="st4" d="M1092.4,517.84c0,0-30.06-16.84-58.82-17.03c-18.73-0.12-40.08,16.31-41.36,16.49
				c-3.26,0.45,10.85,0.6,10.85,0.6s21.14-10.98,30.64-11.24c11.46-0.31,40.6,12.14,40.6,12.14L1092.4,517.84z"/>
			<path class="st4" d="M981.05,619.94h112.89c8.85,0,16.09-7.24,16.09-16.09v-70.36c0-8.85-7.24-16.09-16.09-16.09H981.05
				c-8.85,0-16.09,7.24-16.09,16.09v70.36C964.95,612.69,972.19,619.94,981.05,619.94z"/>
		</g>
	</g>
	<g>
		<g>
			<polygon class="st6" points="1097.83,1002.1 958.34,1002.1 953.13,886.22 1102.56,886.22 			"/>
			<path class="st7" d="M1102.85,890.71H950.61c-1.42,0-2.57-1.15-2.57-2.57l0,0c0-1.42,1.15-2.57,2.57-2.57h152.24
				c1.42,0,2.57,1.15,2.57,2.57l0,0C1105.42,889.56,1104.27,890.71,1102.85,890.71z"/>
			<rect x="968.71" y="925.14" class="st7" width="117.95" height="31.79"/>
		</g>
		<g>
			<polygon class="st8" points="1181.84,1002.1 1061.88,1002.1 1057.4,855.41 1185.91,855.41 			"/>
			<rect x="1053.03" y="851.55" class="st9" width="135.34" height="11.27"/>
			<rect x="1070.8" y="904.67" class="st10" width="101.44" height="40.25"/>
		</g>
	</g>
	<g>
		<g>
			<g>
				<path class="st4" d="M1209.19,518.52l-11.44-28.87c-1.06-2.67,0.26-5.72,2.93-6.78l0.14-0.06c2.67-1.06,5.72,0.26,6.78,2.93
					l11.44,28.87c1.06,2.67-0.26,5.72-2.93,6.78l-0.14,0.06C1213.3,522.51,1210.25,521.19,1209.19,518.52z"/>
				<path class="st4" d="M1177.49,476.14l35.63-14.12c2.94-1.16,6.29,0.29,7.45,3.22l3.25,8.21c1.16,2.94-0.29,6.29-3.22,7.45
					l-35.63,14.12c-2.94,1.16-6.29-0.29-7.46-3.22l-3.25-8.21C1173.1,480.66,1174.55,477.31,1177.49,476.14z"/>
				
					<rect x="1169.45" y="453.97" transform="matrix(-0.9297 0.3684 -0.3684 -0.9297 2476.6333 460.5593)" class="st6" width="49.81" height="25.46"/>
				<path class="st0" d="M1169.03,469.89c0,0,4.98,1.6,10.8-2.43c5.81-4.04,3.08-7.24,10.09-6.17c7,1.07,13.05-2.02,14.12-4.87
					c1.07-2.85,12.22-2.25,12.22-2.25l-3.45-8.48l-46.3,18.35L1169.03,469.89z"/>
			</g>
			<path class="st11" d="M1215.43,516.17c0.28,0.7-0.07,1.5-0.77,1.78c-0.7,0.28-1.5-0.07-1.78-0.77c-0.28-0.7,0.07-1.5,0.77-1.78
				C1214.36,515.13,1215.15,515.47,1215.43,516.17z"/>
		</g>
		<path class="st12" d="M1196,381.52c0,0-7.74-16.07-14.01-21.05c-6.28-4.99-23.03-3.77-23.68-2.49
			c-1.99,3.95,13.45,10.11,15.23,13.73c1.78,3.63-5.62,3.26,0.06,9.56c4.8,5.32,16.28,10.4,16.28,10.4L1196,381.52z"/>
		<path class="st5" d="M1189.32,379.69c4.07-6.33,5.28-6.66,5.28-6.66s67.27,26.83,73.69,29.07c6.42,2.24,102.39,7.88,102.39,7.88
			l28.96,63.66c0,0-127.9-29.17-144.05-35.16c-26.7-9.91-69.52-48.71-69.52-48.71S1186.12,384.66,1189.32,379.69z"/>
		<path class="st5" d="M1356.43,974.94c0,0-1.46,23.61-5.85,29.17h-67.47c0.43-2.35,2.34-8.17,10.77-9.64
			c10.66-1.85,28.51-9.34,34.96-23.44C1335.64,956.2,1356.43,974.94,1356.43,974.94z"/>
		<path class="st5" d="M1476.17,971.65c0,0,4.2,30.67-1.57,31.2c-0.77,0.07-25.66,0.06-35.41,0c-12.13-0.07-31.51,0.08-31.51,0.08
			c-2.51,0.1-4.15-2.61-2.87-4.77c1.4-2.37,4.07-4.9,9.17-5.88c10.63-2.04,28.33-9.85,34.54-24.05
			C1455.05,953.28,1476.17,971.65,1476.17,971.65z"/>
		<path class="st7" d="M1324.7,660.68c0,0,16.97,59.37,65.59,162.46c48.63,103.09,52.38,150.08,52.38,150.08l33.5-1.58
			c0,0-3.15-122.71-26.12-174.74c-22.97-52.03-27.65-194.39-27.65-194.39L1324.7,660.68z"/>
		<path class="st6" d="M1297.46,609.6c0,0-1.35,91.93,14.55,204.8c15.9,112.87,10.51,160.78,10.51,160.78l38.09,1.27
			c0,0,22.77-112.91,16.24-169.41c-6.53-56.49,31.17-193.86,31.17-193.86L1297.46,609.6z"/>
		<path class="st12" d="M1372.63,394.48l-17.97,13.31l-25.97-5.47c0.36-2.37,2.07-12.18,3.63-21.07c0.09-0.52,0.19-1.05,0.28-1.56
			c1.34-7.56,2.49-14.06,2.49-14.06l24.25-12.09l9.04-4.51c-0.02,0.16-0.7,8.39-0.8,9.6
			C1365.9,379.98,1372.63,394.48,1372.63,394.48z"/>
		<path class="st5" d="M1330.52,387.77c0.57-0.24,35.32-10.5,39.1-9.25c3.78,1.25,6.01,8.55,6.01,8.55l-53.65,15.28
			C1321.97,402.35,1323.25,390.82,1330.52,387.77z"/>
		<path class="st4" d="M1424.1,620.95c-5.88,26.87-128.7-57.45-127.06-73.85c0.18-1.8,0.36-3.62,0.54-5.42
			c2.27-22.84,4.44-45.18,4.59-59.76c0.12-12.65,1.86-25.58,4.19-37.33c2.13-10.85,4.76-20.69,7.04-28.36
			c1.61-5.4,4.61-10.16,8.58-13.89c2.82-2.66,6.14-4.79,9.8-6.24c0.99-0.42,2.01-0.77,3.05-1.07c14.79-4.29,35.26-9.6,40.81-7.98
			c15.03,4.43,26.19,30.88,34.1,64.6C1424.52,514.8,1427.94,603.44,1424.1,620.95z"/>
		<path class="st13" d="M1365.78,359.01c-5.33,10.19-25.17,19-33.45,22.24c0.09-0.52,0.19-1.05,0.28-1.56
			c1.34-7.56,2.49-14.06,2.49-14.06l24.25-12.09C1364.71,353.46,1367.98,354.81,1365.78,359.01z"/>
		<path class="st12" d="M1323.32,364.21c0,0,43.75,13.65,51.83-13.73c8.08-27.38,19.17-44.06-8.42-53.93
			c-27.59-9.87-36.13-1.03-41.05,7.45C1320.76,312.48,1312.14,359.95,1323.32,364.21z"/>
		<path class="st14" d="M1327.39,301.36c0,0,2.79,31.86,9.38,30.48c6.59-1.38,12.56-2.41,11.6,7.2c-0.96,9.6-10.1,20.69,10.2,22.39
			c20.31,1.7,49.5-50.67,43.92-60.58C1386.4,272.23,1304.13,266.46,1327.39,301.36z"/>
		<path class="st15" d="M1300.74,609.6c12.16,4.4-0.21-12.09,0-15.52c0.94-15.11-4.98-34.21-3.17-52.39l80.66-83.21
			C1378.23,458.48,1399.26,602.17,1300.74,609.6z"/>
		<path class="st6" d="M1424.1,620.95c-31.71,58.77-36.76,81.22-36.76,81.22c-27.6-3.15-74.9-57.41-89.9-71.89
			c0,0-2.04-66.77-0.4-83.17l22.93-0.66c0,0,41.44,10.5,52.18-3.75c10.74-14.25,6.09-84.21,6.09-84.21l31.49-6.81
			C1424.52,514.8,1432.61,605.18,1424.1,620.95z"/>
		<path class="st12" d="M1235.93,508.32c0,0-15.09-10.21-17.96-11.1c-2.86-0.89-4.54-5.32-5.03-6.03c-1.72-2.48-2.56,1.95-1.79,3.59
			c0.89,1.9,2.18,4.62-2.01,4.01c-0.81-0.12-7.65-0.28-9.08,2.87c-1.42,3.15-2.68,13.93,4.56,17.2c7.24,3.27,25.11,0.31,26.4,0.69
			C1241.96,522.72,1235.93,508.32,1235.93,508.32z"/>
		<path class="st4" d="M1235.79,505.56c0,0,73.68,12.53,80.21,9.35c10.42-5.07-4.04-79.83-4.04-79.83s-0.62-16.94,19.17-20.94
			c17.2-3.47,33.79,9.41,33.79,9.41s15.09,13.5,13.16,28.48c-4.27,33.19-10.92,100.71-33.12,111.06
			c-28.64,13.35-111.5-37.01-111.5-37.01s-2.76-3.38-2.37-9.65C1231.42,510.89,1235.79,505.56,1235.79,505.56z"/>
		<path class="st6" d="M1384.34,457.16l-6.11,1.32c0,0-12.9-55.86-56.26-56.13c2.82-2.66,6.14-4.79,9.8-6.24
			C1347.65,400.37,1375.25,413.95,1384.34,457.16z"/>
		<g>
			<g>
				<path class="st4" d="M1190.27,365.39l-25.57,15.19c-2.37,1.41-5.4,0.7-6.75-1.57l-0.07-0.12c-1.35-2.27-0.52-5.27,1.85-6.68
					l25.57-15.19c2.37-1.41,5.4-0.7,6.75,1.57l0.07,0.12C1193.47,360.98,1192.64,363.98,1190.27,365.39z"/>
				<path class="st4" d="M1163.01,415.28l-34.56-58.16c-2.16-3.64-0.95-8.38,2.68-10.54l3.5-2.08c3.64-2.16,8.38-0.95,10.54,2.68
					l34.56,58.16c2.16,3.64,0.95,8.38-2.68,10.54l-3.5,2.08C1169.91,420.12,1165.17,418.92,1163.01,415.28z"/>
				<polygon class="st6" points="1175.3,416.92 1154.34,429.38 1111.92,357.99 1116.24,355.43 1132.88,345.53 				"/>
				<path class="st0" d="M1160.31,425.57l-5.97,3.81l-42.42-71.39l4.31-2.56c2.49,1.79,13.61,10.32,14.46,19.59
					c0.95,10.45,13.76,17.45,14.12,22.96c0.36,5.52,0,13.53,6.76,15.84C1158.35,416.13,1160.31,425.57,1160.31,425.57z"/>
			</g>
			<path class="st11" d="M1187.21,360.02c0.62-0.37,1.43-0.17,1.8,0.46c0.37,0.62,0.17,1.43-0.46,1.8c-0.62,0.37-1.43,0.17-1.8-0.46
				C1186.38,361.2,1186.59,360.39,1187.21,360.02z"/>
		</g>
		<path class="st12" d="M1179.25,376.86c-0.08-0.07-3.41-4.08-6.68-7.97c-2.41-2.86-3.91-6.56-4.96-7.67
			c-2.48-2.61-4.59,3.27-0.92,10.7c3.11,6.29,8.9,11.43,10.92,12.81C1179.62,386.12,1179.25,376.86,1179.25,376.86z"/>
	</g>
	<g>
		<g>
			<g>
				<path class="st2" d="M861.28,749.86c-1.01-0.44-1.47-1.62-1.03-2.64l8.89-20.32c0.7-1.61-0.03-3.48-1.64-4.19l-44.73-19.57
					c-3.63-1.59-5.29-5.83-3.7-9.46l6.7-15.31c1.59-3.63,5.83-5.29,9.46-3.7l18.57,8.12c1.01,0.44,1.47,1.62,1.03,2.64
					c-0.44,1.01-1.62,1.47-2.64,1.03l-18.57-8.12c-1.61-0.7-3.48,0.03-4.19,1.64l-6.7,15.31c-0.7,1.61,0.03,3.48,1.64,4.19
					l44.73,19.57c3.63,1.59,5.29,5.83,3.7,9.46l-8.89,20.32C863.47,749.84,862.29,750.31,861.28,749.86z"/>
			</g>
			<path class="st4" d="M860.16,757.55l-4.55-1.99c-1.7-0.74-2.49-2.75-1.74-4.45l10.11-23.12c0.75-1.7,2.75-2.49,4.45-1.74
				l4.55,1.99c1.7,0.75,2.49,2.75,1.74,4.45l-10.12,23.12C863.86,757.51,861.86,758.29,860.16,757.55z"/>
			<path class="st2" d="M930.77,710.1l-6.29,14.38c-1.64,3.75-6,5.45-9.75,3.81l-74.44-32.56c-3.74-1.64-5.45-6-3.81-9.74
				l6.29-14.38c1.64-3.75,6-5.45,9.74-3.81l74.44,32.56C930.7,701.99,932.41,706.36,930.77,710.1z"/>
			<path class="st16" d="M930.77,710.1l-2.17,4.95c-1.64,3.75-6,5.45-9.75,3.81l-74.44-32.56c-3.74-1.64-5.45-6-3.81-9.74l2.17-4.95
				c1.64-3.75,6-5.45,9.74-3.81l74.44,32.56C930.7,701.99,932.41,706.36,930.77,710.1z"/>
		</g>
		<path class="st12" d="M727.36,768.35c0,0,16.19,2.35,19.94,6.57c3.75,4.22,6.1,7.51,3.75,9.38c-2.35,1.88-38-7.27-38-7.27
			L727.36,768.35z"/>
		<path class="st8" d="M688.42,711.12l43.63,55.83c0,0-3.75,7.51-15.95,8.91c-12.2,1.41-38-6.57-38-8.91
			S688.42,711.12,688.42,711.12z"/>
		<path class="st6" d="M826.53,832.06c-12.69,14.62-39.45,24.08-91.09,26.47c-4.15,0.2-8.32,0.36-12.51,0.48
			c-4.31,0.13-8.64,0.22-12.96,0.28c-14.03,0.2-28,0.03-41.3-0.41c-12.9-0.44-25.19-1.15-36.32-2.07
			c-21.77-1.81-39.16-4.44-48.14-7.47c-2.69-0.9-4.62-1.84-5.7-2.8c-0.92-0.82-1.67-1.79-2.23-2.88
			c-3.26-6.04-1.55-15.94,2.38-26.85c5.74-15.88,16.26-33.89,23.35-45.16c1.42-2.25,2.69-4.22,3.77-5.86
			c2.16-3.31,3.5-5.24,3.5-5.24s24.12,2.24,57.14,6.52c6.73,0.87,13.85,1.83,21.2,2.87c70.99,10.04,141.74,28.09,141.67,52.03
			C829.28,825.61,829.52,828.61,826.53,832.06z"/>
		<path class="st7" d="M738.62,858.24c-4.31,0.13-24.32,1-28.64,1.05c-14.03,0.2-28,0.03-41.3-0.41l-12.51-50.42
			C675.52,835.46,732.4,856.5,738.62,858.24z"/>
		<path class="st8" d="M696.8,1004.67h68.82c-1.08-2.62-3.71-6.04-10.09-7.16c-10.84-1.9-29.66-7.77-27.25-23.41
			c2.44-15.86-23.95-17.91-23.95-17.91S693.35,998.64,696.8,1004.67z"/>
		<path class="st6" d="M827.65,829.46c0,0-85.38,134.32-92.48,150.28c0,0-29.05,2.7-36.04-18.05c0,0,50.75-141.75,73.06-153.43
			C794.49,796.58,827.65,829.46,827.65,829.46z"/>
		<g>
			<path class="st12" d="M655.47,546.68c0,0,29.4,40.24,55.61,42.39c0,0-3.35-15.15-11.08-24.7c2.08-3.36,3.88-6.42,5.44-9.16
				c5.15-9.12,7.43-14.57,7.43-14.57l-12.05-21.81l-2.49-11.72c-2.04,5.51-4.42,10.58-7.09,14.77
				C677.5,543.44,655.47,546.68,655.47,546.68z"/>
			<path class="st13" d="M690.08,521.67c0,0-4.27,20.16,15.35,33.55c5.15-9.12,7.43-14.57,7.43-14.57l-12.05-21.81
				C691.17,517.41,690.08,521.67,690.08,521.67z"/>
			<path class="st12" d="M716.53,552.8c0,0-36.88-20.09-24.01-42.86c12.87-22.77,16.77-40.7,40.86-28.84
				c24.09,11.86,23.72,23.12,21.27,31.76C752.2,521.5,726.45,557.44,716.53,552.8z"/>
			<path class="st14" d="M692.64,464.59c-0.2-0.57-0.92-1.25-2.77-2.08c0,0,1.88-0.38,3.93,0.35c1.43-2.52,4.66-6.71,9.63-6.11
				c0,0-2.94,0.38-4.36,3.1c7.36-3.45,20.14-3.09,50.3,11.43c39.75,19.14,15.93,40.59,9.39,41.71
				c-6.54,1.13-16.54-12.75-26.74-15.78c-10.2-3.03-17.69,10.77-21.82,11.47c-4.13,0.7-1.45-2.32-5.18-6.16
				c-3.74-3.84-7.12,3.64-7.73,9.11c-0.61,5.48-9.38,9.62-9.38,9.62s0,0-3.64-9.33c-3.64-9.33,1.7-40.84,6.97-45.96
				C691.7,465.51,692.17,465.05,692.64,464.59z"/>
		</g>
		<path class="st8" d="M472.45,960.76c0,0-8.58,13.02-10.57,17.24c-2,4.22,1.92,13.2,7.8,14.55c5.19,1.19,5.96,10.39,5.96,10.39
			h-25.15c-2.66,0-5.06-1.47-6.09-3.72c-3.55-7.81-4.36-17.96-5.07-21.35c-1.5-7.14-4.47-13.13-3.16-20.4
			c1.31-7.25,13.69-11.44,36.28-11.37C497.26,946.17,472.45,960.76,472.45,960.76z"/>
		<path class="st8" d="M546.39,803.78c18.97,20.1,158.23-21.48,146.55-32.07c-2.97-2.69-1.95-5.92-3.16-10.26
			c-5.78-20.56,5.72-55.73,10.66-69.37c1.15-3.16,1.94-5.16,2.09-5.56c4.71-12.73,8.35-25.98,10.73-38.78
			c4.59-24.57,4.51-47.42-1.77-61.42c-0.04-0.07-0.05-0.14-0.1-0.19c-26.09-7.62-40.45-46-40.45-46s-82.64,23.47-112.64,141.4
			c0,0-1.55,7.52-3.46,18.8h-0.01c-0.58,3.46-1.2,7.28-1.82,11.35c-3.2,20.98-5.06,47.89-6.96,67.93c-0.07,0.69-0.14,1.4-0.21,2.13
			C544.89,790.36,543.24,800.44,546.39,803.78z"/>
		<path class="st6" d="M656.05,783.84c0,0-13.88,1.83-41.88,3.89c-29.01,2.15-59.77,6.72-64.77,16.47
			c-1.66,3.23-0.5,11.4,2.73,22.68c7.15,24.95,24.5,65.12,44.3,100.74c-50.86,2.94-120.06,14.17-120.06,14.17
			c-11.32,12.8-6.58,27.78-6.58,27.78c3.63,0.03,14.54,1.57,29.44,3.97c53.97,8.69,119.69,26.55,160.45,26.55
			c8.91,0,15.58-6.33,18.3-14.6v-0.01C694.72,934.51,656.05,783.84,656.05,783.84z"/>
		<path class="st7" d="M552.13,830.67c28.07-0.89,98.49-35.45,97.34-35.73c-13.11-3.22-24.84-5.46-35.3-6.87
			c-29.01,2.34-59.77,7.32-64.77,17.92C547.74,809.5,548.9,818.39,552.13,830.67z"/>
		<path class="st15" d="M642.28,620.69c0,0,1.63,127.73,47.5,140.76c-5.78-20.56,5.72-55.73,10.66-69.37
			C688.62,659.23,666.85,626.1,642.28,620.69z"/>
		<path class="st6" d="M657.08,545.86c0,0,35.33,7.35,38.78,38.31c2.51,22.55-22.14,73.6-22.14,73.6l-4.69-4.69
			c0,0,21.64-63.03,18.31-73.76c-4.27-13.75-24.58-34.32-43.26-26.1L657.08,545.86z"/>
		<path class="st6" d="M546.39,803.78c18.97,20.1,161.23-21.04,149.55-31.63c-2.97-2.69-4.95-6.36-6.16-10.7
			c-5.78-20.56,5.72-55.73,10.66-69.37c1.15-3.16,1.94-5.16,2.09-5.56l-7.19-7.18l-26.32-26.27c0,0-7.78,8.83-22.5,18.85
			c-19.29,13.15-50.48,28.33-91.68,28.39h-0.01c-0.58,3.46-1.2,7.28-1.82,11.35c-3.2,20.98-5.06,47.89-6.96,67.93
			c-0.07,0.69-0.14,1.4-0.21,2.13C544.89,790.36,543.24,800.44,546.39,803.78z"/>
		<path class="st7" d="M646.52,671.92c5.26,37.13,17.03,82.08,43.26,89.53c-5.78-20.56,5.72-55.73,10.66-69.37
			c-1.54-4.26-3.24-8.53-5.09-12.74l-26.32-26.27C669.02,653.07,661.24,661.9,646.52,671.92z"/>
		<path class="st12" d="M861.54,755.92c-8.59,0-24.61-7.84-26.06-7.98c-12.25-1.17-0.44-13.23-0.44-13.23s19.25-4.23,22.48-3.98
			c1.06,0.08,2.81,0.44,4.7,0.9l-2.07,4.94c0,0,13.42,2.04,13.59,5.77C873.93,746.08,865.77,755.92,861.54,755.92z"/>
		<path class="st8" d="M838.83,740.68c2.95-8.53-1.16-11.2-1.16-11.2s-84.08-39.88-90.96-44.27c-6.88-4.39-53.1-88.58-53.1-88.58
			s-17.14-34.43-38.96-33.73c-18.97,0.6-29.51,12.42-35.35,24.82c-6.97,14.77-4.03,32.32,7.19,44.19
			c25.18,26.64,75.74,79.4,88.84,87.41c29.16,17.82,116.52,32.24,116.52,32.24S836.51,747.38,838.83,740.68z"/>
	</g>
	<path class="st0" d="M1555.23,1001.15v8.03H409.37c-1.38,0-2.51-1.13-2.51-2.51v-3.01c0-1.38,1.13-2.51,2.51-2.51H1555.23z"/>
	<g>
		<path class="st9" d="M981.36,946.05c-7.03,31.56-30.95,56.78-53.43,56.34c-22.48-0.44-35-26.39-27.97-57.95
			c7.03-31.56,30.95-56.78,53.43-56.34C975.87,888.55,988.39,914.49,981.36,946.05z"/>
		<path class="st8" d="M976.31,944.89c-7.03,31.56-30.95,56.78-53.43,56.34c-22.48-0.44-35-26.39-27.97-57.95
			c7.03-31.56,30.95-56.78,53.43-56.34C970.82,887.38,983.34,913.33,976.31,944.89z"/>
		<g>
			<path class="st9" d="M971.9,925.13c-0.7-8.22-3.19-15.48-7.34-20.88c-0.06-0.08-0.11-0.16-0.18-0.23
				c-2.98-3.8-6.64-6.47-10.8-7.92c-1.79-0.62-3.68-1.03-5.64-1.19c-0.55-0.05-1.1-0.08-1.66-0.09
				c-17.71-0.38-36.51,17.89-44.13,41.8c-0.68,2.13-1.28,4.3-1.77,6.52c-3.57,16.06-1.31,31.24,6.06,40.62
				c4.62,5.88,10.88,9.06,18.1,9.21c0.16,0.01,0.33,0.01,0.5,0.01c11.34,0,23.09-7.56,32.02-19.3c2.81-3.69,5.34-7.8,7.5-12.22
				c1.61-3.29,3-6.77,4.15-10.37c0.67-2.11,1.26-4.25,1.74-6.44C971.95,937.86,972.42,931.23,971.9,925.13z M969.87,944.51
				c-0.34,1.53-0.73,3.05-1.16,4.54c-1.11,3.83-2.51,7.53-4.15,11.04c-2.14,4.59-4.69,8.85-7.54,12.68
				c-8.87,11.91-20.63,19.61-31.97,19.61c-0.16,0-0.33,0-0.5-0.01c-7.03-0.14-13.14-3.24-17.65-8.98
				c-7.26-9.25-9.49-24.25-5.95-40.13c0.35-1.57,0.75-3.12,1.19-4.64c7.08-24.33,25.86-43.23,43.63-43.23c0.17,0,0.33,0.01,0.5,0.01
				c0.56,0.01,1.12,0.04,1.67,0.09c1.97,0.18,3.87,0.59,5.66,1.24c3.96,1.43,7.46,4.01,10.31,7.64c0.22,0.28,0.43,0.56,0.64,0.85
				c3.8,5.23,6.09,12.12,6.76,19.9C971.84,931.19,971.38,937.77,969.87,944.51z"/>
		</g>
	</g>
</g>
</svg>
